<svg xmlns="http://www.w3.org/2000/svg" viewBox="0 0 231.95 356.76"><defs><style>.cls-1{fill:#00a1ad;}.cls-2{fill:#1d2bcb;}.cls-3{fill:#070c9e;}.cls-4{fill:#af1cb2;}.cls-5{fill:#8329bf;}.cls-6{fill:#b9a28c;}.cls-7{fill:#03bbc7;}.cls-8{fill:#073b49;}.cls-9{fill:#a88c7b;}</style></defs><title>floater2</title><g id="Layer_2" data-name="Layer 2"><g id="Ñëîé_1" data-name="Ñëîé 1"><path class="cls-1" d="M119.12,40.53a16.59,16.59,0,0,1,.39,6l-.13,2.32c-.09,1.48-.17,3-.26,4.45a38.24,38.24,0,0,0-6.24,0h0a21.27,21.27,0,0,0-2.52.38,10.32,10.32,0,0,1,1.5-5.31c1.64-2.64,4.46-4.29,6.42-6.7A10.11,10.11,0,0,0,119.12,40.53Z"/><path class="cls-2" d="M112.78,22.15a15,15,0,0,0-2,4,4.39,4.39,0,0,0-.52-.13,16.54,16.54,0,0,0-1.86-.37c.78-2,1.54-3.95,2.31-5.93l.59-1.5a11.52,11.52,0,0,1,2-3.68c.09-.09.17-.18.26-.26a9.38,9.38,0,0,1,2.51-1.64,6.26,6.26,0,0,0-.1,4.18,6.63,6.63,0,0,0,1,1.64,13.85,13.85,0,0,0,8.77,5,18.93,18.93,0,0,1-1.31,1.38c-1.36,1.32-3.1,2.52-5,2.39l-.29,0c-1.76-.24-3.21-1.58-4.46-2.88C114.09,23.63,113.42,22.9,112.78,22.15Z"/><path class="cls-3" d="M130.58,8.82c-.07-.32-.15-.63-.25-.94q2.43-.5,4.89-.75a3.35,3.35,0,0,1,1.34.06A3.09,3.09,0,0,1,138,8.58a17.32,17.32,0,0,1,2.41,6.27c.2,1.16.21,2.53-.68,3.31a2.62,2.62,0,0,1-2.41.4A6.62,6.62,0,0,1,136,18c-1.18-.63-2.37-1.5-3.71-1.43-2.08.13-3.29,2.32-4.37,4.09a21.71,21.71,0,0,1-2.07,2.82,13.85,13.85,0,0,1-8.77-5,6.63,6.63,0,0,1-1-1.64,6.26,6.26,0,0,1,.1-4.18c.32-.16.64-.3,1-.44A65.31,65.31,0,0,1,129.75,8C130,8.26,130.31,8.54,130.58,8.82Z"/><path class="cls-4" d="M112,31.75a1.77,1.77,0,0,1-.38,1.8c-.94.87-3,.57-4.11-.18a2.47,2.47,0,0,1-1.08-1.27,1.9,1.9,0,0,1,.78-1.81C108.7,29.09,111.59,29.83,112,31.75Z"/><path class="cls-5" d="M110.82,26.15a6.47,6.47,0,0,1,4.76,7.28,7,7,0,0,1-.25,1,5.75,5.75,0,0,1-6,3.81,5.46,5.46,0,0,1-1-.22,12.21,12.21,0,0,1-3.07-1.67,6,6,0,0,1-2.83-6.3A5.12,5.12,0,0,1,107,25.59a7.26,7.26,0,0,1,1.4.06,16.54,16.54,0,0,1,1.86.37A4.39,4.39,0,0,1,110.82,26.15Zm.82,7.4a1.77,1.77,0,0,0,.38-1.8c-.43-1.92-3.32-2.66-4.79-1.46a1.9,1.9,0,0,0-.78,1.81,2.47,2.47,0,0,0,1.08,1.27C108.61,34.12,110.7,34.42,111.64,33.55Z"/><path class="cls-6" d="M116.1,12.64a9.38,9.38,0,0,0-2.51,1.64,9.87,9.87,0,0,1,3.19-6.47c2.37-2,5.59-2.61,8.82-2.75h0a11.14,11.14,0,0,1,1.12.61,18.45,18.45,0,0,1,3,2.34,65.31,65.31,0,0,0-12.69,4.19C116.74,12.34,116.42,12.48,116.1,12.64Z"/><path class="cls-7" d="M119.23,27.23a13,13,0,0,1,1.67,8.15c-1.71-.57-3.4-1.23-5.06-1.9l-.26,0a6.47,6.47,0,0,0-4.76-7.28,15,15,0,0,1,2-4c.64.75,1.31,1.48,2,2.2C116,25.65,117.47,27,119.23,27.23Z"/><path class="cls-6" d="M210.35,19.27l-.11-.09a30.78,30.78,0,0,0-6.19-3.71c2.29-2.39,4.69-4.68,7.16-6.89a21.91,21.91,0,0,1,4.58-3.39,18.56,18.56,0,0,1,5.64-1.62h0l2.42.43A61.61,61.61,0,0,1,232,5.86a46.91,46.91,0,0,1-8.79,7.1,3.56,3.56,0,0,1,3.4.67c-2.75,2.4-6.52,3.21-9.63,5.12A19.62,19.62,0,0,0,213,22,17.35,17.35,0,0,0,210.35,19.27Z"/><path class="cls-3" d="M190.46,187.49c-.59.7-1.17,1.38-1.75,2.08h0l-19.31,16.17-5.14,4.31c-5.89,4.93-11.9,10-15.58,16.75a38.08,38.08,0,0,0-2.7,6.35l-.19-.17a42.82,42.82,0,0,0-5.43-4c1.74-2.58,3.18-5.48,4.76-8.38,1.65-3.05,3.25-6.12,4.85-9.21,2.15-4.17,4.29-8.36,6.55-12.48q2.09-3.81,4.35-7.53c1-1.66,2.06-3.3,3.14-4.9h0a82.29,82.29,0,0,1,15.31-17.45c.36-.31.73-.61,1.11-.91a43.21,43.21,0,0,0,5.59-5l2.26-.75,5.27-1.76a15.2,15.2,0,0,0,3.8-1.67,5.14,5.14,0,0,0,2.29-3.33,3.31,3.31,0,0,0-.12-1.4l.39,0a5.81,5.81,0,0,0-1.58-3.32c-2.28-2.28-6-1.88-9.18-1.21l-1.69.38c-5.27,1.2-10.45,2.71-15.58,4.39-12.58,4.14-24.85,9.34-37.38,13.69a76.67,76.67,0,0,1-12,3.35,17.2,17.2,0,0,1-3.74-1.68,12.92,12.92,0,0,1-5.43-6.21,12.84,12.84,0,0,1-2.27-4.39,20.1,20.1,0,0,1,4.07-9.45h0c9.8-5.92,21.83-8.45,32.71-11.14,4.87-1.21,9.77-2.32,14.69-3.23a141.38,141.38,0,0,1,26.19-2.69c6,0,12.29.56,17.34,3.79,3.64,2.32,5.75,5.63,7.51,9.45s.23,7.42-1.25,11.09c-3.39,8.4-9.3,15.52-15.08,22.38Z"/><path class="cls-4" d="M158.87,66.55c2.75-4.71,6.85-8.54,11-12.07,13-10.92,29.47-21.92,40.45-35.21A17.35,17.35,0,0,1,213,22a64.15,64.15,0,0,0-4.53,5.45q-4.2,5.43-8.73,10.58c-11.48,13.08-26.92,27-43.56,32.67a8,8,0,0,1,1.94-3.41A8.31,8.31,0,0,1,158.87,66.55Z"/><path class="cls-5" d="M134.92,64.1c-.16-3.53-.32-7-.49-10.58l7.88-.2a63.59,63.59,0,0,0,8.82-.63c9.27-1.54,17.32-7,25-12.39A134,134,0,0,0,190.4,29.47c4-3.68,9.67-9.91,13.47-13.83l.18-.17a30.78,30.78,0,0,1,6.19,3.71l.11.09c-11,13.29-27.49,24.29-40.45,35.21-4.18,3.53-8.28,7.36-11,12.07a8.31,8.31,0,0,0-.75.71,8,8,0,0,0-1.94,3.41,5.53,5.53,0,0,0-.08,2.62c.56,2.57,2.91,4.26,4.62,6.26a14.24,14.24,0,0,1,2.9,12.55c-.46,1.8-1.27,3.49-1.8,5.26-.12.4-.23.81-.31,1.21a8.06,8.06,0,0,1-6.33.62c-.87-.33-1.65-.86-2.5-1.26-3.68-1.73-8.11-.68-11.65,1.31s-6.53,4.85-9.92,7.08a42.9,42.9,0,0,1-9.85,4.65c-.71-4.38-2.55-8.69-4.42-12.78,0-.09-.08-.17-.11-.26s0,0,0,0a3.85,3.85,0,0,1,0-.48,27.43,27.43,0,0,1,.66-4.3,15.88,15.88,0,0,0-.94-9.52,9.8,9.8,0,0,0-7.35-5.71c-3.74-.46-7.22,1.69-10.67,3.22A68.83,68.83,0,0,1,89.9,84a188.17,188.17,0,0,1-24.49,5.33c-7.61,1.07-21.67,1.06-29.08-1-2.81-.77-7.64-1.83-10-3.57a23.13,23.13,0,0,1-2-1.7A20.91,20.91,0,0,0,28,75.08a.76.76,0,0,0,.09.09C32.9,79.25,42.29,81.34,51,81.71a50.6,50.6,0,0,0,13.78-1.06A68.88,68.88,0,0,0,87.16,69.94a61.27,61.27,0,0,0,5.42-4.34c1.3-1.18,2.61-2.4,3.94-3.6,3.85-3.47,7.9-6.72,12.84-8l1-.23a21.27,21.27,0,0,1,2.52-.38h0a38.24,38.24,0,0,1,6.24,0c-.06,1.09-.12,2.18-.19,3.27.39.39.81.75,1.21,1.1a28,28,0,0,0,5.12,3.76,22.07,22.07,0,0,0,4.53,1.63A34.66,34.66,0,0,0,134.92,64.1Z"/><path class="cls-2" d="M199.52,154.22a3.31,3.31,0,0,1,.12,1.4,5.14,5.14,0,0,1-2.29,3.33,15.2,15.2,0,0,1-3.8,1.67l-5.27,1.76-2.26.75a15.91,15.91,0,0,0,1.49-2,12.79,12.79,0,0,0,.72-1.31,11.15,11.15,0,0,0,1-4.06,7.3,7.3,0,0,0-1.69-5.29l-.1-.47,1.69-.38c3.15-.67,6.9-1.07,9.18,1.21a5.81,5.81,0,0,1,1.58,3.32Z"/><path class="cls-3" d="M181.34,313.73a43.62,43.62,0,0,1-6.46-1.72,21.9,21.9,0,0,1-3.47-1.55l-.5-.3c.63-3.16,1.13-6.35,1.55-9.56,2.23-8.54,6.7-16.48,10.39-24.58a149.13,149.13,0,0,0,13-70.69,101.83,101.83,0,0,1,2.47,25.86c-.57,15.07-4.6,29.82-7.34,44.63q-3.54,19.15-6.54,38.39C183.42,314.09,182.37,313.93,181.34,313.73Z"/><path class="cls-2" d="M195.88,205.33a149.13,149.13,0,0,1-13,70.69c-3.69,8.1-8.16,16-10.39,24.58.6-4.4,1-8.83,1.5-13.25q1.39-13.68,2.8-27.34.7-7,1.42-13.91c.37-3.63,1.63-6.92,1.73-10.58.27-9.13-3.73-17.69-8.2-25.78l17-20.16h0l1.93-1.62a124.39,124.39,0,0,1,5.23,17.33A.09.09,0,0,0,195.88,205.33Z"/><path class="cls-2" d="M187.56,150.5a7.3,7.3,0,0,1,1.69,5.29c-1.69.37-3.38.8-5,1.29a6.93,6.93,0,0,0-1.82,0c.54.27,1.22-.06,1.82,0-1.58.48-6,2.07-8.84,3.09l-.12-.19c.33-.18.85-.18,1-.53l-1,.53q-1.49-2.25-3-4.47l-.35-1.09c5.13-1.68,10.31-3.19,15.58-4.39Z"/><path class="cls-2" d="M188.7,189.58l-17,20.16c-.69-1.25-1.39-2.49-2.09-3.72l-.23-.27Z"/><path class="cls-8" d="M188.08,353.71c.31,1,.64,2.05,1,3.05a20.1,20.1,0,0,1-8.78-3c-5.71-3.95-7.43-11.68-12.2-16.74-1.75-1.85-3.87-3.32-5.62-5.17s-3.15-4.28-2.91-6.82c.32-3.43,3.42-5.84,6.22-7.86.24-.18.48-.36.7-.54a16.21,16.21,0,0,1,3.55,3.75c2.35,3.46,3.56,7.54,4.84,11.53s2.72,8,5.42,11.22a14.65,14.65,0,0,0,3.06,2.71A34.17,34.17,0,0,0,188.08,353.71Z"/><path class="cls-6" d="M170.53,312c.32-.51.61-1,.88-1.54a21.9,21.9,0,0,0,3.47,1.55,43.62,43.62,0,0,0,6.46,1.72,68.07,68.07,0,0,0-.91,21.53,41.34,41.34,0,0,0,2.93,10.56,14.65,14.65,0,0,1-3.06-2.71c-2.7-3.2-4.14-7.24-5.42-11.22s-2.49-8.07-4.84-11.53a16.21,16.21,0,0,0-3.55-3.75,18.05,18.05,0,0,0,4-4.58h0Z"/><path class="cls-3" d="M180.43,168.16c-.38.3-.75.6-1.11.91A82.29,82.29,0,0,0,164,186.52h0c-1.08,1.6-2.12,3.24-3.14,4.9l-1.07-1.6q-6.37-9.39-13.16-18.49c9.41-2.07,18.52-6.06,27.15-10.59h0l1.57-.57Q178,164.1,180.43,168.16Z"/><path class="cls-2" d="M146.63,171.34a59.17,59.17,0,0,1-16.74,1.41,30,30,0,0,1-7.35-1.29,76.67,76.67,0,0,0,12-3.35c12.53-4.35,24.8-9.55,37.38-13.69l.35,1.09q1.53,2.22,3,4.47l-1.45.76h0C165.15,165.28,156,169.27,146.63,171.34Z"/><path class="cls-2" d="M148.11,235.27a20.31,20.31,0,0,0-2.14-2.11,38.08,38.08,0,0,1,2.7-6.35c3.68-6.73,9.69-11.82,15.58-16.75l5.14-4.31.23.27c.7,1.23,1.4,2.47,2.09,3.72q-3,3.57-6,7.13c-5.74,6.82-11.58,13.8-15.51,21.72a9.85,9.85,0,0,0-.65-1.35A12.14,12.14,0,0,0,148.11,235.27Z"/><path class="cls-5" d="M159.06,126.13c.38,3.28,2.11,6.22,3.52,9.23-4.92.91-9.82,2-14.69,3.23-10.88,2.69-22.91,5.22-32.71,11.14a15.8,15.8,0,0,1,1.39-1.56c2.79-2.8,6.35-4.69,9.86-6.54l14.63-7.71c2.2-1.17,4.59-2.51,5.51-4.83a5.36,5.36,0,0,0-.51-4.93c-.4-.61-.94-1.14-1.33-1.77-1.32-2.1-.77-5,.66-7a19.36,19.36,0,0,1,5.65-4.74,76.63,76.63,0,0,0,9.75-7c0,.18,0,.36,0,.54q-.78,8.55-1.57,17.11A23,23,0,0,0,159.06,126.13Z"/><path class="cls-4" d="M115.17,149.73a20.1,20.1,0,0,0-4.07,9.45c-.08-.25-.15-.51-.21-.76a33.74,33.74,0,0,1-.59-9.09,40.75,40.75,0,0,1,1.07-9.81c2.13-7.7,8.6-13.81,9.94-21.68a20.31,20.31,0,0,0,0-6.87,42.9,42.9,0,0,0,9.85-4.65c3.39-2.23,6.37-5.09,9.92-7.08s8-3,11.65-1.31c.85.4,1.63.93,2.5,1.26a8.06,8.06,0,0,0,6.33-.62,39.41,39.41,0,0,0-.72,5.07,76.63,76.63,0,0,1-9.75,7,19.36,19.36,0,0,0-5.65,4.74c-1.43,2-2,4.87-.66,7,.39.63.93,1.16,1.33,1.77a5.36,5.36,0,0,1,.51,4.93c-.92,2.32-3.31,3.66-5.51,4.83l-14.63,7.71c-3.51,1.85-7.07,3.74-9.86,6.54a15.8,15.8,0,0,0-1.39,1.56Z"/><path class="cls-6" d="M146,233.16a20.31,20.31,0,0,1,2.14,2.11c-3.28,7.19-6,14.72-6.7,22.57a41.34,41.34,0,0,0,.37,10.94,14.47,14.47,0,0,1-2.34-3.34c-1.88-3.73-2.34-8-2.65-12.18s-.55-8.43-2-12.33a16.33,16.33,0,0,0-2.58-4.49,20.17,20.17,0,0,0,8.17-7.41,42.82,42.82,0,0,1,5.43,4Z"/><path class="cls-8" d="M144.55,277.58c.06,1.06.14,2.13.25,3.19a20.18,20.18,0,0,1-7.83-5c-4.63-5.18-4.5-13.09-8-19.12-1.27-2.21-3-4.13-4.26-6.34s-2.07-4.89-1.25-7.3c1.12-3.27,4.7-4.89,7.88-6.21.28-.12.55-.24.81-.37a16.33,16.33,0,0,1,2.58,4.49c1.48,3.9,1.71,8.16,2,12.33s.77,8.45,2.65,12.18a14.47,14.47,0,0,0,2.34,3.34h0A34,34,0,0,0,144.55,277.58Z"/><path class="cls-6" d="M125.82,23.49a21.71,21.71,0,0,0,2.07-2.82c1.08-1.77,2.29-4,4.37-4.09,1.34-.07,2.53.8,3.71,1.43a6.62,6.62,0,0,0,1.38.55c.48.89.91,1.75,1.3,2.59,1.3,2.77,3.76,6.83,2.9,10.06-.51,1.91-2.06,3.45-3.54,5h0a22.3,22.3,0,0,1-6.38,1.09,31.58,31.58,0,0,1-10.72-1.94,13,13,0,0,0-1.67-8.15l.29,0c1.89.13,3.63-1.07,5-2.39A18.93,18.93,0,0,0,125.82,23.49Z"/><path class="cls-9" d="M131.62,37.32A22.3,22.3,0,0,0,138,36.23a16,16,0,0,0-2.43,3,9.6,9.6,0,0,0-.73,1.68c-4.9.45-10-.81-14.84-2.13a12.51,12.51,0,0,0,.9-3.42A31.58,31.58,0,0,0,131.62,37.32Z"/><path class="cls-6" d="M134.43,53.52c.17,3.53.33,7,.49,10.58a34.66,34.66,0,0,1-5.13-1,22.07,22.07,0,0,1-4.53-1.63,28,28,0,0,1-5.12-3.76c-.4-.35-.82-.71-1.21-1.1.07-1.09.13-2.18.19-3.27.09-1.48.17-3,.26-4.45l.13-2.32a16.59,16.59,0,0,0-.39-6A10.82,10.82,0,0,0,120,38.8c4.84,1.32,9.94,2.58,14.84,2.13a22.38,22.38,0,0,0-.62,7.89C134.3,50.39,134.37,52,134.43,53.52Z"/><path class="cls-7" d="M110.75,19.72c-.77,2-1.53,4-2.31,5.93a7.26,7.26,0,0,0-1.4-.06A5.12,5.12,0,0,0,102.49,30a6,6,0,0,0,2.83,6.3A12.21,12.21,0,0,0,108.39,38a14.67,14.67,0,0,1-8.06,6.11c-3.06.91-6.3.79-9.46,1.13s-6.5,1.26-8.54,3.71c-1.65,2-2.2,4.58-3.13,7A22.33,22.33,0,0,1,61,69.68c-3.88.37-7.92-.27-11.83-.44.86-1.34,3-2.64,3.24-4a5.24,5.24,0,0,0-1-4.6c-1.47-1.55-3.94-1.48-5.86-2.4-2.61-1.27-3.89-4.2-5-6.89a8.21,8.21,0,0,1-.79-3.08c0-2,1.41-3.67,2.87-5,7.14-6.54,17.52-9,27.09-7.42a62.92,62.92,0,0,0,7.8,1.23,17.78,17.78,0,0,0,10-2.66c1.38-.86,2.77-2.5,2-3.92-.64-1.17-2.31-1.22-3.42-2a4.06,4.06,0,0,1-1.39-4.22,11.63,11.63,0,0,1,2.13-4.15A62.67,62.67,0,0,1,96,9c6.34-5.71,27.35-14.77,33.22-3.93a9.63,9.63,0,0,1,.62,1.38c.18.46.33,1,.47,1.43l-.58.13a18.45,18.45,0,0,0-3-2.34,11.14,11.14,0,0,0-1.12-.61h0c-3.23.14-6.45.77-8.82,2.75a9.87,9.87,0,0,0-3.19,6.47c-.09.08-.17.17-.26.26a11.52,11.52,0,0,0-2,3.68Z"/><path class="cls-1" d="M120.9,35.38a12.51,12.51,0,0,1-.9,3.42,10.82,10.82,0,0,1-.88,1.73,10.11,10.11,0,0,1-.85,1.18c-2,2.41-4.78,4.06-6.42,6.7a10.32,10.32,0,0,0-1.5,5.31l-1,.23c-4.94,1.33-9,4.58-12.84,8-1.33,1.2-2.64,2.42-3.94,3.6a61.27,61.27,0,0,1-5.42,4.34A68.88,68.88,0,0,1,64.81,80.65,50.6,50.6,0,0,1,51,81.71a14.2,14.2,0,0,1-2.21-11.83,2.31,2.31,0,0,1,.3-.64c3.91.17,8,.81,11.83.44A22.33,22.33,0,0,0,79.2,55.89c.93-2.39,1.48-5,3.13-7,2-2.45,5.37-3.38,8.54-3.71s6.4-.22,9.46-1.13A14.67,14.67,0,0,0,108.39,38a5.46,5.46,0,0,0,1,.22,5.75,5.75,0,0,0,6-3.81,7,7,0,0,0,.25-1l.26,0C117.5,34.15,119.19,34.81,120.9,35.38Z"/><path class="cls-4" d="M116.43,83.62a15.88,15.88,0,0,1,.94,9.52,27.43,27.43,0,0,0-.66,4.3,3.85,3.85,0,0,0,0,.48c-2-4.24-5.06-10-9.77-11.46a11.54,11.54,0,0,0-6.19.18c-2.66.64-5.17,1.9-7.81,2.49s-5.13,1-7.69,1.62a163.17,163.17,0,0,1-20,3.29c-9.28.9-25.15.1-33.51-4-2.61-1.28-6.82-2.87-9.5-4.48a21.74,21.74,0,0,0,2.1-2.4,23.13,23.13,0,0,0,2,1.7c2.34,1.74,7.17,2.8,10,3.57,7.41,2,21.47,2,29.08,1A188.17,188.17,0,0,0,89.9,84a68.83,68.83,0,0,0,8.51-2.91c3.45-1.53,6.93-3.68,10.67-3.22A9.8,9.8,0,0,1,116.43,83.62Z"/><path class="cls-6" d="M24.32,83.15a21.74,21.74,0,0,1-2.1,2.4l-.6-.39C14.68,80.49,7.78,75.62,0,72.55,2.47,68.68,7.52,67.49,12.08,67a16.24,16.24,0,0,1,4.67,0c4.62.85,7.7,5.06,11.27,8.12A20.91,20.91,0,0,1,24.32,83.15Z"/></g></g></svg>