<svg xmlns="http://www.w3.org/2000/svg" viewBox="0 0 152.63 321.91"><defs><style>.cls-1{fill:#00aeba;}.cls-2{fill:#c6af99;}.cls-3{fill:#4128b9;}.cls-4{fill:#ac957f;}.cls-5{fill:#a20fa5;}.cls-6{fill:#910fa5;}.cls-7{fill:#0094a0;}.cls-8{fill:#270e9f;}.cls-9{fill:#1d1d1d;}.cls-10{fill:#b59988;}.cls-11{fill:#a61d57;}.cls-12{fill:#c03771;}.cls-13,.cls-14{fill:none;stroke-linecap:round;stroke-linejoin:round;}.cls-13{stroke:#745147;stroke-width:0.51px;}.cls-14{stroke:#af1b64;stroke-width:0.57px;}.cls-15{fill:#2669d8;}.cls-16{fill:#0028bd;}.cls-17{fill:#d85e98;}</style></defs><title>Asset 25</title><g id="Layer_2" data-name="Layer 2"><g id="Ñëîé_1" data-name="Ñëîé 1"><path class="cls-1" d="M46.5,135.94a3.46,3.46,0,0,0,1,1.22,7.51,7.51,0,0,1-.65-1.73ZM.65,135.69a7.64,7.64,0,0,1-.56-1,12.33,12.33,0,0,1,3.53-6.79,23.35,23.35,0,0,1,6.72-4.44c13.23-6.31,27.21-8.66,40.16-6.92,0,.85,0,1.69.1,2.55a10.7,10.7,0,0,0-2.41,4.31c-.74,3,.61,6.2,2.62,8.55a26,26,0,0,0,3.73,3.45,37.88,37.88,0,0,0,9.58,14c2.42,2.08,5.19,3.83,6.73,6.88,2.58,5.06,1.09,12.13,1.39,18.35a35.22,35.22,0,0,0,2.25,10.7c-2.17,12.66-4.44,25.23-6.27,37.84v0c-2.73,7.07-5.84,14.07-7.74,21.36-1.51,5.91-2.22,11.9-3.67,17.83a94.45,94.45,0,0,1-4.76,14.08c-1.43-24.84-1.89-50.66,1.18-76.16.13-1,.25-2,.38-3,.5-3.95,1-7.88,1.22-11.81.25-5.15.29-10.26.25-15.37-.06-5.38-.33-10.89-2.44-15.32-2.23-4.71-6.28-7.7-10.45-10.07-5-2.86-10.25-5.18-16.12-5.85a21.66,21.66,0,0,0-4.41,0c-1.56.15-3.16.4-4.73.65s-3.22.47-4.8.55C7.76,140.27,3.09,139.47.65,135.69Z"/><path class="cls-2" d="M16.48,1.58A14.57,14.57,0,0,0,13.67.36C13.37.28,12.51-.1,12.24,0s-.3,1.15-.26,1.51a27.28,27.28,0,0,0,1.6,6,17,17,0,0,1,.95,3c.12.95.15,1.94.25,2.91,0,.23,0,.52-.17.67s-.59-.09-.78-.32c-1.11-1.24-2.22-2.46-3.34-3.7a4,4,0,0,0,.38,3.26,39,39,0,0,0,3.24,5.82c1.05,1.54,2.21,3,3.17,4.59,4.21,6.93,7.26,14.78,12.15,21.4v0a8,8,0,0,0,1.66-1,3.26,3.26,0,0,0,.36-.29c2.61-2.25,3.81-5.85,6.22-8.35-.37-.36-.75-.74-1.11-1.11-4-4.21-8.24-8.43-11.16-13.52-2.71-4.71-2.27-10.32-4.77-15.1A10.58,10.58,0,0,0,16.48,1.58Z"/><path class="cls-3" d="M63.41,78.53a39.06,39.06,0,0,0,10,0,60.31,60.31,0,0,0,2.23-8c.65-2.84,1.3-5.68,1.83-8.56.06-.27.1-.55.15-.82a51,51,0,0,0-5.49-3.68C68,55.17,63.7,53.26,59.5,51.24a63.38,63.38,0,0,1-9.34-5A87,87,0,0,1,37.67,35.47c-2.41,2.5-3.61,6.1-6.22,8.35a44.5,44.5,0,0,0,4.46,4.33c4.77,4,10.2,7.19,15.39,10.61a80.63,80.63,0,0,1,7.48,5.53,43.61,43.61,0,0,1,3.39,3.14c1,1.11,2.16,2.12,2.39,3.72.32,2.1-.84,4.14-1.41,6.2-.1.36-.18.71-.25,1.07Z"/><path class="cls-2" d="M18.17,56.05c0,.65.12,2.61-1,2-.53-.32-.8-1.2-1.09-1.73C14.3,53,10.77,49.22,8.47,46a39.37,39.37,0,0,0-.75,8.24c.31,1,.65,2,.9,2.95.44,1.87,2.08,4.87,2.82,6.64s1.51,3.53,2.27,5.32A70.13,70.13,0,0,0,19,79a38.62,38.62,0,0,0,14.5,13.35c1,.52,1.94,1,2.92,1.47a16,16,0,0,0,.87-1.64A27.42,27.42,0,0,0,40,83c-.57-.23-1.16-.46-1.73-.73A31.78,31.78,0,0,1,30,77a45,45,0,0,1-6.1-5.86,16.31,16.31,0,0,1-2.56-5.85,14.59,14.59,0,0,1,0-5.51,12.17,12.17,0,0,0-1.39-6c-.21-.38-.53-.8-1-.76a1,1,0,0,0-.71.76A5.87,5.87,0,0,0,18.17,56.05Z"/><path class="cls-3" d="M88.78,80.67a24.67,24.67,0,0,0-9.88.9,95.53,95.53,0,0,1-15.24,3.58,61.75,61.75,0,0,1-8.37.59q-1.77,0-3.57-.15A41.6,41.6,0,0,1,40,83a27.42,27.42,0,0,1-2.71,9.19,16,16,0,0,1-.87,1.64c.91.42,1.85.84,2.78,1.22a72.51,72.51,0,0,0,17,4.48c1.68.23,3.36.42,5.06.54a69.14,69.14,0,0,0,22.25-1.76c3.34-.84,6.91-2.17,9.08-4.71a8.49,8.49,0,0,0,1.22-1.89,7.87,7.87,0,0,0,.73-3.37,8.2,8.2,0,0,0-1-3.89A8.07,8.07,0,0,0,88.78,80.67Z"/><path class="cls-4" d="M46.67,173.25A12.37,12.37,0,0,1,43,172h0c-.08-.06-.19-.1-.27-.17A26.14,26.14,0,0,0,37,178.72a26.75,26.75,0,0,1,2.8,3.11l.19-.31a5.15,5.15,0,0,1,0,.54,8.08,8.08,0,0,1-.09,1.2l.11.11c.23-.11.46-.23.69-.32s.5-.23.76-.33a3.73,3.73,0,0,0,1.87-1.16,5.61,5.61,0,0,0,.59-3,8,8,0,0,1,1.17-3.74A4.6,4.6,0,0,1,46.67,173.25Z"/><path class="cls-3" d="M46.82,135.43l-.32.51a3.46,3.46,0,0,0,1,1.22A7.51,7.51,0,0,1,46.82,135.43Z"/><path class="cls-5" d="M49.83,182.11a15.63,15.63,0,0,0,2.08-4.34,6,6,0,0,0,.21-1.64c-.11-2.2-1.83-3.19-3.89-3.25a2.91,2.91,0,0,0-1.56.37,4.6,4.6,0,0,0-1.62,1.58,8,8,0,0,0-1.17,3.74,5.61,5.61,0,0,1-.59,3,3.73,3.73,0,0,1-1.87,1.16c-.26.1-.51.21-.76.33s-.46.21-.69.32c0,0-.09,0-.13.08-.36,3.26-1.6,6.39-2.8,9.67a43,43,0,0,0-2.22,6.41,9.36,9.36,0,0,0-.19,2.78.74.74,0,0,0,.27.19,2.15,2.15,0,0,0,2.35-.53A9.5,9.5,0,0,0,39,199.64Q44.45,190.87,49.83,182.11Z"/><path class="cls-6" d="M52.48,116.85c-.66-.13-1.33-.23-2-.32,0,.85,0,1.69.1,2.55C51.21,118.32,51.87,117.61,52.48,116.85Z"/><path class="cls-3" d="M48.19,123.39c-.74,3,.61,6.2,2.62,8.55a26,26,0,0,0,3.73,3.45,1.61,1.61,0,0,1-.15-.33c-1.43-3.45-2.5-7.13-3.79-16A10.7,10.7,0,0,0,48.19,123.39Z"/><path class="cls-7" d="M39.25,150.59c4.69,2,9.76,4,12.22,8.94,1.85,3.68,1.91,8.43,2,13,0,1.13,0,2.25,0,3.36v.27c.07,7.07.11,14.09.17,21.15.5-3.95,1-7.88,1.22-11.81.25-5.15.29-10.26.25-15.37-.06-5.38-.33-10.89-2.44-15.32-2.23-4.71-6.28-7.7-10.45-10.07-5-2.86-10.25-5.18-16.12-5.85a21.66,21.66,0,0,0-4.41,0c-1.56.15-3.16.4-4.73.65s-3.22.47-4.8.55c-4.37.21-9-.59-11.48-4.37a7.64,7.64,0,0,1-.56-1,9,9,0,0,0-.09.92c-.06,3.11,1.66,5.47,3.28,7.55,4.08,5.23,7.65,10.93,12,15.89,4.49,5.11,9.37,9.76,14.23,14.38l6.81,6.5c.21-.42.42-.82.65-1.2a26.14,26.14,0,0,1,5.72-6.92.35.35,0,0,1,.1-.08c-5.8-8.58-10.17-18.67-16.18-26.93C30.76,146.87,35,148.83,39.25,150.59Z"/><path class="cls-3" d="M52.48,116.85c-.61.76-1.27,1.47-1.88,2.23,1.29,8.85,2.36,12.53,3.79,16a1.61,1.61,0,0,0,.15.33c1.09.89,2.22,1.73,3.32,2.61a20.45,20.45,0,0,1,4.52,4.94,13.66,13.66,0,0,0,4.14,4.33,12,12,0,0,0,7.63-3.66c-.42-.12-.84-.27-1.26-.42-4.35-1.51-8.52-3.74-11.59-7.42-1.59-1.93-2.79-5.61-3.46-9.5a36.64,36.64,0,0,1-.57-8.41c-.91-.23-1.81-.44-2.73-.63C53.86,117.08,53.17,117,52.48,116.85Z"/><path class="cls-8" d="M51.3,58.76c-5.19-3.42-10.62-6.58-15.39-10.61a44.5,44.5,0,0,1-4.46-4.33,3.26,3.26,0,0,1-.36.29,8,8,0,0,1-1.66,1C34.77,52.31,42.7,56.47,50.2,61a28.81,28.81,0,0,1,6.71,5,9.85,9.85,0,0,1,2.8,7.61c-.44,3.24-3,5.78-4,8.92a9.77,9.77,0,0,0-.42,3.28,61.75,61.75,0,0,0,8.37-.59,12.14,12.14,0,0,1-.76-6.73c.07-.36.15-.71.25-1.07.57-2.06,1.73-4.1,1.41-6.2-.23-1.6-1.34-2.61-2.39-3.72a43.61,43.61,0,0,0-3.39-3.14A80.63,80.63,0,0,0,51.3,58.76Z"/><path class="cls-4" d="M55.52,295.67a3.19,3.19,0,0,1,3.26.59A4.22,4.22,0,0,1,60,299.73a19.87,19.87,0,0,1,2.77-4.9s0,0,.05,0a6.79,6.79,0,0,1,1.49-1.3c-.38-.91-.84-1.77-1.26-2.65l.12-2.17-1-.17a15.31,15.31,0,0,0-7,.89,21.69,21.69,0,0,1-1,7.08A5.71,5.71,0,0,1,55.52,295.67Z"/><path class="cls-7" d="M56.81,262.33a94.45,94.45,0,0,1-4.76,14.08c.07,1.2.15,2.42.21,3.62.22,3.45.47,6.9.76,10.32a22.9,22.9,0,0,1,2.1-.94,15.31,15.31,0,0,1,7-.89l1,.17c.61-10.8,1.1-21.15,1.64-32.23s1.83-22.24,3.45-33.32c-2.73,7.07-5.84,14.07-7.74,21.36C59,250.41,58.26,256.4,56.81,262.33Z"/><path class="cls-5" d="M54.07,296.49A38.8,38.8,0,0,1,52,302c-2.23,4.75-5.09,9.21-7,14.1-.65,1.64-1.16,3.62-.36,4.86a2.52,2.52,0,0,0,3,.78c3.28-1.09,4.48-4,6.35-7.11a93.47,93.47,0,0,1,6.56-9.25c2-2.44,4.25-5.13,4.41-8.22a8.31,8.31,0,0,0-.73-3.63,6.79,6.79,0,0,0-1.49,1.3s0,0-.05,0a19.87,19.87,0,0,0-2.77,4.9,4.22,4.22,0,0,0-1.18-3.47,3.19,3.19,0,0,0-3.26-.59A5.71,5.71,0,0,0,54.07,296.49Z"/><path class="cls-8" d="M75.68,153a5.29,5.29,0,0,0,3.49,0,2.3,2.3,0,0,0,.32-.15c.29-2.69.48-5.4.59-8.07a25.61,25.61,0,0,1-5.93-1.14,12,12,0,0,1-7.63,3.66,52.07,52.07,0,0,0,6.75,4.63A11.07,11.07,0,0,0,75.68,153Z"/><path class="cls-9" d="M77.41,39.53a4.8,4.8,0,0,1,1.41.48c.08,0,.14.09.23.13a1.05,1.05,0,0,0,.08-.8A.9.9,0,0,0,78,38.73.88.88,0,0,0,77.41,39.53Z"/><path class="cls-7" d="M75.33,180.23c1.51-9.08,3.26-18.29,4.16-27.41a2.3,2.3,0,0,1-.32.15,5.29,5.29,0,0,1-3.49,0,11.07,11.07,0,0,1-2.41-1.07,52.07,52.07,0,0,1-6.75-4.63,13.66,13.66,0,0,1-4.14-4.33A20.45,20.45,0,0,0,57.86,138c-1.1-.88-2.23-1.72-3.32-2.61a37.88,37.88,0,0,0,9.58,14c2.42,2.08,5.19,3.83,6.73,6.88,2.58,5.06,1.09,12.13,1.39,18.35a35.22,35.22,0,0,0,2.25,10.7C74.78,183.6,75.05,181.92,75.33,180.23Z"/><path class="cls-2" d="M77,77.45a24.11,24.11,0,0,0,5.51-3.63,78.82,78.82,0,0,0,8.57-8.37c-.44-.76-.86-1.54-1.26-2.31A10.51,10.51,0,0,1,89.24,56a38.47,38.47,0,0,1-5.06,3.62A20.4,20.4,0,0,1,77.43,62c-.53,2.88-1.18,5.72-1.83,8.56a60.31,60.31,0,0,1-2.23,8A14.9,14.9,0,0,0,77,77.45Z"/><path class="cls-10" d="M87.73,55.08a32.36,32.36,0,0,1-9.59,2.28c-.14,1.28-.33,2.54-.56,3.82,0,.27-.09.55-.15.82a20.4,20.4,0,0,0,6.75-2.35A38.47,38.47,0,0,0,89.24,56c.17-.78.4-1.56.63-2.31A7.63,7.63,0,0,1,87.73,55.08Z"/><path class="cls-8" d="M55.78,107.73A171.61,171.61,0,0,0,81,102.79a22.74,22.74,0,0,0,7.57-3.22,11.8,11.8,0,0,0,4.1-6c-2.17,2.54-5.74,3.87-9.08,4.71a69.14,69.14,0,0,1-22.25,1.76c-1.7-.12-3.38-.31-5.06-.54A56.79,56.79,0,0,1,55.78,107.73Z"/><path class="cls-2" d="M79.05,40.14a1.05,1.05,0,0,0,.08-.8A.9.9,0,0,0,78,38.73a.88.88,0,0,0-.59.8,4.8,4.8,0,0,1,1.41.48C78.9,40,79,40.1,79.05,40.14Zm17.07,7.12a.1.1,0,0,1,0,.07,11.48,11.48,0,0,1-2.34,2.54c-1.36,1.2-2.5,2.69-3.87,3.85a7.63,7.63,0,0,1-2.14,1.36,32.36,32.36,0,0,1-9.59,2.28c-.56,0-1.11.06-1.66.08a8.88,8.88,0,0,1-2.67-.25,3.75,3.75,0,0,1-1.22-.55,3.4,3.4,0,0,1-.94-1,2.07,2.07,0,0,1,0-2.43A2.45,2.45,0,0,0,72.26,51a15.73,15.73,0,0,1-.53-2.49.86.86,0,0,1,0-.21c.09-1.09,1.18-2.2.8-3.34-.25-.76-1.34-.82-1.53-1.72s.8-1.6,1.22-2.25a18.91,18.91,0,0,0,2.46-5.7c.44-1.79.9-3.59,1.34-5.38,3,.44,6.14,1,8.75,2.56,2.12,1.31,4.14,3.77,4.14,6.39,0,1.48-1.79,5,1,5.18,1,0,1.74-1,2.65-1.48a2.93,2.93,0,0,1,4,1.31A3.85,3.85,0,0,1,96.12,47.26Z"/><path class="cls-3" d="M94,100.09a26.65,26.65,0,0,0,2.93-11.66l-2.3-.11a7.87,7.87,0,0,1-.73,3.37,8.49,8.49,0,0,1-1.22,1.89,11.8,11.8,0,0,1-4.1,6A22.74,22.74,0,0,1,81,102.79a171.61,171.61,0,0,1-25.18,4.94c-.45,3.38-.85,6-3,8.76l-.29.36c.69.11,1.38.23,2.06.38.92.19,1.82.4,2.73.63a36.64,36.64,0,0,0,.57,8.41c.67,3.89,1.87,7.57,3.46,9.5,3.07,3.68,7.24,5.91,11.59,7.42.42.15.84.3,1.26.42,6.85-7.08,7.13-22.49,11.42-30.29C88.34,109.16,91.18,104.26,94,100.09Z"/><path class="cls-3" d="M96.88,88.43a107.82,107.82,0,0,0-.49-12.53c-.21-.61-.42-1.22-.65-1.83a62.13,62.13,0,0,0-4.65-8.62,78.82,78.82,0,0,1-8.57,8.37A24.11,24.11,0,0,1,77,77.45a14.9,14.9,0,0,1-3.64,1.08,39.06,39.06,0,0,1-10,0l-.51-.11a12.14,12.14,0,0,0,.76,6.73A95.53,95.53,0,0,0,78.9,81.57a24.67,24.67,0,0,1,9.88-.9,8.07,8.07,0,0,1,4.82,3.76,8.2,8.2,0,0,1,1,3.89Z"/><path class="cls-8" d="M96.88,88.43A26.65,26.65,0,0,1,94,100.09c-2.77,4.17-5.61,9.07-8.38,13.23-4.29,7.8-4.57,23.21-11.42,30.29a25.61,25.61,0,0,0,5.93,1.14c-.11,2.67-.3,5.38-.59,8.07,2.46-1.22,3.05-4.56,3.55-7.34,1.83-10.38,7.51-21.92,11.52-32.88A84.87,84.87,0,0,0,98,101.21a48.72,48.72,0,0,0-1.6-25.31A107.82,107.82,0,0,1,96.88,88.43Z"/><path class="cls-11" d="M96.08,47.33a11.48,11.48,0,0,1-2.34,2.54c-1.36,1.2-2.5,2.69-3.87,3.85-.23.75-.46,1.53-.63,2.31a10.51,10.51,0,0,0,.59,7.11c.4.77.82,1.55,1.26,2.31a62.13,62.13,0,0,1,4.65,8.62c.23.61.44,1.22.65,1.83A48.72,48.72,0,0,1,98,101.21a84.87,84.87,0,0,1-3.43,11.39c2.55,1.64,6.18,1.79,8.54-.21,1.53-1.28,2.44-3.15,3.7-4.68s3.21-2.86,5.15-2.36c1.72.44,2.8,2.17,3.32,3.87s.69,3.51,1.49,5.11a2.89,2.89,0,0,1,.19.35c.07-.31.15-.6.23-.9.87-3,2.46-5.84,3-9a14.18,14.18,0,0,0-5.32-13.53c-2.79-2.11-6.66-3.45-7.8-6.77-1.74-5.2,4.67-10.41,3.2-15.69a9.09,9.09,0,0,0-3.91-4.71,38.59,38.59,0,0,1-5.13-3.59C97.44,57,97.61,51.89,96.08,47.33Z"/><path class="cls-12" d="M96.12,47.26a.1.1,0,0,1,0,.07c1.53,4.56,1.36,9.63,5.15,13.2a38.59,38.59,0,0,0,5.13,3.59,9.09,9.09,0,0,1,3.91,4.71c1.47,5.28-4.94,10.49-3.2,15.69,1.14,3.32,5,4.66,7.8,6.77a14.18,14.18,0,0,1,5.32,13.53c-.55,3.12-2.14,5.93-3,9-.08.3-.16.59-.23.9a9.53,9.53,0,0,0,7.19,4.27,23.19,23.19,0,0,0,9-1.15c4.2-1.16,8.83-3.07,10.24-7.19,1-2.88.12-6.39,2-8.81,1-1.41,2.8-2.08,4.14-3.2,3-2.46,3.85-6.94,2.61-10.61a15.75,15.75,0,0,0-7.61-8.39,41,41,0,0,0-11-3.68c-3.26-.72-7.21-2-7.78-5.34-.49-2.76,1.78-5.19,2.33-7.95.74-3.85-2.06-7.52-5.21-9.86-2.29-1.68-5.24-2.86-7.34-4.75-1.83-1.66-2.25-5.09-3.19-7.36a32.93,32.93,0,0,0-11.86-13.94,25.9,25.9,0,0,0-17-3.93,11.32,11.32,0,0,0-5.42,2,5.39,5.39,0,0,0-2.21,5.11,1.09,1.09,0,0,1,.25,0c3,.44,6.14,1,8.75,2.56,2.12,1.31,4.14,3.77,4.14,6.39,0,1.48-1.79,5,1,5.18,1,0,1.74-1,2.65-1.48a2.93,2.93,0,0,1,4,1.31A3.85,3.85,0,0,1,96.12,47.26Z"/><path class="cls-13" d="M81.32,36.73a4.24,4.24,0,0,0-4.82-1.49"/><path class="cls-14" d="M71.73,48.29h0a4.68,4.68,0,0,0,4.38.28"/><path class="cls-15" d="M64.17,35.58l.06-.2a19.55,19.55,0,0,1,.82-2l6.57,1.46a1.44,1.44,0,0,0,1.1-.19A1.46,1.46,0,0,0,72.25,32l-5.46-1.22c.16-.24.34-.48.5-.74a1.52,1.52,0,0,0,.25-.74c.3-.4.62-.76.93-1.14.56-.1,1.1-.17,1.59-.23.06,0,.09,0,.15-.05a27.27,27.27,0,0,1,9.05,3.21,19.39,19.39,0,0,1,6.5,6.14,20.75,20.75,0,0,1-2.64,8.5,2.41,2.41,0,0,1-.83.06,6.84,6.84,0,0,0-.84-2,14.07,14.07,0,0,0-3.4-3.17,23.6,23.6,0,0,0-8.94-3.69l-4.94-1.06Z"/><path class="cls-16" d="M64.17,35.87l4.94,1.06a23.6,23.6,0,0,1,8.94,3.69,14.07,14.07,0,0,1,3.4,3.17,6.84,6.84,0,0,1,.84,2,4,4,0,0,1-2.11-1.28,12.22,12.22,0,0,0-4-2.65,23.57,23.57,0,0,0-3.94-1.68,72.38,72.38,0,0,0-8-2A13.07,13.07,0,0,1,64.17,35.87Z"/><path class="cls-17" d="M65.48,32.6c.45-.59.89-1.17,1.31-1.79L72.25,32a1.45,1.45,0,1,1-.63,2.84l-6.57-1.46C65.18,33.14,65.34,32.87,65.48,32.6Z"/><circle class="cls-16" cx="87.73" cy="43.52" r="5.92"/><circle class="cls-17" cx="87.73" cy="43.52" r="2.37"/></g></g></svg>