<svg xmlns="http://www.w3.org/2000/svg" viewBox="0 0 325.27 129.67"><defs><style>.cls-1{fill:#385dd2;}.cls-2{fill:#253375;}.cls-3{fill:#e0c9b3;}.cls-4{fill:#5277ec;}.cls-5{fill:#4128b9;}.cls-6{fill:#5b42d3;}.cls-7{fill:#373737;}.cls-8,.cls-9{fill:none;stroke:#8e6b61;stroke-linecap:round;stroke-linejoin:round;}.cls-8{stroke-width:0.6px;}.cls-9{stroke-width:0.53px;}.cls-10{fill:#0b195b;}.cls-11{fill:#4d90ff;}.cls-12{fill:#0c4fe4;}.cls-13{fill:#ff85bf;}</style></defs><title>Asset 40</title><g id="Layer_2" data-name="Layer 2"><g id="Ñëîé_1" data-name="Ñëîé 1"><path class="cls-1" d="M6,90.4c-.86,0-1.62,0-2.53,0L0,124.49a9.57,9.57,0,0,0,1.92-.89c1.13-5.41,1.48-11,2.07-16.55.09-.88.18-1.76.29-2.63"/><path class="cls-2" d="M14,100.14a5.64,5.64,0,0,1,.45.88,3.81,3.81,0,0,1,.23,2,.45.45,0,0,1,0,.11,5.23,5.23,0,0,0-3.54,1.58A10.35,10.35,0,0,0,9.9,108c-.38,1.3-.71,2.61-1.06,3.92a27.59,27.59,0,0,1-3,7.63,12.23,12.23,0,0,1-4,4C3,118.29,3.41,112.54,4,107.06c0-.06,0-.11,0-.17.08-.82.18-1.65.27-2.47q.84-7,1.67-14l8.21-.18a3.62,3.62,0,0,1,0,.57A4.16,4.16,0,0,1,14,91.9a3.16,3.16,0,0,1-.83,1.44,12.12,12.12,0,0,1-2.56,1.44c-.85.5-1.6,1.48-1.25,2.4s1.81,1.15,2.86,1.55A3.84,3.84,0,0,1,13.83,100"/><path class="cls-1" d="M54.22,60.69l2.31-1.56c4.11-2.7,8.12-5.5,12.23-8.21-.62-.61-1.34-1.3-2-1.89L38.24,68.6a8.41,8.41,0,0,0,1.84.88A164.55,164.55,0,0,0,54.22,60.69Z"/><path class="cls-3" d="M13.94,100.13a4,4,0,0,1,.47.89c1.55-.24,3.09-.5,4.63-.8a37.63,37.63,0,0,1-1.15-8.45c-1.29.09-2.6.13-3.9.12a3.21,3.21,0,0,1-.84,1.45,12.25,12.25,0,0,1-2.55,1.44c-.85.5-1.61,1.48-1.25,2.4s1.81,1.15,2.86,1.55A3.77,3.77,0,0,1,13.94,100.13Z"/><path class="cls-2" d="M74.19,56.68a6.46,6.46,0,0,1-1.06,1,4.23,4.23,0,0,1-1,.58,3.22,3.22,0,0,1-1.64.3,12.38,12.38,0,0,1-2.75-1,2.17,2.17,0,0,0-2.64.59c-.54,1,.29,2.13.66,3.19a4.2,4.2,0,0,1,0,2.2l0,.15s0,0,0,.06a3.59,3.59,0,0,1-.3.74L64,66a5.28,5.28,0,0,0-3.49-1.68,10.53,10.53,0,0,0-3.32,1.24c-1.24.55-2.45,1.14-3.68,1.72a27.91,27.91,0,0,1-7.74,2.64,12.21,12.21,0,0,1-5.7-.45,158.5,158.5,0,0,0,13.6-8.75h0l.45-.31,2.21-1.48,12.33-8.11C70.58,52.71,72.43,54.66,74.19,56.68Z"/><path class="cls-1" d="M101.24,103c1.28,1.64,2.44,3.4,3.74,5,2.54,3.15,6.39,6,10.33,5a13.22,13.22,0,0,0,5.16-3.08c5.89-4.88,8.71-7.17,13.09-10.77A255.32,255.32,0,0,1,101.24,103Z"/><path class="cls-4" d="M72.55,64.34A121.56,121.56,0,0,1,87.1,81.79c-3.67,1-7.37,1.76-11.09,2.55-.57-1-1.27-2.19-1.86-3.19-2.47-4.22-4.75-8.5-7.38-12.59.66-.42,1.32-.86,2-1.31C70,66.33,71.32,65.36,72.55,64.34Z"/><path class="cls-2" d="M65.85,63.56l0,.13,0-.15S65.85,63.55,65.85,63.56Z"/><path class="cls-1" d="M132.48,65.64C120,73.85,110.17,80.45,94.93,86.07a124,124,0,0,1-16.24,4.7c-16.31,3.53-33.13,2.45-49.45-1.08,15.73-.76,31.39-2.26,46.65-5.52,3.62-.77,7.23-1.65,10.8-2.63A119.21,119.21,0,0,0,72.48,64.4c1-.8,2-1.69,2.93-2.55l1-.93c4.2,5.12,12,13.58,16.09,18.9h0q2.28-.7,4.53-1.49C110.77,73.57,119.88,70.22,132.48,65.64Z"/><path class="cls-4" d="M154.61,93.28s0,0,0,0a12.1,12.1,0,0,1-.72-2.78,42.94,42.94,0,0,1-.19-6.11,62.36,62.36,0,0,0-2-15.44,24.6,24.6,0,0,0-2.32-6.23,15.22,15.22,0,0,0-1.38-2,89.21,89.21,0,0,0-10.42,3.07l-5.13,1.86C120,73.85,109.77,79.49,94.53,85.11a114.36,114.36,0,0,1-15.59,4.53,118,118,0,0,1-49.7,0q-5.65.27-11.33.44c0,.55,0,1.1,0,1.65A37,37,0,0,0,19,100.22c.26,1,.58,2.08.94,3.1,22.36,1.24,44.76,2.19,67.11.88h0c1,1.62,1.94,3.23,2.94,4.81a94.1,94.1,0,0,0,13.42,17c1,1,2.3,2.63,3.67,3.2a10.76,10.76,0,0,0,3.44.42,16.79,16.79,0,0,0,8.48-2.16,46.92,46.92,0,0,0,8.63-6.52c11.1-9.8,17.28-15.45,28.38-25.25A8.31,8.31,0,0,1,154.61,93.28ZM120.19,109.6a12,12,0,0,1-4.69,2.8c-3.58.84-7.08-1.73-9.39-4.59-1.18-1.47-2.23-3.08-3.4-4.56a232.13,232.13,0,0,0,29.38-3.45C128.12,103.08,125.55,105.16,120.19,109.6Z"/><path class="cls-2" d="M65.81,63.69a.64.64,0,0,1,0,.07h0S65.8,63.71,65.81,63.69Z"/><path class="cls-3" d="M65.85,63.56a5.3,5.3,0,0,1-.37.93c1.06.94,2.14,1.86,3.24,2.75,1.31-.92,2.59-1.88,3.83-2.9,1-.8,1.93-1.63,2.86-2.49q-1.68-1.71-3.24-3.56a3.35,3.35,0,0,1-1.65.3,12.31,12.31,0,0,1-2.74-1,2.18,2.18,0,0,0-2.64.58c-.55,1,.29,2.14.66,3.2A3.74,3.74,0,0,1,65.85,63.56Z"/><path class="cls-5" d="M175.29,30.37c-5.19,1.38-10.23,3.84-13.86,7.8a18.81,18.81,0,0,0-4.59,9.2c3.43-2,7-3.74,10.56-5.47,2-.94,4.22-1.75,6.24-2.58,9-3.65,18.21-6.32,27.82-6.59h0c-2.37-1.68-5.28-4.08-8.29-4.21A60,60,0,0,0,175.29,30.37Z"/><path class="cls-3" d="M221.87,52.36c2.3-1.21,4.94-2.68,7.24-3.89s4.43-2.3,6.8-2.41c1.72-.08,3.43.4,5.12-.06a6.66,6.66,0,0,0,3.71-3,15.2,15.2,0,0,0,1.72-4.4c.29-1.12.24-3.93,1.34-4.56a4.12,4.12,0,0,0,1.27-.79,2.21,2.21,0,0,0,.25-1.78,67.87,67.87,0,0,1-1.18-8.65,51.19,51.19,0,0,0-1-8.12c-2,.17-3.92.49-5.14,1.53-2.59,2.2-2.49,4.71-1.78,7.44.42,1.57.51,3.58-.87,4.67-.37-1.59-.79-3.26-2-4.33s-3.48-1.16-4.51.25a3.26,3.26,0,0,0-.18,3.09c.41,1,1.08,1.79,1.57,2.72a6.66,6.66,0,0,1-.73,7.34c-2,2.36-5.51,2.84-8.5,2.57a6.58,6.58,0,0,1-2.84-.75,3,3,0,0,1-.27.35c-1.79,2.17-4.69,3.08-7.39,3.86l-.93.32"/><path class="cls-3" d="M298.18,76.38A27.29,27.29,0,0,1,304.76,75a35.17,35.17,0,0,0,9.16-1.85c2.07-.63,8.45-2.28,8-5.36,0,0,5-2.85,2.72-4.93,0,0,2.84-3.52-3.31-2.13,0,0,.78-2.69-5.79-.36l-6.58,2.33s2.4-4.19,1.51-7.19c-.43-1.42-1.34-.08-1.81.58-1.22,1.67-2.13,3.53-3.39,5.19A22.83,22.83,0,0,1,301,65.57,25.4,25.4,0,0,1,295,69"/><path class="cls-6" d="M161.21,103.46c2.19-1.56,4.38-3.1,6.59-4.62,2.58-3.1,5.59-5.87,8.3-8.86a67.65,67.65,0,0,1,19.15-15c6.31-3.28,13.13-5.47,20.17-4.56,6,.78,11.31,3.64,16.42,7,2.57.63,5,1.54,7.85,2.38,5.73,1.65,12.39,2.37,18.32,2.87a89,89,0,0,0,37.72-5.34c.9-.33,1.88-.52,2.77-.88a34.55,34.55,0,0,1-3.19-7.61c-.11-.39-.21-.79-.3-1.18a79.2,79.2,0,0,1-53-3l-.12-.09a72.71,72.71,0,0,1-14.29-8,55.14,55.14,0,0,1-5.42-4.51l-.9-.86c-2.54-2.44-4.92-5-7.39-7.59-.76-.79-1.52-1.56-2.3-2.33-.5-.51-1-1-1.54-1.49a77.23,77.23,0,0,0-8.62-7.1,80.91,80.91,0,0,0-28.11,6.33q-3,1.24-6,2.66-5.38,2.6-10.52,5.65c-3.53,2.08-7,4.29-10.39,6.59-4.43,3-8.8,6.11-13.14,9.26l.1.16q.83,1.32,1.59,2.67c.59,1,.93,1.4,1.56,2.42.14.25.22.41.32.6s.27.54.34.65c3.88,7.53,7,15.16,11.83,22.1a43.05,43.05,0,0,0,8,8.71"/><path class="cls-2" d="M242,16.27c-2.59,2.2-2.49,4.71-1.78,7.44.42,1.57.51,3.58-.87,4.67-.37-1.59-.79-3.26-2-4.33s-3.48-1.16-4.51.25a3.26,3.26,0,0,0-.18,3.09c.41,1,1.08,1.79,1.57,2.72a6.66,6.66,0,0,1-.73,7.34c-2,2.36-5.51,2.84-8.5,2.57a6.58,6.58,0,0,1-2.84-.75,7.56,7.56,0,0,0,1.15-2.33,11.25,11.25,0,0,0,2.36-3.08c1.84-3.57,1.9-7.61,1.67-11.44s-.71-7.7.18-11.53a18,18,0,0,1,5.43-9c7.21-3,14.19-3.09,19.44,4.67,5.7,8.42,0,7.74-5.25,8.18C245.15,14.91,243.22,15.23,242,16.27Z"/><path class="cls-5" d="M226.47,80.77l.21,0L238.5,83.6a85.4,85.4,0,0,0,15.1,2.63c5.59.3,11.18-.47,16.72-1.25,10-1.4,20.08-2.83,29.45-6.54-.48-.69-.93-1.4-1.36-2.13l-2.77.83c-12.24,3.6-24.93,6.11-37.64,5-5.93-.51-12.51-1.08-18.23-2.73-2.88-.84-5.2-1.82-7.78-2.45-5.1-3.39-10.49-6.42-16.5-7.2-7-.91-14.15,1.42-20.45,4.69a69.43,69.43,0,0,0-19.5,15.05c-2.71,3-5.16,6.23-7.74,9.33a163.74,163.74,0,0,1,25.94-15.12c.37-.17.75-.34,1.14-.5a85,85,0,0,1,21.25-3.38A38.55,38.55,0,0,1,226.47,80.77Z"/><path class="cls-7" d="M245.22,25.19a6.39,6.39,0,0,0-1.74.17,1.07,1.07,0,0,1,.25-1.14,1,1,0,0,1,1.5.12,1.11,1.11,0,0,1,.29.89A1.36,1.36,0,0,0,245.22,25.19Z"/><path class="cls-8" d="M246.33,20.5a5,5,0,0,0-5.87.71"/><path class="cls-9" d="M245.86,38a7.33,7.33,0,0,1-3.38-1.34"/><path class="cls-10" d="M224,37.2c.68-1.19,1.36-2.16,1.93-3.28,1.84-3.57,1.83-7.52,1.59-11.35s-.62-7.76.27-11.59A17.84,17.84,0,0,1,233,1.89c-1,.42-2,.89-3,1.4-3.84,2-7.82,4.05-10.94,7.1-4,3.87-4.53,8-3,12.7q2,6.24,3.94,12.47a15.58,15.58,0,0,0,2.25,3.71A5.85,5.85,0,0,0,224,37.2Z"/><path class="cls-11" d="M250.24,26.38,246,25.7a4.3,4.3,0,0,1-1.62-.49,1.48,1.48,0,0,1-.76-1.41,1.46,1.46,0,0,1,1.18-1.09,4.2,4.2,0,0,1,1.69.06c1.42.24,2.95,1.53,4.31,1.05.22-.08-.27-2.41-.35-2.58a2.75,2.75,0,0,0-1.56-1.61,15,15,0,0,0-2.33-.55,32,32,0,0,0-7.43,0,19.46,19.46,0,0,0-8.36,3.28,20.76,20.76,0,0,0-.74,8.9,2.44,2.44,0,0,0,.74.37,7,7,0,0,1,1.55-1.57,14,14,0,0,1,4.36-1.68,23.75,23.75,0,0,1,9.72-.06c1,.18,4.48,2.33,5,.88a2,2,0,0,0,.12-.55,5.24,5.24,0,0,0,.07-.86c0-.56-.08-1.1-.08-1.22"/><path class="cls-12" d="M251.43,29.22l-5-.87a23.75,23.75,0,0,0-9.72.06,14,14,0,0,0-4.36,1.68,7,7,0,0,0-1.55,1.57,4,4,0,0,0,2.45-.4,12.32,12.32,0,0,1,4.71-1,22.88,22.88,0,0,1,4.3-.09,74.8,74.8,0,0,1,8.16,1.13A12.45,12.45,0,0,0,251.43,29.22Z"/><path class="cls-13" d="M251.45,25.68c-.2-.72-.39-1.43-.55-2.16l-5.54-.93a1.46,1.46,0,0,0-1.68,1.21,1.43,1.43,0,0,0,.25,1.09,1.41,1.41,0,0,0,.94.59l6.67,1.12C251.52,26.29,251.48,26,251.45,25.68Z"/><path class="cls-12" d="M232.13,29.7A6,6,0,1,1,228.84,22,6,6,0,0,1,232.13,29.7Z"/><path class="cls-13" d="M228.82,28.37a2.38,2.38,0,1,1-1.32-3.1A2.39,2.39,0,0,1,228.82,28.37Z"/></g></g></svg>