<svg xmlns="http://www.w3.org/2000/svg" viewBox="0 0 299.65 312.93"><defs><style>.cls-1{fill:#b32a64;}.cls-2{fill:#cd447e;}.cls-3{fill:#d3bca6;}.cls-4{fill:#00a1ad;}.cls-5{fill:#03bbc7;}.cls-6{fill:#182668;}.cls-7{fill:#000c4e;}.cls-8{fill:#c2a695;}.cls-9{fill:#2a2a2a;}.cls-10,.cls-11{fill:none;stroke:#815e54;stroke-linecap:round;stroke-linejoin:round;}.cls-10{stroke-width:0.71px;}.cls-11{stroke-width:0.64px;}.cls-12{fill:#3376e5;}.cls-13{fill:#0035ca;}.cls-14{fill:#e56ba5;}</style></defs><title>Asset 48</title><g id="Layer_2" data-name="Layer 2"><g id="Ñëîé_1" data-name="Ñëîé 1"><path class="cls-1" d="M282.39,121.32l-11.3-7.55a8.38,8.38,0,0,0,1-.89l.57-1.23,27,18.1a7.8,7.8,0,0,1-2,1.75Z"/><path class="cls-1" d="M264.49,132.05c-1.07-2-.05-2.85-.19-5.12a3,3,0,0,0-.11-.65,20,20,0,0,1,18.2-5l15.25,10.18a8.38,8.38,0,0,1-5,1.23c-5.67-.38-11.21-5.75-16.81-5.71-4.42,0-7.54,3.38-10.18,6.81-.28-.41-.56-.81-.83-1.22A6,6,0,0,1,264.49,132.05Z"/><path class="cls-2" d="M254.32,125.24c-.82-.79-1.6-1.61-2.36-2.47a92.47,92.47,0,0,0,6.5-8.2c4.35,2.12,9.31,1.8,12.63-.8l11.3,7.55a20,20,0,0,0-18.2,5,3.93,3.93,0,0,0-2-2.46,2.5,2.5,0,0,0-3.11.59,15.17,15.17,0,0,0-.84,1.66,1.57,1.57,0,0,1-1.41,1,2.93,2.93,0,0,1-1.57-.91C255,125.83,254.63,125.54,254.32,125.24Z"/><path class="cls-1" d="M272.09,112.88a8.38,8.38,0,0,1-1,.89l-8.43-5.63c.45-.76.9-1.53,1.33-2.31l8.67,5.82Z"/><path class="cls-1" d="M262.66,108.14l8.43,5.63c-3.32,2.6-8.28,2.92-12.63.8C259.94,112.49,261.33,110.34,262.66,108.14Z"/><path class="cls-3" d="M264.19,126.28a3,3,0,0,1,.11.65c.14,2.27-.88,3.16.19,5.12q-3,3.52-6,7c-1-.94-2-1.92-2.89-2.91-1.91-2-3.71-4.16-5.45-6.35q2.16-2.2,4.18-4.58c.31.3.64.59,1,.89a2.93,2.93,0,0,0,1.57.91,1.57,1.57,0,0,0,1.41-1,15.17,15.17,0,0,1,.84-1.66,2.5,2.5,0,0,1,3.11-.59A3.93,3.93,0,0,1,264.19,126.28Z"/><path class="cls-4" d="M166.75,143.56c-2.81-7.58-5.94-16.13-9.89-25.08.89-.86,1.81-1.72,2.74-2.54s1.6-1.41,2.43-2.07c3.78,4.29,6.88,9.59,10.48,13.76a40.82,40.82,0,0,0,16.8,11.49c12.63,4.63,26,3.68,37.52.58,8.17-2.19,16-5.61,22.53-10.85.26.33.51.65.78,1,1.74,2.19,3.54,4.31,5.45,6.35.94,1,1.9,2,2.89,2.91.29.28.58.56.88.83a105.07,105.07,0,0,1-18.3,14.8c-11.44,7.12-25.31,12.45-39.66,12.31-10.28-.1-20.17-4.07-29.4-10.05-.54-1.26-1.09-2.58-1.64-3.95C169.18,150.09,168,146.93,166.75,143.56Z"/><path class="cls-5" d="M170.63,156.06a346.79,346.79,0,0,0,15.73,41c11.76,25.2,27.55,48.51,43.36,71.59a41.25,41.25,0,0,1-7.07,3.84l-.78.32c-2.11-3-4.26-5.92-6.4-8.87Q171.06,203,126.67,142.07a36.86,36.86,0,0,0,10.77-5.28c7.13-5,12.82-11.86,19.07-18,.1-.08.19-.18.29-.27a.34.34,0,0,1,.06-.06c3.95,9,7.08,17.5,9.89,25.08C168,147.74,169.28,151.91,170.63,156.06Z"/><path class="cls-4" d="M231.51,267.36c-.59.44-1.18.86-1.79,1.27-15.81-23.08-31.6-46.39-43.36-71.59a346.79,346.79,0,0,1-15.73-41c.45.31.91.61,1.37.91a72.74,72.74,0,0,0,3.27,6.71q29,51.16,57.93,102.33C232.65,266.47,232.08,266.92,231.51,267.36Z"/><path class="cls-2" d="M235.92,270.31c.65,1.6,1.33,3.18,2,4.76l-1.43.51c-1-1.52-1.95-3.06-2.88-4.6C234.39,270.72,235.15,270.5,235.92,270.31Z"/><path class="cls-2" d="M236.53,275.58l1.43-.51q1.48,3.31,3.12,6.58c-3,3-4.1,8.06-2.81,12.88l-9.53,6.55c3.09-5.85,3.39-13.68.82-20.87a2.48,2.48,0,0,0,2.63-.46,3.08,3.08,0,0,0,.36-3.41c-.31-.65-.8-1.2-1.17-1.82a2.47,2.47,0,0,1-.44-2,1.62,1.62,0,0,1,.84-.83,2.48,2.48,0,0,1,.37-.17q.73-.32,1.5-.57C234.58,272.52,235.55,274.06,236.53,275.58Z"/><path class="cls-3" d="M231.51,267.36c.7,1.21,1.41,2.42,2.14,3.62q-.77.25-1.5.57a2.48,2.48,0,0,0-.37.17l-.47-.77c-.54-.77-1.06-1.54-1.59-2.32C230.33,268.22,230.92,267.8,231.51,267.36Z"/><path class="cls-1" d="M241.08,281.65q2,4,4.3,8l-7.11,4.89C237,289.71,238.09,284.64,241.08,281.65Z"/><path class="cls-1" d="M238.75,296a13.91,13.91,0,0,1-.48-1.51l7.11-4.89c.52.91,1.05,1.81,1.59,2.71l-7.34,5Z"/><path class="cls-3" d="M229.56,280.21a2.88,2.88,0,0,1-.59-.28c-2-1.23-2.42-2.77-4.39-2.9l-1.93-4.56a41.25,41.25,0,0,0,7.07-3.84c.53.78,1.05,1.55,1.59,2.32l.47.77a1.62,1.62,0,0,0-.84.83,2.47,2.47,0,0,0,.44,2c.37.62.86,1.17,1.17,1.82a3.08,3.08,0,0,1-.36,3.41A2.48,2.48,0,0,1,229.56,280.21Z"/><path class="cls-1" d="M224.58,277c2,.13,2.43,1.67,4.39,2.9a2.88,2.88,0,0,0,.59.28c2.57,7.19,2.27,15-.82,20.87l-12.86,8.83a11.11,11.11,0,0,1,.34-5.64c1.89-5.34,8-7.54,9.5-13.07,1.18-4.36-.8-9.44-3-14.09L224,277A2.71,2.71,0,0,1,224.58,277Z"/><path class="cls-1" d="M228.74,301.08l9.53-6.55a13.91,13.91,0,0,0,.48,1.51l.88,1.31-22.82,15.58a13,13,0,0,1-.93-3Z"/><path class="cls-6" d="M130.58,140.12l-1.81.53c-.05,1.81-.09,3.61-.12,5.42h-.45a7.6,7.6,0,0,1-1.15-.17c-2.72-8.4-5.56-16.8-10-24.43a127.87,127.87,0,0,0-9.94-14.21,25.33,25.33,0,0,1,7.61-10.86,93.9,93.9,0,0,1,7.93-5.34,20.93,20.93,0,0,0,6.81-6.59A10.89,10.89,0,0,0,131,79h0a12.2,12.2,0,0,0,.75-2.38,14.22,14.22,0,0,0-1.14-9,15,15,0,0,0-1-1.81l.36-.24.59.83Q138.06,77,145.59,87.61c8.42,11.84,17.3,24.23,24,37.4a18,18,0,0,0-3.09.29,31.53,31.53,0,0,0-8,2.86A80.31,80.31,0,0,0,141.73,139a55,55,0,0,1-6.14,4.86,15.63,15.63,0,0,1-3.32,1.6Q131.39,142.84,130.58,140.12Z"/><path class="cls-6" d="M132.27,145.46h0a10.74,10.74,0,0,1-3.59.6c0-1.81.07-3.61.12-5.42l1.81-.53Q131.39,142.84,132.27,145.46Z"/><path class="cls-6" d="M22.94,90.42l.15-.64C31.89,93.51,41.38,94,50.65,93c2.48-.26,4.94-.61,7.37-1,1.55-.27,3.09-.56,4.64-.88A77.77,77.77,0,0,0,84.9,83.18c1.17-.65,2.31-1.35,3.43-2.09,1.58-1,3.12-2.16,4.66-3.28,2.26-1.65,4.51-3.36,6.82-5,4.26-3,8.57-5.83,13-8.6a29.15,29.15,0,0,1,7.82-3.84,11.81,11.81,0,0,1,9,5.45,15,15,0,0,1,1,1.81,14.22,14.22,0,0,1,1.14,9A10,10,0,0,1,131,78.5c-1.54,2.94-4.29,5-6.93,7-6.28,4.63-12.62,9.28-19.25,13.36-.9.56-1.81,1.1-2.73,1.64a91.53,91.53,0,0,1-16.21,7.57C64.33,115.42,39.36,112,19,98.93c.13-.16.25-.33.36-.49A24.34,24.34,0,0,0,22.94,90.42Z"/><path class="cls-7" d="M131,79a10.89,10.89,0,0,1-1.48,5.44,20.93,20.93,0,0,1-6.81,6.59,93.9,93.9,0,0,0-7.93,5.34,25.33,25.33,0,0,0-7.61,10.86c-1.25-1.65-2.52-3.29-3.75-4.94q-.69-.91-1.35-1.83c.92-.54,1.83-1.08,2.73-1.64,6.63-4.08,13-8.73,19.25-13.36,2.64-1.93,5.39-4,6.93-7a4.35,4.35,0,0,1,0,.51Z"/><path class="cls-6" d="M120.58,60.4c-.37,0-.74-.07-1.13-.09-4.54-.18-9.47,1.44-13.62,3.26A37.18,37.18,0,0,1,102,65.06c-1,.58-2,1.13-3.06,1.66s-2.3,1.16-3.47,1.69c.18-.84.36-1.69.55-2.53.48-2.26,1-4.54,1.45-6.77,7.43.4,13-3.38,18.9-7.08l.19.07a15.48,15.48,0,0,1,4,2.16c3.87,2.84,6.47,7.23,9.33,11.35l-.36.24A11.81,11.81,0,0,0,120.58,60.4Z"/><path class="cls-7" d="M95.46,68.41c1.17-.53,2.33-1.09,3.47-1.69s2-1.08,3.06-1.66a37.18,37.18,0,0,0,3.84-1.49c4.15-1.82,9.08-3.44,13.62-3.26.39,0,.76,0,1.13.09a29.15,29.15,0,0,0-7.82,3.84c-4.38,2.77-8.69,5.65-13,8.6-2.31,1.61-4.56,3.32-6.82,5A40.06,40.06,0,0,1,95.46,68.41Z"/><path class="cls-7" d="M97.43,59c-.24-.87-.5-1.74-.78-2.58.74-.54,1.45-1.08,2.17-1.64h0c2.09-1.6,4.16-3.25,6.32-4.76a37,37,0,0,1,7.4-4.12,22.93,22.93,0,0,1,3.23-1,19,19,0,0,0,.73,7.11l-.15.09c-5.88,3.7-11.47,7.48-18.9,7.08Z"/><path class="cls-3" d="M99.76,32.49a11.81,11.81,0,0,0,2.38,1.2,19.16,19.16,0,0,0,4.36,1c.81,1.94,1.89,3.85,2.86,5.66s2.06,3.73,3.19,5.52a37,37,0,0,0-7.4,4.12c-2.16,1.51-4.23,3.16-6.32,4.76h0a21.94,21.94,0,0,0-3.75-9,27.35,27.35,0,0,0,3.67-14.07A11.25,11.25,0,0,0,99.76,32.49Z"/><path class="cls-5" d="M106.5,34.69a19.16,19.16,0,0,1-4.36-1,11.81,11.81,0,0,1-2.38-1.2c-.06-.5-.1-1-.12-1.48-.17-3.72,0-7.47-.53-11.15s-1.79-7.4-4.4-10.06S88.12,5.71,84.39,4.57A38.62,38.62,0,0,1,76.2,1.4C81.1,1.69,86.09.22,91,1c6.7,1.08,11,7,13.49,13.27A24,24,0,0,1,106,24.82c-.24,2.78-1,5.66-.07,8.31C106.08,33.65,106.28,34.18,106.5,34.69Z"/><path class="cls-5" d="M69.2,24.89a15.11,15.11,0,0,1-8.85-1,7.67,7.67,0,0,1-1.57-1.74c-1.44-2.2-1.43-5.48.55-7.21.62-.55,1.46-1,1.62-1.83a3.29,3.29,0,0,0-.68-2A7.55,7.55,0,0,1,60,4.49,7.56,7.56,0,0,1,65,.24c3.21-.79,6.5.6,9.78,1,.46.06.93.1,1.39.13a38.62,38.62,0,0,0,8.19,3.17C88.12,5.71,92,7,94.71,9.8s3.88,6.37,4.4,10.06.36,7.43.53,11.15c0,.48.06,1,.12,1.48a11.25,11.25,0,0,1-1-.76,8.5,8.5,0,0,1-2-2.42,13.83,13.83,0,0,1-.12-1.58c0-1,.09-2.1,0-3.15a5,5,0,0,0-1-2.92,2.59,2.59,0,0,0-2.84-.81,3.19,3.19,0,0,0-1.61,2.8c-.09,1.13.11,2.28-.08,3.4a2.75,2.75,0,0,1-2,2.44,2.61,2.61,0,0,1-2.59-1.89,10.15,10.15,0,0,1-.3-3.44,5.07,5.07,0,0,0-.89-3.28c-1.23-1.48-3.55-1.35-5.38-.71-3,1-5.66,3.11-8.69,4.18A13.82,13.82,0,0,1,69.2,24.89Z"/><path class="cls-8" d="M98.74,31.73A27.35,27.35,0,0,1,95.07,45.8a20.91,20.91,0,0,0-2.57-3,2.85,2.85,0,0,0,.23-.26c1.13-1.33,2.29-2.69,3.3-4.12a7.4,7.4,0,0,0,1.22-4.6c0-.24,0-.47,0-.71-.11-1.27-.35-2.54-.5-3.81A8.5,8.5,0,0,0,98.74,31.73Z"/><path class="cls-7" d="M34,39.58c-.09-.16-.18-.34-.28-.51a164.56,164.56,0,0,0,16.47,14c6.37,4.54,13.34,8.19,20.76,9.72A40.24,40.24,0,0,0,97.17,59.1h.29c-.47,2.23-1,4.51-1.45,6.77-.19.84-.37,1.69-.55,2.53A40.06,40.06,0,0,0,93,77.81c-1.54,1.12-3.08,2.23-4.66,3.28-1.12.74-2.26,1.44-3.43,2.09a50.18,50.18,0,0,1-17.3-3.4c-9.34-3.48-18.93-7.12-26.42-14.26-3.89-3.69-7.06-8.2-10.43-12.48a3,3,0,0,0-.22-.28c-.73-1-1.5-2-2.28-2.95a28.26,28.26,0,0,1-1.95-3A66.18,66.18,0,0,0,34,39.58Z"/><path class="cls-3" d="M96.72,29.31c.15,1.27.39,2.54.5,3.81,0,.24,0,.47,0,.71A7.4,7.4,0,0,1,96,38.43c-1,1.43-2.17,2.79-3.3,4.12a2.85,2.85,0,0,1-.23.26A35.23,35.23,0,0,1,85,49.63,9,9,0,0,1,82,51a3.93,3.93,0,0,1-3.14-.55c-1.35-1-1.05-2.35-1-3.78A2.8,2.8,0,0,0,77,44.18c-.82-.74-.8-1.8-1-2.79a2.14,2.14,0,0,0-1.18-1.76,3.89,3.89,0,0,0-1.75.12,3.73,3.73,0,0,1-2.42-.5q.31-3.14.61-6.27c.27-2.76-1-4.65-1.84-7.24-.1-.29-.18-.57-.27-.85a13.82,13.82,0,0,0,2-.54c3-1.07,5.65-3.13,8.69-4.18,1.83-.64,4.15-.77,5.38.71a5.07,5.07,0,0,1,.89,3.28,10.15,10.15,0,0,0,.3,3.44A2.61,2.61,0,0,0,89,29.49a2.75,2.75,0,0,0,2-2.44c.19-1.12,0-2.27.08-3.4a3.19,3.19,0,0,1,1.61-2.8,2.59,2.59,0,0,1,2.84.81,5,5,0,0,1,1,2.92c.07,1.05-.05,2.11,0,3.15A13.83,13.83,0,0,0,96.72,29.31Z"/><path class="cls-3" d="M26.3,46.79c-.09.07-.17.14-.25.19-.37-.49-.73-1-1.07-1.5-2.12-3.24-3.65-6.87-5.42-10.27a26.66,26.66,0,0,1-3.28-9.52,18.3,18.3,0,0,1,7.14,1.86,21.2,21.2,0,0,1,6.86,6.39,51.53,51.53,0,0,1,3.44,5.13c.1.17.19.35.28.51A66.18,66.18,0,0,1,26.3,46.79Z"/><path class="cls-3" d="M21.39,89c.51.48,1,.94,1.55,1.4a24.34,24.34,0,0,1-3.63,8A19.31,19.31,0,0,1,17,97.66,37.21,37.21,0,0,1,7.07,91a21.47,21.47,0,0,1-5.81-7.36C-.23,80.06-.12,76.13.19,72.35l11.45,10.5a21.54,21.54,0,0,0-.33-7c2.74,2.58,3.65,6.26,6.07,9A56.12,56.12,0,0,0,21.39,89Z"/><path class="cls-9" d="M75.49,29.82a7.85,7.85,0,0,1,2-.51,1.23,1.23,0,0,0-2.39-.44,1.4,1.4,0,0,0,0,1.12A3.41,3.41,0,0,1,75.49,29.82Z"/><path class="cls-10" d="M72.33,25a6,6,0,0,1,6.91-1.58"/><path class="cls-11" d="M76.54,42.78a9,9,0,0,0,5.26-3.62"/><path class="cls-6" d="M22.94,90.42l.15-.64C31.89,93.51,41.38,94,50.65,93c2.48-.26,4.94-.61,7.37-1,1.55-.27,3.09-.56,4.64-.88A77.77,77.77,0,0,0,84.9,83.18c1.17-.65,2.31-1.35,3.43-2.09,1.58-1,3.12-2.16,4.66-3.28,2.26-1.65,4.51-3.36,6.82-5,4.26-3,8.57-5.83,13-8.6a29.15,29.15,0,0,1,7.82-3.84,11.81,11.81,0,0,1,9,5.45,15,15,0,0,1,1,1.81,14.22,14.22,0,0,1,1.14,9A10,10,0,0,1,131,78.5c-1.54,2.94-4.29,5-6.93,7-6.28,4.63-12.62,9.28-19.25,13.36-.9.56-1.81,1.1-2.73,1.64a91.53,91.53,0,0,1-16.21,7.57C64.33,115.42,39.36,112,19,98.93c.13-.16.25-.33.36-.49A24.34,24.34,0,0,0,22.94,90.42Z"/><path class="cls-3" d="M21.39,89c.51.48,1,.94,1.55,1.4a24.34,24.34,0,0,1-3.63,8A19.31,19.31,0,0,1,17,97.66,37.21,37.21,0,0,1,7.07,91a21.47,21.47,0,0,1-5.81-7.36C-.23,80.06-.12,76.13.19,72.35l11.45,10.5a21.54,21.54,0,0,0-.33-7c2.74,2.58,3.65,6.26,6.07,9A56.12,56.12,0,0,0,21.39,89Z"/><path class="cls-12" d="M66.9,38a1.24,1.24,0,0,1-.22-.18,2.75,2.75,0,0,1-.57-1,2.1,2.1,0,0,1-.26-1.19,2.18,2.18,0,0,1,1.08-1.26l4.56-3.09a5.58,5.58,0,0,0,1.64-1.45,1.9,1.9,0,0,0,.12-2.08,1.93,1.93,0,0,0-2-.64,5.65,5.65,0,0,0-2,1l-4.61,3.18c-.28.19-.88-2.57-.88-2.81a4.22,4.22,0,0,1,1-2.74c0-.06,0-.13.09-.19A35.94,35.94,0,0,1,76,19.85a25.36,25.36,0,0,1,11.61-.71A26.88,26.88,0,0,1,93.3,29.19a3.22,3.22,0,0,1-.67.84A9,9,0,0,0,90,29a18.1,18.1,0,0,0-6,.42,30.8,30.8,0,0,0-11.45,5.22C71.35,35.45,68.57,39.11,66.9,38Z"/><path class="cls-13" d="M67.08,38.42l5.39-3.75a30.8,30.8,0,0,1,11.45-5.22A18.1,18.1,0,0,1,90,29a9,9,0,0,1,2.67,1,5.18,5.18,0,0,1-3.09.87,15.57,15.57,0,0,0-6.05,1.44,29.82,29.82,0,0,0-5.11,2.25,96.38,96.38,0,0,0-9,5.78A17.32,17.32,0,0,1,67.08,38.42Z"/><path class="cls-14" d="M65.13,34.27c-.16-.94-.32-1.89-.53-2.83l6-4.12a1.89,1.89,0,0,1,2.63.5,1.91,1.91,0,0,1,.31,1.42,2,2,0,0,1-.79,1.21L65.53,35.4C65.38,35,65.26,34.65,65.13,34.27Z"/><circle class="cls-13" cx="95.28" cy="22.82" r="7.71" transform="matrix(1, -0.03, 0.03, 1, -0.72, 3.24)"/><path class="cls-14" d="M93.17,25.07A3.08,3.08,0,1,0,93,20.72,3.08,3.08,0,0,0,93.17,25.07Z"/></g></g></svg>