<svg xmlns="http://www.w3.org/2000/svg" xmlns:xlink="http://www.w3.org/1999/xlink" viewBox="0 0 114.49 167.92"><defs><style>.cls-1{fill:url(#Áåçûìÿííûé_ãðàäèåíò_1869);}.cls-2{fill:url(#Áåçûìÿííûé_ãðàäèåíò_1880);}.cls-3{fill:#ffd19a;}.cls-4{fill:#2b245c;}.cls-5{fill:url(#Áåçûìÿííûé_ãðàäèåíò_1868);}.cls-6{fill:url(#Áåçûìÿííûé_ãðàäèåíò_1868-2);}.cls-7{fill:url(#Áåçûìÿííûé_ãðàäèåíò_1869-2);}.cls-8{fill:url(#Áåçûìÿííûé_ãðàäèåíò_1869-3);}.cls-9{fill:#d83d5b;}.cls-10{fill:#c44427;}</style><linearGradient id="Áåçûìÿííûé_ãðàäèåíò_1869" x1="4.38" y1="167.16" x2="110.58" y2="-43.45" gradientUnits="userSpaceOnUse"><stop offset="0" stop-color="#e4ddff"/><stop offset="1" stop-color="#faf9ff"/></linearGradient><linearGradient id="Áåçûìÿííûé_ãðàäèåíò_1880" x1="9.33" y1="164.48" x2="123.63" y2="-43.87" gradientUnits="userSpaceOnUse"><stop offset="0.01" stop-color="#998ff4"/><stop offset="0.98" stop-color="#fff"/></linearGradient><linearGradient id="Áåçûìÿííûé_ãðàäèåíò_1868" x1="90.85" y1="20.86" x2="94.98" y2="20.86" gradientUnits="userSpaceOnUse"><stop offset="0" stop-color="#ef6e98"/><stop offset="1" stop-color="#db385b"/></linearGradient><linearGradient id="Áåçûìÿííûé_ãðàäèåíò_1868-2" x1="71.39" y1="79.13" x2="106.13" y2="79.13" xlink:href="#Áåçûìÿííûé_ãðàäèåíò_1868"/><linearGradient id="Áåçûìÿííûé_ãðàäèåíò_1869-2" x1="0" y1="150.63" x2="17.58" y2="150.63" xlink:href="#Áåçûìÿííûé_ãðàäèåíò_1869"/><linearGradient id="Áåçûìÿííûé_ãðàäèåíò_1869-3" x1="10.46" y1="8.73" x2="33.83" y2="8.73" xlink:href="#Áåçûìÿííûé_ãðàäèåíò_1869"/></defs><title>Asset 8</title><g id="Layer_2" data-name="Layer 2"><g id="Ñëîé_1" data-name="Ñëîé 1"><path class="cls-1" d="M85.5,59.78c-.09,2-.2,4-.32,5.94-.12,2.47-.26,4.94-.42,7.39-1.23,20.82-2.91,41.61-4.58,62.4A81.83,81.83,0,0,1,77.91,151a18,18,0,0,1-4.39,8.16,10.1,10.1,0,0,1-2.31,1.65,17.11,17.11,0,0,1-6.14,1.42l-2,.18a122.1,122.1,0,0,1-27.48-1c-2.49-.35-5-.81-7.42-1.35-.6-.1-1.19-.24-1.79-.37-5.77-1.32-11.71-3.22-15.77-7.51-4.3-4.55-5.77-11-6.83-17.19A244.4,244.4,0,0,1,.56,105.4C.42,102.16.32,98.9.3,95.65A259.23,259.23,0,0,1,5.45,42.28C7.3,33.11,9.74,23.8,15.13,16.14A33,33,0,0,1,22.7,8.42c5.3-3.84,11-4.52,17.11-5.94a58.67,58.67,0,0,1,22.94-.55C70.42,3.35,78,7.46,81.69,14.32a32.55,32.55,0,0,1,3.15,11.05C86.45,36.74,86.06,48.29,85.5,59.78Z"/><path class="cls-2" d="M86.86,69.42a5,5,0,0,1-2.1,3.69,20.22,20.22,0,0,1-3.14,2.06c-4.73,2.68-9.4,6.89-13.33,10.69a2.34,2.34,0,0,0-.54.67,2.27,2.27,0,0,0,0,1.39c1.9,9.1,5.66,17.66,7.39,26.86a101,101,0,0,1-1.61,44.33,10.1,10.1,0,0,1-2.31,1.65,17.11,17.11,0,0,1-6.14,1.42l-2,.18a20.31,20.31,0,0,1-1.13-5.09q-1.17-8.79-2.32-17.57c-.7-5.33-1.41-10.7-3.3-15.71-2.43-6.5-6.84-12.62-6.53-19.54-1,7.82-4.76,15-6.87,22.58-3.15,11.3-2.75,23.76-7.33,34.35-2.49-.35-5-.81-7.42-1.35-.4-1.24-.71-2.53-1-3.79-1.74-7.69-3.5-15.43-3.92-23.29-.17-3.33-.12-6.71-.93-9.93-.89-3.58-2.82-6.84-3.8-10.4-1.44-5.19-.71-10.64,1-15.68A59.19,59.19,0,0,1,22.9,89c.77-1.49,1.75-2.86,2.55-4.33a3.87,3.87,0,0,0,.62-2.08c0-.53-.32-.89-.11-1.5a14.52,14.52,0,0,0,.74-1.8c.21-1-.31-2.07-.43-3.12-3.61,5-7.47,10.76-12.41,14.47C9.1,94.23,5.78,99.34,2.19,104.1A3.64,3.64,0,0,1,.9,105.31a1.21,1.21,0,0,1-.34.09C.42,102.16.32,98.9.3,95.65a9,9,0,0,1,.39-1.1,29.3,29.3,0,0,1,3.05-5.28C8.67,82,14,74.83,17.09,66.61c1.69-4.48,2.66-9.5,5.41-13.51,2.28-3.33,6.71-3.32,10.32-4,2-.35,5.28-1.39,6-3.45a4.74,4.74,0,0,0-.07-3.11,2.12,2.12,0,0,0-.53-.92,3.48,3.48,0,0,0-.87-.47,6.88,6.88,0,0,1-3-3.23c-2.79-4.71-.45-8.55,1-13.06a1.59,1.59,0,0,0,.11-.83c-.13-.57-.76-.83-1.3-1.05a7.74,7.74,0,0,1-4.1-3.55,4.7,4.7,0,0,1,.58-5.18,5.91,5.91,0,0,1,4.27-1.53c1.52,0,3.24.38,4,1.69.66,1.14.37,2.56.27,3.87s.18,2.9,1.39,3.43a3.1,3.1,0,0,0,1.32.19c1.53,0,3-.34,4.56-.4,7-.3,8.46,5.62,7.71,11.37a14.57,14.57,0,0,1-1.6,5.85c-1.07,1.75-3.12,3.06-5.11,2.6-1.42,1.83.2,4.65,2.35,5.53s4.56.59,6.84.94c4.74.72,9.26,4,13.23,6.44a121.5,121.5,0,0,1,13.66,9.91,17.35,17.35,0,0,1,1.66,1.56A5.35,5.35,0,0,1,86.86,69.42Z"/><path class="cls-3" d="M88.85,20.33c.4.27,5.81,3.3,4.11,11.88s-7.87,10-10.45,8.34-4-3.28-3.8-10.9S84.17,17.21,88.85,20.33Z"/><path class="cls-3" d="M85.54,37.69c.06.44,1.13,5.66-2.19,6.71s-7.32-.07-9,5.36C72.77,55,72.22,60.35,70.9,65.6a116.66,116.66,0,0,1-6.49,18.68,100.53,100.53,0,0,0-4,9.39,35.27,35.27,0,0,0-1.69,8.25,1.25,1.25,0,0,0,.16.88c.45.53,1.29,0,1.66-.59,1.07-1.74,1.2-3.88,1.91-5.8A25.69,25.69,0,0,1,66,90.7a72.6,72.6,0,0,0,8.58-17.2c1.12-3,2-6.15,3.11-9.19.74-2,.93-4.26,1.7-6.25,0,0-1.51,3.93.15,6.64s.23,14-1.3,18.37c0,0,11.22,3.3,19.36,0,0,0-3-12.76-1.4-16.86a34.22,34.22,0,0,0,2.16-17.67c-.3-3.17-2.07-3.47-6.9-5-1.87-.58.88-12.63.88-12.63S84.93,33.16,85.54,37.69Z"/><path class="cls-4" d="M81.73,29.5c1,1.13,1.59-.76,3-.21a2.42,2.42,0,0,1,1.38,2.2,24.27,24.27,0,0,1-.6,3.24c-.41,4.05,4.6,5.78,7.38,3.31a7.8,7.8,0,0,0,2.27-4.56,13.61,13.61,0,0,0-.75-7.28c-.32-.8-1.07-2.28-.47-3.12.45-.62,1.87-.82,2.53-1.12a4.66,4.66,0,0,0,2.69-4.65,4.05,4.05,0,0,0-3.85-3.55,3.64,3.64,0,0,0-3.47,3.75c.06.76.22,1.8-.49,2a1.46,1.46,0,0,1-1.1-.26,8,8,0,0,0-7.55.14c-1.61.92-6.08,6-3,7,1.14.35,1.18,1.73,1.66,2.61A3,3,0,0,0,81.73,29.5Z"/><path class="cls-3" d="M87.93,86.91c-.23,1-.47,1.87-.67,2.7C85.71,96,81.72,120,81.72,127.79c0,8.91-3.89,22.64-4.79,26.27-.74,3-2.05,6.69-2.28,9.23a6,6,0,0,0,0,1.48c.47,2.82-1.94,2.44-3.32,2.61-2.42.29-8.91,1.05-9.06,0-.1-.75,2.86-1.53,5.44-2.74A10.63,10.63,0,0,0,70.44,163c2.42-2.26,3-32.29,3.47-35.92s1.21-13.43,2-27.91,3.85-20.37,3.85-20.37c4.57-2.51,7-2.62,8.2-1.42C89.62,79,88.83,83.23,87.93,86.91Z"/><path class="cls-3" d="M113.57,167.38c-.15,1.05-6.59.29-9.06,0-1.38-.17-3.79.21-3.32-2.61a4.72,4.72,0,0,0,0-1.15c-.14-2.52-1.52-6.47-2.3-9.56-.9-3.63-4.79-17.36-4.79-26.27,0-7.79-4-31.84-5.54-38.18-.2-.83-.44-1.75-.67-2.7-.89-3.69-1.68-7.91,0-9.58,1.19-1.2,3.64-1.09,8.2,1.42,0,0,3.1,5.88,3.85,20.37s1.51,24.29,2,27.91,1,33.66,3.47,35.92a10.36,10.36,0,0,0,2.71,1.69C110.72,165.85,113.67,166.63,113.57,167.38Z"/><path class="cls-3" d="M113.64,65.38a3.71,3.71,0,0,1,.83,2.47c-.55,3.31-6.47,5.38-9.07,6.45a28.81,28.81,0,0,0-4.37,2,6.57,6.57,0,0,0-3,3.66c-.22.81-.81,3.33-2.23,2.15-.87-.73,0-3.72.29-4.59.85-2.38,3.46-4.14,5.41-5.59.68-.5,6.43-4.66,7-4.1C103.29,63,92.7,60.57,92,52.15c-.2-2.29.51-7,3.3-7.08,2.42,0,5.51,4.73,7.06,6.28A84.26,84.26,0,0,1,113.64,65.38Z"/><path class="cls-5" d="M95,22.2c-.12-.44-.38-.5-.76-.66a4.06,4.06,0,0,1-1-.61A5,5,0,0,1,91.83,19c-.25-.58-1.06-.13-1,.41A4.78,4.78,0,0,0,94.09,23a.69.69,0,0,0,.67-.18l.07-.06A.52.52,0,0,0,95,22.2Z"/><path class="cls-6" d="M106.13,109C94.79,115,83.83,116.34,71.39,113c.19-2.55.4-4.85.63-7,0-.2,0-.4.07-.6.3-2.7.63-5.12,1-7.42,0-.19.06-.38.1-.57.38-2.37.81-4.64,1.25-7,0-.16.07-.32.1-.48.43-2.18.89-4.42,1.38-6.88,0-.16.06-.34.1-.51.36-1.83.74-3.8,1.14-5.93a5.48,5.48,0,0,0,.1-.56c.14-.68.26-1.39.39-2.11.27-1.44.54-2.88.71-4.34,0-.26,0-.52.08-.79s0-.58.07-.87c.12-1.94,0-3.9.13-5.83,0-.11,0-.21,0-.32l0-.53c.14-2.27.2-4.55.3-6.83,0-.16,0-.31,0-.48a2.81,2.81,0,0,1,0-.29,28.44,28.44,0,0,0-.22-6.65c0-.26-.1-.52-.16-.78a8,8,0,0,0-.25-.93c-.14-.47,8.65-1.65,9.41-1.76A14.06,14.06,0,0,1,96.46,45a5.07,5.07,0,0,1,1.66,1.35,2.4,2.4,0,0,1,.25.37,4.16,4.16,0,0,1,.22.48,7,7,0,0,1,.27,2.37c0,1.24,0,2.47,0,3.71l0,1a30.16,30.16,0,0,1-.43,4.24c-.1.53-.21,1.07-.34,1.61-.09.38-.18.76-.28,1.14a29.42,29.42,0,0,0-1,4.87,22,22,0,0,0-.08,2.57c0,.3,0,.6,0,.9a49.21,49.21,0,0,0,.67,6c0,.32.1.64.16.95.1.57.19,1.15.29,1.72.29,1.61.55,3.11.8,4.51.07.36.14.71.2,1,.52,2.75,1,5.13,1.51,7.34l.15.62c.43,1.85.9,3.61,1.43,5.37.08.25.14.49.23.74.31,1,.65,2.07,1,3.14.07.22.15.42.22.64C104.14,103.91,105.05,106.26,106.13,109Z"/><path class="cls-7" d="M17.18,161C7,160.12,2.43,148.25.67,139.6a.26.26,0,0,0-.5,0c-.6,2.58.51,5.25,1.49,7.6a45.66,45.66,0,0,0,4.12,8.17c2.55,3.74,6.71,7.1,11.5,6.39C17.76,161.69,17.6,161,17.18,161Z"/><path class="cls-8" d="M33.43,0C23.82-.34,13,7.86,10.47,17.07a.31.31,0,0,0,.57.24c2.44-4.4,5.17-8.37,9.32-11.34S28.82,1.84,33.54.81C34,.71,33.88,0,33.43,0Z"/><path class="cls-4" d="M71.35,167.38c-2.42.29-8.91,1.05-9.06,0-.1-.75,2.86-1.53,5.44-2.74a9.4,9.4,0,0,0,4.22-.36c.91-.32,1.78-.75,2.7-1a6,6,0,0,0,0,1.48C75.14,167.59,72.73,167.21,71.35,167.38Z"/><path class="cls-4" d="M113.57,167.38c-.15,1.05-6.59.29-9.06,0-1.38-.17-3.79.21-3.32-2.61a4.72,4.72,0,0,0,0-1.15c.65.24,1.29.53,1.94.75a10.13,10.13,0,0,0,5,.27C110.72,165.85,113.67,166.63,113.57,167.38Z"/><path class="cls-9" d="M95.32,45a2,2,0,0,0-.21.92c0,.41,0,.46.15.28s.49-.32.6-.24a4.22,4.22,0,0,1,.22,2.58c-.06.24-.06.35,0,.46a.88.88,0,0,1,0,.52c-.1.46-.11.47-.37.4a.4.4,0,0,0-.28,0,.41.41,0,0,1-.05.19c-.07.14,0,.41,0,.41s.07-.09.08-.21,0-.24.37-.19.37.1.27.67,0,1,.18.86.18,0,.24.17.1.12.19.14.17,0,.07.91a4.39,4.39,0,0,0-.06,1.36,1.09,1.09,0,0,1-.11.44c-.09.19-.12.32-.09.37a1.35,1.35,0,0,1,0,.44c-.09.33-.1.36-.27.37s-.26,0-.27-.26,0-.42-.12-.43-.1.08-.14.39-.08.42-.23.57-.21.34,0,.36.08.05,0,.14a.66.66,0,0,0,0,.31,1.27,1.27,0,0,0,.22-.26.38.38,0,0,0,.1-.27c0-.32.25-.51.48-.32.07.06.06.09-.06.27s-.13.23-.09.59a2.6,2.6,0,0,1,0,.9c-.08.49-.08.53,0,.63s.13.28-.05.44a.29.29,0,0,0-.11.31.64.64,0,0,1-.17.54c-.12.14-.24,0-.24-.28a.69.69,0,0,0-.16-.42c-.08-.1-.15-.22-.14-.26s0-.08-.11-.09a4.32,4.32,0,0,0-.26,2c.07.07.07.1,0,.22s-.1.18-.06.28a.42.42,0,0,1,0,.27,1.21,1.21,0,0,0-.09.72.19.19,0,0,1,0,.22c-.06.08-.08.19-.06.5a4.31,4.31,0,0,1,0,.65c0,.18,0,.24.05.25a.32.32,0,0,1,.15.14.42.42,0,0,0,.1.13,1.71,1.71,0,0,0,.28-.65s0-.09,0-.15.26,0,.19.19a.15.15,0,0,0,.06.21c.1.06.1.1,0,.31a5.3,5.3,0,0,0-.12.64c0,.22-.1.59-.14.83a1.33,1.33,0,0,0,0,.67,1.16,1.16,0,0,1-.19,1c-.13.09-.13.09,0,.22a.44.44,0,0,1,.12.27.63.63,0,0,0,0,.27c.09.21-.1.63-.21.47s-.09-.08-.12,0,0,.18.11.19.09,0,.07.13-.06.12-.1.11a.25.25,0,0,0-.16,0,.15.15,0,0,1-.16,0c-.06,0-.11,0-.16.15-.14.36-.31.12-.29-.41s-.16-.76-.28-.49a.44.44,0,0,0,0,.32,1.31,1.31,0,0,1,0,.82c-.08.1-.09.1-.21-.06a.27.27,0,0,0-.25-.14c-.14,0-.14,0-.17.67s0,.89.16.76a.22.22,0,0,1,.16-.05s.09,0,.11-.12.18-.3.22-.18-.07.55-.18.55a.22.22,0,0,0-.15.08.13.13,0,0,1-.17,0c-.1,0-.13,0-.16.11s0,.4.13.4.15.17.16.34,0,.07-.12.08-.2.12-.18.39c0,.1,0,.53,0,1a7.77,7.77,0,0,0,.14,1.27c.09.4.09.5,0,.66s-.09.34.07.4a.17.17,0,0,1,.1.22c0,.18.13.66.2.65s0-.11,0-.23c0-.33,0-.52.15-.55s.1,0,.1.14a.44.44,0,0,0,0,.23.25.25,0,0,1,0,.19.3.3,0,0,0,0,.26.47.47,0,0,1-.28.61c-.24,0-.3.24-.12.44s.16.13.19.11.06,0,0,.13-.07.39.07.41,0,.13,0,.12a.15.15,0,0,0-.14.1c-.09.19-.19.17-.27-.07a.39.39,0,0,0-.22-.26c-.16-.05-.17-.25,0-.61.08-.2.08-.2-.16-.36s-.24-.16-.17-.34,0-.54-.17-.53-.3.18-.2,1,.07,1-.12.76-.12-.19-.18,0,.09.54.25.5.24.15.27.69,0,.7-.11.68-.12,0-.08.17.08.19.15.17a1.1,1.1,0,0,0-.11.6.72.72,0,0,0,.24.27c.22.16.31.57.35,1.42a7.52,7.52,0,0,0,.41,2.47.51.51,0,0,1,0,.3c0,.2,0,.25.11.35a.7.7,0,0,1,.17.29.39.39,0,0,0,.15.24c.11.06.15.35.07.51A5,5,0,0,0,94.31,88c.06.23.11.3.23.35s.15.08.11.16a.31.31,0,0,0,0,.19c-.25.07-.09,1.26.12,1.38a.09.09,0,0,1,0,.13,3.31,3.31,0,0,0,.15.76c.18.68.18.68.4.74s.32.2.1.24-.15.05-.12.2c.32,1.66.34,1.66.22,1.7a.08.08,0,0,0,0,.11c.2,0,.35.07.35.23a2.83,2.83,0,0,0,.09.48,6.21,6.21,0,0,1,.13.68.75.75,0,0,0,.14.43c.08.09.08.13,0,.21s-.08.25,0,.27.37.89.24,1-.09.1,0,.31a3.15,3.15,0,0,1,.2.47c.07.19.11.23.21.22s.46.93.35,1.2a.33.33,0,0,0,0,.21.35.35,0,0,1,0,.22.66.66,0,0,0,0,.3c.19.79.24.94.31,1a10.44,10.44,0,0,1,.9,2.09,17,17,0,0,0,.68,1.56.29.29,0,0,1,0,.22c0,.14,0,.27.2.69a4.33,4.33,0,0,1,.29.82,2.23,2.23,0,0,0,.34.8c.15.28.39.73.51,1a5,5,0,0,0,.91,1.45,1.77,1.77,0,0,1,.27.28,5.69,5.69,0,0,0,.59.65c1.26-.56,2.52-1.16,3.78-1.84-4.63-11.52-5.88-16.73-8.32-30.67-.7-4-1.4-8.1-1.06-12.17C97,63.56,97.91,61,98.36,58.5a28.29,28.29,0,0,0,.35-3c-.15,0-.38-.11-.38-.24s0-.13.14-.11a.3.3,0,0,0,.27-.1c.11-1.82.11-3.64.12-5.47a5.74,5.74,0,0,0-.49-2.85,3.31,3.31,0,0,0-.44-.6c0,.29,0,.41.08.44s0,.35-.11.56a2,2,0,0,0-.07,1.19.8.8,0,0,1,.11.29c.07.63.07.68-.07.71s-.26.19-.21.42c.09.39-.15.7-.26.35a.22.22,0,0,0-.13-.16c-.1,0-.15-.13-.13-.37s0-.26-.23-.18-.17.07-.17.5a2.34,2.34,0,0,0,.06.54.54.54,0,0,1-.1.51c-.15.12-.35,0-.31-.26a5.91,5.91,0,0,0,.08-.77,3.28,3.28,0,0,0-.15-1.11c-.08-.2-.07-.22.05-.33a.3.3,0,0,0,.1-.31c0-.23.1-.42.25-.36s.09.11.09.28a.38.38,0,0,0,.13.37c.16.13.18.29.06.39a.11.11,0,0,0,.06.19,2.74,2.74,0,0,1,.45-.77,1.52,1.52,0,0,0,.06-1.12,4,4,0,0,1,0-1.35l-.36-.28a1.29,1.29,0,0,1-.1.7.91.91,0,0,0-.07.42c.07.31-.26.25-.41-.07s-.16-1,.09-1.06c.08,0,.11,0,.1-.11a.19.19,0,0,1,0-.12l-.4-.25L96,44.75c0,.35,0,.65,0,.67-.16.08-.31-.3-.31-.57s0-.25-.08-.25l0-.06-.43-.17a1.77,1.77,0,0,0,.12.24C95.39,44.81,95.4,44.83,95.32,45Zm-1.5,24.45a.24.24,0,0,1,0,.13C93.74,69.65,93.77,69.47,93.82,69.47Zm-.07,1.62a1,1,0,0,1,.07.28c0,.22,0,.25-.07.23s-.12-.08-.14-.22S93.67,71,93.75,71.09Zm.08,2.52a.48.48,0,0,1-.11-.33c0-.27,0-.32-.18-.36s-.14-.07-.08-.14.35-.13.36,0l0,.47C93.88,73.52,93.89,73.62,93.83,73.61Zm-.48,4.59a.07.07,0,0,1,.09.07.09.09,0,1,1-.17,0A.08.08,0,0,1,93.35,78.2Zm.3,1.76a.38.38,0,0,1-.13-.25c0-.24-.14-.34-.3-.32s-.33-.31-.23-.67.06-.27,0-.31a.15.15,0,0,1-.06-.25c.09-.07.25.07.22.2s.17.33.27.28a.21.21,0,0,1,.17,0c.15.09.2.3.17.57a2.22,2.22,0,0,0,0,.45C93.76,80,93.76,80,93.65,80Zm.7,7.75s0-.08.08-.09a.17.17,0,0,1,.16.22C94.55,87.9,94.37,87.82,94.35,87.71Zm1.7-22.57a1.19,1.19,0,0,1-.06.71c-.07.09-.17-.15-.15-.35S96,65.1,96.05,65.14ZM94.91,87.33c.1-.08.15,0,.11.12s0,.14.07.18a.22.22,0,0,1,.12.13c0,.12-.12.2-.24.13S94.8,87.4,94.91,87.33ZM95.18,90c-.32-.07-.45-.22-.21-.24a.23.23,0,0,0,.17-.08c0-.14.17-.12.31,0S95.59,90.06,95.18,90Zm.56,1c-.09,0-.11,0-.07-.17s0-.12-.09-.15-.12-.23,0-.31.1,0,.15.21S95.84,90.9,95.74,90.93Zm0-22.73c-.11.15-.25-.12-.19-.39a3.54,3.54,0,0,0,.08-.45c0-.17,0-.23.13-.24S95.87,68,95.77,68.2Zm.17-1.63c-.08.25-.15.2-.15-.1s.07-.43.17-.36S96,66.3,95.94,66.57ZM96,92.45c0-.14.06-.15.1-.12S96.08,92.47,96,92.45Zm2.48-38.71a.09.09,0,0,1,.11,0c.09.19,0,.4-.16.3S98.43,53.78,98.52,53.74Zm-2,3.77c-.2-.12,0-.21.16-.11a.25.25,0,0,1,.16.21c0,.13-.09.15-.14,0A.47.47,0,0,0,96.52,57.51Zm.19,40s.07,0,.1.07,0,.12-.06.11S96.62,97.61,96.71,97.54Zm0-38.72c-.12,0-.13-.08,0-.29C96.9,58.76,96.87,58.84,96.74,58.82ZM97.3,52l.12-.27a.88.88,0,0,1,0,.71c-.06,0-.23-.14-.22-.21ZM97,54.68c0-.14,0-.17,0-.16s.09.06.07.15a.24.24,0,0,0,0,.18s0,.1,0,.18a.26.26,0,0,0,0,.17.62.62,0,0,1,.06.29,2.2,2.2,0,0,1-.21,1.32.42.42,0,0,0-.16.25c0,.26-.16.14-.17-.16,0-.14,0-.39,0-.56a1.32,1.32,0,0,0,0-.5c-.06-.18,0-.24.06-.5C97,54.91,97.08,54.69,97,54.68Z"/><path class="cls-9" d="M93.75,45.36a.83.83,0,0,0-.15.34c-.06.24-.06.25.11.4s.3.53.21.64A.34.34,0,0,0,94,47c.09.2.12.17.19-.15s.08-.42.27-.39.38-.2.22-1.14a2.4,2.4,0,0,1,0-.57,1.4,1.4,0,0,0,0-.54c-.23-.08-.47-.15-.71-.21a5.26,5.26,0,0,0,.09.7C94.06,45,94,45.08,93.75,45.36Zm.6-.88s.07.13.08.25c0,.37-.19.38-.24,0C94.16,44.56,94.23,44.43,94.35,44.48Z"/><path class="cls-9" d="M93.62,65.74a.19.19,0,0,0,.07-.13C93.48,65.69,93.5,65.8,93.62,65.74Z"/><path class="cls-9" d="M93.44,57.66a.16.16,0,0,1,.1.19c0,.15,0,.25.11.19s0-.15,0-.74c0-.23,0-.23-.17,0S93.3,57.6,93.44,57.66Z"/><path class="cls-9" d="M93.77,56l.16-.15-.05-.23c-.1-.49-.35-.33-.3.2C93.61,56.19,93.61,56.19,93.77,56Z"/><path class="cls-9" d="M93.49,67.12c.18-.06.2-.19.09-.38a.48.48,0,0,1-.06-.28c0-.17-.07-.21-.13,0a2.31,2.31,0,0,0-.08.76Z"/><path class="cls-9" d="M94,61.76s.06-.07.07-.16,0-.24-.12-.15S93.89,61.76,94,61.76Z"/><path class="cls-9" d="M93.53,68.14a.44.44,0,0,0-.08-.29.27.27,0,0,1-.07-.23c.05-.17,0-.24-.09-.09a1.15,1.15,0,0,0,.14.73C93.52,68.35,93.52,68.34,93.53,68.14Z"/><path class="cls-9" d="M95.51,48.09c.06,0,.07-.09,0-.36s-.14-.26-.14,0S95.44,48.13,95.51,48.09Z"/><path class="cls-9" d="M92.5,65.7c.08,0,.09-.12,0-.18C92.36,65.68,92.4,65.75,92.5,65.7Z"/><path class="cls-9" d="M94.46,60.54c.15-.07,0-.24,0-.21S94.4,60.53,94.46,60.54Z"/><path class="cls-9" d="M92.24,68.91c0,.27,0,.43.17.27s0-1.05-.18-.93-.1.46,0,.46S92.26,68.79,92.24,68.91Z"/><path class="cls-9" d="M92.55,75c.09-.25.1-.3,0-.44s-.12-.28.08-.19.19.12.19.16.11-.13.1-.3a.89.89,0,0,1,0-.38.74.74,0,0,0,.06-.24c0-.34,0-.38-.08-.44s-.1-.08,0-.24,0-.2,0-.26a.28.28,0,0,1-.11-.22c0-.08,0-.15-.06-.15s-.07-.07,0-.13.21-.1.08-.7c-.06-.25-.15-.2-.14.09s-.16.54-.34.54-.22,2,.06,2.94C92.44,75.24,92.44,75.24,92.55,75Z"/><path class="cls-9" d="M92.54,70c.18,0,.23,0,.29-.07s.08-.21,0-.3,0-.1,0-.19.09-.38,0-.36-.11.08-.13.2a.79.79,0,0,1-.24.4C92.21,69.87,92.22,69.89,92.54,70Z"/><path class="cls-9" d="M92.78,74.66c-.11,0-.1.26,0,.34s.09,0,.08-.15S92.83,74.64,92.78,74.66Z"/><path class="cls-9" d="M92.51,70.37c-.12-.13-.17-.07-.17.25a.83.83,0,0,1-.07.44c-.1.15-.11.4,0,.39s.39-.32.39-.46a.36.36,0,0,1,.11-.23.52.52,0,0,0,.13-.24c0-.2,0-.28,0-.28l-.12,0C92.7,70.39,92.58,70.45,92.51,70.37Z"/><path class="cls-9" d="M94.34,49.13a2,2,0,0,0,0-.84c0-.06-.07-.06-.13,0s-.09.07-.15,0-.17,0-.14.23A1.52,1.52,0,0,0,94.34,49.13Z"/><path class="cls-9" d="M93.7,57a.26.26,0,0,0,0-.11C93.64,56.8,93.64,57,93.7,57Z"/><path class="cls-9" d="M94,67.25c0,.14,0,.29.09.24s.07-.32,0-.32S94,67.2,94,67.25Z"/><path class="cls-9" d="M94.45,64c.08.1.11.05.07-.11A.16.16,0,0,0,94.45,64Z"/><path class="cls-9" d="M93.63,64.34c0,.15,0,.21.06.23s.17-.22.09-.39S93.68,64.09,93.63,64.34Z"/><path class="cls-9" d="M94.73,56.51c-.1.16,0,.39.11.41A7.5,7.5,0,0,0,95,55.23c0-.37-.09-.45-.25-.31a.89.89,0,0,0,0,.72A1.1,1.1,0,0,1,94.73,56.51Z"/><path class="cls-9" d="M95.06,53.76a.7.7,0,0,1,.09-.29.28.28,0,0,0,0-.2,1.85,1.85,0,0,1,0-.27c0-.24-.1-.2-.18.11,0,.15-.1.26-.14.26s0,.35.08.49S95,54,95.06,53.76Z"/><path class="cls-9" d="M94.08,54.44a.1.1,0,0,0,0,.19C94.12,54.64,94.14,54.48,94.08,54.44Z"/><path class="cls-9" d="M94.39,66.57c-.2,0-.23,0-.24.06s.39.25.53.18S94.7,66.63,94.39,66.57Z"/><path class="cls-9" d="M94.53,64.37c0-.06,0-.12,0-.12s-.06.06-.07.14,0,.14,0,.12S94.52,64.43,94.53,64.37Z"/><path class="cls-9" d="M94.25,65.34a.33.33,0,0,1,0,.28c-.1.13,0,.27.13.42s.24.17.33,0a2.31,2.31,0,0,0,.08-.55c0-.37,0-.37-.25-.41S94.17,65.08,94.25,65.34Z"/><path class="cls-9" d="M94.31,51.1c0-.48,0-.57-.1-.46a1.35,1.35,0,0,0,0,.8C94.29,51.46,94.31,51.38,94.31,51.1Z"/><path class="cls-9" d="M95,64.27c0-.12-.08-.17-.13-.07s-.06.14,0,.15A.08.08,0,0,0,95,64.27Z"/><path class="cls-10" d="M103.37,101.7c-4.76,2.38-10.26,3.39-15.39,4.35a55.16,55.16,0,0,1-9.49,1.23,18.71,18.71,0,0,1-4.09-.38c-.41-.09-1.42-.52-2.38-.84,0-.2,0-.4.07-.6.92.3,1.87.79,2.46.92,3.71.78,7.58.15,11.26-.52a80.38,80.38,0,0,0,17.34-4.8C103.22,101.28,103.3,101.48,103.37,101.7Z"/><path class="cls-10" d="M102.13,97.92c-9.19,2.36-20.1,3.31-29,.12,0-.19.06-.38.1-.57a48.3,48.3,0,0,0,14.35,1.71,100,100,0,0,0,14.36-2C102,97.43,102,97.67,102.13,97.92Z"/><path class="cls-10" d="M100.47,91.81c-.53.1-1.06.18-1.58.26a71,71,0,0,1-9.76.83c-4.74.06-10.42.08-14.69-2.4,0-.16.07-.32.1-.48,4.34,2.14,9.31,2.34,14.15,2.3a68.52,68.52,0,0,0,9.16-.71c.84-.12,1.67-.24,2.47-.42Z"/><path class="cls-10" d="M98.81,83.85a38.29,38.29,0,0,1-22.89-.71c0-.16.06-.34.1-.51a40.81,40.81,0,0,0,12.42,1.8A39.38,39.38,0,0,0,98.61,82.8C98.68,83.16,98.75,83.51,98.81,83.85Z"/><path class="cls-10" d="M97.52,76.57a35.13,35.13,0,0,1-20.36.13,5.48,5.48,0,0,0,.1-.56,35.85,35.85,0,0,0,12.25,1.14,32.24,32.24,0,0,0,7.85-1.66C97.41,75.94,97.46,76.26,97.52,76.57Z"/><path class="cls-10" d="M96.69,69.59a48.89,48.89,0,0,1-7.33.85,43.63,43.63,0,0,1-11-.75c0-.26,0-.52.08-.79a49,49,0,0,0,10.92.85,42.64,42.64,0,0,0,7.31-1.06C96.67,69,96.67,69.29,96.69,69.59Z"/><path class="cls-10" d="M98,60.11c-.09.38-.18.76-.28,1.14-6.21,1.79-13.18,2.61-19.1,1,0-.11,0-.21,0-.32l0-.53A32.17,32.17,0,0,0,89.18,62,48.31,48.31,0,0,0,98,60.11Z"/><path class="cls-10" d="M98.82,53.25l0,1c-6.34,1.61-13.37,1.24-19.8.26,0-.16,0-.31,0-.48a81.56,81.56,0,0,0,11.38.45A40.82,40.82,0,0,0,98.82,53.25Z"/><path class="cls-10" d="M98.59,47.17c-2.17.31-4.34.48-6.46.58a57.79,57.79,0,0,1-13.32-.65c0-.26-.1-.52-.16-.78a81,81,0,0,0,13,.71,54.74,54.74,0,0,0,6.43-.71,2.4,2.4,0,0,1,.25.37A4.16,4.16,0,0,1,98.59,47.17Z"/></g></g></svg>