<svg id="anorexia" xmlns="http://www.w3.org/2000/svg" xmlns:xlink="http://www.w3.org/1999/xlink" viewBox="0 0 111 162"><defs><style>.cls-1{fill:url(#Áåçûìÿííûé_ãðàäèåíò_1869);}.cls-2{fill:url(#Áåçûìÿííûé_ãðàäèåíò_1880);}.cls-3{fill:#ffd19a;}.cls-4{fill:#2b245c;}.cls-5{fill:url(#Áåçûìÿííûé_ãðàäèåíò_1868);}.cls-6{fill:url(#Áåçûìÿííûé_ãðàäèåíò_1868-2);}.cls-7{fill:url(#Áåçûìÿííûé_ãðàäèåíò_1869-2);}.cls-8{fill:url(#Áåçûìÿííûé_ãðàäèåíò_1869-3);}.cls-9{fill:#d83d5b;}.cls-10{fill:#c44427;}</style><linearGradient id="Áåçûìÿííûé_ãðàäèåíò_1869" x1="7.36" y1="161.22" x2="104.07" y2="-30.56" gradientUnits="userSpaceOnUse"><stop offset="0" stop-color="#e4ddff"/><stop offset="1" stop-color="#faf9ff"/></linearGradient><linearGradient id="Áåçûìÿííûé_ãðàäèåíò_1880" x1="11.87" y1="158.79" x2="115.96" y2="-30.95" gradientUnits="userSpaceOnUse"><stop offset="0.01" stop-color="#998ff4"/><stop offset="0.98" stop-color="#fff"/></linearGradient><linearGradient id="Áåçûìÿííûé_ãðàäèåíò_1868" x1="86.11" y1="27.99" x2="89.87" y2="27.99" gradientUnits="userSpaceOnUse"><stop offset="0" stop-color="#ef6e98"/><stop offset="1" stop-color="#db385b"/></linearGradient><linearGradient id="Áåçûìÿííûé_ãðàäèåíò_1868-2" x1="68.38" y1="81.07" x2="100.02" y2="81.07" xlink:href="#Áåçûìÿííûé_ãðàäèåíò_1868"/><linearGradient id="Áåçûìÿííûé_ãðàäèåíò_1869-2" x1="3.37" y1="146.18" x2="19.37" y2="146.18" xlink:href="#Áåçûìÿííûé_ãðàäèåíò_1869"/><linearGradient id="Áåçûìÿííûé_ãðàäèåíò_1869-3" x1="12.89" y1="16.95" x2="34.18" y2="16.95" xlink:href="#Áåçûìÿííûé_ãðàäèåíò_1869"/></defs><title>anorexia</title><path class="cls-1" d="M81.23,63.44c-.08,1.81-.18,3.61-.29,5.41-.11,2.25-.23,4.5-.38,6.73-1.12,19-2.65,37.89-4.18,56.83a74.76,74.76,0,0,1-2.06,14.06,16.37,16.37,0,0,1-4,7.43,9.31,9.31,0,0,1-2.1,1.5,15.48,15.48,0,0,1-5.6,1.29c-.61.07-1.2.11-1.82.16a110.27,110.27,0,0,1-25-.89q-3.41-.48-6.75-1.22c-.55-.1-1.09-.22-1.64-.34-5.25-1.2-10.67-2.94-14.36-6.84-3.92-4.15-5.25-10-6.22-15.66A222.94,222.94,0,0,1,3.88,105c-.13-3-.22-5.93-.24-8.88a235.38,235.38,0,0,1,4.69-48.6c1.69-8.36,3.91-16.84,8.82-23.82a30.21,30.21,0,0,1,6.89-7c4.83-3.5,10-4.12,15.58-5.41a53.24,53.24,0,0,1,20.89-.5c7,1.29,13.88,5,17.25,11.28A30,30,0,0,1,80.63,32.1C82.1,42.46,81.75,53,81.23,63.44Z"/><path class="cls-2" d="M82.47,72.22a4.59,4.59,0,0,1-1.91,3.36,18.5,18.5,0,0,1-2.86,1.87c-4.31,2.44-8.56,6.28-12.14,9.74a1.94,1.94,0,0,0-.49.61,2.11,2.11,0,0,0,0,1.27c1.73,8.28,5.15,16.08,6.73,24.46a92,92,0,0,1-1.47,40.37,9.31,9.31,0,0,1-2.1,1.5,15.48,15.48,0,0,1-5.6,1.29c-.61.07-1.2.11-1.82.16a18.85,18.85,0,0,1-1-4.63q-1.06-8-2.12-16c-.63-4.85-1.28-9.74-3-14.31-2.21-5.91-6.23-11.48-5.95-17.79-.91,7.12-4.34,13.65-6.26,20.56C39.58,135,40,146.32,35.78,156q-3.41-.48-6.75-1.22c-.37-1.14-.65-2.31-.91-3.46-1.59-7-3.19-14.05-3.57-21.21a46.16,46.16,0,0,0-.85-9c-.81-3.26-2.57-6.23-3.46-9.47-1.31-4.73-.65-9.69.88-14.28a53.56,53.56,0,0,1,3.1-7.22c.7-1.36,1.59-2.6,2.33-4a3.58,3.58,0,0,0,.56-1.89c0-.48-.3-.81-.1-1.37a12.83,12.83,0,0,0,.67-1.64c.2-.94-.28-1.88-.39-2.83C24,82.94,20.49,88.18,16,91.55c-4.34,3.26-7.35,7.92-10.63,12.25a3.33,3.33,0,0,1-1.17,1.1,1.11,1.11,0,0,1-.31.09c-.13-3-.22-5.93-.24-8.88.1-.34.22-.67.35-1a27.32,27.32,0,0,1,2.79-4.82c4.48-6.62,9.33-13.14,12.15-20.63,1.54-4.08,2.42-8.65,4.93-12.31,2.08-3,6.11-3,9.39-3.61,1.79-.33,4.81-1.27,5.48-3.15a4.36,4.36,0,0,0-.06-2.83,2,2,0,0,0-.49-.84,3.36,3.36,0,0,0-.79-.43,6.2,6.2,0,0,1-2.78-2.94c-2.54-4.28-.41-7.79,1-11.89a1.5,1.5,0,0,0,.1-.75c-.11-.52-.69-.77-1.19-1a7.05,7.05,0,0,1-3.73-3.23A4.31,4.31,0,0,1,31.27,22a5.41,5.41,0,0,1,3.89-1.39c1.38,0,3,.34,3.64,1.54.6,1,.33,2.33.24,3.53s.17,2.64,1.26,3.12a2.92,2.92,0,0,0,1.21.17c1.39,0,2.76-.3,4.15-.36,6.39-.28,7.7,5.12,7,10.35a13.26,13.26,0,0,1-1.45,5.33c-1,1.59-2.85,2.79-4.66,2.37-1.29,1.66.18,4.23,2.14,5s4.15.54,6.23.86c4.31.66,8.43,3.6,12,5.86a110,110,0,0,1,12.43,9,15.59,15.59,0,0,1,1.52,1.42A4.93,4.93,0,0,1,82.47,72.22Z"/><path class="cls-3" d="M84.28,27.52c.37.24,5.29,3,3.75,10.81s-7.18,9.1-9.53,7.6-3.66-3-3.45-9.93S80,24.67,84.28,27.52Z"/><path class="cls-3" d="M81.26,43.32c.06.41,1,5.15-2,6.12s-6.67-.07-8.18,4.88c-1.45,4.76-2,9.64-3.16,14.42a105.69,105.69,0,0,1-5.91,17,92.85,92.85,0,0,0-3.63,8.55,31.59,31.59,0,0,0-1.53,7.52,1.05,1.05,0,0,0,.14.8c.4.48,1.18,0,1.51-.54,1-1.58,1.1-3.53,1.74-5.28a23.08,23.08,0,0,1,3.19-5.2,66.33,66.33,0,0,0,7.81-15.67c1-2.76,1.82-5.6,2.83-8.36.68-1.84.85-3.89,1.55-5.69,0,0-1.38,3.57.14,6s.2,12.79-1.19,16.73c0,0,10.22,3,17.63,0,0,0-2.72-11.62-1.27-15.35a31.08,31.08,0,0,0,2-16.09C92.63,50.32,91,50,86.62,48.68c-1.7-.53.8-11.5.8-11.5S80.71,39.2,81.26,43.32Z"/><path class="cls-4" d="M77.79,35.86c.87,1,1.46-.69,2.78-.18a2.17,2.17,0,0,1,1.26,2,23.47,23.47,0,0,1-.54,3c-.37,3.68,4.18,5.26,6.72,3a7.12,7.12,0,0,0,2.06-4.16,12.3,12.3,0,0,0-.68-6.63c-.29-.73-1-2.08-.43-2.84.41-.56,1.71-.75,2.31-1a4.26,4.26,0,0,0,2.45-4.24,3.7,3.7,0,0,0-3.51-3.23,3.31,3.31,0,0,0-3.16,3.41c0,.7.2,1.64-.44,1.86a1.31,1.31,0,0,1-1-.24,7.3,7.3,0,0,0-6.87.14c-1.47.83-5.54,5.46-2.75,6.32,1,.33,1.07,1.58,1.51,2.38A3.06,3.06,0,0,0,77.79,35.86Z"/><path class="cls-3" d="M83.45,88.15l-.62,2.45c-1.41,5.77-5,27.68-5,34.78,0,8.11-3.54,20.61-4.36,23.91-.68,2.7-1.87,6.1-2.08,8.41a5.94,5.94,0,0,0,0,1.35c.42,2.57-1.77,2.22-3,2.38-2.2.26-8.11,1-8.25,0-.09-.69,2.61-1.4,5-2.5a9.55,9.55,0,0,0,2.47-1.54c2.2-2.06,2.75-29.4,3.16-32.7s1.1-12.24,1.79-25.43S76,80.71,76,80.71c4.16-2.28,6.4-2.38,7.48-1.29C85,81,84.26,84.79,83.45,88.15Z"/><path class="cls-3" d="M106.79,161.43c-.14,1-6,.26-8.24,0-1.27-.16-3.46.19-3-2.38a4.37,4.37,0,0,0,0-1c-.12-2.3-1.38-5.89-2.09-8.72-.82-3.3-4.36-15.8-4.36-23.91,0-7.1-3.63-29-5-34.78-.18-.75-.39-1.58-.6-2.45-.82-3.37-1.53-7.2,0-8.73,1.08-1.09,3.31-1,7.47,1.29,0,0,2.82,5.36,3.5,18.55s1.38,22.13,1.79,25.43,1,30.64,3.16,32.7a9.29,9.29,0,0,0,2.47,1.54C104.2,160,106.89,160.74,106.79,161.43Z"/><path class="cls-3" d="M106.86,68.54a3.35,3.35,0,0,1,.75,2.25c-.5,3-5.89,4.9-8.26,5.88a23.8,23.8,0,0,0-4,1.83,5.9,5.9,0,0,0-2.69,3.33c-.2.74-.74,3-2,2-.8-.67,0-3.39.26-4.19.77-2.16,3.16-3.76,4.93-5.08.61-.46,5.85-4.25,6.39-3.74-4.81-4.46-14.45-6.62-15.12-14.28-.18-2.1.47-6.4,3-6.45,2.2,0,5,4.3,6.43,5.71A77.71,77.71,0,0,1,106.86,68.54Z"/><path class="cls-5" d="M89.85,29.22c-.11-.4-.35-.46-.7-.6a3.84,3.84,0,0,1-.93-.56A4.68,4.68,0,0,1,87,26.31c-.22-.54-1-.13-.88.37a4.37,4.37,0,0,0,3,3.23.61.61,0,0,0,.6-.17l.06,0A.48.48,0,0,0,89.85,29.22Z"/><path class="cls-6" d="M100,108.23c-10.33,5.52-20.31,6.71-31.64,3.71.18-2.32.37-4.41.57-6.35,0-.18,0-.37.07-.55.27-2.46.58-4.66.91-6.76,0-.17,0-.35.09-.52.35-2.16.73-4.22,1.14-6.34,0-.15.06-.3.09-.44l1.26-6.27c0-.15,0-.3.09-.46.33-1.67.67-3.46,1-5.41,0-.16.06-.32.09-.5.12-.62.23-1.27.36-1.93.24-1.3.48-2.62.64-3.94,0-.24,0-.48.07-.72s0-.53.06-.8c.12-1.76,0-3.54.13-5.31a2.62,2.62,0,0,1,0-.28l0-.49c.13-2.07.18-4.14.28-6.22,0-.15,0-.29,0-.43a2.44,2.44,0,0,1,0-.27,26.12,26.12,0,0,0-.2-6.06c0-.23-.09-.47-.15-.71s-.13-.56-.22-.85,7.87-1.5,8.57-1.6A12.83,12.83,0,0,1,91.21,50a4.52,4.52,0,0,1,1.51,1.23,2.54,2.54,0,0,1,.23.34,2.48,2.48,0,0,1,.2.44,6.22,6.22,0,0,1,.25,2.15c0,1.13,0,2.26,0,3.38,0,.3,0,.61,0,.93a28.07,28.07,0,0,1-.4,3.86c-.08.48-.19,1-.31,1.46-.08.34-.17.69-.25,1a27.4,27.4,0,0,0-.9,4.43,20.33,20.33,0,0,0-.08,2.34c0,.28,0,.55,0,.82a46.49,46.49,0,0,0,.61,5.5c0,.28.1.58.15.86.08.52.17,1,.26,1.57.26,1.46.5,2.83.73,4.1.06.33.12.65.19,1,.46,2.5.9,4.67,1.37,6.69,0,.19.09.38.13.56.4,1.69.82,3.29,1.31,4.89.07.22.13.45.2.67.29.94.59,1.89.93,2.86l.21.59C98.21,103.63,99,105.77,100,108.23Z"/><path class="cls-7" d="M19,155.59C9.73,154.82,5.58,144,4,136.13a.24.24,0,0,0-.46,0c-.54,2.35.47,4.78,1.36,6.92a40.84,40.84,0,0,0,3.75,7.44c2.33,3.41,6.11,6.47,10.48,5.82C19.54,156.24,19.39,155.62,19,155.59Z"/><path class="cls-8" d="M33.81,9c-8.75-.32-18.59,7.15-20.91,15.54a.28.28,0,0,0,.52.21c2.22-4,4.71-7.62,8.49-10.32s7.7-3.76,12-4.7C34.34,9.65,34.22,9,33.81,9Z"/><path class="cls-4" d="M68.34,161.43c-2.2.26-8.11,1-8.25,0-.09-.69,2.61-1.4,5-2.5a8.43,8.43,0,0,0,3.84-.33c.83-.29,1.62-.68,2.46-.9a5.94,5.94,0,0,0,0,1.35C71.79,161.62,69.6,161.27,68.34,161.43Z"/><path class="cls-4" d="M106.79,161.43c-.14,1-6,.26-8.24,0-1.27-.16-3.46.19-3-2.38a4.37,4.37,0,0,0,0-1c.6.21,1.18.47,1.78.68a9.14,9.14,0,0,0,4.51.24C104.2,160,106.89,160.74,106.79,161.43Z"/><path class="cls-9" d="M90.18,50a1.91,1.91,0,0,0-.2.84c0,.37,0,.42.14.25s.45-.29.55-.22a4,4,0,0,1,.19,2.36.56.56,0,0,0,0,.41.72.72,0,0,1,0,.47c-.08.43-.09.44-.33.37a.35.35,0,0,0-.26,0,.23.23,0,0,1,0,.17c-.06.13,0,.37,0,.38s.06-.09.07-.2,0-.21.33-.17.34.09.25.61,0,.91.17.78.16,0,.21.16.09.11.17.13.16,0,.07.83a4.34,4.34,0,0,0-.06,1.23.74.74,0,0,1-.1.4c-.08.18-.11.3-.08.35a.87.87,0,0,1,0,.39c-.07.31-.09.33-.24.35s-.23,0-.24-.25,0-.38-.11-.39-.09.07-.13.35-.07.39-.21.52-.19.32,0,.34.08,0,0,.12a.54.54,0,0,0,0,.28,1.11,1.11,0,0,0,.2-.24.33.33,0,0,0,.09-.24c0-.29.23-.46.44-.29.06,0,0,.09,0,.25s-.12.21-.09.53a2.62,2.62,0,0,1,0,.82c-.08.45-.08.49,0,.58s.12.25,0,.4a.26.26,0,0,0-.1.28.62.62,0,0,1-.16.49c-.11.13-.21,0-.22-.26a.61.61,0,0,0-.14-.37.51.51,0,0,1-.13-.24s0-.08-.1-.09a3.76,3.76,0,0,0-.23,1.8c.06.06,0,.09,0,.2a.24.24,0,0,0,0,.25.36.36,0,0,1,0,.25,1.26,1.26,0,0,0-.09.66.17.17,0,0,1,0,.19c-.06.08-.08.18-.06.46a5.07,5.07,0,0,1,0,.59c0,.17,0,.23,0,.23a.22.22,0,0,1,.14.13.4.4,0,0,0,.09.11,1.5,1.5,0,0,0,.26-.59s0-.08,0-.13.23,0,.16.17a.14.14,0,0,0,.06.19c.1.06.1.1,0,.28a4.51,4.51,0,0,0-.11.59c0,.2-.09.54-.12.75a1.12,1.12,0,0,0,0,.61,1,1,0,0,1-.17.93c-.12.08-.12.08,0,.2a.46.46,0,0,1,.11.25.55.55,0,0,0,0,.25c.08.18-.1.57-.2.42s-.08-.07-.11,0a.11.11,0,0,0,.11.17s.07,0,.06.12-.06.11-.09.1a.18.18,0,0,0-.14,0,.16.16,0,0,1-.15,0c-.06,0-.1,0-.15.13-.12.33-.28.11-.26-.38s-.15-.69-.26-.44a.42.42,0,0,0,0,.29,1.16,1.16,0,0,1,0,.75c-.07.09-.08.09-.18,0s-.15-.15-.24-.14-.12,0-.15.62,0,.81.15.69a.18.18,0,0,1,.15,0s.08,0,.09-.1.17-.28.21-.17-.07.5-.17.5a.17.17,0,0,0-.13.08.13.13,0,0,1-.16,0c-.09,0-.12,0-.14.1s0,.36.11.36.14.16.15.31-.05.07-.11.07-.18.12-.17.36,0,.49,0,.89a7.67,7.67,0,0,0,.13,1.15c.08.36.08.45,0,.6s-.08.31.06.37a.17.17,0,0,1,.1.2c0,.16.11.59.18.59s0-.1,0-.21c0-.3,0-.47.14-.5s.09,0,.09.13a.39.39,0,0,0,0,.21.24.24,0,0,1,0,.17.21.21,0,0,0,0,.23.44.44,0,0,1-.26.56c-.22,0-.27.22-.11.4s.14.12.17.1.06,0,0,.12-.06.36.07.38,0,.11,0,.1-.1,0-.13.1-.17.15-.25-.07a.32.32,0,0,0-.2-.23c-.14,0-.15-.23,0-.56s.07-.19-.15-.33-.22-.15-.15-.31,0-.49-.16-.48-.27.16-.18.88.07,1-.11.7-.11-.18-.16,0,.08.5.23.47.21.13.24.62,0,.64-.1.62-.11,0-.07.16.07.17.14.15a1,1,0,0,0-.11.54.62.62,0,0,0,.22.25c.2.15.29.52.33,1.3a6.73,6.73,0,0,0,.36,2.25.48.48,0,0,1,0,.27c0,.18,0,.23.09.32a.57.57,0,0,1,.16.26.36.36,0,0,0,.13.22c.1,0,.14.31.07.47a4.55,4.55,0,0,0,.15,1.51c.06.2.11.27.22.32s.13.07.09.14a.2.2,0,0,0,0,.17c-.23.06-.08,1.15.11,1.26a.1.1,0,0,1,0,.12,2.35,2.35,0,0,0,.13.69c.16.62.16.62.36.68s.29.17.1.21-.15,0-.12.19c.29,1.51.31,1.51.21,1.54a.08.08,0,0,0-.05.11.23.23,0,0,1,.32.2,3,3,0,0,0,.08.44,4.83,4.83,0,0,1,.12.62.68.68,0,0,0,.12.39c.08.09.08.12,0,.19s-.07.23,0,.25.34.81.22.89-.08.09,0,.28a3.93,3.93,0,0,1,.18.43c.06.17.1.21.19.2s.42.85.32,1.09a.27.27,0,0,0,0,.19.38.38,0,0,1,0,.2.68.68,0,0,0,0,.28c.18.72.22.86.29.92a10.64,10.64,0,0,1,.82,1.91c.3.76.58,1.4.61,1.42s0,.12,0,.2,0,.24.18.63a4,4,0,0,1,.26.75,2.13,2.13,0,0,0,.31.73c.14.25.35.66.46.92a4.79,4.79,0,0,0,.83,1.31,3,3,0,0,1,.25.26,5.52,5.52,0,0,0,.53.59c1.15-.51,2.3-1.06,3.45-1.67C95.8,97.74,94.66,93,92.44,80.3a43.66,43.66,0,0,1-1-11.09c.19-2.33,1-4.63,1.46-6.93a26.29,26.29,0,0,0,.32-2.78c-.14,0-.34-.09-.34-.21s0-.12.12-.1a.32.32,0,0,0,.25-.09c.09-1.66.1-3.32.11-5A5.2,5.2,0,0,0,93,51.52a3.09,3.09,0,0,0-.4-.55c0,.27,0,.37.07.41s0,.31-.09.5A1.79,1.79,0,0,0,92.46,53a.64.64,0,0,1,.1.26c.07.58.06.62-.06.65s-.24.17-.19.38-.14.64-.24.32c0-.08-.08-.14-.12-.14s-.13-.12-.12-.34,0-.24-.21-.17-.16.07-.15.46a2,2,0,0,0,0,.49.48.48,0,0,1-.09.47c-.14.11-.32,0-.28-.24a4.27,4.27,0,0,0,.07-.7,3.17,3.17,0,0,0-.13-1c-.08-.19-.07-.2,0-.31a.26.26,0,0,0,.09-.28c0-.21.09-.38.23-.33s.08.1.08.26a.34.34,0,0,0,.12.33c.15.13.16.27.06.36a.09.09,0,0,0,.05.17,2.53,2.53,0,0,1,.41-.7,1.46,1.46,0,0,0,.06-1,3.56,3.56,0,0,1,0-1.23l-.33-.25a1.28,1.28,0,0,1-.08.64.73.73,0,0,0-.07.38c.06.28-.24.22-.38-.07s-.14-1,.09-1c.07,0,.1,0,.09-.1a.17.17,0,0,1,0-.11L91.21,50l-.42-.2c0,.32,0,.59,0,.62-.15.06-.28-.28-.28-.52s-.05-.23-.08-.23,0,0,0-.06L90,49.4a.75.75,0,0,0,.11.22C90.24,49.8,90.25,49.83,90.18,50ZM88.81,72.27a.33.33,0,0,1,0,.11C88.73,72.43,88.76,72.27,88.81,72.27Zm-.07,1.47a.78.78,0,0,1,.07.26c0,.2,0,.22-.07.2s-.11-.07-.12-.2S88.67,73.67,88.74,73.74ZM88.81,76a.48.48,0,0,1-.09-.3c0-.24,0-.28-.17-.33s-.12-.06-.07-.13.32-.11.32,0l0,.43C88.86,76,88.87,76,88.81,76Zm-.43,4.18a.1.1,0,0,1,.09.07.08.08,0,0,1-.08.09.07.07,0,0,1-.08-.07A.08.08,0,0,1,88.38,80.21Zm.27,1.6a.35.35,0,0,1-.12-.22c0-.22-.12-.31-.27-.29s-.3-.28-.21-.61,0-.25,0-.28a.14.14,0,0,1,0-.23c.08-.07.23.06.2.18s.15.3.25.25a.15.15,0,0,1,.15,0,.48.48,0,0,1,.15.51,2.8,2.8,0,0,0,0,.41C88.75,81.87,88.75,81.87,88.65,81.81Zm.64,7.07s0-.08.08-.08.18.11.13.19S89.31,89,89.29,88.88Zm1.55-20.56a1,1,0,0,1-.06.65c-.06.08-.15-.13-.13-.32S90.79,68.28,90.84,68.32Zm-1,20.21c.09-.07.14,0,.1.11s0,.13.06.16a.23.23,0,0,1,.12.12c0,.11-.12.19-.22.12S89.7,88.6,89.8,88.53Zm.24,2.4c-.28-.07-.4-.21-.19-.22a.24.24,0,0,0,.16-.08c0-.12.16-.11.28,0S90.42,91,90,90.93Zm.52.88c-.09,0-.1,0-.07-.15s0-.12-.08-.14-.11-.21,0-.28.09,0,.14.19S90.65,91.78,90.56,91.81Zm0-20.7c-.1.14-.22-.11-.17-.35a3.07,3.07,0,0,0,.07-.42c0-.15,0-.21.12-.22S90.68,71,90.58,71.11Zm.16-1.49c-.07.23-.14.19-.14-.09s.06-.39.15-.33S90.81,69.38,90.74,69.62Zm.09,23.57c0-.12.06-.13.09-.11S90.86,93.21,90.83,93.19Zm2.26-35.25s.08,0,.1.05,0,.36-.15.27A.26.26,0,0,1,93.09,57.94Zm-1.82,3.43c-.19-.1,0-.19.15-.1a.26.26,0,0,1,.14.19c0,.12-.09.14-.13,0A.58.58,0,0,0,91.27,61.37Zm.17,36.46s.07,0,.09.06,0,.11,0,.1S91.36,97.89,91.44,97.83Zm0-35.26c-.12,0-.12-.07,0-.27C91.61,62.51,91.59,62.58,91.47,62.57Zm.5-6.26.11-.25a.74.74,0,0,1,0,.65s-.2-.12-.2-.19Zm-.25,2.49c0-.13,0-.16,0-.15s.07.06.06.13a.21.21,0,0,0,0,.17.23.23,0,0,1,0,.16.24.24,0,0,0,0,.16.44.44,0,0,1,0,.26,2.07,2.07,0,0,1-.18,1.2.39.39,0,0,0-.15.23c0,.24-.15.13-.15-.14a4.63,4.63,0,0,1,0-.51,1.34,1.34,0,0,0,0-.46c-.06-.16,0-.21,0-.45C91.73,59,91.78,58.81,91.72,58.8Z"/><path class="cls-9" d="M88.74,50.3a1,1,0,0,0-.13.32c-.06.22,0,.23.1.37s.27.48.19.58,0,.11,0,.2.11.15.17-.14.07-.39.24-.35.35-.19.2-1.05a2.36,2.36,0,0,1,0-.51,1.68,1.68,0,0,0,0-.5L88.88,49c0,.25.05.48.08.64S89,50.06,88.74,50.3Zm.55-.79a.39.39,0,0,1,.08.23c0,.33-.18.34-.23,0S89.18,49.46,89.29,49.51Z"/><path class="cls-9" d="M88.62,68.87a.15.15,0,0,0,.07-.12C88.5,68.83,88.52,68.92,88.62,68.87Z"/><path class="cls-9" d="M88.47,61.51a.15.15,0,0,1,.08.17c0,.14,0,.23.1.18s0-.15,0-.68c0-.21,0-.21-.15,0S88.34,61.45,88.47,61.51Z"/><path class="cls-9" d="M88.76,60l.15-.14,0-.22c-.1-.44-.32-.29-.28.19C88.62,60.17,88.62,60.17,88.76,60Z"/><path class="cls-9" d="M88.51,70.13c.16-.06.18-.18.08-.36a.35.35,0,0,1,0-.24c0-.17-.07-.2-.13,0a2.09,2.09,0,0,0-.07.69Z"/><path class="cls-9" d="M88.93,65.25s0-.07.06-.16,0-.21-.11-.13S88.87,65.24,88.93,65.25Z"/><path class="cls-9" d="M88.54,71.06a.43.43,0,0,0-.07-.28.2.2,0,0,1-.06-.2c0-.15,0-.22-.09-.08a1,1,0,0,0,.14.66C88.53,71.24,88.54,71.23,88.54,71.06Z"/><path class="cls-9" d="M90.35,52.79c.06,0,.06-.07,0-.32s-.12-.24-.13,0S90.28,52.83,90.35,52.79Z"/><path class="cls-9" d="M87.6,68.84a.1.1,0,0,0,0-.17C87.48,68.82,87.52,68.88,87.6,68.84Z"/><path class="cls-9" d="M89.39,64.13a.1.1,0,0,0,0-.19S89.33,64.12,89.39,64.13Z"/><path class="cls-9" d="M87.37,71.75c-.05.25,0,.39.15.25s0-1-.16-.85-.09.42,0,.42S87.39,71.64,87.37,71.75Z"/><path class="cls-9" d="M87.65,77.26c.09-.22.09-.27,0-.39s-.11-.26.07-.18a.31.31,0,0,1,.18.15c.08,0,.1-.12.08-.28a.71.71,0,0,1,0-.34.66.66,0,0,0,.06-.22c0-.31,0-.35-.07-.4s-.09-.07,0-.22,0-.18,0-.24a.21.21,0,0,1-.09-.2c0-.07,0-.13-.06-.14s-.07-.06,0-.11.19-.09.07-.64c0-.23-.13-.18-.13.08s-.15.49-.31.49-.19,1.82.06,2.68C87.55,77.52,87.55,77.52,87.65,77.26Z"/><path class="cls-9" d="M87.65,72.71c.15,0,.2,0,.25-.06s.08-.2,0-.27,0-.1,0-.18.09-.34,0-.33-.1.08-.12.18a.74.74,0,0,1-.22.37C87.34,72.63,87.35,72.65,87.65,72.71Z"/><path class="cls-9" d="M87.86,77c-.1,0-.09.24,0,.31s.08,0,.07-.14S87.9,77,87.86,77Z"/><path class="cls-9" d="M87.61,73.08c-.11-.12-.15-.06-.15.23a.68.68,0,0,1-.07.4c-.09.14-.1.36,0,.36s.36-.29.36-.42a.32.32,0,0,1,.1-.21.44.44,0,0,0,.12-.22C88,73,88,73,88,73l-.1,0C87.79,73.1,87.68,73.16,87.61,73.08Z"/><path class="cls-9" d="M89.28,53.74a1.7,1.7,0,0,0,0-.76c0-.06,0,0-.11,0s-.08.07-.14,0-.15,0-.12.21A1.37,1.37,0,0,0,89.28,53.74Z"/><path class="cls-9" d="M88.69,60.89a.25.25,0,0,0,0-.1C88.64,60.73,88.64,60.89,88.69,60.89Z"/><path class="cls-9" d="M89,70.25c0,.12,0,.25.08.22s.07-.3,0-.3S89,70.2,89,70.25Z"/><path class="cls-9" d="M89.38,67.27c.08.08.1,0,.07-.11A.14.14,0,0,0,89.38,67.27Z"/><path class="cls-9" d="M88.64,67.59c0,.14,0,.19,0,.21s.16-.2.08-.36S88.68,67.37,88.64,67.59Z"/><path class="cls-9" d="M89.63,60.46c-.09.15,0,.35.11.37a7,7,0,0,0,.11-1.53c0-.34-.08-.41-.22-.29a.83.83,0,0,0,0,.66A1,1,0,0,1,89.63,60.46Z"/><path class="cls-9" d="M89.93,58a.84.84,0,0,1,.09-.27.19.19,0,0,0,0-.18s0-.17,0-.24c0-.22-.09-.18-.16.09s-.09.25-.12.24,0,.32.07.45S89.91,58.16,89.93,58Z"/><path class="cls-9" d="M89.05,58.57a.09.09,0,0,0,0,.18C89.08,58.75,89.1,58.62,89.05,58.57Z"/><path class="cls-9" d="M89.33,69.62c-.19,0-.22,0-.22.06s.36.22.48.17S89.61,69.68,89.33,69.62Z"/><path class="cls-9" d="M89.45,67.62c0-.06,0-.11,0-.11s-.06.06-.07.13,0,.13,0,.11S89.45,67.68,89.45,67.62Z"/><path class="cls-9" d="M89.2,68.51a.3.3,0,0,1,0,.25c-.09.12,0,.25.12.38s.22.15.3,0a2.48,2.48,0,0,0,.07-.5c0-.34,0-.34-.22-.37S89.13,68.26,89.2,68.51Z"/><path class="cls-9" d="M89.25,55.53c0-.43,0-.52-.09-.42a1.23,1.23,0,0,0,0,.74S89.25,55.79,89.25,55.53Z"/><path class="cls-9" d="M89.84,67.53c0-.11-.07-.15-.12-.06s-.06.12,0,.13A.07.07,0,0,0,89.84,67.53Z"/><path class="cls-10" d="M97.51,101.62c-4.34,2.16-9.35,3.08-14,3.95a49.51,49.51,0,0,1-8.64,1.13,17.18,17.18,0,0,1-3.72-.35c-.38-.08-1.3-.47-2.18-.76,0-.18,0-.37.07-.55.83.27,1.7.72,2.24.84,3.38.7,6.9.13,10.25-.48A73,73,0,0,0,97.3,101Z"/><path class="cls-10" d="M96.37,98.17c-8.36,2.15-18.3,3-26.44.11,0-.17,0-.35.09-.52a44,44,0,0,0,13.06,1.56A89.63,89.63,0,0,0,96.17,97.5C96.24,97.72,96.3,98,96.37,98.17Z"/><path class="cls-10" d="M94.86,92.61c-.48.09-1,.17-1.44.23a64.49,64.49,0,0,1-8.88.76c-4.32.06-9.49.08-13.38-2.18,0-.15.06-.3.09-.44,4,2,8.48,2.13,12.88,2.09a62.92,62.92,0,0,0,8.35-.64c.76-.11,1.52-.23,2.25-.38C94.77,92.24,94.82,92.43,94.86,92.61Z"/><path class="cls-10" d="M93.36,85.36a34.82,34.82,0,0,1-20.85-.65c0-.15,0-.3.09-.46a37.31,37.31,0,0,0,11.31,1.64,35.57,35.57,0,0,0,9.26-1.49C93.23,84.73,93.29,85.05,93.36,85.36Z"/><path class="cls-10" d="M92.18,78.73a31.91,31.91,0,0,1-18.54.11c0-.16.06-.32.09-.5a33,33,0,0,0,11.15,1A30,30,0,0,0,92,77.87C92.07,78.15,92.13,78.45,92.18,78.73Z"/><path class="cls-10" d="M91.42,72.37a44,44,0,0,1-6.67.78,40,40,0,0,1-10-.68c0-.24,0-.48.07-.72a45.08,45.08,0,0,0,10,.77,39,39,0,0,0,6.65-1C91.4,71.83,91.4,72.1,91.42,72.37Z"/><path class="cls-10" d="M92.63,63.74c-.08.34-.17.69-.25,1-5.66,1.63-12,2.37-17.39.86a2.62,2.62,0,0,1,0-.28l0-.49a29.23,29.23,0,0,0,9.55.62A43.21,43.21,0,0,0,92.63,63.74Z"/><path class="cls-10" d="M93.36,57.49c0,.3,0,.61,0,.93-5.78,1.46-12.19,1.12-18,.23,0-.15,0-.29,0-.43a74.82,74.82,0,0,0,10.37.4A37.16,37.16,0,0,0,93.36,57.49Z"/><path class="cls-10" d="M93.15,52c-2,.28-4,.43-5.88.53a52.52,52.52,0,0,1-12.13-.6c0-.23-.09-.47-.15-.71a73.58,73.58,0,0,0,11.88.65,49.14,49.14,0,0,0,5.85-.65,2.54,2.54,0,0,1,.23.34A2.48,2.48,0,0,1,93.15,52Z"/></svg>