<svg id="anxiety" xmlns="http://www.w3.org/2000/svg" xmlns:xlink="http://www.w3.org/1999/xlink" viewBox="0 0 111 162"><defs><style>.cls-1{fill:#2b245c;}.cls-2{fill:url(#Áåçûìÿííûé_ãðàäèåíò_1869);}.cls-3{clip-path:url(#clip-path);}.cls-4{fill:#ffd19a;}.cls-5{fill:#1a486c;}.cls-6{fill:#a699d9;}.cls-7{fill:url(#Áåçûìÿííûé_ãðàäèåíò_1869-2);}.cls-8{fill:url(#Áåçûìÿííûé_ãðàäèåíò_1869-3);}.cls-9{fill:url(#Áåçûìÿííûé_ãðàäèåíò_1869-4);}.cls-10{fill:url(#Áåçûìÿííûé_ãðàäèåíò_1869-5);}.cls-11{fill:url(#Áåçûìÿííûé_ãðàäèåíò_1869-6);}.cls-12{fill:url(#Áåçûìÿííûé_ãðàäèåíò_1869-7);}.cls-13{fill:url(#Áåçûìÿííûé_ãðàäèåíò_1869-8);}.cls-14{fill:url(#Áåçûìÿííûé_ãðàäèåíò_1869-9);}.cls-15{fill:url(#Áåçûìÿííûé_ãðàäèåíò_1869-10);}.cls-16{fill:url(#Áåçûìÿííûé_ãðàäèåíò_1869-11);}.cls-17{fill:#c4824a;}.cls-18{fill:#9189d0;}.cls-19{fill:#fff;}</style><linearGradient id="Áåçûìÿííûé_ãðàäèåíò_1869" x1="-14.54" y1="243.34" x2="126.27" y2="-81.45" gradientUnits="userSpaceOnUse"><stop offset="0" stop-color="#e4ddff"/><stop offset="1" stop-color="#faf9ff"/></linearGradient><clipPath id="clip-path"><path class="cls-1" d="M46.77,32a1,1,0,0,0,.42-1,4.07,4.07,0,0,0-.72-1.26,1.35,1.35,0,0,1-.18-1.37c.76-.21,1.46.65,2.25.61a1.34,1.34,0,0,0,1.08-.82,2.77,2.77,0,0,0,.15-1.4,5.91,5.91,0,0,0-.93-2.59,5.72,5.72,0,0,1-.75-1.28,1.18,1.18,0,0,1,.34-1.35,1.23,1.23,0,0,1,1.42.21,12.46,12.46,0,0,1,1,1.17c1.21,1.3,3.51,1.81,3.93-.25A13,13,0,0,1,56.12,19c.23-.42.64-.89,1.1-.73s.49.57.55,1c.13.75-.14,4.16,1.21,3.68a2.16,2.16,0,0,0,1-1,16.16,16.16,0,0,1,4-4.46c.3-.23.7-.46,1-.28a.9.9,0,0,1,.38.69c.39,2.42-2,4.65-1.64,7.08a1.77,1.77,0,0,0,1.83,0,13.17,13.17,0,0,0,1.52-1.18,5.62,5.62,0,0,1,2.49-1.08.88.88,0,0,1,.51,0c.33.16.35.63.23,1A6.48,6.48,0,0,1,69,25.37a2,2,0,0,0-.51,2c.75,1.67,3.48.41,4.71.31a2.19,2.19,0,0,1,.92.06.83.83,0,0,1,.58.67c0,.44-.39.77-.76,1a13.66,13.66,0,0,0-3.39,2.52,11.4,11.4,0,0,0-1.72,2.2c.65.36,1.12-.21,1.76,0s.52,1.05.07,1.42-1.55.35-2.26.53a6.19,6.19,0,0,0-2.82,1.45c-.62.66-1,1.64-1.79,2-1,.42-2.08-.29-2.94-.95s-2-1.35-2.95-.88a4.87,4.87,0,0,0-1,.78c-2.37,2-5.39.06-7.34-1.6-1.78-1.51-4.83-2.85-5.81-5.07-.2-.45-.19-1.15.29-1.24a1,1,0,0,1,.68.27l1.12.86a1.22,1.22,0,0,0,.64.3A.51.51,0,0,0,46.77,32Z"/></clipPath><linearGradient id="Áåçûìÿííûé_ãðàäèåíò_1869-2" x1="8.68" y1="96.3" x2="28.89" y2="96.3" xlink:href="#Áåçûìÿííûé_ãðàäèåíò_1869"/><linearGradient id="Áåçûìÿííûé_ãðàäèåíò_1869-3" x1="23.17" y1="100.06" x2="32.38" y2="100.06" xlink:href="#Áåçûìÿííûé_ãðàäèåíò_1869"/><linearGradient id="Áåçûìÿííûé_ãðàäèåíò_1869-4" x1="13.98" y1="36.43" x2="30.53" y2="36.43" xlink:href="#Áåçûìÿííûé_ãðàäèåíò_1869"/><linearGradient id="Áåçûìÿííûé_ãðàäèåíò_1869-5" x1="16.35" y1="24.66" x2="27.62" y2="24.66" xlink:href="#Áåçûìÿííûé_ãðàäèåíò_1869"/><linearGradient id="Áåçûìÿííûé_ãðàäèåíò_1869-6" x1="22.9" y1="21.36" x2="29.11" y2="21.36" xlink:href="#Áåçûìÿííûé_ãðàäèåíò_1869"/><linearGradient id="Áåçûìÿííûé_ãðàäèåíò_1869-7" x1="87.37" y1="23.45" x2="102.32" y2="23.45" xlink:href="#Áåçûìÿííûé_ãðàäèåíò_1869"/><linearGradient id="Áåçûìÿííûé_ãðàäèåíò_1869-8" x1="91.69" y1="30.26" x2="99.44" y2="30.26" xlink:href="#Áåçûìÿííûé_ãðàäèåíò_1869"/><linearGradient id="Áåçûìÿííûé_ãðàäèåíò_1869-9" x1="85.83" y1="126.63" x2="95.46" y2="126.63" xlink:href="#Áåçûìÿííûé_ãðàäèåíò_1869"/><linearGradient id="Áåçûìÿííûé_ãðàäèåíò_1869-10" x1="88.71" y1="119.84" x2="95.73" y2="119.84" xlink:href="#Áåçûìÿííûé_ãðàäèåíò_1869"/><linearGradient id="Áåçûìÿííûé_ãðàäèåíò_1869-11" x1="89.3" y1="112.86" x2="101.56" y2="112.86" xlink:href="#Áåçûìÿííûé_ãðàäèåíò_1869"/></defs><title>anxiety</title><path class="cls-2" d="M35.82,47.84c-2.16,2.9-5,5.25-7,8.31-3.43,5.45-3.3,12.75-.33,18.46,1.8,3.45,4.5,6.35,6.38,9.76a23.54,23.54,0,0,1,2.23,16.72c-.83,3.41-2.43,6.65-2.71,10.15a14,14,0,0,0,5.83,12.41c3.59,2.51,8.13,3.17,12.1,5,1.95.92,3.76,2.13,5.77,2.92a16.28,16.28,0,0,0,13.53-1A18.66,18.66,0,0,0,80.27,120c.9-2.79,1.17-5.77,2.22-8.5,1.27-3.31,3.58-6.08,5.43-9.09s3.29-6.59,2.51-10c-.66-2.93-2.82-5.3-3.84-8.14-1.58-4.39-.24-9.23.92-13.76a58.71,58.71,0,0,0,2.3-16.1c-.15-5.43-1.63-11-5-15.24-1.75-2.24-4-4.22-4.8-7s.23-5.6.07-8.41c-.3-5.65-5.12-10.19-10.4-12.23A25.21,25.21,0,0,0,42,18.63a13.8,13.8,0,0,0-3.39,7c-.26,2.38,1,4.39,1.25,6.74A21.91,21.91,0,0,1,35.82,47.84Z"/><path class="cls-1" d="M46.77,32a1,1,0,0,0,.42-1,4.07,4.07,0,0,0-.72-1.26,1.35,1.35,0,0,1-.18-1.37c.76-.21,1.46.65,2.25.61a1.34,1.34,0,0,0,1.08-.82,2.77,2.77,0,0,0,.15-1.4,5.91,5.91,0,0,0-.93-2.59,5.72,5.72,0,0,1-.75-1.28,1.18,1.18,0,0,1,.34-1.35,1.23,1.23,0,0,1,1.42.21,12.46,12.46,0,0,1,1,1.17c1.21,1.3,3.51,1.81,3.93-.25A13,13,0,0,1,56.12,19c.23-.42.64-.89,1.1-.73s.49.57.55,1c.13.75-.14,4.16,1.21,3.68a2.16,2.16,0,0,0,1-1,16.16,16.16,0,0,1,4-4.46c.3-.23.7-.46,1-.28a.9.9,0,0,1,.38.69c.39,2.42-2,4.65-1.64,7.08a1.77,1.77,0,0,0,1.83,0,13.17,13.17,0,0,0,1.52-1.18,5.62,5.62,0,0,1,2.49-1.08.88.88,0,0,1,.51,0c.33.16.35.63.23,1A6.48,6.48,0,0,1,69,25.37a2,2,0,0,0-.51,2c.75,1.67,3.48.41,4.71.31a2.19,2.19,0,0,1,.92.06.83.83,0,0,1,.58.67c0,.44-.39.77-.76,1a13.66,13.66,0,0,0-3.39,2.52,11.4,11.4,0,0,0-1.72,2.2c.65.36,1.12-.21,1.76,0s.52,1.05.07,1.42-1.55.35-2.26.53a6.19,6.19,0,0,0-2.82,1.45c-.62.66-1,1.64-1.79,2-1,.42-2.08-.29-2.94-.95s-2-1.35-2.95-.88a4.87,4.87,0,0,0-1,.78c-2.37,2-5.39.06-7.34-1.6-1.78-1.51-4.83-2.85-5.81-5.07-.2-.45-.19-1.15.29-1.24a1,1,0,0,1,.68.27l1.12.86a1.22,1.22,0,0,0,.64.3A.51.51,0,0,0,46.77,32Z"/><path class="cls-1" d="M46.77,32a1,1,0,0,0,.42-1,4.07,4.07,0,0,0-.72-1.26,1.35,1.35,0,0,1-.18-1.37c.76-.21,1.46.65,2.25.61a1.34,1.34,0,0,0,1.08-.82,2.77,2.77,0,0,0,.15-1.4,5.91,5.91,0,0,0-.93-2.59,5.72,5.72,0,0,1-.75-1.28,1.18,1.18,0,0,1,.34-1.35,1.23,1.23,0,0,1,1.42.21,12.46,12.46,0,0,1,1,1.17c1.21,1.3,3.51,1.81,3.93-.25A13,13,0,0,1,56.12,19c.23-.42.64-.89,1.1-.73s.49.57.55,1c.13.75-.14,4.16,1.21,3.68a2.16,2.16,0,0,0,1-1,16.16,16.16,0,0,1,4-4.46c.3-.23.7-.46,1-.28a.9.9,0,0,1,.38.69c.39,2.42-2,4.65-1.64,7.08a1.77,1.77,0,0,0,1.83,0,13.17,13.17,0,0,0,1.52-1.18,5.62,5.62,0,0,1,2.49-1.08.88.88,0,0,1,.51,0c.33.16.35.63.23,1A6.48,6.48,0,0,1,69,25.37a2,2,0,0,0-.51,2c.75,1.67,3.48.41,4.71.31a2.19,2.19,0,0,1,.92.06.83.83,0,0,1,.58.67c0,.44-.39.77-.76,1a13.66,13.66,0,0,0-3.39,2.52,11.4,11.4,0,0,0-1.72,2.2c.65.36,1.12-.21,1.76,0s.52,1.05.07,1.42-1.55.35-2.26.53a6.19,6.19,0,0,0-2.82,1.45c-.62.66-1,1.64-1.79,2-1,.42-2.08-.29-2.94-.95s-2-1.35-2.95-.88a4.87,4.87,0,0,0-1,.78c-2.37,2-5.39.06-7.34-1.6-1.78-1.51-4.83-2.85-5.81-5.07-.2-.45-.19-1.15.29-1.24a1,1,0,0,1,.68.27l1.12.86a1.22,1.22,0,0,0,.64.3A.51.51,0,0,0,46.77,32Z"/><g class="cls-3"><path class="cls-1" d="M67,37.06a11,11,0,0,0,3.2-8.5c-.33-3.11-2.72-6-5.81-6.47-1.39-.19-2.89.1-4.14-.55a12,12,0,0,1-2.51-2.43c-2-1.93-5.06-2.33-7.74-1.69A24.66,24.66,0,0,0,42.62,21Z"/></g><path class="cls-4" d="M63.12,78.29V90.82c-.6,1-1.08,3.57-1.44,6.83a201.07,201.07,0,0,0-.84,26c.29,5.35-7.52,18.77-11.22,26.35-1.25,2.58-2,4.5-1.86,5.17.23.9,1.51,1.87,3.05,2.81,3.11,1.88,7.32,3.57,6.37,4-1.44.56-12.92-1.41-14-1.83-.57-.23-.76-1.73-.79-3.06a13,13,0,0,1,.46-3.85c.44-1.63,1-3.38,1.54-5.19,3.3-10.47,8.15-23.06,8.15-27.73,0-5.77-2.53-5.91-4.8-18.3s0-20.69,0-20.69l12.48-2.4.42-.09,1-.19Z"/><path class="cls-4" d="M80.94,157.34c-.07,1.24-.27,2.52-.79,2.73-1.05.42-12.54,2.39-14,1.83-1-.39,3.4-2.13,6.53-4.05,1.47-.9,2.66-1.85,2.89-2.71s-.9-3.25-2.54-6.52c-3.89-7.73-10.82-20-10.53-25a206.8,206.8,0,0,0-.85-26c-.37-3.26-.84-5.79-1.44-6.83V78.29l1.44.28,1,.18.49.1,12.48,2.4s2.26,8.3,0,20.69-4.81,12.53-4.81,18.3c0,4.5,4.76,16.13,8,26.43.69,2.23,1.31,4.39,1.78,6.41a15,15,0,0,1,.41,4.22Z"/><path class="cls-1" d="M57.18,161.9c-1.44.56-12.92-1.41-14-1.83-.57-.23-.76-1.73-.79-3.06.39.17.76.34,1.09.47a13.62,13.62,0,0,0,7,.52l.26-.05C53.92,159.83,58.13,161.52,57.18,161.9Z"/><path class="cls-1" d="M80.94,157.34c-.07,1.24-.27,2.52-.79,2.73-1.05.42-12.54,2.39-14,1.83-1-.39,3.4-2.13,6.53-4.05l.81.15a13.66,13.66,0,0,0,7.06-.52Z"/><path class="cls-1" d="M78.75,146.67a32.1,32.1,0,0,1-5.69,2c-3.89-7.73-10.82-20-10.53-25a206.8,206.8,0,0,0-.85-26,201,201,0,0,0-.84,26c.29,5.35-7.52,18.77-11.22,26.35a18.09,18.09,0,0,1-5.21-2c3.3-10.47,8.15-23.06,8.15-27.73,0-5.77-2.53-5.91-4.8-18.3s0-20.69,0-20.69l12.48-2.4v-.11l.42,0a2.43,2.43,0,0,0,.38,0,14.07,14.07,0,0,0,1.59,0l.49,0v.14l12.48,2.4s2.26,8.3,0,20.69-4.81,12.53-4.81,18.3C70.79,124.74,75.55,136.37,78.75,146.67Z"/><path class="cls-5" d="M72.08,81.63a.15.15,0,0,0,.11-.12,1.28,1.28,0,0,0-.07-.21c-.06-.12-.07-.12-.12,0a.26.26,0,0,0,0,.16.33.33,0,0,1,0,.14S72,81.65,72.08,81.63Z"/><path class="cls-5" d="M71.93,97.72a.14.14,0,0,1,.09.18c0,.13,0,.22.11.17s.05-.13,0-.67c0-.21,0-.21-.17,0S71.79,97.66,71.93,97.72Z"/><path class="cls-5" d="M71.37,105.93a.36.36,0,0,1,0-.25c.06-.16,0-.21-.13-.07a1.92,1.92,0,0,0-.19.67l.18,0C71.41,106.24,71.45,106.13,71.37,105.93Z"/><path class="cls-5" d="M71.08,107.18a.36.36,0,0,0,0-.28.2.2,0,0,1,0-.21c.07-.14,0-.23-.08-.1a1,1,0,0,0,0,.67C71,107.36,71,107.35,71.08,107.18Z"/><path class="cls-5" d="M71.91,103.66c0-.12-.09-.09-.16.12s0,.19,0,.22S72,103.82,71.91,103.66Z"/><path class="cls-5" d="M71.56,105.05a.15.15,0,0,0,.09-.11C71.43,105,71.44,105.08,71.56,105.05Z"/><path class="cls-5" d="M71.75,106.72c.09,0,.12-.28,0-.3a.1.1,0,0,0-.1.06C71.64,106.6,71.67,106.74,71.75,106.72Z"/><path class="cls-5" d="M71.52,81.9c.17,0,.2,0,.26-.13s0-.24-.27-.2A.17.17,0,0,0,71.52,81.9Z"/><path class="cls-5" d="M69.61,109.47a.35.35,0,0,1,.17-.17.46.46,0,0,0,.19-.17c.08-.17.11-.24.08-.24l-.1-.07c-.14.14-.26.17-.32.07s-.14-.1-.21.18a.69.69,0,0,1-.19.36c-.13.1-.2.31-.11.34A.66.66,0,0,0,69.61,109.47Z"/><path class="cls-5" d="M69.75,108.55c.16.07.22.07.29,0s.12-.17.07-.26,0-.1,0-.17.17-.31,0-.32-.13,0-.17.14a.68.68,0,0,1-.31.29C69.45,108.39,69.45,108.41,69.75,108.55Z"/><path class="cls-5" d="M68.43,112.89c.16-.18.18-.23.15-.37s0-.28.14-.15.14.17.13.21.14-.08.18-.24a.81.81,0,0,1,.14-.31.52.52,0,0,0,.14-.19c.12-.29.13-.33,0-.41s-.07-.1,0-.22.09-.16,0-.25a.22.22,0,0,1,0-.22c0-.07,0-.14,0-.15s0-.09.07-.1.22,0,.25-.59c0-.24-.09-.21-.16,0s-.29.42-.47.37-.71,1.66-.76,2.56C68.24,113.09,68.24,113.09,68.43,112.89Z"/><path class="cls-5" d="M69.78,107.83c.21-.15.23-.9,0-.85s-.18.38-.1.4,0,.08,0,.18S69.63,107.94,69.78,107.83Z"/><path class="cls-5" d="M70.46,104.82a.09.09,0,0,0,0-.16C70.33,104.78,70.36,104.85,70.46,104.82Z"/><path class="cls-5" d="M68.64,113c.06.08.08.07.12-.1s0-.2,0-.2S68.56,112.9,68.64,113Z"/><path class="cls-5" d="M72.37,101.34c0-.15,0-.22-.11-.14s0,.27,0,.29S72.36,101.43,72.37,101.34Z"/><path class="cls-5" d="M72.85,100.22c-.06,0,0,.18,0,.19S72.92,100.19,72.85,100.22Z"/><path class="cls-5" d="M72.24,104.79a.27.27,0,0,1,0,.25c-.11.11-.09.24.07.41s.21.19.33,0a1.76,1.76,0,0,0,.15-.5c.05-.34.05-.34-.19-.41S72.19,104.53,72.24,104.79Z"/><path class="cls-5" d="M73.21,96.71c-.09.15,0,.36.12.38a6,6,0,0,0,.11-1.55c0-.35-.09-.42-.25-.3a.78.78,0,0,0,0,.67A.9.9,0,0,1,73.21,96.71Z"/><path class="cls-5" d="M72.2,105.93c-.2-.07-.23-.07-.25,0s.34.29.49.26S72.49,106,72.2,105.93Z"/><path class="cls-5" d="M73.49,94.18a.65.65,0,0,1,.09-.28.27.27,0,0,0,0-.18,1.58,1.58,0,0,1-.05-.25c0-.22-.1-.18-.17.1s-.09.25-.13.25,0,.32.09.45S73.47,94.38,73.49,94.18Z"/><path class="cls-5" d="M72.26,96.26l.16-.13,0-.22c-.12-.45-.36-.3-.3.18C72.1,96.39,72.1,96.39,72.26,96.26Z"/><path class="cls-5" d="M73.65,88.88c.06,0,.07-.08,0-.34s-.15-.24-.14,0S73.58,88.92,73.65,88.88Z"/><path class="cls-5" d="M72.34,82.3c-.08,0-.09,0-.12-.22s0-.24-.14-.18-.34.26-.31.38a1.25,1.25,0,0,1-.38.71c-.15.13-.09.24.13.24s.2,0,.22.15a3.13,3.13,0,0,1,0,1.05.44.44,0,0,0,0,.21,7.36,7.36,0,0,0,.19,1.1.6.6,0,0,1-.2.68.88.88,0,0,0-.12.33c0,.23,0,.25.13.38s.32.48.25.59,0,.11.06.2.13.15.17-.16.05-.4.25-.38.37-.22.14-1.09a1.6,1.6,0,0,1-.06-.53,1.1,1.1,0,0,0-.11-.73c-.07-.06-.06-.12,0-.29a.6.6,0,0,0-.11-.65c-.06-.07,0-.14,0-.3a.5.5,0,0,0-.07-.59c-.08-.08-.07-.1,0-.21s.15-.33,0-.29-.13-.08-.06-.18a.25.25,0,0,1,.34,0c.12.11.16.37.14.78,0,.24,0,.36,0,.4a.62.62,0,0,1,0,.5c-.11.08.1.65.23.63l.2-.1c.51-.3.54-.25.65.79,0,.44.06.82.06.86-.15.07-.33-.27-.36-.52s0-.24-.08-.24-.18-.28-.29-.43-.21-.26-.23-.1a.6.6,0,0,0,.18.56c.13.18.14.21.07.39a2,2,0,0,0-.14.89c0,.38,0,.43.17.25s.47-.34.58-.27a3.76,3.76,0,0,1,.37,2.43.57.57,0,0,0,0,.43.69.69,0,0,1,0,.48c-.07.44-.08.45-.35.39a.42.42,0,0,0-.28,0,.31.31,0,0,1,0,.18c-.07.14,0,.38,0,.38s.06-.09.06-.2,0-.22.36-.2.38.08.31.62,0,.94.23.79.18,0,.24.16.1.11.19.12.17,0,.12.86a5.08,5.08,0,0,0,0,1.28.82.82,0,0,1-.1.42c-.08.18-.11.31-.08.35a.77.77,0,0,1,0,.41c-.08.32-.09.34-.26.35s-.26,0-.27-.25,0-.39-.13-.4-.09.07-.13.36-.07.4-.23.53-.2.32,0,.34.09,0,0,.13a.45.45,0,0,0,0,.28c.09,0,.16-.17.22-.23a.32.32,0,0,0,.1-.25.29.29,0,0,1,.47-.29c.07,0,.06.09,0,.25s-.13.21-.09.55a2.34,2.34,0,0,1-.06.85c-.09.45-.09.49,0,.59s.12.27-.06.42a.26.26,0,0,0-.12.28.6.6,0,0,1-.19.5c-.12.12-.23,0-.23-.28a.63.63,0,0,0-.14-.4.49.49,0,0,1-.13-.25s0-.08-.11-.09a3.78,3.78,0,0,0-.33,1.82c.06.06.06.09,0,.2a.23.23,0,0,0-.07.25.37.37,0,0,1,0,.25,1.17,1.17,0,0,0-.14.66.15.15,0,0,1-.06.19c-.07.07-.1.17-.11.46a2.9,2.9,0,0,1-.08.59c0,.17,0,.23,0,.24a.25.25,0,0,1,.13.15.48.48,0,0,0,.09.13,1.52,1.52,0,0,0,.35-.57s0-.08.05-.13.25,0,.17.2a.13.13,0,0,0,0,.2c.09.08.09.12,0,.3a3.51,3.51,0,0,0-.2.58c-.07.2-.17.54-.24.76a1.26,1.26,0,0,0-.09.62,1,1,0,0,1-.35.91c-.14.06-.14.06,0,.2a.4.4,0,0,1,.06.27.61.61,0,0,0,0,.27c0,.2-.24.55-.31.38s-.07-.09-.11-.06,0,.17.07.2.07.06,0,.13-.09.1-.12.08a.22.22,0,0,0-.16,0,.2.2,0,0,1-.17,0s-.11,0-.18.09c-.21.29-.33,0-.2-.44s0-.71-.17-.49a.36.36,0,0,0-.08.28,1.07,1.07,0,0,1-.21.72c-.1.08-.11.07-.19-.1a.28.28,0,0,0-.22-.19c-.13,0-.14,0-.3.56s-.18.79,0,.71a.25.25,0,0,1,.17,0s.1,0,.12-.08.24-.22.26-.1-.19.47-.29.44a.2.2,0,0,0-.17,0,.17.17,0,0,1-.18,0c-.08-.06-.12,0-.18.05s-.08.36,0,.38.11.19.07.35-.07.05-.14,0-.22.06-.27.29l-.23.87a11.57,11.57,0,0,0-.23,1.15c0,.38-.07.47-.18.59s-.19.26-.07.37a.16.16,0,0,1,0,.23c-.08.15-.08.62,0,.64s.07-.08.1-.19c.09-.3.19-.45.31-.44s.1,0,.06.16a.39.39,0,0,0,0,.22.18.18,0,0,1-.06.17.23.23,0,0,0,0,.23A.44.44,0,0,1,69,115c-.23,0-.36.12-.26.37,0,.09.1.17.13.16s.06,0-.06.11-.19.34-.06.4,0,.13-.06.1-.11,0-.17,0-.23.09-.23-.16a.4.4,0,0,0-.12-.31c-.13-.1-.08-.29.17-.57s.14-.16,0-.38-.17-.23,0-.36.15-.48,0-.52-.33,0-.51.79-.29,1-.37.65-.06-.21-.15-.1-.11.54.06.56.17.21,0,.73-.19.71-.32.63-.11,0-.13.16,0,.21.09.21a1.18,1.18,0,0,0-.29.58.83.83,0,0,0,.15.35c.18.23.15.67,0,1.62a3,3,0,0,0-.11,1.4,5,5,0,0,0,.24,1.46.72.72,0,0,1,0,.33c0,.23,0,.29.1.4a.83.83,0,0,1,.18.32.43.43,0,0,0,.15.26c.12.06.18.36.11.54a4.75,4.75,0,0,0,.33,1.71c.08.22.14.29.27.33s.15.06.11.14a.31.31,0,0,0,0,.19c-.24.11.06,1.25.28,1.33a.09.09,0,0,1,.06.11,2.62,2.62,0,0,0,.21.69c.25.61.25.61.47.64s.33.14.12.21-.15.07-.1.21c.47,1.49.47,1.5.36,1.54a.09.09,0,0,0,0,.12c.19-.07.35,0,.36.17a2.33,2.33,0,0,0,.13.44,5.1,5.1,0,0,1,.17.61c0,.21.08.33.16.39s.09.11,0,.19-.06.24.07.25.4.79.28.89-.08.09,0,.28a3.36,3.36,0,0,1,.22.42c.07.16.11.2.21.19s.49.82.38,1.07a.29.29,0,0,0,0,.2.29.29,0,0,1,0,.2.57.57,0,0,0,0,.28c.19.71.24.85.31.91s.21.28.85,1.89c.3.76.56,1.4.59,1.42a.22.22,0,0,1,0,.2c0,.13,0,.24.15.63a3.5,3.5,0,0,1,.21.75,2,2,0,0,0,.26.74c.12.26.3.68.39.94a4.17,4.17,0,0,0,.7,1.37,2.26,2.26,0,0,1,.21.28,5.45,5.45,0,0,0,.71.91.24.24,0,0,1,.08.06c.86-.3,1.71-.63,2.54-1-3.2-10.3-8-21.93-8-26.43,0-5.77,2.54-5.91,4.81-18.3s0-20.69,0-20.69l-3.23-.62a5,5,0,0,0,.12,1C72.58,82,72.52,82.26,72.34,82.3Zm-.42.76c-.12,0-.12,0,0-.16a.46.46,0,0,1,.2-.15c.11,0,.14,0,.09.21S72.09,83.11,71.92,83.06Zm.35,2.49s.08.12.09.24c0,.34-.18.37-.24,0C72.09,85.64,72.15,85.51,72.27,85.55ZM68.14,116a.1.1,0,0,1,.07.1.1.1,0,0,1-.11.07.08.08,0,0,1-.07-.1A.09.09,0,0,1,68.14,116Zm-.23,10.11c0-.05,0-.09.08-.1s.21.11.17.2S68,126.25,67.91,126.15Zm.27-9a1.46,1.46,0,0,0-.15.43c-.08.34-.08.35-.16.25a.39.39,0,0,1-.05-.28c0-.25,0-.37-.18-.41s-.21-.4,0-.71.14-.24.07-.31a.14.14,0,0,1,0-.25c.11,0,.21.14.14.26s0,.37.17.35a.19.19,0,0,1,.15.08A.54.54,0,0,1,68.18,117.14Zm.37,9.13c-.13-.06-.22-.48-.12-.56s.15,0,.13.12,0,.14.08.17a.27.27,0,0,1,.14.11C68.82,126.23,68.67,126.33,68.55,126.27Zm.43,2c-.32,0-.46-.16-.23-.21.07,0,.14-.06.15-.1s.16-.14.32,0S69.4,128.3,69,128.27Zm.66.82c-.09,0-.11,0-.09-.14s0-.12-.1-.13-.14-.2,0-.3.1,0,.17.18S69.73,129.05,69.64,129.09Zm.43,1.39c0-.13.06-.14.1-.13S70.11,130.49,70.07,130.48Zm.12-18.7c0,.28-.09.36-.14.33a.45.45,0,0,1,0-.32c0-.24,0-.29-.08-.37s-.11-.1,0-.15.37,0,.35.08Zm.46-1.65c0,.2,0,.22-.13.18s-.1-.1-.08-.23.15-.31.21-.22A1.11,1.11,0,0,1,70.65,110.13Zm.42,25s.07,0,.1.05,0,.11-.06.11S71,135.23,71.07,135.16Zm0-26.61c-.11,0,0-.13,0-.12A.28.28,0,0,1,71.08,108.55Zm2.18-.84c-.15.12-.22-.15-.11-.39a3.47,3.47,0,0,0,.16-.41c0-.16.09-.21.17-.21S73.41,107.59,73.26,107.71Zm.45-1.49c-.11.22-.18.16-.13-.12s.14-.4.23-.32S73.84,106,73.71,106.22Zm.17-.67c-.08.07-.15-.17-.1-.36s.21-.36.26-.31A1.16,1.16,0,0,1,73.88,105.55Zm1.32-6.61c-.12,0-.13-.08,0-.27C75.36,98.89,75.33,99,75.2,98.94Zm0-1.11a.42.42,0,0,0-.17-.14c-.21-.12-.06-.2.16-.1a.25.25,0,0,1,.16.2C75.32,97.91,75.23,97.94,75.18,97.83Zm.39-.79a.34.34,0,0,0-.15.23c0,.25-.17.13-.17-.15a5.13,5.13,0,0,1,0-.53,1.21,1.21,0,0,0,0-.48c-.06-.17,0-.22.06-.47.18-.41.23-.61.17-.62s0-.16,0-.16.08.06.07.14a.21.21,0,0,0,0,.17.22.22,0,0,1,0,.17.24.24,0,0,0,0,.17.55.55,0,0,1,.06.27C75.8,96.43,75.72,97,75.57,97Zm.23-4.2s-.23-.12-.23-.19l.08-.22.11-.26C75.91,92.28,75.87,92.81,75.8,92.84Zm.11-6.36c0,.55.07.74.13.78s.08.32-.06.53a1.82,1.82,0,0,0,0,1.13.93.93,0,0,1,.12.28c.12.59.12.63,0,.67s-.25.2-.19.41c.11.37-.11.67-.24.34,0-.07-.09-.13-.14-.13s-.15-.12-.15-.35,0-.25-.24-.16-.17.08-.14.48a2.09,2.09,0,0,0,.08.5.47.47,0,0,1-.06.49.21.21,0,0,1-.33-.23,6.65,6.65,0,0,0,0-.73,2.78,2.78,0,0,0-.22-1c-.09-.19-.09-.2,0-.32a.3.3,0,0,0,.09-.3c0-.21.07-.4.22-.35s.1.09.11.26a.34.34,0,0,0,.15.34c.16.12.19.27.08.36a.11.11,0,0,0,.08.18,2,2,0,0,1,.4-.75,1.41,1.41,0,0,0,0-1.07,3.29,3.29,0,0,1-.06-1.39,1,1,0,0,0,0-.43c-.06-.16.08-.4.17-.3A4.12,4.12,0,0,1,75.91,86.48Zm-1.35-1.73c-.09-.1-.06-.27,0-.28s.09,0,.1.14S74.65,84.86,74.56,84.75Zm.21.67.09.22c.08.13,0,.23-.17.17s-.18-.16,0-.37S74.72,85.28,74.77,85.42Zm-.06.89c.08,0,.1,0,.08-.1a.33.33,0,0,1,.23-.32s.1.09.13.23a1.21,1.21,0,0,1,0,.84.81.81,0,0,0,0,.41c.09.29-.24.25-.42-.05S74.46,86.34,74.71,86.31Zm.92-1.72c.16.09.17.52,0,.53s-.13-.07-.14-.3S75.52,84.53,75.63,84.59Zm-.08-.29c-.09.07-.11,0,0-.11C75.6,84.22,75.58,84.28,75.55,84.3Zm-1-2.75s.07.14.07.31a.73.73,0,0,0,.16.52,1.51,1.51,0,0,1,.19.45c0,.19,0,.19.28.16s.39.07.32.38-.12.27-.2.1-.1-.12-.16-.11a.57.57,0,0,1-.25,0c-.21-.09-.24,0-.21.37.05.65,0,.74-.2.2-.08-.27-.09-.38,0-.49s0-.16,0-.24a.33.33,0,0,1-.09-.26c0-.09,0-.78,0-.82v-.28C74.35,81.59,74.41,81.5,74.51,81.55Zm-.87.6c.09,0,.1.23,0,.31s-.11.06-.13,0A.22.22,0,0,1,73.64,82.15Zm-.19.53a1.06,1.06,0,0,1,.11.6,2.4,2.4,0,0,0,0,.45c.06.37,0,.52-.18.49s-.1-.07-.1-.21,0-.4,0-.66C73.26,82.9,73.32,82.65,73.45,82.68Zm-.3-.83c.13,0,.18.05.09.16s-.09.09-.14.07A.13.13,0,0,1,73.15,81.85Z"/><path class="cls-5" d="M71.31,81.2c.16.07.39-.13.42-.36a.58.58,0,0,1,.09-.27s0,0,0,0l-.31-.06,0,.06C71.37,80.72,71.24,81.17,71.31,81.2Z"/><path class="cls-5" d="M72.5,91.32a1.21,1.21,0,0,0,.07.74c.06,0,.07-.07.06-.32C72.61,91.29,72.58,91.21,72.5,91.32Z"/><path class="cls-5" d="M72.68,103.48a.15.15,0,0,0-.09.1C72.66,103.67,72.7,103.63,72.68,103.48Z"/><path class="cls-5" d="M72.55,89.91c.07,0,0-.7,0-.78s-.07,0-.13,0-.09.07-.15,0-.18,0-.12.21A1.44,1.44,0,0,0,72.55,89.91Z"/><path class="cls-5" d="M72.54,104.06a.2.2,0,0,0,.09-.12s0-.11,0-.12-.07.05-.09.13S72.5,104.07,72.54,104.06Z"/><path class="cls-5" d="M72.19,97.11a.25.25,0,0,0,0-.1C72.13,97,72.14,97.11,72.19,97.11Z"/><path class="cls-5" d="M73.06,103.91c0-.11-.06-.17-.13-.08s-.07.12,0,.14A.09.09,0,0,0,73.06,103.91Z"/><path class="cls-5" d="M72.52,95c.07,0,.08-.13,0-.17S72.45,95,72.52,95Z"/><path class="cls-6" d="M45.63,39.93c-.14-.41,14.36-5.06,27.55-.84,0,0-.74,32.3,2.85,41.91a34.92,34.92,0,0,1-29.34,1.27S49.64,51.34,45.63,39.93Z"/><path class="cls-6" d="M45.63,39.93c-3.48,2-11.15,20.41-7,30.17,0,0,9.42-4,10-10.42s0-17.11,0-17.11Z"/><path class="cls-4" d="M67.43,36.56a3.91,3.91,0,0,1-.55,2.11,1.2,1.2,0,0,1-1.66.45,2.63,2.63,0,0,1-.71-1.84c-.1-1.05.08-2.5,1-2.88C66.8,33.92,67.46,35.27,67.43,36.56Z"/><path class="cls-4" d="M49.64,36.56a3.91,3.91,0,0,0,.54,2.11,1.21,1.21,0,0,0,1.67.45,2.62,2.62,0,0,0,.7-1.84c.11-1.05-.08-2.5-1-2.88C50.27,33.92,49.61,35.27,49.64,36.56Z"/><path class="cls-4" d="M56.66,28.51c-.41.22-5.84,2.54-5.1,10.85s6.46,10.26,9.07,9,4.15-2.7,4.7-10S61.41,26,56.66,28.51Z"/><path class="cls-1" d="M52.86,33.1c.39-.84.94-1.82,1.86-1.84.66,0,1.39.5,1.94.12s.43-.95.81-1.29a1.28,1.28,0,0,1,1.44,0,13.48,13.48,0,0,0,1.27.86c1.12.5,2.69-.34,3.6.5s.92,2.54,1.46,3.62a.59.59,0,0,0,.29.31c.27.08.48-.22.58-.48a6.68,6.68,0,0,0-.52-4.76,7.32,7.32,0,0,0-1.94-3,6.19,6.19,0,0,0-3.81-1.09,11.38,11.38,0,0,0-6.09,1.46,7.56,7.56,0,0,0-3.63,5c-.12.69.05,2.08.94,2.25S52.58,33.7,52.86,33.1Z"/><path class="cls-6" d="M73.18,39.09c3.49,2,9.76,20.65,5.6,30.4,0,0-9.43-4-10.06-10.42s0-17.1,0-17.1Z"/><path class="cls-7" d="M28.37,93.49c-3.32.14-6.54,1.55-9.74,2.41s-6.55.92-9.58,2.17a.53.53,0,0,0,.28,1c6.34-1.53,13.44-1.42,19.31-4.63A.53.53,0,0,0,28.37,93.49Z"/><path class="cls-8" d="M31.63,97.59c-2.85.63-5.64,2.46-8.18,3.84-.57.32-.18,1.34.46,1.09,2.68-1.07,5.89-2,8.19-3.81A.62.62,0,0,0,31.63,97.59Z"/><path class="cls-9" d="M30.35,39.23c-2-1.56-4.49-2.24-6.81-3.19a73.14,73.14,0,0,0-8.89-3.43.54.54,0,0,0-.41,1,58.39,58.39,0,0,0,8.59,4.11c2.28,1,4.62,2.3,7.1,2.55A.61.61,0,0,0,30.35,39.23Z"/><path class="cls-10" d="M27.45,28.85c-1.64-1.7-3.9-2.85-5.69-4.41s-3.42-3.36-5.12-5a.17.17,0,0,0-.27.2,23.86,23.86,0,0,0,4.66,6c1.61,1.58,3.62,3.55,5.79,4.29C27.46,30.16,27.88,29.29,27.45,28.85Z"/><path class="cls-11" d="M29.08,23.65c-.42-1.15-1.63-2-2.53-2.77a27.5,27.5,0,0,0-3.07-2.53.38.38,0,0,0-.52.52,29.61,29.61,0,0,0,2.57,3c.81.88,1.65,2.09,2.81,2.49A.61.61,0,0,0,29.08,23.65Z"/><path class="cls-12" d="M101.45,19.12c-2.35.47-4.54,2-6.64,3.12a78.5,78.5,0,0,0-7.06,4.09.8.8,0,0,0,.81,1.38c2.47-1.12,4.84-2.5,7.24-3.78,2.1-1.13,4.55-2,6.31-3.68C102.63,19.76,102.07,19,101.45,19.12Z"/><path class="cls-13" d="M98.92,29.27a10.67,10.67,0,0,0-3.18.22,20.87,20.87,0,0,0-3.68.74.52.52,0,0,0,.14,1,18.73,18.73,0,0,0,3.51-.09,11.49,11.49,0,0,0,3.21-.47C99.5,30.45,99.73,29.4,98.92,29.27Z"/><path class="cls-14" d="M95.38,131.12a28.57,28.57,0,0,0-4-4.79,63.55,63.55,0,0,0-4.59-5,.56.56,0,0,0-.88.68,35.67,35.67,0,0,0,4,5.25A22.77,22.77,0,0,0,94.55,132C95.07,132.29,95.67,131.63,95.38,131.12Z"/><path class="cls-15" d="M95.57,120.78c-1.53-1.52-4.21-2.13-6.18-2.86-.59-.22-1,.7-.43,1,1.87,1.07,4,2.68,6.19,2.88C95.68,121.85,95.91,121.13,95.57,120.78Z"/><path class="cls-16" d="M101,113c-3.38-1.18-7.59-1.47-11.16-1.68-.68,0-.79,1-.16,1.17,3.46,1,7.53,2,11.12,2A.76.76,0,0,0,101,113Z"/><path class="cls-17" d="M58.78,39.72a1.2,1.2,0,0,1-1.19-.09c0-.34,0-.68,0-1,0-.68,0-1.37,0-2.05a5.5,5.5,0,0,0-.28-2.38c-.64-1.22-2.68-1.09-3.67-.42a0,0,0,0,0,0,.06c1.13.23,3-.53,3.37,1.13a14.69,14.69,0,0,1,.09,3.92c-.07,1.53.23,1.55,1.73,1.32C59.21,40.13,59.09,39.66,58.78,39.72Z"/><path class="cls-17" d="M60,33.22c.43,0,.78-.2,1.2-.17s.73.38,1.14.42c.11,0,.17-.1.15-.19C62.31,32.43,60.15,32.33,60,33.22Z"/><path class="cls-17" d="M55.74,35.79a1.24,1.24,0,0,0-1.35-.69c-.36,0-1,.28-.91.74a.08.08,0,0,0,.1.06c.24-.07.41-.27.66-.34a1.11,1.11,0,0,1,.48,0,1.22,1.22,0,0,0-.14,1.14c.12.36.43.7.82.45A1.1,1.1,0,0,0,55.74,35.79Z"/><path class="cls-17" d="M62.15,35.16c-.42-1.27-2.32-.72-2.47.42,0,.14.16.14.22.06a2.52,2.52,0,0,1,.85-.74l.2-.07a1.41,1.41,0,0,0-.21,1.4.72.72,0,0,0,1.07.4A1.47,1.47,0,0,0,62.15,35.16Z"/><path class="cls-18" d="M51,67.93c-.07-.05-.09-.09-.08-.12s0-.12-.09-.13,0,0-.06.29c0,.09,0,.09.15.08S51.12,68,51,67.93Z"/><path class="cls-18" d="M50.94,65.23c.05.07.08.07.14,0s0-.07,0-.11S50.87,65.13,50.94,65.23Z"/><path class="cls-18" d="M51.15,64.72a.06.06,0,0,0-.07,0C51.28,64.79,51.26,64.75,51.15,64.72Z"/><path class="cls-18" d="M50.63,68.44l-.14,0,0,.13c.06.25.29.3.27,0S50.78,68.46,50.63,68.44Z"/><path class="cls-18" d="M50.21,66.33c-.13,0,0,.08,0,.1S50.26,66.36,50.21,66.33Z"/><path class="cls-18" d="M50.25,65s.07,0,.07,0S50.22,65,50.25,65Z"/><path class="cls-18" d="M51.35,64.28c-.16,0-.19,0-.1.1s0,.1,0,.12.06.11.13.07.15-.22.11-.24Z"/><path class="cls-18" d="M50.26,69c.12,0,.1,0,0-.07S50.21,68.9,50.26,69Z"/><path class="cls-18" d="M50.27,64.85s0,0,0,.06a.06.06,0,0,0,.07,0,.05.05,0,0,0,0-.07A.08.08,0,0,0,50.27,64.85Z"/><path class="cls-18" d="M52.22,63.6c-.1,0-.1,0,0,.1s0,0,0,.06-.12.09,0,.13a.11.11,0,0,0,.14,0,.39.39,0,0,1,.26,0c.23,0,.23,0-.06-.15S52.27,63.59,52.22,63.6Z"/><path class="cls-18" d="M52.5,63.3s-.07,0-.14,0a.22.22,0,0,0-.15,0c-.06,0-.07.07-.05.08l.11.06a.33.33,0,0,1,.28.07c.1.09.14.08.18,0a.15.15,0,0,1,.12-.11c.12,0,.16-.08.07-.12S52.51,63.26,52.5,63.3Z"/><path class="cls-18" d="M52.65,64.17c.08-.07,0-.16-.13-.16s-.12.35.07.39.14-.12.06-.15S52.62,64.2,52.65,64.17Z"/><path class="cls-18" d="M51.4,63.91s0,.09.05.13,0,.08,0,.1,0,.1.08.07,0-.22-.06-.3S51.42,63.84,51.4,63.91Z"/><path class="cls-18" d="M52.14,65.25c.15,0,.11,0,0-.06S52.08,65.2,52.14,65.25Z"/><path class="cls-18" d="M48.23,70.77c0,.12.05.18.11.08s0-.16,0-.19S48.24,70.65,48.23,70.77Z"/><path class="cls-18" d="M53,62c-.07,0-.08,0-.1,0s0,.08.05.09S53.06,62,53,62Z"/><path class="cls-18" d="M53.18,62.08c-.13,0-.14.05-.09.13s0,.13-.12,0-.15-.11-.14-.12-.12,0-.14,0-.06.11-.09.11a.12.12,0,0,0-.1,0c-.09.09-.09.11,0,.17s.08.06,0,.09-.07.05,0,.11.08.09.07.11,0,.06,0,.07.06.06,0,0-.21,0-.16.2.1.12.13,0,.22-.11.39,0,.46-.57.41-1C53.33,62,53.33,62,53.18,62.08Z"/><path class="cls-18" d="M49.52,69c.08.06.06-.11,0-.23s-.08-.1-.12,0a.15.15,0,0,1-.11.07,0,0,0,0,0-.05,0V69c0,.11.07.13.16,0A.17.17,0,0,1,49.52,69Z"/><path class="cls-18" d="M47.46,72.61c.11,0,.17-.24.07-.32l-.14-.08c0,.14,0,.27,0,.41A.14.14,0,0,1,47.46,72.61Z"/><path class="cls-18" d="M47.47,71.64s0,.1,0,.12a2.1,2.1,0,0,0,.06.31c.06.21.06.21.14.18s.12-.09.06-.27,0-.15.07-.16a.49.49,0,0,0,.4-.17c.1-.13.09-.17,0-.19a1.17,1.17,0,0,1-.54-.29c-.15-.21,0-.81.33-1,.08,0,.1-.09.07-.17s0-.11.08-.18.15-.12.36.06a.69.69,0,0,0,.23.15s0,0,.06,0a.09.09,0,0,0,0-.17s-.06,0-.09,0-.05.07-.33-.13-.29-.24-.14-.4.12-.36-.07-.41a.25.25,0,0,1-.18-.19s-.07-.1-.14-.15-.14-.1,0-.39.18-.37.15-.47,0-.08.12-.11.13-.07.1-.1,0-.09.06-.15.1-.09.25,0,.22.12.22.23,0,.17.08.22.08,0,.14-.08.09-.13.23-.11.19,0,.05-.13-.07-.06,0-.08,0-.06,0-.12a.67.67,0,0,0-.2,0c-.06,0-.1,0-.1.06s-.23.08-.42-.11-.05-.06,0-.07.13,0,.1-.19a.46.46,0,0,1,.07-.32c.1-.15.1-.17,0-.26s-.1-.16.06-.15.12,0,.1-.07,0-.12.17-.12a.2.2,0,0,1,.2.21.42.42,0,0,0,.13.23c.07.08.12.15.11.17a.24.24,0,0,0,.09.08c.14.08.43-.53.3-.65s-.06-.06,0-.07.08,0,.05-.08a.09.09,0,0,1,0-.11.18.18,0,0,0,.1-.23s0-.06,0-.07.09,0,.08-.16a.63.63,0,0,1,0-.23c0-.06,0-.09,0-.12a.32.32,0,0,1-.12-.11L50,64.82c-.05,0-.31.09-.28.12s0,0,0,0-.23-.1-.16-.14,0,0,0-.11-.09-.08,0-.13a.71.71,0,0,0,.15-.18l.15-.24a.23.23,0,0,0,0-.25.2.2,0,0,1,.23-.28c.12,0,.12,0,0-.07s-.1-.12-.09-.14a.18.18,0,0,0,0-.12c-.06-.1.16-.16.24-.07s.07.07.1.06,0-.06-.08-.1-.07-.05,0-.08a.12.12,0,0,1,.1,0l.15,0a.32.32,0,0,1,.15.06.15.15,0,0,0,.16,0c.16-.06.29.09.23.26s.07.32.2.27.07-.05,0-.1,0-.25.12-.26.09,0,.18.11a.62.62,0,0,0,.22.15c.12,0,.13,0,.22-.16s.08-.3-.07-.32l-.16-.05a.09.09,0,0,0-.1,0s-.2,0-.22,0,.11-.16.21-.12a.34.34,0,0,0,.15,0s.09,0,.16.05.12.06.16,0,0-.14-.06-.18a.16.16,0,0,1-.1-.17s0,0,.11,0,.2,0,.22,0,.06-.18.1-.33a1.65,1.65,0,0,0,.08-.45c0-.15,0-.18.09-.21s.14-.07,0-.15-.09-.07-.06-.11,0-.25-.08-.27-.05,0-.07.05a.17.17,0,0,1-.23.12c-.08,0-.09,0-.07-.09a.07.07,0,0,0,0-.09s0,0,0-.05.06,0,0-.09.18-.15.39-.07.32,0,.2-.09a.48.48,0,0,0-.15-.1c-.08,0,0,0,.05,0s.14-.09,0-.15,0-.05,0,0a.29.29,0,0,0,.16,0,.17.17,0,0,1,.23.12.29.29,0,0,0,.15.16c.14.07.11.14-.09.19s-.11,0,.08.17.19.14.08.17-.08.17.06.22.3.06.38-.21.14-.34.26-.19.08.11.16.09,0-.2-.13-.25-.19-.13-.1-.3.12-.23.25-.16.11,0,.11,0,0-.08-.09-.1c.08,0,.25-.07.24-.13a.57.57,0,0,0-.16-.17c-.16-.13-.16-.29,0-.55.18,0,.37-.77.29-.84s0-.06.06-.1.07-.07,0-.13a.17.17,0,0,1-.07-.14.17.17,0,0,0-.07-.12c-.09,0,0-.15.07-.17s.31-.33.33-.52,0-.13-.11-.18-.1-.07,0-.07.08,0,.08,0c.26.06.48-.33.32-.43s0,0,0,0a.48.48,0,0,0,.11-.26c0-.25,0-.25-.13-.33s-.23-.15,0-.1.16,0,.19,0c.24-.57.24-.57.35-.55s.09,0,.09,0c-.2,0-.3-.12-.24-.17a.46.46,0,0,0,.08-.16.6.6,0,0,1,.1-.23c.06-.08.06-.13,0-.17s0-.06.06-.06.16,0,0-.1,0-.36.13-.35.11,0,.09-.09a.47.47,0,0,1,0-.2c0-.07,0-.09-.11-.12s-.1-.39.1-.44a.08.08,0,0,0,.05-.07.09.09,0,0,1,.06-.07.16.16,0,0,0,.1-.1c.1-.28.11-.34.07-.38S56,52.72,56,52a2.4,2.4,0,0,0-.06-.64s0-.05.06-.07.09-.09.07-.26a.53.53,0,0,1,0-.32c0-.09,0-.17,0-.33A3.74,3.74,0,0,1,56,50a1,1,0,0,0-.32-.63.51.51,0,0,1-.15-.14,1.77,1.77,0,0,0-.5-.43,1.14,1.14,0,0,1-.42-.28s0,0-.26,0a2.72,2.72,0,0,1-.42,0,.76.76,0,0,0-.3,0,.48.48,0,0,1-.29,0,3.88,3.88,0,0,0-1.18,0,.73.73,0,0,1-.35,0,3,3,0,0,0-1.35.35.78.78,0,0,1-.22.12,1.22,1.22,0,0,0-.49.29s0,0,0,0a.3.3,0,0,0-.11.13.85.85,0,0,1-.14.17,2.49,2.49,0,0,0-.31.42.34.34,0,0,1-.12.12.19.19,0,0,0-.1.08l-.11.12c0,.05,0,.08,0,.1s0,.05,0,.1-.11.08-.07.14,0,.08,0,.09-.08.22,0,.24,0,.06,0,.11-.07.13-.2.2,0,.1,0,.23,0,.09,0,.11-.07,0,0,.1.06.07,0,.07l-.17,0c-.1,0-.12,0,0,.08-.21,0-.31,0-.27.06a.27.27,0,0,1,0,.16c0,.08,0,.1.11.14a.21.21,0,0,1,.15.12.33.33,0,0,0,.09.11c.07,0,0,.05-.16,0s-.27.06-.17.1.17.32.08.36-.07,0,0,.08.06.24-.09.27a.12.12,0,0,0-.1.1.62.62,0,0,1-.1.25,1.72,1.72,0,0,0-.11.29.56.56,0,0,1-.08.22c-.05.09-.05.09,0,.24a.85.85,0,0,1,0,.13.7.7,0,0,0,0,.13.11.11,0,0,1-.06.1c.14,4,.1,8.14,0,12,0-.09.1-.14.17-.12s.13,0,.14,0,.15,0,.14.13a.65.65,0,0,1,0,.2.26.26,0,0,0,0,.21c0,.09,0,.11-.08.15s-.25.13-.19.16,0,.06-.06,0-.06-.07-.05-.09a.1.1,0,0,0,0-.09.08.08,0,0,1,0-.08q0,1.16-.09,2.25a.3.3,0,0,0,0-.1.49.49,0,0,0,0-.22c0-.09,0-.16.13-.13s.29.2.23.26a.92.92,0,0,0-.16.24.74.74,0,0,0,0,.47c0,.12,0,.13-.09.09s-.13,0-.14,0,0,0,0,0c0,.42,0,.83-.05,1.24A.3.3,0,0,1,47.47,71.64Zm8.18-17.5c.1,0,.09.07,0,.07s-.07,0-.07-.05S55.59,54.13,55.65,54.14Zm-1.09,3.57s0,0-.1,0-.15-.1-.08-.11S54.57,57.68,54.56,57.71Zm-.06-1.85a.14.14,0,0,1-.14,0A.14.14,0,0,1,54.5,55.86Zm-.38.62c0-.11.06-.13.16-.11s.1,0,0,.07,0,0,0,.07,0,.1-.13.08S54.11,56.55,54.12,56.48Zm.38.34c.27.12.34.2.12.13l-.18,0a.29.29,0,0,1-.28-.11C54,56.66,54.15,56.66,54.5,56.82Zm-.46.64c.1.06,0,.19-.1.18s-.15,0-.07-.07,0,0,0-.08a.15.15,0,0,1-.07-.07S54,57.4,54,57.46Zm-1,3.33c-.05,0-.08,0-.08-.06s.05,0,.09,0,.08,0,.08.06S53.1,60.81,53.06,60.79Zm-.14-.45a.32.32,0,0,0,.11-.12c0-.11,0-.11.14,0a.12.12,0,0,1,.06.11c0,.09,0,.15.2.21s.23.21.07.28-.12.06,0,.1.09.11,0,.1-.22-.11-.17-.14-.08-.17-.19-.19a.48.48,0,0,1-.15-.07C52.84,60.49,52.82,60.41,52.92,60.34ZM51.68,62.1c0-.1,0-.13.09-.11a.17.17,0,0,1,0,.15c0,.09,0,.12.12.18s.12.08.06.08-.34-.09-.33-.13Zm-.11.57q.1,0,.09.12c0,.07-.1.1-.16,0a.25.25,0,0,1,0-.12C51.47,62.63,51.48,62.62,51.57,62.67Zm-.31.67a.2.2,0,0,1,0-.05C51.36,63.31,51.31,63.36,51.26,63.34ZM49.36,63c.12,0,.22.14.14.21a.41.41,0,0,0-.1.13s-.06.06-.13,0S49.24,63,49.36,63Zm-.26.5c.08-.06.15,0,.13.1s-.08.12-.17,0S49,63.53,49.1,63.47ZM49,63.7a.16.16,0,0,1,.12.19c0,.06-.16.08-.21,0S48.94,63.71,49,63.7ZM48.15,66c.11.06.11.08,0,.12C48,65.93,48,65.91,48.15,66Zm-.12.41s.08,0,.12,0l.15.14c.18.13,0,.1-.14,0S48,66.42,48,66.39Z"/><path class="cls-18" d="M49.27,71.23s0,.06.11.07.08,0,.11.11.14.1.15,0a1,1,0,0,0-.19-.46C49.4,70.9,49.24,71.17,49.27,71.23Z"/><path class="cls-18" d="M47.38,74a.38.38,0,0,0-.08-.09v.2C47.39,74.21,47.46,74.16,47.38,74Z"/><path class="cls-18" d="M48,73.9c.17.07.18,0,0-.16s-.12-.14-.08-.18c.24-.19.37-.29.44-.28s.07,0,.09,0a1.58,1.58,0,0,0,.28-.45c.05-.14.11-.15.38-.09a.44.44,0,0,0,.22,0c.11,0,.11-.06,0-.21s-.1-.37,0-.36,0,0,0-.11-.06-.13-.18,0-.16.1-.3,0-.35-.17-.47.25a.32.32,0,0,1-.13.2c-.13,0-.22.2-.18.29s0,.07-.12.07-.22.09-.17.25,0,.07-.13.06-.24.07-.2.2,0,.07-.12,0l0,.54s.07,0,.09,0S47.77,73.8,48,73.9Zm.43-1.43c.09-.13.26,0,.2.15s-.14.07-.21,0S48.37,72.52,48.4,72.47Zm-1,.88c.08,0,.12,0,.21.15s.07.1,0,.07a.78.78,0,0,1-.2-.11C47.31,73.38,47.32,73.35,47.43,73.35Z"/><path class="cls-18" d="M49.74,68.44c.1,0,.14-.15.06-.28s-.08-.33,0-.36,0-.14-.09-.21-.17.43-.18.61S49.6,68.42,49.74,68.44Z"/><path class="cls-18" d="M50.57,64.6s0-.09,0-.09.06-.08-.1-.21-.21-.16-.3-.12a.23.23,0,0,0-.09.17c0,.13,0,.13.2.25S50.63,64.74,50.57,64.6Z"/><path class="cls-18" d="M50.5,64.11c.18.09.21.1.23.07a1.43,1.43,0,0,0-.48-.28C50.11,63.86,50.22,64,50.5,64.11Z"/><path class="cls-18" d="M49.76,70.18c-.06.19-.06.24,0,.24s.14-.28.07-.34S49.8,70.07,49.76,70.18Z"/><path class="cls-18" d="M49.88,64.7s.07.1.12.08.06,0,0-.06S49.89,64.69,49.88,64.7Z"/><path class="cls-18" d="M50.7,68.12c.09.07.09,0,0,0S50.72,68.09,50.7,68.12Z"/><path class="cls-18" d="M50.9,64c.05,0,0-.1-.07-.12s-.08.08,0,.12S50.89,64,50.9,64Z"/><path class="cls-18" d="M50.62,66.11s0,.11.11.11,0-.12,0-.15S50.64,66.07,50.62,66.11Z"/><path class="cls-18" d="M64.26,61.55s0,0,0-.07C64.12,61.58,64.17,61.61,64.26,61.55Z"/><path class="cls-18" d="M64.44,62.31c0-.08-.08-.08-.11,0s.15.21.28.22.1,0,.07-.08a.17.17,0,0,0-.14-.08C64.48,62.37,64.44,62.34,64.44,62.31Z"/><path class="cls-18" d="M64.19,61.87c0,.08,0,.32.09.3l.16-.08c.15-.08.15-.13,0-.17s-.11-.05-.11-.08S64.21,61.79,64.19,61.87Z"/><path class="cls-18" d="M64.68,60.6s0,0,0,.06S64.76,60.64,64.68,60.6Z"/><path class="cls-18" d="M65.19,60.61s-.12,0-.15,0,0,.06.07,0S65.19,60.63,65.19,60.61Z"/><path class="cls-18" d="M64.77,61.21c.06,0,.08.06,0,.1s0,.11.22.11.26,0,.3-.12a.4.4,0,0,0,0-.22C65.21,61,65.21,61,65,61S64.63,61.14,64.77,61.21Z"/><path class="cls-18" d="M64.77,60.85a.09.09,0,0,0,0-.07s0,0-.08,0a.05.05,0,0,0,0,.07A0,0,0,0,0,64.77,60.85Z"/><path class="cls-18" d="M64.34,63.35c0-.09,0-.12,0-.12s-.06,0,0-.07,0-.18-.1-.13-.09.07-.08.12,0,.14-.15.23-.16.17.16.09A.55.55,0,0,0,64.34,63.35Z"/><path class="cls-18" d="M64.87,65.14c.09,0,.18,0,.19,0s.09-.09,0-.16,0-.14,0-.16a.16.16,0,0,0,0-.12c0-.15,0-.16-.14-.14s-.1,0-.08-.08,0-.09-.09-.08-.13,0-.13,0a.06.06,0,0,0-.08,0c-.14,0-.08,0,0-.06s.18-.11,0-.3-.16,0-.11.09-.07.26-.24.33.13.87.48,1.16c.09.07.09.07.15-.09s.05-.15,0-.18S64.67,65.18,64.87,65.14Z"/><path class="cls-18" d="M64.36,63.83s0-.09.07-.14a.24.24,0,0,0,.09-.13q0-.14,0-.12l-.12,0a.27.27,0,0,1-.24.16c-.14,0-.16,0-.11.16a.2.2,0,0,1,0,.2c-.07.09,0,.19,0,.16S64.39,63.88,64.36,63.83Z"/><path class="cls-18" d="M65,61.7a1.28,1.28,0,0,0,.55-.1c.13-.08,0-.08-.33,0S64.94,61.67,65,61.7Z"/><path class="cls-18" d="M63.73,59.35s0,.08.08.07S63.79,59.32,63.73,59.35Z"/><path class="cls-18" d="M63.47,62.92c-.07,0,0,.21.08.19s.05,0,.05.06.13.15.21,0S63.64,62.82,63.47,62.92Z"/><path class="cls-18" d="M64.06,61.1c.12,0,.11-.13,0-.17s-.11,0-.1.11S64,61.12,64.06,61.1Z"/><path class="cls-18" d="M63.63,60a.06.06,0,0,0,0-.08.08.08,0,0,0-.15,0S63.57,60,63.63,60Z"/><path class="cls-18" d="M73,64a2.48,2.48,0,0,1-.52-.86s0,0,0-.08a.3.3,0,0,1-.12-.13,1,1,0,0,0-.19-.31A.51.51,0,0,1,72,62.4c0-.06,0-.11-.07-.11s-.06,0,0-.1,0-.09-.09-.08-.17,0-.07-.11.06-.07,0-.08a8.73,8.73,0,0,1-.81-1.47s0-.13-.13-.31l-.27-.69c-.19-.51-.37-1.06-.39-1.13a7.93,7.93,0,0,0-.32-.78,1.67,1.67,0,0,1-.16-.47c-.06-.25-.07-.29-.11-.43-.12-.37-.17-.54-.22-.55s0-.05,0-.09,0-.08-.1-.12-.13-.07-.1-.18,0-.13,0-.14a2.84,2.84,0,0,1-.26-.87c-.07-.38-.07-.34-.19-.89a4.23,4.23,0,0,1-.11-.64c0-.1,0-.18-.05-.19s-.17-.35-.11-.39a.37.37,0,0,0,0-.25,5.09,5.09,0,0,1,0-.9c0-.06,0-.08-.07-.09s-.1-.08,0-.24a.88.88,0,0,0,0-.68c-.07-.16-.07-.16-.3-.13s-.33,0-.18,0,.07-.11,0-.1-.24.07-.22,0,0-.08-.07-.1-.09,0-.09-.08-.16-.05-.37,0-.17,0-.15,0,0-.06-.09-.08-.13,0-.13-.08-.21-.1-.34-.07-.08.08-.09.18,0,.18-.1.2-.17,0-.07-.08,0-.15-.14-.14-.2.13-.15.18,0,.09,0,.17c-.16.34-.42.14-.29-.22.07-.18-.11-.26-.48-.22s-.25,0-.28-.07-.06-.1-.22-.06,0,.26.15.24.28.14,0,.17a1.57,1.57,0,0,0-.31.08c-.27.11-.69.1-.5,0,0,0,0-.05,0-.08s-.23.14-.36.1a.5.5,0,0,0-.21,0,.33.33,0,0,1-.24-.05c-.16-.07-.14-.15,0-.18s.14-.13,0-.15-.39.15-.38.22,0,.1-.07.15-.08.09-.18,0-.2-.08-.26,0-.06.07-.34.08l-.31,0a1,1,0,0,0-.15.57.27.27,0,0,1-.27.33c-.08,0-.09,0-.08-.11s0-.12-.11-.09-.38.12-.37.18-.28.26-.48.34-.13.12.09.13.2,0,.19.08c0,.31-.06.49-.11.52a.13.13,0,0,0,0,.11,2,2,0,0,0,.11.55c.07.15,0,.2-.21.35a.52.52,0,0,0-.13.18c0,.12,0,.13.14.18s.32.22.25.28,0,0,.07.09.14.06.17-.09,0-.2.23-.21.37-.13.16-.54a.39.39,0,0,1-.05-.26c.05-.13,0-.31-.07-.35s-.06-.06,0-.14.09-.23,0-.32S61,52,61,52s.13-.23,0-.29-.07,0,.07-.1.2-.16,0-.14-.12,0,0-.09a.41.41,0,0,1,.34,0c.1,0,.11.17,0,.37s0,.18,0,.19.06.22,0,.24.05.32.18.3l.21-.05c.52-.15.56-.13.59.34l0,.4a.29.29,0,0,1-.33-.22c0-.06,0-.11-.08-.11a1.57,1.57,0,0,0-.27-.19c-.18-.12-.18-.12-.22,0s0,.16.15.26.13.09.06.18a.54.54,0,0,0-.16.43c0,.19,0,.2.17.11a1.17,1.17,0,0,1,.58-.17c.27.06.54.69.46,1.07,0,.11,0,.15.06.19s.09.09.07.21,0,.21-.3.22a.94.94,0,0,0-.27,0s0,0,0,.09a.1.1,0,0,0,.1.16s0,0,0-.1,0-.1.34-.14.37,0,.37.23.16.4.34.31a.21.21,0,0,1,.26,0,.37.37,0,0,0,.21,0c.16,0,.16,0,.25.34s.13.46.22.52,0,.1,0,.19,0,.15,0,.16.06.08.06.17,0,.15-.17.19-.25.06-.32,0-.12-.15-.21-.14-.08.05-.05.18,0,.18-.09.27-.12.17,0,.14.09,0,.07,0,0,.09.08.12a.7.7,0,0,0,.15-.15s.06-.1,0-.13.13-.24.39-.22c.08,0,.08,0,0,.11s-.07.11,0,.23a.53.53,0,0,1,.17.34c0,.2,0,.22.18.23s.19.06.06.17-.08.09,0,.13.07.14,0,.24a.2.2,0,0,1-.3,0,.39.39,0,0,0-.25-.11c-.1,0-.2,0-.2-.06s-.06,0-.12,0,.07.78.24.79.08,0,0,.08,0,.09,0,.12a.08.08,0,0,1,.06.1.23.23,0,0,0,.09.28s0,.05,0,.09,0,.09.06.2a1,1,0,0,1,.14.24c0,.07,0,.09.11.07a.33.33,0,0,1,.17,0h.12c.06,0,.16-.31.12-.31s0,0,0-.06.24-.08.22,0,0,0,.11,0,.13,0,.12.1a.84.84,0,0,0,0,.26l.07.33a.25.25,0,0,0,.15.23.24.24,0,0,1,0,.42c-.11.08-.11.08,0,.08s.16,0,.17.06a.17.17,0,0,0,.1.08c.12,0,0,.26-.12.24s-.1,0-.12,0,0,.06.14,0,.09,0,.09,0,0,.07-.08.08l-.14.06a.35.35,0,0,1-.15.07.14.14,0,0,0-.12.1c-.06.18-.27.15-.35,0s-.29-.22-.35-.09a.09.09,0,0,0,0,.12.26.26,0,0,1,.11.32c-.06.07-.07.07-.2,0a.59.59,0,0,0-.27,0c-.12,0-.12.06,0,.31s.18.33.3.23a.34.34,0,0,1,.14-.08.09.09,0,0,0,.08-.08c0-.07.11-.17.17-.14s0,.22-.06.26a.36.36,0,0,0-.13.08.29.29,0,0,1-.16.08c-.09,0-.12,0-.13.1s.09.14.18.11a.17.17,0,0,1,.2.07s0,.05-.1.07S65,64,65,64.05s.1.2.19.36a2.19,2.19,0,0,0,.3.45c.12.13.14.17.1.26s0,.17.11.13.13,0,.13,0,.21.21.28.18,0-.06,0-.11a.19.19,0,0,1,.06-.28c.07,0,.1,0,.11,0a.08.08,0,0,0,.07.07s.05,0,0,.08,0,.08,0,.09,0,.27-.2.37-.24.22-.06.23a.28.28,0,0,0,.18,0c.07-.06.06,0,0,.07s0,.18.12.13,0,0,0,.06a.21.21,0,0,0-.11.1.17.17,0,0,1-.26.09.29.29,0,0,0-.23,0c-.14.05-.18,0-.1-.24s0-.12-.19-.09-.24,0-.18-.07-.1-.22-.23-.15-.24.18-.07.49.2.42,0,.38-.13,0-.16,0,.14.2.29.11.23,0,.32.18.11.29,0,.35-.11,0,0,.11.08,0,.15,0-.1.26,0,.31a.43.43,0,0,0,.24,0c.21,0,.35.11.47.47-.15.12.49.93.6.93s0,0,.06.12,0,.12.12.11a.22.22,0,0,1,.17,0,.14.14,0,0,0,.15,0c.1,0,.17.08.12.2a1,1,0,0,0,.31.69.17.17,0,0,0,.23,0c.11,0,.13,0,.1,0a.11.11,0,0,0,0,.11c-.2.17.06.66.25.6s.06,0,0,0,.08.16.21.29.22.23.39.13.27-.09.11.06-.12.12-.07.18c.48.61.48.61.41.7s0,.08,0,.09c.14-.15.27-.18.29-.1a.49.49,0,0,0,.14.18,1.21,1.21,0,0,1,.2.26c0,.1.1.14.17.13s.08,0,0,.1,0,.17.08.1.4.22.33.35,0,.1.07.14a1.22,1.22,0,0,1,.23.1c.08,0,.12,0,.18,0s.48.15.47.36c0,0,0,.07.06.09s.06.07,0,.1a.25.25,0,0,0,.08.15c.3.26.36.31.42.29s.2,0,1.06.39a3.62,3.62,0,0,0,.8.25s.06,0,.08.09.08.13.3.19l.25.07c-.51-3-.87-6.66-1.12-10.47a9.88,9.88,0,0,1-.5-1.07A1.18,1.18,0,0,0,73,64ZM60.66,53c0-.09,0-.15.15-.14a.15.15,0,0,1,.09.11C60.93,53.1,60.71,53.13,60.66,53ZM61,51.54c0,.07-.1.08-.26.05s-.12,0,0-.08a.47.47,0,0,1,.22-.07C61,51.43,61,51.46,61,51.54ZM62.11,51c.13,0,.17,0,.07.07a.22.22,0,0,1-.15,0C61.94,51.11,62,51,62.11,51Zm.19.67a.44.44,0,0,0,0,.21c0,.17,0,.24-.24.23s-.09,0-.08-.09,0-.19.05-.32.13-.33.25-.31S62.35,51.64,62.3,51.7Zm.19-.38c-.1,0-.12,0-.12,0s.08-.12.17-.12S62.6,51.29,62.49,51.32Zm2.59-1.1c.19,0,.23,0,.06.09s-.25,0-.24,0S65,50.24,65.08,50.22Zm-.89,2.26c-.08,0-.11,0-.11-.13s0-.13.14-.11S64.35,52.46,64.19,52.48Zm-.06-.4c.09,0,.07,0,0,0S64.05,52.13,64.13,52.08Zm-.94-.33c.06,0,.07-.07,0-.1a.12.12,0,0,1,0-.12s.11-.35.12-.37l0-.13a.17.17,0,0,1,.21-.11s0,.06,0,.14,0,.14.08.23a.33.33,0,0,1,.12.2c0,.08,0,.08.25.07s.38,0,.27.16-.14.12-.2.05a.23.23,0,0,0-.15-.05,1,1,0,0,1-.24,0c-.2,0-.23,0-.25.17s-.13.33-.22.09S63.12,51.8,63.19,51.75Zm0,.48a.07.07,0,0,1,.09.05c0,.08-.07.12-.16.08S63.1,52.24,63.21,52.23Zm0,.43c.1-.07.1-.07.14,0a.38.38,0,0,0,.09.09c.07.06,0,.1-.18.08S63.05,52.76,63.17,52.66Zm0,.39c.08,0,.11,0,.09,0s.12-.15.23-.16a.17.17,0,0,1,.13.1.28.28,0,0,1,0,.37c0,.07-.07.15,0,.18s-.25.13-.42,0S63,53.08,63.22,53.05Zm1.13,1.78a.19.19,0,0,0-.15,0,.15.15,0,0,1-.18-.13c0-.09,0-.1-.25,0s-.17,0-.09.22a.38.38,0,0,0,.12.2.12.12,0,0,1,0,.22c-.13.08-.35,0-.35-.05a.94.94,0,0,0,0-.32.91.91,0,0,0-.31-.43c-.11-.07-.11-.07,0-.14s.1-.08.06-.14.06-.19.21-.18.1,0,.12.1,0,.11.17.13.21.1.11.15,0,.08.08.07a1,1,0,0,1,.35-.37c.13-.06.1-.39,0-.46S64,53.18,64.1,53s.06-.16,0-.19.09-.18.17-.14a.65.65,0,0,1,.1.33c0,.23.07.31.13.32s.07.13-.05.23-.08.45,0,.48a.3.3,0,0,1,.14.11c.16.23.16.25,0,.28s-.23.11-.15.19S64.51,55,64.35,54.83Zm.18.85,0-.1.07-.13c.16,0,.21.24.14.27S64.53,55.71,64.53,55.68Zm.7,2.12H65c-.22,0-.1-.06.13-.08s.18,0,.2,0S65.31,57.83,65.23,57.8Zm.09-.27c0,.1-.13.09-.2,0a.81.81,0,0,1-.1-.21.32.32,0,0,0-.14-.18c-.1-.05-.1-.07,0-.2s.09-.29,0-.28,0-.06,0-.07.1,0,.1,0a.1.1,0,0,0,.08.06s.07,0,.07.06a.08.08,0,0,0,.07,0,.25.25,0,0,1,.11.1c.17.24.22.45.11.52S65.31,57.5,65.32,57.53Zm.23.67c-.12,0-.14,0-.1-.09C65.69,58.14,65.69,58.18,65.55,58.2Zm-.35,4.65a.08.08,0,0,1,0,0C65.14,62.94,65.14,62.86,65.2,62.85Zm.21.62a.29.29,0,0,1,.11.08c.06.08.06.09,0,.12a.13.13,0,0,1-.16,0A.1.1,0,0,1,65.41,63.47Zm.45.93s-.1,0-.14-.08-.1-.11-.23-.07-.14,0-.1,0,.31-.18.33-.14l.12.17C65.91,64.35,65.92,64.39,65.86,64.4ZM66,66.46s.09,0,.1,0,0,0,0,.08-.09,0-.1,0S65.94,66.49,66,66.46Zm.47.62a.13.13,0,0,1-.14,0c-.06-.09-.15-.09-.3,0s-.32,0-.28-.18,0-.14-.07-.12-.15,0-.08-.08.23-.08.22,0,.19.07.28,0a.48.48,0,0,1,.16-.07c.14,0,.22,0,.21.17a.48.48,0,0,0,0,.2C66.55,67.06,66.55,67.06,66.45,67.08Zm-.32-10.94a.07.07,0,0,1,0-.14h.12C66.35,56.05,66.28,56.15,66.13,56.14Zm.17,4.63c0-.07.06-.19.12-.19s.15.2.1.26S66.33,60.85,66.3,60.77Zm.16.35c-.06-.09,0-.17.09-.18s.1.05.08.17S66.53,61.23,66.46,61.12Zm.34.61c-.08.09-.26,0-.25-.07a1.11,1.11,0,0,0,0-.19c0-.06,0-.1.07-.12S66.87,61.64,66.8,61.73Zm0-5.19a.76.76,0,0,1-.51,0s0,0,.11-.07.32-.12.3-.22,0-.18.15-.14S66.9,56.45,66.75,56.54Zm.21-.91c-.06,0-.11,0-.11-.07s-.09,0-.14,0a.48.48,0,0,1-.21.08c-.19,0-.21,0,0-.08l.17-.12a1.14,1.14,0,0,1,.51-.11C67.34,55.45,67.18,55.7,67,55.63Zm.88,14.59s0,0,.06-.08.18,0,.15,0S67.87,70.26,67.84,70.22Zm.28-18.58c-.05,0-.09,0-.09,0s0,0,.08,0,.09,0,.09,0S68.17,51.64,68.12,51.64ZM68.37,70c-.11,0-.19-.13-.11-.22s.12-.1.1,0,0,.07.08,0,.1,0,.11,0S68.47,69.94,68.37,70Zm.38.87c-.26.15-.38.15-.2,0s.12-.11.12-.14.13-.15.26-.16S69.09,70.65,68.75,70.84Zm.55.14c-.07.07-.08.06-.07,0s0-.06-.09,0-.11,0,0-.17.07-.06.14,0S69.38,70.9,69.3,71Zm.4.56a.13.13,0,0,1,.07-.13A.12.12,0,0,1,69.7,71.54ZM71,73.72c-.07.07-.11,0-.06-.07s.06-.05.08,0S71.05,73.67,71,73.72Z"/><path class="cls-18" d="M61,54.58c-.06,0-.08,0-.15,0s-.17,0-.1.12a1.05,1.05,0,0,0,.46.23s0-.34-.08-.37S61.06,54.54,61,54.58Z"/><path class="cls-18" d="M64.06,49.93c.08,0,0-.09-.06-.09s-.15.07-.07.09Z"/><path class="cls-18" d="M61.32,55.6c-.06.06.08.33.17.33s.06,0,0-.15S61.38,55.54,61.32,55.6Z"/><path class="cls-18" d="M64.94,62c0,.06.08.09.14.05s0-.14-.08-.11S64.94,62,64.94,62Z"/><path class="cls-18" d="M62,57.19c-.12,0,0,.09,0,.08S62,57.2,62,57.19Z"/><path class="cls-18" d="M61,50.79s0,0,0,.07,0,0,.09,0,.12,0,.13-.06a.13.13,0,0,0,0-.1c0-.06,0-.06-.11,0S61,50.77,61,50.79Z"/><path class="cls-18" d="M60.51,51c.15,0,.19,0,.27-.06s0-.12-.22-.11S60.33,51,60.51,51Z"/><path class="cls-18" d="M60.93,50.48a.37.37,0,0,1,.15-.12c.08,0,.06-.16,0-.18a.19.19,0,0,0-.12,0,.66.66,0,0,1-.15.09c-.18.09-.4.31-.33.33A.53.53,0,0,0,60.93,50.48Z"/><path class="cls-18" d="M62.22,54.31c.06,0,.06,0,0-.16s-.16-.09-.14,0S62.15,54.34,62.22,54.31Z"/><path class="cls-18" d="M62.7,57.24c-.08.06,0,.23.15.28s.29.23.22.33.06.16.21.13-.16-.51-.28-.67S62.82,57.15,62.7,57.24Z"/><path class="cls-18" d="M63.2,61.89c.06,0,0-.07,0-.07S63.12,61.94,63.2,61.89Z"/><path class="cls-18" d="M65,65.22c-.09.06-.06.15,0,.14s.1,0,.06-.09S65.07,65.2,65,65.22Z"/><path class="cls-18" d="M62.16,57.8l-.1-.08c-.22-.17-.42,0-.24.15s.1.12.22,0Z"/><path class="cls-18" d="M62.2,58.28a.05.05,0,0,0,0-.05C62.1,58.23,62.15,58.29,62.2,58.28Z"/><path class="cls-18" d="M62.1,58.45c-.13.15-.13.17,0,.16s.13,0,.14,0,.1.08.15,0,0-.07-.15-.29S62.2,58.32,62.1,58.45Z"/><path class="cls-18" d="M62.76,56.71a.14.14,0,0,1,0-.13.06.06,0,0,0,0-.09.43.43,0,0,1-.09-.1c-.07-.09-.14-.06-.16.08s0,.13-.07.13,0,.15.18.18S62.78,56.81,62.76,56.71Z"/><path class="cls-1" d="M51,45.76a18.22,18.22,0,0,0,1.48,1.83c.6.8.43,1.57.64,2.49a2.77,2.77,0,0,0,1.52,1.7,7.5,7.5,0,0,0,4.16.61c1.28-.12,2.6,0,3.55-1a10.54,10.54,0,0,1,1.24-1.49,10.2,10.2,0,0,1,1-.57,3,3,0,0,0,1.36-3.18,6.24,6.24,0,0,1-.49-2,5.08,5.08,0,0,1,.49-1.33,3.83,3.83,0,0,0,.17-1.43c0-.63-.19-3-1-3.08-.38,0-.68.29-1,.54a2.53,2.53,0,0,1-1.31.56c-.68.08-1.44-.12-2,.24a6.86,6.86,0,0,0-.59.48,3.77,3.77,0,0,1-3.29.25c-.52-.27-.91-.75-1.43-1a5.69,5.69,0,0,0-2.22-.29,3,3,0,0,1-1.79-.61,7.64,7.64,0,0,0-.35,2.28,7.37,7.37,0,0,1-.53,2.1,3.82,3.82,0,0,0,.21,2.64C50.84,45.56,50.89,45.66,51,45.76Z"/><path class="cls-19" d="M58.63,41.46a1.66,1.66,0,0,1,.88.15,2.47,2.47,0,0,1,1.16,1.76.23.23,0,0,1-.08.21.24.24,0,0,1-.16.05,2.14,2.14,0,0,1-.76,0c-.41-.11-.76-.46-1.19-.46s-.76.35-1.14.57c-.76.44-2.15.17-1.29-.8A3.88,3.88,0,0,1,58.63,41.46Z"/><path class="cls-4" d="M45,68.93c-.86,1.17-2.84,2.57-4.28,2.37-1.27-.17-2.51-.8-2.4-2.65.21-3.7,10.52-18.54,11.74-21.43s4.09-5,6.52-3.38-3.66,2.41-4,4.85S51.36,60.31,45,68.93Z"/><path class="cls-4" d="M72.38,68.32c.86,1.17,2.84,2.57,4.28,2.37,1.27-.17,2.51-.8,2.41-2.65-.22-3.7-10.53-18.54-11.74-21.43s-4.1-5-6.53-3.38,3.67,2.41,4,4.85S66.05,59.7,72.38,68.32Z"/></svg>