<svg id="pain" xmlns="http://www.w3.org/2000/svg" xmlns:xlink="http://www.w3.org/1999/xlink" viewBox="0 0 111 162"><defs><style>.cls-1{fill:url(#Áåçûìÿííûé_ãðàäèåíò_1869);}.cls-2{fill:#2b245c;}.cls-3{fill:#ffd19a;}.cls-4{fill:url(#Áåçûìÿííûé_ãðàäèåíò_1868);}.cls-5{fill:#8d86c5;}.cls-6{fill:#8580ad;}.cls-7{fill:#a699d9;}.cls-8{fill:url(#Áåçûìÿííûé_ãðàäèåíò_1868-2);}.cls-9{fill:url(#Áåçûìÿííûé_ãðàäèåíò_1868-3);}.cls-10{fill:url(#Áåçûìÿííûé_ãðàäèåíò_1868-4);}.cls-11{fill:#d28174;}.cls-12{fill:#d83d5b;}</style><linearGradient id="Áåçûìÿííûé_ãðàäèåíò_1869" x1="9.08" y1="170.72" x2="129.45" y2="-35.96" gradientUnits="userSpaceOnUse"><stop offset="0" stop-color="#e4ddff"/><stop offset="1" stop-color="#faf9ff"/></linearGradient><linearGradient id="Áåçûìÿííûé_ãðàäèåíò_1868" x1="18.78" y1="114.24" x2="96.51" y2="114.24" gradientUnits="userSpaceOnUse"><stop offset="0" stop-color="#ef6e98"/><stop offset="1" stop-color="#db385b"/></linearGradient><linearGradient id="Áåçûìÿííûé_ãðàäèåíò_1868-2" x1="66.13" y1="-8.84" x2="30.74" y2="36.13" xlink:href="#Áåçûìÿííûé_ãðàäèåíò_1868"/><linearGradient id="Áåçûìÿííûé_ãðàäèåíò_1868-3" x1="89.99" y1="10.93" x2="87.34" y2="54.25" xlink:href="#Áåçûìÿííûé_ãðàäèåíò_1868"/><linearGradient id="Áåçûìÿííûé_ãðàäèåíò_1868-4" x1="9.42" y1="23.75" x2="21.65" y2="71.04" xlink:href="#Áåçûìÿííûé_ãðàäèåíò_1868"/></defs><title>pain</title><path class="cls-1" d="M19,47.47c-.71,4.88-.46,10-2.06,14.61C15,67.66,10.7,72,7.43,76.92a44.64,44.64,0,0,0-4.77,39.34c2.55,7,7.27,13.68,14.18,16.54,5.16,2.13,11,2,16.23,4C40,139.49,45.7,146,53.16,146c8.2.08,14.27-7.61,22-10.29,5.06-1.75,10.71-1.31,15.66-3.33,6.5-2.66,10.63-9,14-15.15,2-3.55,3.87-7.76,2.33-11.51-.7-1.72-2-3.08-3-4.67-4.4-7.33.43-16.41,3.38-24.43a54,54,0,0,0,3.29-20c-.15-5.58-1.32-11.45-5.07-15.6-4.89-5.42-13-6.73-18.36-11.74C82.75,24.86,80.82,18,76,13.8,70.6,9.13,62.6,8.57,55.79,10.58,39.17,15.49,21.6,29.65,19,47.47Z"/><path class="cls-2" d="M77.17,106.64s-9-9.21-21.34-7.92-17.51,8.57-17.51,8.57,1.25,7.93,17,7.93c0,0,0,29.46,0,29.46A14.47,14.47,0,0,1,46,157.4a11.77,11.77,0,0,0-3.22,1c-.46.27-.71.55-.71.84,0,1.52,6.78,2.75,15.14,2.75s15.15-1.23,15.15-2.75c0-.3-.26-.58-.73-.85a11.8,11.8,0,0,0-3.16-1c-7.86-2.37-9.24-12.73-9.24-12.73V115C72,113.76,77.17,106.64,77.17,106.64Z"/><path class="cls-3" d="M36.69,152.61c-2.42,2.59-7,8.58-7.93,7.61-.69-.69,1.91-5.91,3.46-8.85a4.58,4.58,0,0,0,.13-4.05c-.76-1.66-1.91-4.21-3.24-7.16a16,16,0,0,0,3.14-.78,14.9,14.9,0,0,0,3.15-1.62c.71,3.57,1.46,6.43,2.43,7.57.11.12.2.24.29.35C40.62,148.82,39,150.12,36.69,152.61Z"/><path class="cls-4" d="M69.53,89.81,58.56,88v-.3l-.91.15-.9-.15,0,.3-11,1.81s-29,19.26-26.87,26.06c1.29,4.18,6.44,15.89,10.22,24.29a16.21,16.21,0,0,0,3.14-.78,14.44,14.44,0,0,0,3.15-1.62c-1.42-7.13-2.75-17.15-5.67-22.22,0,0,12.47-10.23,29.46-11.2a48.11,48.11,0,0,1,26.36,11.2c-3.06,5.34-4.37,16.16-5.89,23.32a20.08,20.08,0,0,0,5.63,1.83l.61.08c3.8-8.43,9.17-20.62,10.5-24.9C98.5,109.07,69.53,89.81,69.53,89.81Z"/><path class="cls-3" d="M86.53,160.22c-1,1-5.51-5-7.93-7.61-2.26-2.39-3.81-3.69-1.7-6.57.16-.23.35-.46.56-.71.88-1,1.56-3.41,2.2-6.47a20.19,20.19,0,0,0,5.63,1.83l.61.08c-1.18,2.64-2.22,4.92-2.93,6.47a4.73,4.73,0,0,0,.13,4.18C84.67,154.41,87.22,159.53,86.53,160.22Z"/><path class="cls-2" d="M36.69,152.61c-2.42,2.59-7,8.58-7.93,7.61-.69-.69,1.91-5.91,3.46-8.85a7.25,7.25,0,0,0,3.84-2.48,15.4,15.4,0,0,0,2.06-3.21C40.62,148.82,39,150.12,36.69,152.61Z"/><path class="cls-2" d="M86.53,160.22c-1,1-5.51-5-7.93-7.61-2.26-2.39-3.81-3.69-1.7-6.57a15.12,15.12,0,0,0,1.88,2.85A7.14,7.14,0,0,0,83,151.45h.13C84.67,154.41,87.22,159.53,86.53,160.22Z"/><path class="cls-5" d="M54.74,52.1s-13.11,1-21,4.85C22,62.76,7.82,70.25,15.19,74.37c5.84,3.27,26.2-4,26.2-4l4.37,19.43s10,4.37,24.12,0l1.94-20.24s16.48,7.57,27.33,2.55c0,0-9.69-22.21-36.88-20Z"/><path class="cls-6" d="M43.68,53.88a.73.73,0,0,0-.3,0,.19.19,0,0,1,0,.14c0,.11,0,.28.13.27s0-.08,0-.16,0-.17.36-.21.41,0,.44.37.23.62.41.48.18-.07.29,0a.32.32,0,0,0,.23,0c.19,0,.18,0,.34.51s.25.68.36.77a.37.37,0,0,1,0,.28c0,.14,0,.22,0,.24s.09.11.12.24,0,.23-.12.32-.26.12-.36,0-.2-.21-.29-.18-.07.09,0,.28.09.27,0,.43-.06.29.11.22.1,0,.11.05a.21.21,0,0,0,.13.15,1,1,0,0,0,.1-.25.16.16,0,0,0,0-.19c-.17-.15,0-.39.34-.4.08,0,.09,0,0,.17s0,.18.15.33a1.22,1.22,0,0,1,.34.47c.13.28.15.29.3.28s.24,0,.15.22,0,.15,0,.2.15.18.1.35-.2.15-.34,0a.49.49,0,0,0-.34-.09.58.58,0,0,1-.26,0s-.07,0-.14,0,.56,1.14.76,1.09.1,0,.09.11,0,.15.1.16a.17.17,0,0,1,.13.13.55.55,0,0,0,.32.37c.07,0,.09,0,.08.11s0,.15.23.26a1.32,1.32,0,0,1,.35.26c.09.09.14.1.19.05a.3.3,0,0,1,.18-.08.39.39,0,0,0,.14,0s-.1-.47-.15-.46,0,0,0-.08.2-.2.24-.08.06.06.16,0,.13,0,.2.07a2.4,2.4,0,0,0,.24.31l.37.36a.54.54,0,0,0,.38.18c.23,0,.49.22.46.43s0,.15.12.07a.27.27,0,0,1,.21-.06.31.31,0,0,0,.19,0c.15,0,.29.25.15.32s-.09.07-.08.11.11,0,.16-.07.07-.07.11,0a.09.09,0,0,1,0,.12.47.47,0,0,0,0,.17.41.41,0,0,1-.07.17c0,.06,0,.11,0,.18s-.06.36-.38.2-.55,0-.43.15a.2.2,0,0,0,.19.1c.17,0,.47.12.51.24s0,.11-.12.19a.42.42,0,0,0-.21.23c0,.14,0,.15.39.33s.61.16.58,0a.22.22,0,0,1,0-.18.1.1,0,0,0,0-.12c-.11-.07-.13-.26,0-.27s.33.16.3.28a.24.24,0,0,0,0,.17.23.23,0,0,1,0,.19c0,.1,0,.14,0,.19s.28.06.31,0,.16-.13.28-.1,0,.06,0,.13,0,.23.22.26l.68.1a5.23,5.23,0,0,0,.89,0c.28,0,.35-.06.45,0s.23.13.28,0,.08-.13.16-.11.44-.1.44-.19a.17.17,0,0,0-.15,0c-.22,0-.34-.08-.36-.2s0-.12.1-.1a.17.17,0,0,0,.15,0,.12.12,0,0,1,.13,0s.1,0,.16,0,.38.11.4.35.17.34.3.16.08-.17.06-.2,0-.07.09,0a.14.14,0,0,0,.27-.08c.06-.08.08,0,.07,0a.23.23,0,0,0,.08.16c.14.1.13.21,0,.3a.3.3,0,0,0-.16.23c0,.17-.17.19-.42,0s-.14-.09-.25.16-.12.25-.24.16a.25.25,0,0,0-.38.16c0,.28.12.33.7.28s.75,0,.55.16-.13.14,0,.2a.26.26,0,0,0,.36-.27c0-.18.09-.25.47-.28s.5,0,.5.11,0,.13.14.08.13-.08.1-.16.35.18.45.12a.52.52,0,0,0,.15-.27c.08-.25.35-.36.94-.46,0,.09.45,0,.84-.16a2.68,2.68,0,0,0,.79-.44s.1-.06.2-.07.18,0,.21-.14a.35.35,0,0,1,.15-.2.25.25,0,0,0,.11-.18c0-.12.18-.19.33-.14A2.06,2.06,0,0,0,63.77,64c.13-.1.16-.16.13-.29s0-.15.06-.12a.19.19,0,0,0,.15,0c.18.24.94-.17.91-.4,0,0,0-.08.06-.07a1.12,1.12,0,0,0,.45-.3c.36-.32.36-.32.27-.53s-.06-.33.1-.15.13.13.21.07c.91-.7.89-.73,1-.63s.09,0,.11,0c-.16-.16-.18-.32-.07-.36A1.45,1.45,0,0,0,67.4,61a2,2,0,0,1,.35-.3c.13-.09.19-.16.19-.24s0-.1.12-.06.22,0,.14-.13.32-.56.47-.49.12,0,.18-.11a3,3,0,0,1,.15-.31c.07-.11.07-.15,0-.23s.24-.64.49-.65a.18.18,0,0,0,.11-.09.17.17,0,0,1,.13-.08.33.33,0,0,0,.17-.12c.34-.41.4-.5.39-.58s0-.24.54-1.36a5.24,5.24,0,0,0,.37-1s0-.08.11-.1.16-.1.24-.38a1.73,1.73,0,0,1,.23-.49.76.76,0,0,0,.18-.51,4.13,4.13,0,0,1,.14-.7,2.48,2.48,0,0,0,.08-.66,41.19,41.19,0,0,0-8.38-.4s0,0,0,.06,0,.1,0,.18a.53.53,0,0,1-.33.21c-.06,0-.1.13-.1.35s0,.14-.12.15-.1,0-.07.12,0,.12,0,.12a.57.57,0,0,0-.15-.14c-.1,0-.15,0-.07.09-.2-.14-.32-.13-.33,0a.55.55,0,0,1-.07.23c-.06.11,0,.15,0,.23a.25.25,0,0,1,.07.22.33.33,0,0,0,0,.18c.06.09,0,.08-.18,0s-.32,0-.24.06,0,.49-.16.5-.1,0,0,.11-.11.32-.29.28a.18.18,0,0,0-.16.09,1.81,1.81,0,0,1-.28.23c-.11.08-.25.2-.33.27a1.41,1.41,0,0,1-.23.21c-.11.06-.12.06-.2.23a.44.44,0,0,1-.09.15l-.1.13s-.12.08-.15.06a.11.11,0,0,0-.11,0,5.91,5.91,0,0,1-.93.64,8.19,8.19,0,0,1-1.42.41.86.86,0,0,0-.39.12c-.39.18-1,.32-1,.24s0,0-.09,0a.26.26,0,0,1-.16.07.79.79,0,0,0-.33.06.33.33,0,0,1-.24,0,.09.09,0,0,0-.11,0s0,0-.09,0-.06,0-.09,0-.09.14-.1,0,0-.09,0-.06a2.27,2.27,0,0,1-1.15-.08,2.41,2.41,0,0,1-.65-.32,3.88,3.88,0,0,1-.73-.63L52,56.29a1.33,1.33,0,0,1-.28-.4l-.23-.4c-.19-.36-.28-.52-.33-.53s0-.05,0-.09,0-.09-.12-.12-.16,0-.13-.18,0-.15,0-.15a2.36,2.36,0,0,1-.36-1c-.09-.4-.09-.42-.18-.86-1.34.18-2.9.43-4.56.74.17.23,0,.46-.22.27a.22.22,0,0,0-.17-.06.14.14,0,0,1-.16-.1l-.45.08a.94.94,0,0,1,0,.09.91.91,0,0,0,.16.32.21.21,0,0,1,0,.33c-.14.11-.39.06-.4-.08a3.06,3.06,0,0,0-.07-.5l0-.1-.47.1C44,53.86,43.93,53.88,43.68,53.88Zm25.08,5.58c.08.09,0,.14-.08.09a.07.07,0,0,1,0-.1C68.68,59.4,68.71,59.41,68.76,59.46Zm-2.93,2a.11.11,0,0,1-.14-.07A.11.11,0,0,1,65.83,61.5Zm-1.11.65c.17-.13.21-.14.29-.06s.06.1-.07.1-.08,0,0,.12-.09.15-.23,0S64.62,62.24,64.72,62.15Zm0,.66c.11.32.07.47-.06.25s-.11-.14-.15-.14-.17-.14-.14-.31S64.52,62.4,64.68,62.81Zm-1.18,1a.21.21,0,0,1,0,.26s-.07,0-.1-.07S63.41,63.73,63.5,63.77ZM63,63.4c.08,0,.1,0,.09-.1a.15.15,0,0,1,0-.14c.06,0,.19.09.2.22s-.25.25-.35.15S62.92,63.38,63,63.4Zm-5.51,2.25a.3.3,0,0,1,0-.19.27.27,0,0,1,.36-.18,1.06,1.06,0,0,0,.31,0c.22,0,.23,0,.2.08a.21.21,0,0,1-.15.14c-.16,0-.22.15-.19.33s-.18.36-.44.25-.19-.07-.21,0-.12.16-.18.06,0-.27.13-.24S57.58,65.76,57.53,65.65Zm-.18,0c0,.06,0,.1-.05.11s-.06,0-.07-.09,0-.1,0-.1S57.34,65.62,57.35,65.67Zm-3.74-.9a3,3,0,0,0,.32,0c.2,0,.26,0,.24.08s-.11.08-.23.08-.22,0-.28.16-.07.14-.11.07S53.54,64.76,53.61,64.77Zm-1.1-.19s.11,0,.2,0,.17,0,.13.12a.15.15,0,0,1-.18.1C52.52,64.77,52.43,64.65,52.51,64.58Zm-1-.39a.16.16,0,0,1,.09,0C51.56,64.32,51.46,64.25,51.48,64.19Zm-.43-2.47c.06-.1.53.1.56.24s-.18.22-.3.1l-.2-.16C51,61.84,51,61.8,51.05,61.72Zm-.42-.39c.06,0,.13,0,.22.14s0,.18-.14.11S50.53,61.41,50.63,61.33ZM50.19,61c.07,0,.32.14.32.24s-.18.11-.28,0S50.13,61.05,50.19,61Zm-1.76-5.1c-.1.09-.49.17-.54.1s0-.07.1-.11.33-.2.28-.32,0-.25.13-.21S48.58,55.77,48.43,55.91Zm-.5-1.21.17-.17a1.12,1.12,0,0,1,.55-.18c.24.1.1.42-.16.35a.16.16,0,0,1-.12-.08c0-.07-.1,0-.16.05a.35.35,0,0,1-.21.13C47.79,54.86,47.77,54.83,47.93,54.7Zm-.31.56a.15.15,0,0,1,.13,0c.15,0,.09.19-.08.19A.1.1,0,0,1,47.62,55.26Zm.11,3.1c-.12.07-.15,0-.16-.1C47.85,58.24,47.86,58.29,47.73,58.36Zm-.54-.48a.64.64,0,0,0-.22,0c-.24.06-.14-.06.11-.13s.2,0,.23,0S47.29,57.9,47.19,57.88Zm-.81-1.7a.09.09,0,0,1,.12,0,.13.13,0,0,0,.1.08.12.12,0,0,1,.1.07s0,.08.08.08a.29.29,0,0,1,.16.11c.26.32.39.61.29.72a.2.2,0,0,0,0,.2c.07.13-.11.15-.23,0a2,2,0,0,1-.18-.29.61.61,0,0,0-.22-.23c-.12-.06-.14-.09-.12-.27s0-.44,0-.42S46.33,56.2,46.38,56.18Zm-.53-1.46,0-.19c.18,0,.26.36.19.4s-.27,0-.28,0A.8.8,0,0,1,45.85,54.72Z"/><path class="cls-6" d="M48.63,62.08a.1.1,0,0,0,0,.12s.09,0,.1,0a.09.09,0,0,0,0-.11A.08.08,0,0,0,48.63,62.08Z"/><path class="cls-6" d="M50.26,62.69c.05-.16-.1-.06-.32.21s-.15.21-.09.25S50.22,62.84,50.26,62.69Z"/><path class="cls-6" d="M49.59,63.72a.24.24,0,0,1-.21,0c-.1-.08-.19,0-.11.12s.44.35.46.31l.06-.19C49.84,63.73,49.78,63.66,49.59,63.72Z"/><path class="cls-6" d="M49,63.35a.11.11,0,0,0,0-.11C48.86,63.46,48.94,63.48,49,63.35Z"/><path class="cls-6" d="M42.23,54.72c-.06.1.14.56.24.56s.06-.06,0-.26S42.29,54.62,42.23,54.72Z"/><path class="cls-6" d="M49,61.69a.09.09,0,0,0-.14.09c0,.1,0,.1.11,0S49,61.71,49,61.69Z"/><path class="cls-6" d="M50.14,63.36a.09.09,0,0,0,0,.11c.06.07.19.05.2,0S50.18,63.29,50.14,63.36Z"/><path class="cls-6" d="M54.94,66.4c-.17-.13-.2-.13-.31-.06s-.22.09-.13-.11.1-.19.14-.19-.08-.14-.21-.15-.24,0-.25-.08a.34.34,0,0,0-.16-.1c-.24-.07-.27-.07-.32,0s-.08.1-.18,0-.13-.08-.2,0-.12.1-.18.07-.11,0-.12,0-.07.07-.09,0,0-.23-.47-.2c-.2,0-.19.11,0,.16a.41.41,0,0,1,.3.46c0,.11.34.26.8.34a3.94,3.94,0,0,0,1.38,0C55.13,66.54,55.13,66.54,54.94,66.4Z"/><path class="cls-6" d="M55,66.14c0-.09,0-.1-.1-.1s-.15,0-.14.08S54.92,66.26,55,66.14Z"/><path class="cls-6" d="M52.1,65.72a.22.22,0,0,1-.13-.16.43.43,0,0,0-.12-.2c-.13-.07-.19-.1-.2-.07l-.06.12c.09.13.1.26,0,.33s-.1.16.13.22a.5.5,0,0,1,.3.18c.08.14.26.21.29.1A.7.7,0,0,0,52.1,65.72Z"/><path class="cls-6" d="M51.17,65.23c-.05,0-.09,0-.13,0s-.24-.18-.27-.05,0,.13.09.18a.66.66,0,0,1,.19.34c.08.29.1.29.27,0s.1-.23.06-.31S51.26,65.17,51.17,65.23Z"/><path class="cls-6" d="M50.51,64.29c.1-.06.1-.07,0-.13a.24.24,0,0,0-.23,0,.15.15,0,0,1-.18,0c-.09-.08-.18,0-.11.07A.59.59,0,0,0,50.51,64.29Z"/><path class="cls-6" d="M49.94,65.48c0,.1.29.25.33.17s.08,0,.16,0,.33.07.27-.1S50,65.26,49.94,65.48Z"/><path class="cls-6" d="M49.62,62.76c.23-.15.24-.17.17-.31a.64.64,0,0,0-.27-.23c-.21-.12-.21-.12-.39.09s-.22.33,0,.35.15,0,.16.09S49.42,62.89,49.62,62.76Z"/><path class="cls-6" d="M48.46,62c.11,0,.1-.08,0-.11A.11.11,0,0,0,48.46,62Z"/><path class="cls-6" d="M44.05,59.09c-.12,0,0,.12,0,.09A.13.13,0,0,0,44.05,59.09Z"/><path class="cls-6" d="M44.07,56.56a.37.37,0,0,1,0-.23.12.12,0,0,0,0-.14.53.53,0,0,1-.13-.16c-.1-.15-.17-.09-.15.14s0,.21-.05.22.08.24.25.28S44.11,56.71,44.07,56.56Z"/><path class="cls-6" d="M43.44,58.55c.18.2.18.19.27,0l.09-.18-.16-.12C43.33,58,43.15,58.24,43.44,58.55Z"/><path class="cls-6" d="M43.33,57.4c-.12.08,0,.16.05.13S43.41,57.4,43.33,57.4Z"/><path class="cls-6" d="M44,59.47c0,.29,0,.31.12.26s.15,0,.18.06.16.12.2,0,0-.11-.33-.45C44.09,59.25,44.09,59.25,44,59.47Z"/><path class="cls-6" d="M48.1,62.66c-.11,0-.12.05,0,.18s.12.1.19,0S48.26,62.65,48.1,62.66Z"/><path class="cls-6" d="M48.16,64.29c0,.2.09.19.11.08S48.24,64.24,48.16,64.29Z"/><path class="cls-6" d="M46.41,60.51c0,.06.08.12.14.08S46.46,60.45,46.41,60.51Z"/><path class="cls-6" d="M44.16,57.41c-.06.11.11.38.29.45s.41.32.38.49.14.24.29.17a4.59,4.59,0,0,0-.59-1C44.36,57.28,44.26,57.26,44.16,57.41Z"/><path class="cls-6" d="M46.59,61.41c0,.07.16.15.22.11s0-.08,0-.13S46.6,61.31,46.59,61.41Z"/><path class="cls-3" d="M59.41,37.19c.5.24,7.08,2.73,6.6,12.66S58.84,62.38,55.66,61s-5.07-3-6.08-11.61S53.63,34.46,59.41,37.19Z"/><path class="cls-2" d="M47.39,41A7,7,0,0,1,50,36.43c1.19-.8,2.72-.9,4-1.46,2.66-1.12,4.24-3.9,6.67-5.47,1.07-.69,2.81-1,3.38.17a3.56,3.56,0,0,1,.08,1.92c-.06.65.08,1.44.68,1.69a6.91,6.91,0,0,0,1,.15c1.35.33,1.08,1.79.82,2.7a8,8,0,0,0-.13,4.61c.41,1.55,1,3,1.33,4.6a5.85,5.85,0,0,1-.78,4.58c-1.08,1.44-2.21-.58-2.45-1.64a15.73,15.73,0,0,1-.21-2.66,7.56,7.56,0,0,0-1-3.74A3.87,3.87,0,0,0,60.21,40a8.27,8.27,0,0,0-2,.47,9.45,9.45,0,0,1-3.51.27,4.55,4.55,0,0,0-2.32,0c-1,.44-1.41,1.67-1.58,2.77-.29,2-.37,3.9-.73,5.84-.1.6,0,1.33-.68,1.59s-1.34-.34-1.67-.88c-.92-1.53-.87-3.43-.78-5.21A24.12,24.12,0,0,1,47.39,41Z"/><path class="cls-3" d="M47.74,47A1.72,1.72,0,0,0,47,48.19a5.19,5.19,0,0,0,.51,3.09,3.7,3.7,0,0,0,1,1.43,1.62,1.62,0,0,0,1.67.22,2.34,2.34,0,0,0,.89-2.2C51,49.36,49.86,45.89,47.74,47Z"/><path class="cls-3" d="M67.26,47a1.7,1.7,0,0,1,.8,1.24,5.2,5.2,0,0,1-.52,3.09,3.51,3.51,0,0,1-1,1.43,1.61,1.61,0,0,1-1.67.22,2.36,2.36,0,0,1-.89-2.2C64,49.36,65.15,45.89,67.26,47Z"/><path class="cls-3" d="M18,60.85l.09-.09c3.32-3.55,23-15.5,23.9-16.3a9.85,9.85,0,0,0,1.72-2.61A11.82,11.82,0,0,1,47,37.92a6.56,6.56,0,0,1,4.84-1.3,1.57,1.57,0,0,1,1.14.6,1.37,1.37,0,0,1-.42,1.64,16.1,16.1,0,0,1-1.53,1c-2,1.4-2.07,4.3-3.63,6.12-1.33,1.56-3.28,2.64-4.84,3.93s-18.66,20.3-20.8,22.36c-2.32,2.23-6.19,4-8.23.34C11.22,68.48,15.33,63.7,18,60.85Z"/><path class="cls-3" d="M95.66,59.07,95.58,59c-3.32-3.55-23-15.5-23.9-16.3A9.61,9.61,0,0,1,70,40.07a11.82,11.82,0,0,0-3.26-3.93,6.57,6.57,0,0,0-4.84-1.3,1.56,1.56,0,0,0-1.14.6,1.38,1.38,0,0,0,.41,1.64,16.26,16.26,0,0,0,1.54,1c2,1.4,2.07,4.3,3.63,6.12,1.33,1.56,3.28,2.64,4.84,3.93s18.65,20.3,20.8,22.36c2.32,2.23,6.19,4.05,8.23.34C102.44,66.7,98.32,61.92,95.66,59.07Z"/><path class="cls-7" d="M33.18,36.78c-7.54-5.13-15.29-9.91-22.8-15.09-.56-.39-1.18.47-.71.93,6.42,6.3,14.93,11.18,22.6,15.77C33.3,39,34.16,37.44,33.18,36.78Z"/><path class="cls-7" d="M36.15,27.85c-1.65-2.42-4-4.45-5.94-6.6a77.43,77.43,0,0,0-6.69-7c-.42-.35-1.12.09-.8.61a57.1,57.1,0,0,0,5.55,6.87c2.08,2.37,4.11,5.14,6.58,7.1C35.52,29.38,36.73,28.69,36.15,27.85Z"/><path class="cls-8" d="M56.65,9.68,50.38,10c.34-.89,2-8.75,2-8.75-1.2-.05-4.45-.62-5.43.15s-1.09,15.32-1.46,15.38l5.77-1a58.31,58.31,0,0,0-1.62,10.51C52.45,21.35,56.56,10,56.65,9.68Z"/><path class="cls-9" d="M92.79,36.49l-2.19-3.6c.63-.08,5.81-1.59,5.8-1.62-.35-.72-1.05-2.83-1.82-3.17s-9.4,4.24-9.55,4l2.4,3.1a38.53,38.53,0,0,0-6.73,2.4A96.62,96.62,0,0,0,92.79,36.49Z"/><path class="cls-10" d="M13.75,37.64,12.5,42.4c-.57-.47-6-3.58-6.06-3.55-.32.89-1.51,3.18-1.17,4.09s11.17,4.44,11.13,4.73c.22-1.51.43-3,.65-4.53a44.6,44.6,0,0,0,7.46,3.69C21.47,43.54,14,37.78,13.75,37.64Z"/><path class="cls-7" d="M82.1,7.47c-2.79,2.25-5.09,5.38-7.34,8.16-1.84,2.28-4.23,4.73-5.12,7.56-.12.4.38.83.74.57,2.62-1.9,4.42-5.09,6.48-7.57s4.66-4.94,6.61-7.67C84.08,7.66,82.81,6.9,82.1,7.47Z"/><path class="cls-7" d="M85.5,18.15c-1.9.39-3.62,1.76-5.27,2.73s-3.6,1.83-5,3.21a.57.57,0,0,0,.55.95c1.91-.37,3.7-1.57,5.38-2.5s3.72-1.78,5-3.29A.66.66,0,0,0,85.5,18.15Z"/><path class="cls-11" d="M56,47.12a6.09,6.09,0,0,0-2.12-.65A4.92,4.92,0,0,0,52,46.19a.19.19,0,0,0-.09.32,4.89,4.89,0,0,0,1.82.68,6.2,6.2,0,0,0,2.18.45A.28.28,0,0,0,56,47.12Z"/><path class="cls-11" d="M63.16,45.05a21.81,21.81,0,0,0-4.23,2.14c-.24.2,0,.56.29.5a10.81,10.81,0,0,0,2.07-.9c.75-.37,1.5-.72,2.24-1.11C64,45.46,63.58,44.86,63.16,45.05Z"/><path class="cls-11" d="M55.3,50a7.49,7.49,0,0,0-1.42-.51,4,4,0,0,0-1.44-.34c-.24,0-.43.33-.22.51a4,4,0,0,0,1.35.6,7.6,7.6,0,0,0,1.54.47C55.51,50.79,55.61,50.19,55.3,50Z"/><path class="cls-11" d="M63,48.82a6.52,6.52,0,0,0-1.93.53,3.65,3.65,0,0,0-1.6.72c-.07.07,0,.22.06.23a3.78,3.78,0,0,0,1.7-.37,7.51,7.51,0,0,0,1.88-.67A.24.24,0,0,0,63,48.82Z"/><path class="cls-11" d="M57.94,54.12c-1,.17-1-.36-1-1.1L57,51.79a6.83,6.83,0,0,0-.12-2.47c0-.06-.13-.1-.17,0a6.74,6.74,0,0,0-.34,2.49,8.82,8.82,0,0,0,0,2.76.3.3,0,0,0,.21.21,2.35,2.35,0,0,0,1.49-.28C58.29,54.37,58.14,54.09,57.94,54.12Z"/><path class="cls-11" d="M60.39,56.34a9,9,0,0,0-3.23-.29c-.71.05-1.75,0-2.23.62a.32.32,0,0,0,0,.44l.07.09a.14.14,0,0,0,.16,0c1.59-.67,3.48-.34,5.13-.15C60.72,57.12,60.78,56.45,60.39,56.34Z"/><path class="cls-11" d="M50.71,51.06a2.64,2.64,0,0,0-.9-1,4.89,4.89,0,0,0-1.32-.78c-.13,0-.19.12-.12.21a11.9,11.9,0,0,0,.87.87.9.9,0,0,0-.62.73.22.22,0,0,0,.28.22,1.23,1.23,0,0,0,.68-.63,2.64,2.64,0,0,0,.84.65A.24.24,0,0,0,50.71,51.06Z"/><path class="cls-11" d="M66.55,49.52a.15.15,0,0,0-.1-.17c-.42-.1-.8.34-1.07.62a3.36,3.36,0,0,0-.84,1.26.16.16,0,0,0,.27.15c.14-.15.26-.31.39-.47a.19.19,0,0,0,.1.05c.33,0,.58.27.91.18a.16.16,0,0,0,.12-.16c0-.36-.34-.5-.67-.57l.07-.09C66,50.07,66.46,49.9,66.55,49.52Z"/><path class="cls-12" d="M71.77,103.2a.81.81,0,0,1-.76,0,.23.23,0,0,0-.37.11,5.46,5.46,0,0,0,1.45.21c.33,0,.41,0,.31-.23S72,103.11,71.77,103.2Z"/><path class="cls-12" d="M70.17,101.75c0,.09-.09.12-.18.1s-.21,0-.17.12.12,0,.64,0c.2,0,.2,0,0-.19S70.24,101.6,70.17,101.75Z"/><path class="cls-12" d="M70.73,102a.2.2,0,0,0,.1,0C70.9,102,70.75,102,70.73,102Z"/><path class="cls-12" d="M72.78,102.57c0,.07.11.11.17.05S72.8,102.5,72.78,102.57Z"/><path class="cls-12" d="M71.67,102.35l.22,0c.45-.09.34-.37-.14-.34-.3,0-.3,0-.19.19Z"/><path class="cls-12" d="M66.64,102.36s0,.06.13.07.2-.05.13-.14S66.65,102.29,66.64,102.36Z"/><path class="cls-12" d="M74,103.74c-.13-.06-.22-.14-.21-.18s-.3-.09-.45,0-.13.1.06.15a.58.58,0,0,1,.24.14.19.19,0,0,0,.16.08,1,1,0,0,1,.25,0C74.23,104,74.21,103.87,74,103.74Z"/><path class="cls-12" d="M67.62,102.88c0,.16.19,0,.17,0S67.63,102.81,67.62,102.88Z"/><path class="cls-12" d="M85.68,109c-.19,0-.21.08-.16.29s.18.23.38.06S85.9,109,85.68,109Z"/><path class="cls-12" d="M85.45,109.58c0-.06-.06-.06-.13,0a.16.16,0,0,0,0,.18,1.73,1.73,0,0,0,.19.18c.13.09.14.09.13,0a.61.61,0,0,0-.06-.19A.38.38,0,0,1,85.45,109.58Z"/><path class="cls-12" d="M64.89,103a.09.09,0,0,0-.08-.07C64.73,103.06,64.76,103.09,64.89,103Z"/><path class="cls-12" d="M86.34,109.65c-.21,0-.31.32-.22.59a.67.67,0,0,1,0,.33c0,.08.18.36.29.34s.08-.07.07-.14a1.21,1.21,0,0,1,0-.27C86.56,110.22,86.44,109.65,86.34,109.65Z"/><path class="cls-12" d="M84,113a.17.17,0,0,0-.12.08c0,.09.07.18.17.13A.11.11,0,0,0,84,113Z"/><path class="cls-12" d="M75.66,103.22s0,.09.3.15c.45.11.54.11.47,0S75.72,103.13,75.66,103.22Z"/><path class="cls-12" d="M78.64,105.51c-.22-.1-.37-.11-.37,0s0,.1.31.16S78.87,105.63,78.64,105.51Z"/><path class="cls-12" d="M78.57,103.79a1.54,1.54,0,0,0-.77.14,1.94,1.94,0,0,0,.78.35c.07,0,.08,0,0-.14s0-.11.11-.13S78.83,103.84,78.57,103.79Z"/><path class="cls-12" d="M62.92,101.83c-.12-.06-.61-.12-.61-.07l0,.19c0,.2.14.23.31.1a.32.32,0,0,1,.22-.07C63,102,63.05,101.9,62.92,101.83Z"/><path class="cls-12" d="M63.55,102.17c-.06-.23-.15-.21-.1-.08A.11.11,0,0,0,63.55,102.17Z"/><path class="cls-12" d="M63.69,100.87c-.12-.16-.18-.12-.14,0S63.64,101,63.69,100.87Z"/><path class="cls-12" d="M60.71,101a.61.61,0,0,1-.3-.27c-.18-.25-.2-.25-.27.11,0,.19,0,.25,0,.31s.17.09.25,0,.08,0,.15,0,.3.11.29,0A.17.17,0,0,0,60.71,101Z"/><path class="cls-12" d="M58.46,100.54c0-.24-1.6-.32-2.4-.09-.19.06-.19.06,0,.19s.24.12.36,0,.23-.1.15.11-.1.2-.14.2.1.13.24.13a.49.49,0,0,1,.3,0,.31.31,0,0,0,.19.09c.28,0,.32,0,.37-.07s.07-.1.19,0,.16.07.22,0a.19.19,0,0,1,.19-.11c.06,0,.12,0,.12-.06s.06-.08.1,0,.07.23.56.11c.21,0,.17-.15-.06-.15A.44.44,0,0,1,58.46,100.54Z"/><path class="cls-12" d="M64.38,102.14c0,.13.17.19.32.09s.07-.1-.12-.16S64.41,102.06,64.38,102.14Z"/><path class="cls-12" d="M56.05,100.9c-.06.09,0,.1.12.1s.17,0,.16-.09A.15.15,0,0,0,56.05,100.9Z"/><path class="cls-12" d="M61.53,100.56c0-.09-.36-.12-.36,0s-.07,0-.17,0-.34,0-.22.18S61.61,100.78,61.53,100.56Z"/><path class="cls-12" d="M59.82,100.82c.11-.13.06-.17-.2-.18a.6.6,0,0,1-.35-.11c-.11-.13-.31-.14-.31,0a.66.66,0,0,0,.34.45.29.29,0,0,1,.19.13.36.36,0,0,0,.18.17c.15,0,.22,0,.22,0l0-.13C59.79,101,59.74,100.91,59.82,100.82Z"/><path class="cls-12" d="M63.72,102.78c-.1,0-.17,0-.22,0s-.21-.06-.34.15-.15.26,0,.36a1,1,0,0,0,.43.07c.31,0,.31,0,.35-.27S64,102.68,63.72,102.78Z"/><path class="cls-12" d="M62,101.74a.68.68,0,0,0-.59.14c-.08.09-.07.1.09.11a.31.31,0,0,0,.24-.09.16.16,0,0,1,.18-.06C62.08,101.89,62.15,101.8,62,101.74Z"/><path class="cls-12" d="M64.59,103s0-.07-.11-.07-.11,0-.1,0a.14.14,0,0,0,.11.08C64.54,103.06,64.59,103,64.59,103Z"/><path class="cls-12" d="M64.49,103.42s0,.1.05.1a.08.08,0,0,0,.07-.15C64.51,103.31,64.5,103.31,64.49,103.42Z"/><path class="cls-12" d="M83.46,113.73c.15.14.18.14.3,0s-.32-.43-.45-.32-.43-.06-.25-.25a.89.89,0,0,0,.19-.31c.12-.34.52-.58.49-.28a.15.15,0,0,0,.06.15c0-.29,0-.36.23-.36a.35.35,0,0,0,.22-.1c0-.07.13-.09.29-.06s.34.19.22.36a.17.17,0,0,0,.16.26c.12,0,.18-.48.07-.6a.69.69,0,0,1-.13-.31c0-.21,0-.21.14-.15s.29,0,.22-.18,0-.18.2-.35a.78.78,0,0,0,.25-.24,3.53,3.53,0,0,0-.74-1.13c-.3-.31-.43-.62-.29-.77s.1,0,.25.14.18.23.25.1.16-.46,0-.57a1.58,1.58,0,0,1-.17-.93c0-.23-.11-.3-.32-.16s-.19.11-.3,0a4.92,4.92,0,0,1-.87-1,.59.59,0,0,0-.18-.2,7.32,7.32,0,0,0-1.14-.73.81.81,0,0,1-.51-.66,1,1,0,0,0-.24-.35c-.2-.2-.22-.2-.46-.14s-.66,0-.73-.13-.12-.06-.23-.06-.22,0,.06.25.35.29.22.45,0,.47.92.84a1.5,1.5,0,0,1,.52.32,1.38,1.38,0,0,0,.71.45c.11,0,.16.05.24.24a.77.77,0,0,0,.62.46c.1,0,.16.08.23.26a.69.69,0,0,0,.51.48c.13,0,.14,0,.11.23s.09.4.2.28.18,0,.17.12a.24.24,0,0,1-.28.25c-.18,0-.39-.23-.65-.61-.16-.22-.27-.31-.34-.31s-.42-.29-.41-.39-.59-.45-.67-.32,0,.13-.08.23c-.15.62-.22.61-1.09,0-.36-.27-.7-.47-.73-.49,0-.18.43-.13.66,0s.24.12.26.09l.55.07c.37,0,.37,0,.25-.12a.67.67,0,0,0-.59-.26c-.25,0-.27,0-.38-.2a1.88,1.88,0,0,0-.68-.69c-.35-.22-.41-.22-.32,0s0,.63-.13.69a4.44,4.44,0,0,1-2.3-.84.5.5,0,0,0-.4-.14c-.12,0-.23,0-.44-.15-.37-.22-.38-.24-.22-.49a.61.61,0,0,0,.12-.28.46.46,0,0,1-.16-.11c-.1-.11-.34-.16-.38-.07s.07.09.17.13.2.09,0,.44-.21.35-.67.12-.86-.21-.79,0,0,.2-.22.22-.13.08-.17.17-.07.16-.78,0-.94-.26-1.12-.23-.2,0-.34-.15-.25-.15-.3-.12a.66.66,0,0,1-.35-.08c-.27-.1-.28-.12-.27-.3s0-.28.27-.28.36,0,.38-.1,0-.12-.3-.18-.35-.1-.45-.28-.26-.23-.31-.06-.05.09-.12,0a.37.37,0,0,0-.26,0c0,.11.14.18.19.26a.25.25,0,0,0,.21.11c.27,0,.39.3.19.54,0,.07-.09.06-.22-.08s-.17-.15-.47-.11a2,2,0,0,1-.74-.07c-.4-.1-.43-.1-.53,0s-.24.14-.36,0-.12-.14-.24-.11a.42.42,0,0,1-.42-.18c-.11-.13,0-.26.25-.27a.56.56,0,0,0,.36-.18c.09-.09.2-.16.23-.15s.08,0,.09-.12-1.5-.42-1.62-.25-.09.07-.18,0-.14-.1-.23,0a.24.24,0,0,1-.22,0,.79.79,0,0,0-.58-.08.11.11,0,0,1-.17,0c-.06-.07-.16-.08-.41-.06a2.24,2.24,0,0,1-.52,0c-.15,0-.2,0-.21.07a.3.3,0,0,1-.12.16.51.51,0,0,0-.11.11c0,.07.47.34.51.3s.07,0,.11,0a.13.13,0,0,1-.16.2c-.07,0-.12,0-.17.08s-.1.12-.26.06a3.24,3.24,0,0,0-.5-.13l-.67-.13a.83.83,0,0,0-.53,0,.73.73,0,0,1-.81-.2c-.06-.15-.06-.15-.18,0a.37.37,0,0,1-.22.13.4.4,0,0,0-.23,0c-.16.08-.49-.14-.36-.26s.08-.09,0-.12-.14,0-.15.12a.08.08,0,0,1-.11.07.11.11,0,0,1-.09-.12.26.26,0,0,0,0-.17.28.28,0,0,1,0-.18c0-.07,0-.12-.11-.17-.28-.17-.08-.35.35-.32s.62-.16.41-.29a.27.27,0,0,0-.26,0,.75.75,0,0,1-.65-.07c-.08-.09-.07-.1.06-.22a.4.4,0,0,0,.14-.28c0-.15,0-.16-.53-.2s-.72,0-.62.17a.44.44,0,0,1,0,.19s0,.09.08.11.23.2.14.25-.44-.09-.44-.21a.23.23,0,0,0-.05-.17.17.17,0,0,1,0-.19c0-.11,0-.15-.08-.18s-.32,0-.32.12-.15.16-.29.16-.06-.06,0-.14-.09-.22-.31-.21h-.79a8.65,8.65,0,0,0-1,.08c-.33.07-.41.07-.54,0s-.27-.12-.33,0-.09.13-.18.1-.54.11-.54.19.09,0,.19,0c.26,0,.42.07.44.2s0,.11-.12.1a.27.27,0,0,0-.19,0,.16.16,0,0,1-.16,0,.15.15,0,0,0-.2,0c-.17.11-.48-.11-.49-.36s-.19-.34-.36-.16a.29.29,0,0,0-.1.19c0,.09,0,.07-.1,0s-.32-.1-.34.06-.11,0-.1,0a.17.17,0,0,0-.08-.16c-.15-.11-.13-.21.07-.3a.35.35,0,0,0,.21-.22q.08-.27.51,0c.17.1.16.1.3-.16s.15-.25.29-.15.45,0,.44-.16-.13-.33-.79-.29-.88,0-.63-.18.16-.13,0-.2-.46.07-.43.25-.13.25-.58.26-.59,0-.57-.16,0-.13-.15-.09-.16.07-.14.15-.37-.21-.51-.16a.63.63,0,0,0-.23.25c-.13.22-.48.33-1.2.34-.08-.21-2,.21-2.12.37s-.14,0-.25,0-.23,0-.3.1a.51.51,0,0,1-.25.18.28.28,0,0,0-.19.16c0,.12-.28.17-.44.09a3.14,3.14,0,0,0-1.4.2c-.18.07-.23.13-.26.26s0,.15-.11.11a.26.26,0,0,0-.17,0c-.09-.27-1.07-.09-1.14.14,0,.06-.05.07-.1,0a2.18,2.18,0,0,0-.62.17c-.56.21-.56.21-.57.44s-.11.35-.19.12-.07-.17-.2-.14c-1.37.43-1.38.44-1.43.32a.09.09,0,0,0-.11,0c.08.21,0,.38-.13.38a1.51,1.51,0,0,0-.41.13,4.87,4.87,0,0,1-.57.2.52.52,0,0,0-.36.18c-.06.1-.09.1-.18,0s-.25-.06-.24.08-.72.51-.84.38-.11-.07-.27.07-.27.21-.38.28-.18.15-.15.26-.7.66-1,.6a.3.3,0,0,0-.19.08.29.29,0,0,1-.2.07.6.6,0,0,0-.27.1c-.68.41-.8.51-.83.62s-.26.26-1.48,1.63a9.11,9.11,0,0,0-1,1.27s-.07.09-.16.12-.22.11-.45.47a3.8,3.8,0,0,1-.46.59,1.44,1.44,0,0,0-.41.62,7.91,7.91,0,0,1-.42.82,3,3,0,0,0-.45,1.28,1.42,1.42,0,0,1,0,.31,3.64,3.64,0,0,0-.08,1,1.67,1.67,0,0,1,0,.77c0,.06,0,.08.19.22a1.19,1.19,0,0,1,.35.3.44.44,0,0,0,.27.19c.14,0,.17.07.22.23a.9.9,0,0,0,.21.27c-.25-.55-.5-1.07-.77-1.54,0,0,12.47-10.23,29.46-11.2a46.55,46.55,0,0,1,12.17,2.87.2.2,0,0,1,.11-.07c.08,0,.09,0,.06.13a50.37,50.37,0,0,1,10.9,5.81c.1-.19.17-.24.23-.14s0,.12-.06.22c.21.19.43.35.64.51C83.32,113.61,83.36,113.64,83.46,113.73Zm-1.32-7.52a.41.41,0,0,1-.28-.1c-.34-.21-.22-.42.14-.23C82.19,106,82.26,106.15,82.14,106.21Zm2.19,2.13c-.07-.15,0-.2.15-.26s.15,0,.16.13a.45.45,0,0,1-.07.26C84.48,108.57,84.42,108.54,84.33,108.34Zm-.25,1.4c.12,0,.17.14.09.23s-.19.07-.18-.08S84,109.75,84.08,109.74Zm-46.86-4.48c-.06,0-.1,0-.12,0s.06-.16.15-.07S37.27,105.23,37.22,105.26Zm4.4-1.23c.12,0,.14.06.13.11S41.61,104.07,41.62,104Zm1.6-.33c-.26.09-.31.09-.36,0s0-.12.13-.09.11,0,.11-.09.18-.13.27,0S43.39,103.65,43.22,103.7Zm.65-.35c-.19.26-.3.16-.29-.29s.12-.48.18-.23a.25.25,0,0,0,.09.18C44,103.05,44,103.2,43.87,103.35Zm1.47-1.2s.07,0,.08.09-.07.23-.15.17S45.26,102.18,45.34,102.15Zm.31.73c-.08,0-.11,0-.13.08s-.05.12-.09.13-.19-.13-.15-.26.38-.2.46-.08S45.78,102.91,45.65,102.88ZM53,101.54a.38.38,0,0,1-.47.15,1.2,1.2,0,0,0-.38,0c-.28,0-.29,0-.23-.1a.29.29,0,0,1,.2-.13c.2,0,.29-.13.27-.31s.27-.34.56-.22.23.08.26,0,.16-.15.21-.06-.06.27-.16.24-.29.17-.24.28A.33.33,0,0,1,53,101.54Zm.24-.2a.09.09,0,0,1,.06-.11.09.09,0,0,1,.08.09.09.09,0,0,1-.06.11A.09.09,0,0,1,53.25,101.34Zm4.57.82-.39,0c-.25,0-.32,0-.31,0s.13-.09.27-.1.26-.05.3-.19.07-.16.12-.09S57.9,102.15,57.82,102.16Zm1.33,0a.61.61,0,0,1-.23.07c-.18,0-.2,0-.18-.09s.07-.13.19-.14S59.22,102.07,59.15,102.15Zm1.19.15c0-.12.11-.08.1,0A.24.24,0,0,1,60.34,102.3Zm1,2.15c-.11-.13.11-.27.32-.2a1.58,1.58,0,0,0,.36.09c.14,0,.19.06.19.14S61.45,104.58,61.33,104.45Zm1.67.21c0,.07-.16.06-.37,0s-.15-.17.09-.17S63.06,104.55,63,104.66Zm.2,0c-.07-.08.13-.19.3-.17s.31.16.27.22S63.28,104.78,63.2,104.69Zm5.63.65c0-.14.07-.15.24,0C68.86,105.51,68.8,105.48,68.83,105.34Zm1.16-.06c0,.11-.12.18-.19.18s-.11-.11,0-.16a.92.92,0,0,0,.14-.19C70.05,104.89,70.11,105.05,70,105.28Zm2.17.62a.17.17,0,0,0-.16,0,.15.15,0,0,1-.15,0,.15.15,0,0,0-.15,0s-.13,0-.24,0c-.56,0-1-.12-1-.27a.29.29,0,0,0-.18-.18c-.21,0-.09-.18.15-.18a2.64,2.64,0,0,1,.46.06,1,1,0,0,0,.42,0c.15-.06.2-.05.39.09s.49.31.51.25.14,0,.12.06A.09.09,0,0,1,72.16,105.9Zm.36,1.66c-.16.08-.3-.06-.19-.2s.25,0,.26.09A.14.14,0,0,1,72.52,107.56ZM74,106.44c0-.07.17-.22.23-.2a1.21,1.21,0,0,1,.16.13l.19.17C74.39,106.67,74,106.52,74,106.44Zm9.6,3.57c-.07.08-.23-.14-.19-.26s.06-.13.14-.06A.25.25,0,0,1,83.55,110Zm-1.19-1.86c.06,0,.12,0,.23.09l.5.51c.33.36.43.63.3.68s-.42-.3-.49-.43a1.32,1.32,0,0,0-.34-.32C82.25,108.44,82.19,108.28,82.36,108.15Zm-2.77,1a3.42,3.42,0,0,1-.64-.32c-.41-.25-.57-.31-.64-.27s-.27-.08-.36-.3-.71-.56-.87-.48a.47.47,0,0,1-.27,0c-.52-.09-.55-.11-.52-.25s-.05-.33-.26-.32-.5-.32-.17-.36a.22.22,0,0,0,.17-.09c0-.11.16-.12.35-.05s.22.06.24-.19,0-.2-.35-.3a1.58,1.58,0,0,0-.46-.08.37.37,0,0,1-.41-.21.24.24,0,0,1,.33-.27,4.46,4.46,0,0,0,.62.27,3,3,0,0,0,1,.16c.21,0,.22,0,.26.16a.25.25,0,0,0,.22.21c.21,0,.3.24.18.37s-.13,0-.27,0a.32.32,0,0,0-.36,0c-.18.11-.31.09-.34,0s-.14-.09-.18,0a1.76,1.76,0,0,1,.42.69,1.13,1.13,0,0,0,.84.45,2,2,0,0,1,1.08.63.77.77,0,0,0,.29.27C79.64,108.85,79.72,109.1,79.59,109.13Zm.37-.79s-.14,0-.26,0a1.07,1.07,0,0,1-.63-.47.6.6,0,0,0-.28-.26c-.28-.06-.06-.35.28-.37s.92.36.77.6c0,.07,0,.11,0,.13S80,108.24,80,108.34Zm.47,1.31c-.18.08-.46-.17-.36-.32s.13,0,.29.08S80.54,109.6,80.43,109.65Zm0-1.24-.22-.06c-.16,0-.16-.15,0-.25s.24,0,.31.19S80.6,108.46,80.47,108.41Zm.2,1.36c0-.12.08-.11.1,0S80.66,109.81,80.67,109.77Zm.43-1.1c.14,0,.24.13.17.23s-.1,0-.17,0S81,108.68,81.1,108.67Zm1.76,2.18a.55.55,0,0,0-.42-.31,1.07,1.07,0,0,1-.4-.21c-.13-.13-.14-.12-.32.08s-.36.24-.48,0-.07-.28.1-.22a.17.17,0,0,0,.19,0,.57.57,0,0,1,.23-.15c.21-.1.21-.16-.08-.43-.44-.43-.43-.57,0-.3.24.14.32.21.34.33s.06.16.17.16a.35.35,0,0,1,.23.15c.06.07.46.62.48.65l.15.23c.12.17.1.29,0,.31S83,111,82.86,110.85Z"/><path class="cls-12" d="M62,102.62c0,.09.25.07.26,0s0-.07-.06-.09S62,102.53,62,102.62Z"/><path class="cls-12" d="M62.69,102.67c-.08,0-.22.44-.18.59s.15,0,.22-.32S62.77,102.68,62.69,102.67Z"/></svg>