<svg xmlns="http://www.w3.org/2000/svg" xmlns:xlink="http://www.w3.org/1999/xlink" viewBox="0 0 116.24 159.19"><defs><style>.cls-1{fill:url(#Áåçûìÿííûé_ãðàäèåíò_1869);}.cls-2{fill:url(#Áåçûìÿííûé_ãðàäèåíò_1869-2);}.cls-3{fill:#ffd19a;}.cls-4{fill:#a699d9;}.cls-5{fill:#8d86c5;}.cls-6{fill:#8580b0;}.cls-7{fill:#2b245c;}.cls-8{fill:#fff;}.cls-9{fill:url(#Áåçûìÿííûé_ãðàäèåíò_1868);}.cls-10{fill:url(#Áåçûìÿííûé_ãðàäèåíò_1868-2);}.cls-11{fill:#d83d5b;}.cls-12{fill:#1a486c;}</style><linearGradient id="Áåçûìÿííûé_ãðàäèåíò_1869" x1="34.41" y1="117.25" x2="120.81" y2="-9.95" gradientUnits="userSpaceOnUse"><stop offset="0" stop-color="#e4ddff"/><stop offset="1" stop-color="#faf9ff"/></linearGradient><linearGradient id="Áåçûìÿííûé_ãðàäèåíò_1869-2" x1="0" y1="146.93" x2="116.24" y2="146.93" xlink:href="#Áåçûìÿííûé_ãðàäèåíò_1869"/><linearGradient id="Áåçûìÿííûé_ãðàäèåíò_1868" x1="81.1" y1="82.52" x2="52.6" y2="33.62" gradientUnits="userSpaceOnUse"><stop offset="0" stop-color="#ef6e98"/><stop offset="1" stop-color="#db385b"/></linearGradient><linearGradient id="Áåçûìÿííûé_ãðàäèåíò_1868-2" x1="63.09" y1="39.13" x2="92.42" y2="39.13" xlink:href="#Áåçûìÿííûé_ãðàäèåíò_1868"/></defs><title>Asset 26</title><g id="Layer_2" data-name="Layer 2"><g id="Ñëîé_1" data-name="Ñëîé 1"><path class="cls-1" d="M11.09,66.16a11.69,11.69,0,0,0-.07,2,7.13,7.13,0,0,0,1.44,4.3,8.47,8.47,0,0,0,3.29,2.18C29,80.26,42.3,77.12,41.89,95.87c-.06,2.87-.49,6,1.14,8.39,4.08,6,12.64,7.66,19.14,7.68,9.58,0,19.17.85,28.78.77,4.14,0,8.48-.23,12-2.36,3.35-2,5.55-5.53,6.82-9.22,1.52-4.4,1.8-9.53-.64-13.49-5-8.13-19-8.3-21.82-17.43-1.14-3.73.19-7.81,2.25-11.13s4.83-6.13,7-9.37a32.13,32.13,0,0,0-.07-34.95C86.14-.65,47.09-8.52,40.14,14.14c-2.31,7.53.18,16.1-3,23.3-2.81,6.37-9.32,10.1-15,14.09C17,55.14,11.82,60.1,11.09,66.16Z"/><path class="cls-2" d="M76,137.07a245.4,245.4,0,0,1,34.81,3.31c2.32.39,5.15,1.34,5.43,3.67a3.78,3.78,0,0,1-1.91,3.44,10.31,10.31,0,0,1-3.93,1.22c-10.77,1.75-21.53,1.19-32.37.9-3.46,0-6.43-.34-9.63,1.07A79.61,79.61,0,0,1,58,154.37c-4.83,1.39-9.77,2.79-14.78,2.45-5.48-.36-10.61-2.76-16-3.65-9.1-1.49-19.22,1.22-27.15-3.48.71-2.8,3.75-4.25,6.5-5.13,10.34-3.32,21.77-4.82,32.55-5.95A283.33,283.33,0,0,1,76,137.07Z"/><path class="cls-3" d="M73.67,127.38s-4.62,7.19-2.84,8.61,5.57,6.65,9,7c4,.35-6-5.28-3.67-12.26S73.67,127.38,73.67,127.38Z"/><path class="cls-4" d="M51.08,76.6s25.71,17.73,25.43,22-6.53,32.2-5.63,34c0,0,2.78,2.37,5.71,1,0,0,14.51-36.73,13.71-40.3S70.42,67,70.42,67Z"/><path class="cls-3" d="M71.18,129.38s-5.71,6.36-4.17,8,4.43,7.46,7.81,8.32c3.92,1-5-6.16-1.67-12.69S71.18,129.38,71.18,129.38Z"/><path class="cls-5" d="M53,85.1S74.2,96.68,73.5,101.34s-6.28,29.26-6.12,32.22c0,0,5.29,4.9,6.19,2C80.5,113,85,102.77,83.9,97.69S62,73.31,62,73.31,53.16,82.56,53,85.1Z"/><path class="cls-6" d="M69.59,134.32l-.22.05c-.56.15-.59.1-.44-.85l.11-.78c.17,0,.27.31.25.54s0,.23,0,.23.11.3.18.45.14.28.2.14a.49.49,0,0,0,0-.53c-.1-.2-.1-.22,0-.37a1.77,1.77,0,0,0,.34-.76c.07-.35,0-.4-.11-.26a.68.68,0,0,1-.63.1,3.33,3.33,0,0,1,.16-2.26.5.5,0,0,0,0-.4c0-.11,0-.22.07-.45s.17-.39.42-.27.23.08.27.06a.28.28,0,0,1,.08-.15c.09-.12.1-.34,0-.37s-.07.07-.1.18-.06.2-.39.09-.35-.15-.18-.63.15-.86-.07-.77-.18,0-.21-.2-.08-.12-.16-.15-.16-.06,0-.81a4.29,4.29,0,0,0,.25-1.16.67.67,0,0,1,.16-.36c.11-.15.16-.27.14-.31a.77.77,0,0,1,.09-.37c.13-.28.15-.3.32-.28s.25.06.22.28,0,.38.06.4.1,0,.19-.31.14-.35.31-.44.25-.26.09-.31-.07-.06,0-.13a.38.38,0,0,0,0-.27,1.8,1.8,0,0,0-.25.18.34.34,0,0,0-.14.22.29.29,0,0,1-.51.18c-.06-.07,0-.1.09-.23s.16-.17.17-.49a2.29,2.29,0,0,1,.18-.77c.15-.41.16-.44.06-.55s-.08-.27.11-.38a.22.22,0,0,0,.15-.24.53.53,0,0,1,.25-.43c.14-.1.23.05.19.3a.65.65,0,0,0,.1.39.59.59,0,0,1,.1.25s0,.08.09.11a3.44,3.44,0,0,0,.55-1.65c-.06-.08,0-.1.05-.19s.12-.13.1-.22a.31.31,0,0,1,.06-.24,1,1,0,0,0,.2-.59.15.15,0,0,1,.07-.18c.08,0,.12-.15.15-.42a4.09,4.09,0,0,1,.13-.55c.06-.15.06-.21,0-.23a.24.24,0,0,1-.12-.15.61.61,0,0,0-.07-.13,1.25,1.25,0,0,0-.39.49s0,.08-.06.12-.25-.07-.15-.21,0-.12,0-.19-.08-.12,0-.28a3.24,3.24,0,0,0,.24-.52l.28-.68a1.05,1.05,0,0,0,.12-.57c0-.31.17-.77.38-.83s.15,0,0-.19a.34.34,0,0,1,0-.25.7.7,0,0,0,0-.25c0-.2.24-.5.31-.34s.07.09.11.06,0-.16-.07-.19-.07-.06,0-.13.09-.09.13-.07a.2.2,0,0,0,.15,0,.2.2,0,0,1,.17,0s.11,0,.18-.07c.21-.27.33,0,.19.42s0,.68.17.48a.38.38,0,0,0,.08-.27,1,1,0,0,1,.22-.68c.09-.06.1-.06.18.1a.33.33,0,0,0,.22.2c.13,0,.14,0,.31-.53s.18-.76,0-.69a.2.2,0,0,1-.17,0s-.09,0-.12.07-.24.2-.26.09.19-.45.29-.42a.24.24,0,0,0,.17,0,.17.17,0,0,1,.18,0c.08.05.12,0,.17,0s.08-.35,0-.37-.11-.19-.07-.34.06,0,.13,0,.22-.06.27-.29l.18-.87a7.32,7.32,0,0,0,.14-1.17c0-.38,0-.47.12-.6s.15-.29,0-.39a.15.15,0,0,1-.07-.22c0-.16,0-.63-.09-.63s-.06.09-.08.2q0,.47-.24.48c-.08,0-.09,0-.07-.15a.32.32,0,0,0,0-.22.19.19,0,0,1,0-.17.23.23,0,0,0,0-.24c-.09-.2.16-.52.38-.52s.33-.19.18-.4-.14-.15-.17-.13-.06,0,0-.12.11-.37,0-.4,0-.13,0-.11a.16.16,0,0,0,.15-.09c.11-.17.2-.14.27.1a.34.34,0,0,0,.19.27c.15.07.14.27,0,.6s-.11.19.11.38.21.19.1.35-.07.52.08.54.32-.12.37-.91.06-1.06.22-.75.1.21.17.07,0-.57-.19-.55-.22-.17-.22-.72,0-.74.14-.71.12,0,.08-.18-.07-.2-.15-.18a1.05,1.05,0,0,0,.11-.64.72.72,0,0,0-.25-.29c-.22-.17-.36-.59-.51-1.48.09,0-.09-.66-.31-1.26a5.52,5.52,0,0,0-.63-1.21.71.71,0,0,1-.11-.28c0-.21-.08-.25-.22-.32a.71.71,0,0,1-.25-.24.4.4,0,0,0-.22-.18.52.52,0,0,1-.25-.46,4.21,4.21,0,0,0-.82-1.47C74.15,95,74.07,95,74,95s-.17,0-.16-.1a.34.34,0,0,0-.07-.18c.2-.17-.49-1.16-.74-1.14-.06,0-.1,0-.1-.08a3,3,0,0,0-.49-.58c-.5-.46-.5-.46-.71-.4s-.36,0-.2-.14.1-.13,0-.23C70.36,91,70.34,91,70.41,90.93a.08.08,0,0,0,0-.12.24.24,0,0,1-.4,0,3.5,3.5,0,0,0-.33-.32,4.76,4.76,0,0,1-.46-.43c-.15-.16-.25-.24-.34-.25s-.14,0-.12-.15-.08-.23-.19-.17-.77-.45-.72-.59,0-.13-.18-.21l-.41-.22c-.15-.1-.21-.11-.28,0s-.85-.38-.91-.65a.36.36,0,0,0-.14-.14.29.29,0,0,1-.13-.14s-.08-.14-.17-.21c-.57-.45-.69-.52-.78-.53s-.31-.09-1.77-.9c-.69-.38-1.28-.69-1.32-.69s-.1-.06-.13-.14-.14-.19-.51-.37a4.23,4.23,0,0,1-.64-.41,1.74,1.74,0,0,0-.67-.37,9.34,9.34,0,0,1-.91-.41A3.83,3.83,0,0,0,57.45,83a1.76,1.76,0,0,1-.34,0,4.05,4.05,0,0,0-1.12-.1,1.85,1.85,0,0,1-.81,0c-.08,0-.1,0-.19.19a.84.84,0,0,1-.23.34.33.33,0,0,0-.14.27c0,.14,0,.17-.18.23a1.48,1.48,0,0,0-.61,1c0,.2,0,.27-.12.34a.34.34,0,0,0-.09.18c3.52,2,20.51,11.71,19.88,15.89-.55,3.56-3.94,18.82-5.42,27.1.08-.12.2-.15.23.06a.18.18,0,0,0,.11.15c.1,0,.12.14.07.35s0,.23.2.19.18,0,.24-.4a2.33,2.33,0,0,0,0-.47.4.4,0,0,1,.15-.43.21.21,0,0,1,.27.28c0,.13-.08.28-.18.66a2.31,2.31,0,0,0,0,1c.06.19,0,.2-.09.28a.26.26,0,0,0-.15.25c0,.2-.15.34-.29.27s-.08-.11,0-.26a.31.31,0,0,0-.07-.34c-.13-.15-.14-.29,0-.35a.09.09,0,0,0,0-.17,1.9,1.9,0,0,1-.54.58,1.12,1.12,0,0,0-.22,1,2.69,2.69,0,0,1-.25,1.26l0,.07a9.13,9.13,0,0,0-.08,1.2l.58.5c0-.11.11-.14.17,0a.19.19,0,0,1,0,.18c.23.18.49.39.79.61a.16.16,0,0,1,.21-.06c.06,0,.08.08,0,.21a2.06,2.06,0,0,0,.41.32c0-.13,0-.32.1-.35S69.71,134.34,69.59,134.32Zm7.47-29.53a.09.09,0,0,1-.09-.09.1.1,0,0,1,.09-.09.09.09,0,0,1,0,.18Zm-.32-1.05a2.12,2.12,0,0,0,0-.45c0-.34,0-.35.08-.28a.45.45,0,0,1,.13.25c0,.25.11.35.28.34s.32.34.2.69-.08.27,0,.32a.15.15,0,0,1,0,.26c-.09.06-.24-.09-.2-.22s-.14-.35-.25-.3a.2.2,0,0,1-.17,0C76.74,104.22,76.7,104,76.74,103.74Zm-1,5.56c0-.27.06-.35.11-.33s0,.16,0,.32,0,.29.1.36.12.09,0,.14-.37,0-.35-.06Zm-.38,1.62c0-.2,0-.22.13-.18s.09.1.08.23-.15.3-.2.21A.62.62,0,0,1,75.31,110.92Zm-.42,1.51c.11,0,0,.12,0,.11A.24.24,0,0,1,74.89,112.43Zm-.49-16.9s0,.09,0,.12-.24,0-.23-.13S74.33,95.45,74.4,95.53Zm-.64.1c.14,0,.36.37.29.48s-.13.08-.16-.07,0-.12-.13-.12a.26.26,0,0,1-.16-.06C73.52,95.76,73.63,95.62,73.76,95.63Zm-6.35-6.76c-.07,0-.07-.07,0-.11s.16,0,.13.1S67.46,88.91,67.41,88.87Zm3.31,3.64c-.06-.11,0-.15,0-.16S70.76,92.5,70.72,92.51Zm1.42,1.36c0,.07-.09,0-.23-.1s-.24-.27-.17-.35.09-.06.14.09.06.11.14.08S72.23,93.73,72.14,93.87ZM73,94c-.06,0-.11.11-.1.15s-.1.19-.3.13-.3-.25.1-.38S73.17,93.9,73,94Zm-.25,19.08c.14-.1.22.16.1.37a3,3,0,0,0-.17.37c-.05.14-.1.19-.17.18S72.58,113.21,72.72,113.11Zm-.49,1.35c.12-.19.18-.13.12.12s-.15.36-.23.27S72.09,114.67,72.23,114.46Zm-.19.61c.08-.06.13.17.07.34s-.22.31-.27.25S71.94,115.14,72,115.07ZM70.15,121c.12,0,.12.1,0,.26C70,121,70,121,70.15,121ZM70,122a.43.43,0,0,0,.15.16c.18.14,0,.19-.17.06a.24.24,0,0,1-.13-.21C69.89,121.91,70,121.91,70,122Zm-.89,1.76c.08-.6.24-1,.39-1.1a.35.35,0,0,0,.19-.19c.07-.22.18-.09.14.17s-.07.34-.11.48a1.16,1.16,0,0,0,0,.44c0,.17,0,.21-.13.42s-.33.52-.27.54,0,.15-.07.13-.08-.07,0-.14a.23.23,0,0,0,0-.17s0-.1,0-.16a.23.23,0,0,0,0-.15A.64.64,0,0,1,69.13,123.78Zm-.46,3.08-.16.22a.66.66,0,0,1,.09-.63c.06,0,.21.17.19.23Zm-.46,6.53c-.12.12-.12.12-.14,0a.6.6,0,0,0,0-.21c0-.14.07-.21.2-.11S68.37,133.23,68.21,133.39Zm.11-.8c-.08,0-.11,0-.11.08s-.17.25-.28.23-.08-.11-.08-.24a1.05,1.05,0,0,1,.2-.75.61.61,0,0,0,.14-.35c0-.28.29-.17.4.14S68.58,132.63,68.32,132.59Z"/><path class="cls-6" d="M70.8,134.94a.36.36,0,0,0,0-.19,7.28,7.28,0,0,0,.08-1c0-.27,0-.36.32-.55a.9.9,0,0,0,.2-.27c.1-.2.1-.21,0-.37s-.21-.5-.12-.58a.25.25,0,0,0,0-.19c-.07-.19-.11-.17-.21.09s-.13.35-.31.29-.41.11-.4.95a1.12,1.12,0,0,1,0,.48,1,1,0,0,0-.06.67c0,.07,0,.12-.08.26a.51.51,0,0,0,0,.6c0,.07,0,.13-.08.26a.42.42,0,0,0-.08.18l.57.33A2.86,2.86,0,0,1,70.8,134.94Zm-.3-1.34c0-.32.25-.3.24,0,0,.17-.1.27-.2.21A.33.33,0,0,1,70.5,133.6Z"/><path class="cls-6" d="M71.48,128.15c-.06.41,0,.5,0,.42s.16-.65.08-.7S71.52,127.91,71.48,128.15Z"/><path class="cls-6" d="M74.31,115.74a.16.16,0,0,0-.1.1C74.43,115.82,74.43,115.72,74.31,115.74Z"/><path class="cls-6" d="M74.54,114.91a.33.33,0,0,1,0,.24c-.07.15,0,.21.12.08a2,2,0,0,0,.23-.63H74.7C74.52,114.62,74.47,114.71,74.54,114.91Z"/><path class="cls-6" d="M74.87,113.74a.34.34,0,0,0,0,.27.2.2,0,0,1,0,.2c-.08.13,0,.21.07.1a.86.86,0,0,0,0-.65C74.93,113.57,74.92,113.57,74.87,113.74Z"/><path class="cls-6" d="M74.19,114.14c-.08,0-.13.25,0,.28s.07,0,.1-.06S74.27,114.12,74.19,114.14Z"/><path class="cls-6" d="M73.87,117c0,.12.08.1.17-.1s.06-.17,0-.21S73.82,116.87,73.87,117Z"/><path class="cls-6" d="M73.21,119.18c0,.14,0,.22.1.15s.06-.26,0-.28S73.24,119.1,73.21,119.18Z"/><path class="cls-6" d="M73.31,115.26a1.88,1.88,0,0,0-.18.45c-.07.32-.07.32.17.41s.36,0,.32-.2a.22.22,0,0,1,.07-.22c.12-.1.1-.23,0-.4S73.44,115.1,73.31,115.26Z"/><path class="cls-6" d="M76.35,111.55a.31.31,0,0,1-.16.18.44.44,0,0,0-.19.16c-.08.16-.11.23-.08.24l.1.06c.14-.13.26-.15.32-.06s.14.1.21-.18a.79.79,0,0,1,.19-.36c.13-.09.2-.31.1-.33A.7.7,0,0,0,76.35,111.55Z"/><path class="cls-6" d="M75.39,116.05c-.09,0-.11.09,0,.15C75.52,116.1,75.49,116,75.39,116.05Z"/><path class="cls-6" d="M77.34,108c-.14.21-.15.25-.11.4s.06.29-.12.16-.16-.15-.15-.19-.13.1-.16.26a.92.92,0,0,1-.11.33.4.4,0,0,0-.12.2c-.11.3-.11.34,0,.41s.08.1,0,.23-.09.16,0,.24a.21.21,0,0,1,0,.22c0,.07,0,.14,0,.15s.06.08-.06.11-.22,0-.24.59c0,.23.1.21.16,0s.28-.43.46-.39.66-1.73.59-2.69C77.51,107.79,77.51,107.79,77.34,108Z"/><path class="cls-6" d="M76.22,112.47c-.16-.08-.22-.08-.29,0s-.13.16-.07.25,0,.09,0,.16-.17.29,0,.31.13,0,.17-.14a.85.85,0,0,1,.31-.27C76.52,112.63,76.52,112.61,76.22,112.47Z"/><path class="cls-6" d="M77.12,107.94c-.07-.07-.08-.06-.11.13s0,.2,0,.19S77.21,108,77.12,107.94Z"/><path class="cls-6" d="M76.18,113.16c-.22.14-.25.87,0,.83s.19-.36.11-.39,0-.08,0-.17S76.33,113.06,76.18,113.16Z"/><path class="cls-6" d="M71.73,123a6.09,6.09,0,0,0-.35,1.43c0,.33,0,.41.19.32a.69.69,0,0,0,.11-.62.87.87,0,0,1,.11-.75A.23.23,0,0,0,71.73,123Z"/><path class="cls-6" d="M72.75,116.67c0,.1,0,.17.12.09s.08-.1,0-.13A.08.08,0,0,0,72.75,116.67Z"/><path class="cls-6" d="M73.3,116.7c0-.07,0-.12,0-.11s-.08,0-.1.1a.08.08,0,0,0,0,.11S73.28,116.77,73.3,116.7Z"/><path class="cls-6" d="M73.72,114.85c.19.08.22.09.25,0s-.34-.3-.48-.28S73.43,114.72,73.72,114.85Z"/><path class="cls-6" d="M72.19,125.16c-.07,0-.11.11,0,.16S72.25,125.19,72.19,125.16Z"/><path class="cls-6" d="M69.91,130.52c-.07,0-.08.07-.08.31s.09.25.14,0S70,130.5,69.91,130.52Z"/><path class="cls-6" d="M71.24,126.09c.1,0,.09-.29,0-.43s-.08-.13-.14,0A.52.52,0,0,1,71,126a.22.22,0,0,0-.07.16v.24c0,.21.07.19.18-.06S71.21,126.08,71.24,126.09Z"/><path class="cls-6" d="M71.05,130.55s0,.06.13,0,.09,0,.14.07.17.05.15-.17a1.32,1.32,0,0,0-.28-.62A1.36,1.36,0,0,0,71.05,130.55Z"/><path class="cls-6" d="M72.62,120.18c.06,0,.06-.17,0-.19A.1.1,0,0,0,72.62,120.18Z"/><path class="cls-6" d="M73.1,117.12a.12.12,0,0,0,.09-.08C73.13,116.94,73.09,117,73.1,117.12Z"/><path class="cls-6" d="M73.19,122.68a.14.14,0,0,1-.06-.18c0-.12,0-.22-.08-.19s-.07.12-.14.63c0,.2,0,.2.17,0S73.32,122.76,73.19,122.68Z"/><path class="cls-6" d="M72.8,123.3c.09.08.11-.07,0-.09A.44.44,0,0,0,72.8,123.3Z"/><path class="cls-6" d="M72.66,124l-.18.1v.21c0,.45.3.35.33-.11C72.83,123.91,72.83,123.91,72.66,124Z"/><path class="cls-7" d="M72,21.58a20.55,20.55,0,0,0,1,3.47,6.72,6.72,0,0,1,.58,3.89c-.37,1.6-1.72,2.76-2.5,4.2a25.49,25.49,0,0,1-1.26,2.57,19.84,19.84,0,0,1-1.41,1.63,6.7,6.7,0,0,0-1.46,3.36,4.82,4.82,0,0,0,1,3.77c1.18,1.38,3.19,1.7,5,1.61A15.64,15.64,0,0,0,77.78,45,5.1,5.1,0,0,1,81,44.39c.88.25,1.52,1,2.37,1.35a5.14,5.14,0,0,0,3.27-.27A16.26,16.26,0,0,0,90.24,44a5.47,5.47,0,0,0,2.45-3c.31-1.09.17-2.32.73-3.31.76-1.33,2.49-1.73,3.57-2.82,1.56-1.57,1.33-4.34,0-6.06a9,9,0,0,0-5.8-2.9c-1.72-.27-3.82-.49-4.55-2.07-.24-.51-.28-1.1-.5-1.62a4,4,0,0,0-3.44-2,34.12,34.12,0,0,1-4.18-.27c-1.17-.28-2.22-.91-3.38-1.19s-2-.14-3-.29a6.83,6.83,0,0,0-6,2.06C62.77,24.07,70.32,22,72,21.58Z"/><path class="cls-3" d="M74.74,20c.31.33,4.47,4.16,1.16,11.43s-9.11,7.22-11.06,5.21S62,32.88,63.77,26.15,71.25,16.24,74.74,20Z"/><path class="cls-7" d="M45.86,140.33a5.56,5.56,0,0,0,.29-1.47,2,2,0,0,1,.23-1,2,2,0,0,1,1.1-.53,4,4,0,0,0,2.35-5.2,7,7,0,0,1-2.42,2.23,2.36,2.36,0,0,1-3-.66,2.3,2.3,0,0,1,.35-2.55,5.88,5.88,0,0,1,2.27-1.51,4.08,4.08,0,0,0-4,2.11,2.81,2.81,0,0,1-.8,1.17,2,2,0,0,1-1.08.21h-.18c-.35-3-1.44-6.18-3.29-8-2.67-2.6-8-2.26-11.33-1.59a.31.31,0,0,0,0,.6c3.33.92,8.62-.47,10.65,2.91a14.14,14.14,0,0,1,1.62,6,40,40,0,0,0-7.65-.1c-.49-.61-1-1.2-1.53-1.8-1.24-1.42-2.5-3.17-4.37-3.72-3.64-1.07-7.9,2-10.48,4.27a.48.48,0,0,0,.55.78c3.6-1.83,7.74-4.71,11.45-1.31a17.77,17.77,0,0,1,2,2.3,11.36,11.36,0,0,0-5.79,4.41c-4.39-2.43-11-1-14.58,2a.4.4,0,0,0,.14.68c2.5.48,4.39-1.16,6.82-1.63A10,10,0,0,1,21.8,140a8.38,8.38,0,0,0-.43,1.69c-3.5-.58-7.39.08-9.49,3.14-.32.45.29.85.67.57a15,15,0,0,1,8.73-2.72,7.68,7.68,0,0,0,.07,1.51c.73,4.58,4.86,5.24,9.07,4.66a11.17,11.17,0,0,1,2.19,2.91c1,2,1,4,1,6.24a.51.51,0,0,0,1,.18c1.09-2.75.08-7.12-2.18-9.7,1-.21,1.91-.47,2.79-.74,1.5,1,3.29,1.73,4.75,2.76a10.16,10.16,0,0,1,4.65,8c0,.7,1.07,1,1.31.23.9-2.87-.64-5.84-2.65-7.86a22.41,22.41,0,0,0-5.6-4l.22-.08a26,26,0,0,0,3.48-1.59,31.94,31.94,0,0,1,7.24,1.38c4.17,1.47,5.65,4.38,6.47,8.46a.48.48,0,0,0,.92,0c1.86-6.86-5.76-11-12.33-11.53a8.51,8.51,0,0,0,1.07-1.18c2.44-.26,4.85-.9,7.3-1s4.69.11,6.34,2.08c.93,1.11,1.4,2.4,2.37,3.48.26.29.89.13.85-.32C61,138.88,52.28,138.82,45.86,140.33Z"/><path class="cls-3" d="M77.79,31.23a1.54,1.54,0,0,1-.32,1.49,3.6,3.6,0,0,1-1.3.91,4.39,4.39,0,0,1-1.65.5,1.1,1.1,0,0,1-1-.35c-.52-.72.65-2.49,1.26-3C75.59,30.16,77.35,30.08,77.79,31.23Z"/><path class="cls-3" d="M73.1,33.89c1.57-2.85-6.38.77-6.63,1.77,0,0-.42,2.8-2.43,3.93a6.16,6.16,0,0,0,5,2.56,6,6,0,0,0,2.88-.81,1.93,1.93,0,0,1-1-2.44A42.69,42.69,0,0,1,73.1,33.89Z"/><path class="cls-8" d="M65.31,31.34l-.24.85a2.79,2.79,0,0,0-.17,1.1,1,1,0,0,0,.66.83c.56.12,1-.46,1.24-1A2.5,2.5,0,0,0,67,32a1.12,1.12,0,0,0-.63-.91.88.88,0,0,0-1.13.55Z"/><path class="cls-7" d="M69.12,22.47c1-.4,2.22-1,3.2-.47a2.23,2.23,0,0,1,.86.89c1,1.75.39,4.07,1.36,5.84A3.41,3.41,0,0,0,77,30.47a2.91,2.91,0,0,0,2.74-1.21,4.55,4.55,0,0,0,.52-2.92,7.36,7.36,0,0,0-.63-2.73A9,9,0,0,0,77,20.69a13.29,13.29,0,0,0-3.8-2.29,5.43,5.43,0,0,0-4.33.16A8.25,8.25,0,0,0,67,20.09c-.77.77-2.66,1.88-1,2.53A4.51,4.51,0,0,0,69.12,22.47Z"/><path class="cls-3" d="M76,18.4a4.69,4.69,0,0,0-2.12-.87l-1.28-.29a2.87,2.87,0,0,0-1.16-.11,1,1,0,0,0-.82.73c-.06.39.32.81.69.69l-.36.35,2.39,1.4a4.8,4.8,0,0,0,1.52.67,1.6,1.6,0,0,0,1.52-.49A1.62,1.62,0,0,0,76,18.4Z"/><path class="cls-9" d="M58.07,19.54c2.35-1.09,13.94.59,13.94.59a7.74,7.74,0,0,0,.52-3.57C69.39,15,52.7,10.75,51.32,15.67c-1.18,4.2.93,25.65,1.58,31.84-3.14,7.73-7.26,22.92.24,38.3,0,0,16.31-3.11,25.66-9.53,0,0-9.06-14.66-4.46-24.2,2.06-4.29-.17-9.76-.17-9.76l-2.28-1a6,6,0,0,1-2.88.81,6.16,6.16,0,0,1-5-2.56C60.22,33.14,55.72,20.62,58.07,19.54Z"/><path class="cls-3" d="M65.16,24.65A2.82,2.82,0,0,0,64,24.54l-1.31.05a4.73,4.73,0,0,0-2.24.48,1.59,1.59,0,0,0-.75,2,1.57,1.57,0,0,0,1.4.76,4.79,4.79,0,0,0,1.62-.38l2.61-1-.3-.4c.34.18.8-.17.81-.56A1,1,0,0,0,65.16,24.65Z"/><path class="cls-10" d="M73.42,54.45s19.45-20.62,19-25.7-25.49-5.48-28.87-4.51c0,0-.76,2.66-.31,4.11,0,0,17.92.87,20,2.36s-8.54,9.4-11.37,10.63S70.91,54.57,73.42,54.45Z"/><path class="cls-11" d="M51.59,69s-.05.08,0,.18.08.23.14.12S51.65,69,51.59,69Z"/><path class="cls-11" d="M53,73.7c.11,0,.06-.13,0-.12A.41.41,0,0,0,53,73.7Z"/><path class="cls-11" d="M52.85,77c-.14-.09-.14-.09-.09.14a.78.78,0,0,1,0,.33.25.25,0,0,0,0,.2l.13.26c.1.23.16.16.13-.17,0-.16,0-.3,0-.31S53,77.12,52.85,77Z"/><path class="cls-11" d="M52.13,74.36c0-.19-.08-.39-.24-.37a7.12,7.12,0,0,0,.44,1.7c.14.36.23.42.33.23a.94.94,0,0,0-.23-.72A1.1,1.1,0,0,1,52.13,74.36Z"/><path class="cls-11" d="M53.39,76c-.07,0,0,.17,0,.2A.11.11,0,0,0,53.39,76Z"/><path class="cls-11" d="M51.89,63.63l-.18,0c-.18.06-.22.18-.11.38a.39.39,0,0,1,0,.27c0,.17.06.21.13.05A2.38,2.38,0,0,0,51.89,63.63Z"/><path class="cls-11" d="M53.06,73.23c.11-.32.11-.35-.05-.37s-.12-.06-.14-.16-.11-.22-.16-.15,0,.16.18.72C53,73.49,53,73.49,53.06,73.23Z"/><path class="cls-11" d="M54.74,79.93a1.47,1.47,0,0,0-.34-.79s0,.09.07.37C54.65,80,54.7,80.07,54.74,79.93Z"/><path class="cls-11" d="M54.59,83c-.05.06,0,.12.12.38s.23.22.13-.06S54.64,82.93,54.59,83Z"/><path class="cls-11" d="M55.23,81.49a2.13,2.13,0,0,0,.31.87c.06,0,.08,0,.11-.06s.06-.11.16,0,.17,0,0-.27S55.31,81.47,55.23,81.49Z"/><path class="cls-11" d="M54.29,56.33c-.17.2-.19.25-.17.41s0,.3-.14.16-.14-.18-.12-.23-.15.1-.2.27a.91.91,0,0,1-.15.34.63.63,0,0,0-.14.21c-.13.33-.14.37-.06.45s.07.11,0,.25-.11.17,0,.27a.25.25,0,0,1,.05.24c0,.07,0,.14,0,.15s.05.09-.07.12-.22,0-.25.65c0,.25.1.22.16,0s.29-.47.47-.43.72-1.81.83-2.8C54.49,56.1,54.49,56.1,54.29,56.33Z"/><path class="cls-11" d="M53.18,74.51l-.1.19.13.22c.26.44.44.19.21-.3C53.29,74.32,53.29,74.32,53.18,74.51Z"/><path class="cls-11" d="M53.06,60.07a.39.39,0,0,1-.16.2.49.49,0,0,0-.19.19c-.07.19-.09.26-.07.27l.11.06c.13-.16.25-.19.32-.1s.14.1.2-.21a.84.84,0,0,1,.17-.39c.13-.11.2-.34.11-.37A.7.7,0,0,0,53.06,60.07Z"/><path class="cls-11" d="M51.31,70.3c-.13.1,0,.25.07.2S51.38,70.3,51.31,70.3Z"/><path class="cls-11" d="M52.66,65.23c.14-.15.1-.22,0-.17A.09.09,0,0,0,52.66,65.23Z"/><path class="cls-11" d="M52.56,61.89c.07,0,.13-.06.16-.16a.7.7,0,0,1,.28-.34c.27-.18.27-.2,0-.32s-.22-.06-.29,0-.12.19-.06.28,0,.11,0,.18S52.44,61.9,52.56,61.89Z"/><path class="cls-11" d="M51.83,63.19c0,.16,0,.24.1.1a1.19,1.19,0,0,0-.09-.72c-.07-.1-.08-.09-.11.1a.44.44,0,0,0,.06.3A.21.21,0,0,1,51.83,63.19Z"/><path class="cls-11" d="M53,61.83c-.2.18-.15,1,.06.88s.15-.41.07-.42,0-.08,0-.19S53.12,61.7,53,61.83Z"/><path class="cls-11" d="M50.75,67a.17.17,0,0,0,0-.13C50.71,66.74,50.69,66.8,50.75,67Z"/><path class="cls-11" d="M50.27,66.58c0,.13.1.17.14.06s.05-.14,0-.15A.09.09,0,0,0,50.27,66.58Z"/><path class="cls-11" d="M51.55,65a.16.16,0,0,0-.07.13C51.68,65.07,51.66,65,51.55,65Z"/><path class="cls-11" d="M50.93,65.16c.09-.14,0-.28-.14-.43s-.25-.17-.33,0a2.1,2.1,0,0,0-.06.57c0,.39,0,.39.26.41s.36-.05.27-.32A.34.34,0,0,1,50.93,65.16Z"/><path class="cls-11" d="M51.12,63.27c-.08,0-.08.32,0,.33s.07,0,.09-.08S51.2,63.23,51.12,63.27Z"/><path class="cls-11" d="M50.5,63.94c-.16.06,0,.19.28.26s.23,0,.25-.06S50.64,63.88,50.5,63.94Z"/><path class="cls-11" d="M50.76,66.3a.23.23,0,0,0-.07.15c0,.06,0,.11.06.12s.06-.07.06-.16S50.79,66.28,50.76,66.3Z"/><path class="cls-11" d="M54.08,56.21c-.06-.09-.07-.07-.13.12s0,.21,0,.21S54.16,56.32,54.08,56.21Z"/><path class="cls-11" d="M57.08,84.38c-.22-.1-.49-.45-.47-.6s-.06-.13-.13-.21-.19-.12-.11.23.11.48-.08.51-.28.25,0,.81l1.07-.26a.25.25,0,0,1,0-.08C57.3,84.5,57.29,84.48,57.08,84.38Z"/><path class="cls-11" d="M51.52,66.19c-.11,0-.16.23-.07.39s.1.08.14-.16S51.6,66.21,51.52,66.19Z"/><path class="cls-11" d="M55.59,84.84c-.05.23-.33.52-.46.47a5.2,5.2,0,0,1-1.26-2.57.76.76,0,0,0-.2-.46,1,1,0,0,1-.2-.52c-.1-.51-.1-.52.18-.55a.38.38,0,0,0,.26-.09.42.42,0,0,1,0-.21c0-.17-.12-.42-.21-.4s0,.12,0,.24.07.25-.26.34-.38,0-.54-.56-.36-1-.5-.79-.15.1-.28-.09a.28.28,0,0,0-.23-.06c-.16,0-.17,0-.44-.88A5,5,0,0,0,51,77.32a1.16,1.16,0,0,1-.06-.48c0-.23,0-.37-.05-.41a1.2,1.2,0,0,1-.11-.45c0-.37,0-.4.12-.48s.25-.08.35.18.17.41.26.39.06-.11,0-.44a.79.79,0,0,1,0-.64c.12-.24.08-.41-.08-.38s-.1,0-.09-.12a.64.64,0,0,0-.09-.31,1.3,1.3,0,0,0-.14.33.37.37,0,0,0,0,.31c.14.3-.07.58-.35.47-.08,0-.09-.07,0-.29s0-.27-.1-.62a3.18,3.18,0,0,1-.22-.93c-.07-.53-.08-.57-.22-.64s-.2-.25-.07-.47a.32.32,0,0,0,0-.35.76.76,0,0,1,0-.59c.08-.18.23-.06.31.23a.73.73,0,0,0,.25.38c.11.08.2.18.2.23a.11.11,0,0,0,.13.06,4.94,4.94,0,0,0-.21-2c-.08,0-.09-.08,0-.23a.25.25,0,0,0,0-.29.44.44,0,0,1,0-.28,1.26,1.26,0,0,0,0-.74.21.21,0,0,1,0-.23c.06-.09.06-.21,0-.52a3.42,3.42,0,0,1-.06-.66c0-.19,0-.26-.08-.26a.22.22,0,0,1-.16-.12.59.59,0,0,0-.12-.12,1.84,1.84,0,0,0-.21.7s0,.09,0,.16-.25,0-.21-.17a.16.16,0,0,0-.08-.21c-.11-.06-.12-.11-.08-.33s0-.45.07-.68.08-.64.1-.89a1.46,1.46,0,0,0,0-.71,1.2,1.2,0,0,1,.23-1.07c.14-.09.14-.09,0-.23a.43.43,0,0,1-.1-.29.77.77,0,0,0,0-.3c-.07-.22.18-.65.27-.48s.07.1.11.06a.13.13,0,0,0-.09-.21c-.06,0-.07-.06,0-.15s.07-.12.11-.1a.29.29,0,0,0,.16,0,.2.2,0,0,1,.17,0c.06,0,.11,0,.18-.12.19-.35.32-.09.23.45s.08.78.21.51a.42.42,0,0,0,0-.31,1.36,1.36,0,0,1,.16-.81c.09-.09.1-.09.19.08a.31.31,0,0,0,.24.19c.13,0,.14,0,.26-.63s.15-.87,0-.77a.35.35,0,0,1-.17,0s-.09,0-.12.09-.24.26-.25.14.17-.54.27-.52a.2.2,0,0,0,.17,0,.13.13,0,0,1,.18,0c.09,0,.12,0,.18-.07s.06-.39,0-.41-.1-.2-.06-.37.07-.06.13,0,.23-.08.28-.33c0-.1.11-.53.23-1s.23-1,.27-1.27.09-.51.21-.65.21-.29.09-.41a.17.17,0,0,1,0-.25c.08-.16.12-.68,0-.7s-.08.08-.12.2c-.1.33-.22.5-.34.49s-.09,0,0-.17a.64.64,0,0,0,0-.25.27.27,0,0,1,.07-.19.29.29,0,0,0,.08-.26c0-.23.3-.54.51-.48s.37-.12.29-.38-.09-.19-.12-.18-.05-.05.07-.12.22-.36.1-.43,0-.14.06-.11a.15.15,0,0,0,.18,0c.16-.15.24-.08.22.18a.42.42,0,0,0,.09.34c.13.11.06.31-.22.6s-.15.17,0,.41.16.25,0,.39-.19.52,0,.57.33-.06.56-.85.36-1,.41-.67,0,.22.15.11.15-.55,0-.58-.16-.24,0-.76.27-.7.39-.61.11,0,.15-.14,0-.21-.06-.22a1.19,1.19,0,0,0,.36-.53.79.79,0,0,0-.09-.36c-.13-.26,0-.69.3-1.55a8.36,8.36,0,0,0,.74-2.64.69.69,0,0,1,.1-.32c.1-.2.11-.26.06-.4a.81.81,0,0,1,0-.38.44.44,0,0,0,0-.31c-.08-.1,0-.41.15-.56a5.77,5.77,0,0,0,.5-1.83c0-.27,0-.37-.08-.47S58,42,58,42a.34.34,0,0,0,.09-.2c.29,0,.52-1.37.36-1.57a.12.12,0,0,1,0-.16,3.41,3.41,0,0,0,.09-.91c0-.84,0-.84-.18-1s-.26-.32,0-.3.17,0,.17-.2c0-2,0-2,.11-2a.1.1,0,0,0,.07-.12.29.29,0,0,1-.31-.34,4.32,4.32,0,0,0,0-.58c0-.23,0-.58,0-.79a.82.82,0,0,0-.09-.51c-.07-.12-.07-.16,0-.24s.1-.26,0-.31a1.63,1.63,0,0,1-.15-1.14c.1-.05.1-.1,0-.34a4.3,4.3,0,0,1-.17-.55c-.06-.22-.09-.27-.19-.28s-.4-1.06-.28-1.34a.37.37,0,0,0,0-.23.48.48,0,0,1,0-.24.59.59,0,0,0,0-.33c-.13-.87-.17-1-.24-1.11a11.17,11.17,0,0,1-.74-2.32c-.27-.93-.51-1.71-.54-1.74a.31.31,0,0,1,0-.24c.05-.15,0-.28-.13-.76a5.07,5.07,0,0,1-.22-.91,2.75,2.75,0,0,0-.26-.9c-.13-.31-.32-.82-.42-1.14a5.75,5.75,0,0,0-.76-1.67,3.08,3.08,0,0,1-.24-.34,6.09,6.09,0,0,0-.78-1.08,2.41,2.41,0,0,1-.63-.72c0-.1-.06-.1-.27,0a.72.72,0,0,1-.41.08.27.27,0,0,0-.29.09c-.06.06-.1.08-.14.08l0,.07c-1.18,4.2.93,25.65,1.58,31.84-3.08,7.59-7.11,22.4-.13,37.51a.17.17,0,0,0,0-.07,2.35,2.35,0,0,0-.41-1.24.94.94,0,0,1-.22-.25c-.34-.6-.35-.65-.24-.74s.17-.29,0-.5-.14-.77.1-.45a.24.24,0,0,0,.18.1c.1,0,.19.07.27.32s.12.26.28.09.14-.14,0-.57a2.72,2.72,0,0,0-.26-.51.62.62,0,0,1-.14-.55c.1-.19.34-.1.4.13a7.6,7.6,0,0,0,.25.81,3.58,3.58,0,0,0,.58,1.06c.16.17.17.19.1.35a.34.34,0,0,0,0,.36c.12.22.08.46-.08.46s-.13-.07-.19-.25-.14-.27-.28-.32-.29-.23-.22-.37a.12.12,0,0,0-.14-.17,2.52,2.52,0,0,1-.09,1,1.88,1.88,0,0,0,.39,1.16,3.16,3.16,0,0,1,.43.92l.38-.08V85.6a1,1,0,0,0-.11-.47c-.19-.29.15-.35.42-.07a1.77,1.77,0,0,1,.31.46l1.38-.31s0-.09,0-.13C55.68,84.64,55.64,84.6,55.59,84.84ZM58,43c0,.06-.05.08-.11.06a.19.19,0,0,1-.06-.29C57.88,42.69,58,42.86,58,43Zm-.14-11.91c.1,0,.12.14,0,.21s-.07,0-.09-.09S57.78,31.06,57.85,31.07Zm0,6.08c0,.15-.09.15-.13.11S57.83,37.12,57.86,37.15Zm-.23,2.26c0-.38,0-.45.13-.45s.11,0,0,.2,0,.15,0,.2.05.3-.12.33S57.62,39.66,57.63,39.41Zm.38.8c.28.2.35.41.12.35-.07,0-.16,0-.18,0s-.21.07-.29-.15C57.52,40.05,57.65,40,58,40.21Zm-.53,2.33c.09.13,0,.59-.15.62s-.16,0-.06-.17a.16.16,0,0,0,0-.22.34.34,0,0,1-.07-.18A.15.15,0,0,1,57.48,42.54Zm-2.61,9.24a2,2,0,0,0,.2-.44c.13-.34.13-.34.2-.24a.46.46,0,0,1,0,.29c-.07.25,0,.39.13.44s.16.44-.07.75-.17.23-.1.3a.17.17,0,0,1-.05.27c-.12,0-.2-.16-.13-.28s0-.39-.13-.38-.11,0-.15-.09A.62.62,0,0,1,54.87,51.78Zm0,1a.1.1,0,0,1,0,.12.08.08,0,0,1-.11.06.09.09,0,0,1-.06-.11A.11.11,0,0,1,54.85,52.75Zm-2.38,4.83c.07-.3.1-.4.15-.36s0,.17,0,.35,0,.33.07.41.11.1,0,.16-.38,0-.36-.07S52.43,57.81,52.47,57.58ZM52,59.43c0-.23,0-.25.14-.21s.09.11.07.25-.14.35-.2.26A.83.83,0,0,1,52,59.43Zm-.38,1.76c.11,0,.06.14,0,.13A.47.47,0,0,1,51.62,61.19ZM49.91,73.82s.12.08.2.1c.23,0,.12.2-.12.15a.24.24,0,0,1-.21-.16C49.74,73.78,49.82,73.72,49.91,73.82Zm-.77-8.08a1.32,1.32,0,0,1,0-.78c.06-.1.17.16.16.38S49.2,65.79,49.14,65.74Zm.06-1.06c-.06-.05-.07-.21,0-.51s.16-.21.15.11S49.31,64.76,49.2,64.68Zm.44,8.23c-.26-.18-.25-.27-.12-.29S49.66,72.66,49.64,72.91Zm0-10.07a4.15,4.15,0,0,0-.11.48c0,.18-.06.25-.14.26s0-1,.1-1.18S49.74,62.55,49.66,62.84Zm.94,14.31c-.06,0-.1,0-.12-.13s-.07-.16-.11-.17-.07-.09-.09-.17a.27.27,0,0,0-.09-.17.67.67,0,0,1-.14-.27,2.51,2.51,0,0,1-.26-1.42.49.49,0,0,0,.07-.32c0-.28.11-.19.21.11s.11.41.15.59a1.68,1.68,0,0,0,.2.5c.12.16.13.22.11.52,0,.51,0,.76,0,.74C50.67,77.09,50.65,77.14,50.6,77.15Zm.77,3a.93.93,0,0,1-.29-.71s.26,0,.29.12v.59Z"/><path class="cls-12" d="M42,133.06a1.2,1.2,0,0,0,.31-.13,2.81,2.81,0,0,0,.8-1.17,4.08,4.08,0,0,1,4-2.11,5.88,5.88,0,0,0-2.27,1.51,2.3,2.3,0,0,0-.35,2.55c-.89,0-1,0-1.1.16s-.21.07-.73-.13c-.08,0-.17-.11-.17-.18s-.06-.11-.11-.11a.13.13,0,0,1-.11-.1A.44.44,0,0,0,42,133.06ZM24.54,148.29v.17a5.5,5.5,0,0,1-1.32-.79c.36-.07.41-.38,0-.63a1.16,1.16,0,0,0-.82-.16,5,5,0,0,1-.66-1.16,1.36,1.36,0,0,0,.41-.28c.19,0,.28.1.14.13s-.15.15.17.26.3.13.3.24.07.16.2.19c.3.05.54-.06.46-.2s0-.14.18-.19.24-.06.06-.19a1.17,1.17,0,0,1-.45-.71,1.77,1.77,0,0,1,.05-.47c0-.13-.38-.27-.66-.22s-.26.2-.1.31a.71.71,0,0,1,.17.34c.07.28.07.28-.27.3s-.47,0-.48-.15-.1-.24-.31-.26l-.17-.06c0-.18-.09-.36-.12-.55a4.77,4.77,0,0,1-.06-.76l.14-.13s-.07-.06-.15-.1a4.51,4.51,0,0,1,0-.52,15,15,0,0,0-8.73,2.72c0-.18,0-.37,0-.56v-.8c2.14-2.31,5.51-2.84,8.61-2.37a.3.3,0,0,0,.14.08c.09,0,.16,0,.09-.08s0-.16,0-.24l.2-.17c.18-.13.18-.17,0-.31a.59.59,0,0,1-.1-.17,7,7,0,0,1,.24-.78A10,10,0,0,0,15.27,139a14.13,14.13,0,0,0-2.62.87c-.13-.15-.13-.22,0-.31s.11-.15.07-.2a3.65,3.65,0,0,1,.14-1.45c0-.19.06-.32.1-.48,3.29-1.06,7.1-1.11,10,.47a11.7,11.7,0,0,1,.88-1.12.34.34,0,0,0,.23.08c.07,0,.1,0,.07-.06s.44-.22.53-.16a1.27,1.27,0,0,1,.17.17A.92.92,0,0,0,25,137c.11.07.13.12.08.21a.77.77,0,0,0,0,.39c0,.21,0,.27-.12.26s-.13,0-.07.1a.26.26,0,0,1-.13.39c-.06,0-.07.1,0,.17s.05.12-.08.13-.17,0,0,.12,0,1.2-.29,1.1a.41.41,0,0,1-.21-.12s-.12-.14-.29-.26a.79.79,0,0,1-.34-.38.5.5,0,0,0-.48-.35q-.37,0-.27.27c.06.11,0,.14-.17.14s-.34.11,0,.28.23.17.12.45a.68.68,0,0,0,0,.59c.14.26.14.28-.08.36s-.2.09-.07.15c.48.23,1,.23.88,0,0-.06,0-.11.15-.13a1.21,1.21,0,0,1,.38-.06c.07.08.1.17.06.2s0,.07.11.11c.32.09.31.18,0,.21s-.32.06-.35.26-.07.23-.2.2-.22-.1-.31-.33-.13-.21-.56-.29-.35-.05-.45.14-.06.24,0,.28,0,.12-.11.22-.18.2-.13.26.12.27.1.88,0,.56.31.62a1.39,1.39,0,0,1,.39.13.52.52,0,0,0,.5.17.43.43,0,0,1,.5.57c-.1.34,0,.38.64.46s.71.09.71,0a.1.1,0,0,1,.11-.11c.17,0,.25.17.13.24s-.08.07-.07.11a3.45,3.45,0,0,1-.56-.06c-.53-.09-.55-.09-.67.18s-.06.23.07.31.14.14.06.28a1.23,1.23,0,0,0,.6,1.58,3.55,3.55,0,0,0,1.2-.12c.26-.1.31-.07.31.17s-.09.32-.41.54c-.15.11-.15.13.1.25s.35.21.25.36-.08.11-.44-.07a3,3,0,0,1-.49-.29.16.16,0,0,1-.14-.15.59.59,0,0,0-.63-.36S24.54,148,24.54,148.29Zm-6.88-6.11a.83.83,0,0,0-.45,0c-.15.09-.31.07-.29,0a.36.36,0,0,0-.16-.19c-.38-.27-.85.11-.49.4a2.24,2.24,0,0,0,1,.08l.4-.12C18.06,142.28,18.05,142.24,17.66,142.18Zm1-.56c-.28-.12-.48,0-.27.17a.34.34,0,0,0,.22.07C18.76,141.86,18.79,141.69,18.64,141.62Zm2.79-2.54c.15-.1.13-.15-.1-.23S21,138.8,21.43,139.08Zm.46.83a2.27,2.27,0,0,1-.35-.19c-.11-.11-.29-.14-.27,0s.13.14.33.22C22,140.08,22.29,140.09,21.89,139.91Zm27.64-6.49c.15-.08.35-.16.55-.25a3.11,3.11,0,0,0-.25-1,11.79,11.79,0,0,1-1.34,1.49h.06A1.39,1.39,0,0,0,49.53,133.42Zm-10.47-.21c0,.1,0,.17,0,.17,0-.41.09-.64.17-.55a.49.49,0,0,0,.26.09,1,1,0,0,1,.36.15c.12.08.19.08.25,0s.08-.09.1.1.1.3.15.06.53-.14.53.16,0,.23.15.16a.91.91,0,0,1,.29-.08c.11,0,.15-.05.18-.24,0,0,0-.06.05-.09h-.36c-.05.23-.11.21-.11,0h-.07c-.35-3-1.44-6.18-3.29-8-2.67-2.6-8-2.26-11.33-1.59a.31.31,0,0,0,0,.6c3.33.92,8.62-.47,10.65,2.91a13.85,13.85,0,0,1,1.6,5.8C39.05,133,39.06,133,39.06,133.21Zm-13,2.57s-.38-.39-.67-.59l-.09.08.35.28C26,135.8,26.07,135.83,26.09,135.78Zm.4-1.31a11.32,11.32,0,0,1,2-.93,1.88,1.88,0,0,0,.39.37c.1.06.09,0-.06-.17a.49.49,0,0,1-.13-.31l0-.08a.26.26,0,0,0,0-.27c-.06-.09-.12-.07-.23.12a16.71,16.71,0,0,0-1.81-2c-3.71-3.4-7.85-.52-11.45,1.31a.49.49,0,0,1-.69-.33c.07-.17.16-.35.24-.53,2.59-2.23,6.78-5.24,10.38-4.19,1.87.55,3.13,2.3,4.37,3.72.36.41.71.83,1.06,1.24a.94.94,0,0,1,0,.16c.08.32-.09.24-.34-.16s-.64-.64-.62-.4,0,.13-.1.09-.11,0-.1,0a.13.13,0,0,1-.06.13c-.08,0-.07.06,0,.19s.29.23.43.13a.11.11,0,0,1,.15,0c.08.12,0,.46-.08.46s-.07.06,0,.22.13.31-.1.19-.19,0-.26.18a1.91,1.91,0,0,1-.33.55,3,3,0,0,0-.3.37c-.07.11-.19.07-.38-.13s-.18-.16-.19-.14,0,.24.1.34.17.32.05.32-.13,0-.26-.17a1,1,0,0,0-.26-.23.79.79,0,0,1-.25-.17c-.16-.15-.46-.15-.43,0a.44.44,0,0,0,.39.22.25.25,0,0,1,.18.09,1.79,1.79,0,0,0,.26.2c.26.16.26.28.05.55s-.21.24-.41.08a1.37,1.37,0,0,1-.36-.4c-.14-.22-.16-.23-.3-.28s-.34.13-.27.34,0,.14-.1.14a.42.42,0,0,1-.32-.58A.35.35,0,0,0,26.49,134.47Zm1.34-.37c.08.14.26.18.29.08s0-.16-.11-.27-.15-.16-.19,0A.37.37,0,0,0,27.83,134.1Zm-.6.61c.08.07.18,0,0-.08A.1.1,0,0,0,27.23,134.71ZM31,133.32c-.17-.11-.18-.11,0,.31s.18.42,0,.31-.2.11,0,.36c.28.42.37.44.61.25s.36-.18.43.17.05.22.15.31.14-.16,0-.45-.15-.42.05-.48.29-.06.4.21.09.21.14.14,0-.12,0-.25c.11.12.33.33.36.25A1.73,1.73,0,0,0,33,134c-.09-.39.05-.55.44-.53.13.33,1-.09,1-.28s.07-.05.14,0,.13.08.15-.1a.3.3,0,0,1,.09-.24.22.22,0,0,0,.06-.07,25,25,0,0,0-3,.05.75.75,0,0,0,.11.41c.18.37.13.58-.11.43s-.18-.1-.12.06.05.26-.05.11-.21-.44-.12-.4,0-.31-.11-.49l0-.09-.18,0s.07.05.12.12.07.17,0,.18-.07,0-.12-.13a.24.24,0,0,1-.05-.17h-.13a.93.93,0,0,0,.08.28C31.39,133.49,31.32,133.52,31,133.32Zm5-.43-.58,0A1,1,0,0,0,36.05,132.89Zm1,.05-.5,0C36.74,133.09,37,133.11,37.06,132.94Zm-10.74,2.42c-.13-.07-.16.1,0,.2s.12.06.15,0S26.45,135.43,26.32,135.36Zm.54,1.49c-.06,0-.12,0-.13,0C27.09,137,27.07,136.94,26.86,136.85Zm.71,8.88c-.12,0-.1.39,0,.44a.3.3,0,0,0,.25,0,.35.35,0,0,1,.31,0c.2.1.34,0,.23-.11A2.7,2.7,0,0,0,27.57,145.73Zm0-.79c.14,0,0-.39-.19-.44s-.13,0-.08.17S27.45,145,27.59,144.94Zm-.48-2c.25,0,.14-.06,0-.1S27,142.88,27.11,142.93Zm-.6-5.37c.1.13.16.14.26.06s0-.11-.1-.2S26.37,137.39,26.51,137.56Zm-.27,1.26a.08.08,0,0,0-.12,0c0,.08.1.18.23.18S26.36,138.88,26.24,138.82Zm2.47-.69c.26.09.19,0,0-.07S28.59,138,28.71,138.13Zm1.84-3.72c-.07-.15-.09-.16-.15-.1s0,.11,0,.18S30.65,134.61,30.55,134.41Zm-1.29,1.77c-.25-.24-.33-.31-.43-.34s-.17,0-.07.11,0,.1-.05.07-.23,0,0,.19.19.11.23.08a1,1,0,0,1,.44.15C29.74,136.66,29.73,136.64,29.26,136.18Zm1.55-1.37c-.2-.12-.22-.11-.18,0s0,.24-.18-.1c-.1-.16-.18-.31-.16-.33s-.19-.15-.24-.09a.18.18,0,0,1-.19,0,.22.22,0,0,0-.17-.05c-.17.05-.18.07-.06.25s.1.16,0,.13-.13,0,0,.16.11.2.07.22,0,.08,0,.14c.19.21.08.13-.08,0-.32-.27-.32-.27-.32.11,0,.16.14.26.22.17s.38.07.63.33.83-.21.89-.75C31,134.93,31.05,134.93,30.81,134.81Zm-1.44.86s-.12,0-.23-.07a.51.51,0,0,0-.26-.11c-.12,0-.14,0-.1.08l.16.18a1,1,0,0,1,.47.33c.14.21.21.24.29.13a.19.19,0,0,1,.23,0c.19.1.26,0,.13-.1S29.41,135.62,29.37,135.67Zm-2.26.9c-.09.05.09.19.22.17s.28-.25.22-.3l-.31-.18c-.29-.17-.36-.13-.19.1S27.14,136.55,27.11,136.57Zm2.42.42c.13,0,0-.22-.21-.32s-.22.39.11.58c.14.09.22-.05.1-.16S29.47,137,29.53,137Zm-3.76,5.41c.19,0,.12-.26-.11-.42s-.36-.46-.18-.52,0-.22-.3-.31c-.1,0-.07.69.07,1S25.49,142.41,25.77,142.4ZM25.2,137c.06,0,.12,0,.13,0S25.13,136.91,25.2,137Zm.23-.21s0-.09-.08-.12a.13.13,0,0,0-.14,0s0,.09.08.12A.1.1,0,0,0,25.43,136.83Zm.05,2.49c.11,0,.05-.1-.07-.15S25.36,139.29,25.48,139.32Zm.28-2.91c-.05-.1,0-.16,0-.15s.11-.1-.18-.39-.38-.36-.55-.32a.35.35,0,0,0-.2.26c-.05.23-.05.23.37.5S25.88,136.66,25.76,136.41ZM28.62,149a14.38,14.38,0,0,1-1.47,0c0-.07.05-.14.16-.2s.2-.15.09-.19a.28.28,0,0,1-.09-.45.32.32,0,0,0,0-.33c-.34-.55-.23-.7.42-.65.38,0,.4,0,.52-.19s.17-.19.36-.07.14.1.1.12.11.26.45.35.34.1.23.23a.71.71,0,0,1-.3.18c-.51.15-.59.21-.48.39a1.52,1.52,0,0,1,.15.68A.13.13,0,0,1,28.62,149Zm-.46-.87c-.08-.21-.52-.21-.49,0a.19.19,0,0,0,.15.15C28,148.35,28.21,148.27,28.16,148.16Zm-3.69-11.78c0,.07.13.19.23.18s.11,0-.06-.13S24.48,136.36,24.47,136.38Zm1.26,12.44q.35.08.69.12a.42.42,0,0,0-.33-.17Zm1.77-7.49c0-.06-.12-.15-.25-.17s-.06.06.07.39c.05.13.06.12.33.1s.33-.05.05-.16S27.49,141.38,27.5,141.33Zm-.25,1c.3.32.73.33.54,0s-.12-.19-.4-.18h-.28Zm.1-.63s-.05,0-.06,0C27.5,141.84,27.46,141.74,27.35,141.71Zm-1.76,1.23c-.22-.11-.22-.11-.24,0a.17.17,0,0,1-.13.14c-.07,0-.1.06-.06.1a.81.81,0,0,1,.12.18c.08.14.23.14.33,0a.21.21,0,0,1,.21-.11C26,143.29,25.84,143.06,25.59,142.94Zm1.89-6.82c-.1,0,0,.17.14.16s.07-.32-.08-.51-.13-.15-.18-.06,0,.15.07.24S27.53,136.11,27.48,136.12Zm-2.11,10c-.12,0-.12.05,0,.21s.29.17.28,0A.23.23,0,0,0,25.37,146.16Z"/><path class="cls-11" d="M33.14,137.32a.53.53,0,0,0-.13-.94,4.74,4.74,0,0,0-3.19.92c-.41-.42-.82-.84-1.24-1.24a.59.59,0,0,0-.84.84c.33.39.67.76,1,1.13a5.37,5.37,0,0,0-2.05,2.64.39.39,0,0,0,.64.37c.79-.65,1.45-1.42,2.26-2a10.29,10.29,0,0,0,1.4,1.4c.52.39,1.21-.36.87-.87a7.32,7.32,0,0,0-1.11-1.26,8.08,8.08,0,0,1,.8-.35A6.12,6.12,0,0,0,33.14,137.32Z"/></g></g></svg>