<svg id="phobias" xmlns="http://www.w3.org/2000/svg" xmlns:xlink="http://www.w3.org/1999/xlink" viewBox="0 0 111 162"><defs><style>.cls-1{fill:url(#Áåçûìÿííûé_ãðàäèåíò_1869);}.cls-2{fill:url(#Áåçûìÿííûé_ãðàäèåíò_1869-2);}.cls-3{fill:#ffd19a;}.cls-4{fill:#a699d9;}.cls-5{fill:#8d86c5;}.cls-6{fill:#8580b0;}.cls-7{fill:#2b245c;}.cls-8{fill:#fff;}.cls-9{fill:url(#Áåçûìÿííûé_ãðàäèåíò_1868);}.cls-10{fill:url(#Áåçûìÿííûé_ãðàäèåíò_1868-2);}.cls-11{fill:#d83d5b;}.cls-12{fill:#1a486c;}</style><linearGradient id="Áåçûìÿííûé_ãðàäèåíò_1869" x1="33.22" y1="122.58" x2="114.42" y2="3.04" gradientUnits="userSpaceOnUse"><stop offset="0" stop-color="#e4ddff"/><stop offset="1" stop-color="#faf9ff"/></linearGradient><linearGradient id="Áåçûìÿííûé_ãðàäèåíò_1869-2" x1="0.88" y1="150.48" x2="110.12" y2="150.48" xlink:href="#Áåçûìÿííûé_ãðàäèåíò_1869"/><linearGradient id="Áåçûìÿííûé_ãðàäèåíò_1868" x1="77.09" y1="89.94" x2="50.31" y2="43.99" gradientUnits="userSpaceOnUse"><stop offset="0" stop-color="#ef6e98"/><stop offset="1" stop-color="#db385b"/></linearGradient><linearGradient id="Áåçûìÿííûé_ãðàäèåíò_1868-2" x1="60.17" y1="49.17" x2="87.73" y2="49.17" xlink:href="#Áåçûìÿííûé_ãðàäèåíò_1868"/></defs><title>phobias</title><path class="cls-1" d="M11.31,74.57a11.48,11.48,0,0,0-.08,1.86,6.72,6.72,0,0,0,1.36,4,8,8,0,0,0,3.09,2.05c12.47,5.31,25,2.36,24.57,20,0,2.7-.46,5.66,1.07,7.89,3.83,5.61,11.87,7.19,18,7.22,9,0,18,.79,27.05.72,3.88,0,8-.22,11.29-2.22,3.14-1.89,5.21-5.2,6.41-8.67,1.43-4.13,1.7-9-.6-12.67C98.76,87.12,85.56,87,83,78.38c-1.07-3.51.18-7.34,2.11-10.46s4.54-5.76,6.59-8.81a30.22,30.22,0,0,0-.07-32.85c-9.75-14.48-46.44-21.87-53-.58-2.17,7.08.17,15.13-2.82,21.9-2.64,6-8.75,9.49-14.11,13.24C16.84,64.21,12,68.88,11.31,74.57Z"/><path class="cls-2" d="M72.29,141.21A232.09,232.09,0,0,1,105,144.32c2.18.37,4.84,1.26,5.1,3.45a3.57,3.57,0,0,1-1.79,3.24,9.68,9.68,0,0,1-3.7,1.14c-10.11,1.65-20.23,1.12-30.42.84-3.25,0-6-.31-9,1a74.91,74.91,0,0,1-9.8,3.47c-4.54,1.3-9.18,2.62-13.89,2.31-5.14-.35-10-2.61-15.06-3.44-8.55-1.4-18,1.15-25.51-3.27.67-2.63,3.53-4,6.11-4.82,9.72-3.12,20.46-4.53,30.59-5.59A266.79,266.79,0,0,1,72.29,141.21Z"/><path class="cls-3" d="M70.12,132.1s-4.35,6.76-2.67,8.1,5.23,6.25,8.5,6.54c3.78.33-5.6-5-3.45-11.52S70.12,132.1,70.12,132.1Z"/><path class="cls-4" d="M48.88,84.39s24.17,16.66,23.9,20.71S66.64,135.36,67.49,137c0,0,2.62,2.24,5.37.91,0,0,13.64-34.52,12.88-37.87s-18.68-24.7-18.68-24.7Z"/><path class="cls-3" d="M67.77,134s-5.36,6-3.92,7.56,4.17,7,7.35,7.82c3.68.93-4.74-5.79-1.57-11.92S67.77,134,67.77,134Z"/><path class="cls-5" d="M50.67,92.37S70.61,103.26,70,107.63s-5.9,27.5-5.74,30.28c0,0,5,4.61,5.81,1.86,6.51-21.14,10.78-30.8,9.71-35.57S59.15,81.29,59.15,81.29,50.84,90,50.67,92.37Z"/><path class="cls-6" d="M66.28,138.63l-.21,0c-.52.14-.55.1-.41-.8l.11-.73c.15,0,.25.29.22.51s0,.21,0,.22a3.37,3.37,0,0,0,.17.42c.13.27.13.27.19.13a.48.48,0,0,0,0-.5c-.1-.18-.1-.21,0-.34a1.84,1.84,0,0,0,.32-.72c.06-.33,0-.37-.1-.25a.68.68,0,0,1-.6.1,3.19,3.19,0,0,1,.15-2.13.44.44,0,0,0,0-.37.53.53,0,0,1,.06-.42c.16-.36.17-.37.4-.26s.22.08.25.06a.48.48,0,0,1,.07-.15c.09-.1.1-.31,0-.34s-.06.07-.09.17,0,.18-.36.09-.33-.15-.18-.59.15-.81-.06-.73-.17,0-.19-.19a.28.28,0,0,0-.16-.14c-.14-.06-.14-.06,0-.76a3.73,3.73,0,0,0,.23-1.09.71.71,0,0,1,.16-.34c.1-.14.15-.25.13-.29a.71.71,0,0,1,.09-.35c.12-.26.13-.28.29-.26s.24,0,.21.27,0,.34.06.37.09,0,.17-.29.13-.33.3-.42.23-.24.08-.29-.07-.06,0-.12a.39.39,0,0,0,0-.25.86.86,0,0,0-.24.17.27.27,0,0,0-.12.2.28.28,0,0,1-.49.17c0-.06,0-.09.09-.21s.15-.17.16-.46a2,2,0,0,1,.16-.73c.15-.38.16-.42.07-.52s-.08-.25.1-.35a.22.22,0,0,0,.14-.23.49.49,0,0,1,.23-.4c.13-.1.22,0,.18.27a.64.64,0,0,0,.09.37.45.45,0,0,1,.1.24s0,.08.08.1.62-1.41.52-1.55,0-.09,0-.17.11-.13.09-.21a.3.3,0,0,1,.06-.22,1,1,0,0,0,.19-.57c0-.06,0-.11.07-.16s.1-.14.14-.39a2.68,2.68,0,0,1,.12-.52c.05-.14.05-.2,0-.22s-.09-.08-.11-.14a.44.44,0,0,0-.07-.12s-.39.41-.37.46,0,.07-.06.11-.23-.06-.14-.19,0-.12,0-.19-.08-.11,0-.26a2.58,2.58,0,0,0,.22-.49l.26-.64a.93.93,0,0,0,.12-.54.83.83,0,0,1,.35-.77c.14,0,.14,0,0-.18a.31.31,0,0,1,0-.24.6.6,0,0,0,0-.23c0-.18.23-.47.3-.32s.06.09.1.06,0-.15-.07-.18-.06-.06,0-.12.08-.09.11-.07a.2.2,0,0,0,.15,0,.18.18,0,0,1,.16,0s.1,0,.17-.07c.2-.26.3,0,.18.4s0,.64.15.45A.34.34,0,0,0,71,119a.85.85,0,0,1,.21-.64c.09-.06.09-.06.17.09s.11.17.2.18.13,0,.29-.49.17-.71,0-.65a.25.25,0,0,1-.17,0s-.08,0-.11.06-.22.2-.24.1.17-.43.27-.4a.22.22,0,0,0,.16,0,.14.14,0,0,1,.16,0c.09,0,.12,0,.17,0s.07-.33,0-.35-.1-.18-.07-.32.06,0,.12,0,.21-.06.26-.27l.17-.82a7.37,7.37,0,0,0,.13-1.09c0-.36,0-.44.11-.57s.15-.28,0-.36a.16.16,0,0,1-.07-.21c0-.15,0-.59-.08-.6s-.06.09-.07.2c0,.28-.11.44-.23.44s-.09,0-.06-.13a.45.45,0,0,0,0-.21.16.16,0,0,1,0-.16.23.23,0,0,0,0-.23c-.08-.18.15-.49.36-.48s.31-.18.17-.38-.13-.14-.16-.12-.06,0,0-.12.1-.35,0-.38,0-.11,0-.1.11,0,.15-.08.19-.14.25.09a.37.37,0,0,0,.17.26c.15.06.14.25,0,.56s-.1.18.1.36.2.18.1.33-.07.49.07.5.3-.11.35-.85,0-1,.21-.7.09.19.16.06,0-.54-.18-.52-.21-.16-.21-.67,0-.7.13-.67.12,0,.08-.17-.07-.19-.14-.17a1.08,1.08,0,0,0,.11-.6.83.83,0,0,0-.24-.27c-.21-.16-.34-.55-.48-1.39a2.77,2.77,0,0,0-.29-1.19,5.22,5.22,0,0,0-.59-1.13.64.64,0,0,1-.11-.27c0-.19-.08-.24-.2-.3a.72.72,0,0,1-.24-.22.37.37,0,0,0-.2-.18c-.12,0-.25-.26-.24-.43a3.94,3.94,0,0,0-.77-1.38c-.14-.17-.21-.22-.34-.21s-.15,0-.15-.09a.24.24,0,0,0,0-.16c.18-.17-.47-1.1-.71-1.08a.09.09,0,0,1-.09-.08,2.75,2.75,0,0,0-.46-.54c-.46-.44-.46-.44-.66-.37s-.35,0-.19-.13.09-.13,0-.23c-1.06-1.07-1.08-1-1-1.14a.08.08,0,0,0,0-.11c-.13.14-.3.14-.38,0a3.08,3.08,0,0,0-.31-.3,4.35,4.35,0,0,1-.44-.41.65.65,0,0,0-.32-.24c-.11,0-.13,0-.11-.13s-.07-.22-.18-.16-.72-.43-.67-.56,0-.12-.17-.2a2.42,2.42,0,0,1-.39-.21c-.14-.09-.19-.1-.26,0s-.8-.35-.86-.61a.34.34,0,0,0-.12-.13.33.33,0,0,1-.13-.14s-.08-.13-.16-.19C62,94,61.9,94,61.81,94s-.3-.08-1.67-.84a11.42,11.42,0,0,0-1.24-.65s-.09-.06-.12-.14-.13-.17-.48-.35a2.72,2.72,0,0,1-.6-.38,1.61,1.61,0,0,0-.63-.35,8.13,8.13,0,0,1-.85-.38,3.81,3.81,0,0,0-1.35-.46,1.12,1.12,0,0,1-.32,0,3.85,3.85,0,0,0-1-.09,1.75,1.75,0,0,1-.76,0c-.07,0-.09,0-.18.18a.85.85,0,0,1-.21.33.3.3,0,0,0-.14.25c0,.13,0,.16-.17.21a1.42,1.42,0,0,0-.57,1c0,.19,0,.25-.11.32a.34.34,0,0,0-.09.17c3.31,1.85,19.28,11,18.68,14.93-.51,3.35-3.69,17.69-5.09,25.47.07-.11.18-.14.22.05a.19.19,0,0,0,.1.15c.09,0,.12.13.07.33s0,.21.18.18.18,0,.23-.38a1.41,1.41,0,0,0,0-.44.41.41,0,0,1,.15-.41.2.2,0,0,1,.26.27,3.78,3.78,0,0,0-.17.61,2.08,2.08,0,0,0,0,.93c0,.18,0,.19-.09.26a.23.23,0,0,0-.14.24c0,.19-.15.32-.27.25s-.08-.1,0-.24a.3.3,0,0,0-.07-.33c-.12-.13-.13-.26,0-.32a.09.09,0,0,0,0-.17,1.71,1.71,0,0,1-.51.55,1.08,1.08,0,0,0-.21.91,2.47,2.47,0,0,1-.23,1.18l0,.06a6.6,6.6,0,0,0-.07,1.13s.21.2.54.47c0-.1.1-.13.15,0a.17.17,0,0,1,0,.17c.21.18.46.37.74.58a.15.15,0,0,1,.2-.06c.06,0,.07.08,0,.19a1.84,1.84,0,0,0,.38.31.48.48,0,0,1,.09-.33C66.48,139.16,66.39,138.65,66.28,138.63Zm7-27.76s-.08,0-.08-.08a.08.08,0,1,1,.16,0S73.35,110.87,73.3,110.87Zm-.3-1a1.93,1.93,0,0,0,0-.42c0-.32,0-.33.07-.27a.39.39,0,0,1,.12.24c0,.23.11.33.27.32s.3.31.19.65-.08.25,0,.3a.14.14,0,0,1,0,.24c-.09.06-.23-.09-.19-.21s-.14-.33-.24-.28-.11,0-.16,0S73,110.13,73,109.89Zm-1,5.22c0-.25.06-.33.11-.3s0,.14,0,.29,0,.27.09.34.12.09.05.14-.35,0-.33-.06Zm-.35,1.53c0-.19,0-.21.11-.17s.1.09.08.21-.14.28-.19.2A.89.89,0,0,1,71.66,116.64Zm-.4,1.41c.11,0,0,.12,0,.1A.19.19,0,0,1,71.26,118.05Zm-.46-15.87s0,.08,0,.11-.23,0-.22-.12S70.74,102.1,70.8,102.18Zm-.6.09c.14,0,.34.34.27.44s-.12.08-.14,0,0-.12-.13-.12a.21.21,0,0,1-.15-.06C70,102.39,70.08,102.26,70.2,102.27Zm-6-6.35c-.06,0-.06-.07,0-.11s.15,0,.12.1S64.28,96,64.23,95.92Zm3.11,3.42c-.06-.11,0-.15,0-.15S67.38,99.33,67.34,99.34Zm1.33,1.27c0,.07-.08,0-.21-.09s-.23-.26-.16-.33.08-.06.13.08.06.11.14.08S68.76,100.48,68.67,100.61Zm.79.15c-.06,0-.11.11-.1.15s-.09.17-.27.11c-.33-.09-.29-.23.09-.35S69.65,100.64,69.46,100.76Zm-.24,17.93c.14-.09.21.16.09.36s-.12.25-.16.34-.09.18-.16.17S69.09,118.79,69.22,118.69ZM68.76,120c.11-.18.17-.12.12.12s-.15.34-.23.25S68.63,120.16,68.76,120Zm-.18.57c.08,0,.13.16.07.33s-.21.29-.25.24S68.49,120.6,68.58,120.53Zm-1.77,5.57c.11,0,.11.09,0,.25C66.65,126.12,66.69,126.06,66.81,126.1Zm-.12,1a.52.52,0,0,0,.13.15c.18.13,0,.18-.16,0a.24.24,0,0,1-.12-.19C66.56,127,66.65,127,66.69,127.07Zm-.84,1.66c.07-.57.23-1,.37-1a.29.29,0,0,0,.17-.17c.07-.21.17-.09.14.16s-.07.32-.11.45a1,1,0,0,0,0,.42c0,.15,0,.2-.12.39s-.31.49-.25.51,0,.14-.07.12-.07-.07,0-.13a.17.17,0,0,0,0-.16.18.18,0,0,1,0-.15.19.19,0,0,0,0-.15A.49.49,0,0,1,65.85,128.73Zm-.44,2.89-.14.2c-.12-.12,0-.57.08-.58s.19.15.18.2ZM65,137.75c-.12.12-.12.12-.13,0a1.73,1.73,0,0,0,0-.2c0-.14.06-.2.19-.11S65.14,137.61,65,137.75Zm.1-.74c-.08,0-.11,0-.1.06s-.16.24-.27.22-.07-.1-.08-.22a1,1,0,0,1,.19-.7A.56.56,0,0,0,65,136c0-.26.28-.15.38.13S65.33,137,65.09,137Z"/><path class="cls-6" d="M67.41,139.21a.31.31,0,0,0,.06-.18,8,8,0,0,0,.07-.95c0-.26,0-.35.3-.52a.83.83,0,0,0,.19-.26c.09-.18.09-.2,0-.34s-.2-.48-.11-.55,0-.1,0-.18-.09-.16-.18.09-.13.32-.3.26-.39.11-.37.9a1.14,1.14,0,0,1-.05.45,1,1,0,0,0,0,.63c0,.07,0,.12-.08.24a.5.5,0,0,0,0,.57c0,.07,0,.12-.07.24a.89.89,0,0,0-.08.17,6,6,0,0,0,.55.31A2.85,2.85,0,0,1,67.41,139.21ZM67.13,138c0-.3.24-.28.23,0s-.09.25-.19.19A.27.27,0,0,1,67.13,138Z"/><path class="cls-6" d="M68.06,132.83c-.06.39,0,.46,0,.39a1,1,0,0,0,.07-.66S68.1,132.6,68.06,132.83Z"/><path class="cls-6" d="M70.72,121.17a.18.18,0,0,0-.1.09C70.83,121.24,70.83,121.15,70.72,121.17Z"/><path class="cls-6" d="M70.93,120.39a.3.3,0,0,1,0,.23c-.06.13,0,.18.12.06a1.79,1.79,0,0,0,.21-.58h-.18C70.91,120.11,70.86,120.2,70.93,120.39Z"/><path class="cls-6" d="M71.25,119.28a.32.32,0,0,0,0,.26.18.18,0,0,1,0,.19c-.07.12,0,.2.07.09a.85.85,0,0,0,0-.61C71.3,119.12,71.29,119.13,71.25,119.28Z"/><path class="cls-6" d="M70.6,119.66c-.08,0-.12.24,0,.26a.1.1,0,0,0,.1,0C70.71,119.77,70.68,119.64,70.6,119.66Z"/><path class="cls-6" d="M70.31,122.38c0,.11.07.09.16-.09s0-.17,0-.2S70.26,122.23,70.31,122.38Z"/><path class="cls-6" d="M69.68,124.4c0,.13,0,.2.09.14s.06-.24,0-.26S69.71,124.32,69.68,124.4Z"/><path class="cls-6" d="M69.78,120.71a1.52,1.52,0,0,0-.17.43c-.07.29-.07.29.16.38s.33,0,.3-.18a.25.25,0,0,1,.06-.22c.11-.08.1-.2,0-.37S69.9,120.56,69.78,120.71Z"/><path class="cls-6" d="M72.64,117.23a.37.37,0,0,1-.16.17.45.45,0,0,0-.18.15c-.07.15-.1.21-.07.22l.1.06c.12-.12.24-.14.29-.06s.13.1.2-.16a.74.74,0,0,1,.18-.34c.12-.09.19-.29.1-.32S72.66,117.12,72.64,117.23Z"/><path class="cls-6" d="M71.73,121.46c-.08,0-.1.08,0,.14S71.82,121.44,71.73,121.46Z"/><path class="cls-6" d="M73.57,113.92c-.14.2-.15.24-.11.38s.05.27-.11.15-.15-.14-.14-.18-.13.09-.15.24a.77.77,0,0,1-.11.31.52.52,0,0,0-.11.19c-.1.28-.1.32,0,.39s.07.09,0,.21-.08.15,0,.23a.19.19,0,0,1,0,.21c0,.06,0,.13,0,.14s.05.07-.06.1-.21,0-.22.55c0,.22.09.2.15,0s.26-.4.43-.36.62-1.62.55-2.53C73.72,113.7,73.72,113.7,73.57,113.92Z"/><path class="cls-6" d="M72.51,118.09c-.15-.07-.2-.07-.27,0s-.12.15-.07.24,0,.09,0,.14-.16.28,0,.3.12,0,.16-.13a.62.62,0,0,1,.29-.25C72.79,118.24,72.79,118.22,72.51,118.09Z"/><path class="cls-6" d="M73.36,113.84c-.07-.07-.08-.06-.11.11s0,.2,0,.19S73.45,113.93,73.36,113.84Z"/><path class="cls-6" d="M72.47,118.74c-.2.13-.23.82,0,.78s.19-.34.11-.36,0-.08,0-.16S72.62,118.65,72.47,118.74Z"/><path class="cls-6" d="M68.29,128a5.55,5.55,0,0,0-.33,1.34c0,.31,0,.39.18.3s.17-.4.11-.58a.82.82,0,0,1,.1-.71A.21.21,0,0,0,68.29,128Z"/><path class="cls-6" d="M69.25,122c0,.1,0,.16.11.09s.08-.1,0-.13A.09.09,0,0,0,69.25,122Z"/><path class="cls-6" d="M69.77,122.07c0-.07,0-.11,0-.11a.13.13,0,0,0-.09.1s0,.1,0,.11S69.75,122.13,69.77,122.07Z"/><path class="cls-6" d="M70.16,120.33c.18.08.21.08.23,0s-.31-.29-.45-.27S69.89,120.21,70.16,120.33Z"/><path class="cls-6" d="M68.72,130c-.06,0-.1.1,0,.15A.08.08,0,0,0,68.72,130Z"/><path class="cls-6" d="M66.58,135.06c-.06,0-.07.06-.07.29s.08.23.13,0S66.66,135,66.58,135.06Z"/><path class="cls-6" d="M67.83,130.89c.09,0,.09-.27,0-.41s-.08-.12-.13.06a.49.49,0,0,1-.13.22.21.21,0,0,0-.07.15v.23c0,.2.07.17.18,0S67.8,130.88,67.83,130.89Z"/><path class="cls-6" d="M67.65,135.08c0,.06,0,.06.12,0s.09,0,.14.06.15.05.14-.16a1.31,1.31,0,0,0-.27-.58A1.41,1.41,0,0,0,67.65,135.08Z"/><path class="cls-6" d="M69.13,125.34c.06,0,.06-.16,0-.18A.09.09,0,0,0,69.13,125.34Z"/><path class="cls-6" d="M69.58,122.46a.11.11,0,0,0,.08-.07C69.6,122.29,69.57,122.33,69.58,122.46Z"/><path class="cls-6" d="M69.67,127.69a.12.12,0,0,1-.06-.17c0-.12,0-.21-.08-.18s-.06.12-.13.59c0,.19,0,.19.16,0S69.79,127.77,69.67,127.69Z"/><path class="cls-6" d="M69.3,128.27c.08.07.1-.07,0-.08A.15.15,0,0,0,69.3,128.27Z"/><path class="cls-6" d="M69.16,128.93,69,129l0,.2c0,.42.28.33.3-.11C69.33,128.84,69.33,128.84,69.16,128.93Z"/><path class="cls-7" d="M68.5,32.68a19,19,0,0,0,1,3.26A6.25,6.25,0,0,1,70,39.6c-.34,1.5-1.61,2.59-2.34,3.94A25.85,25.85,0,0,1,66.46,46c-.38.56-.89,1-1.32,1.53a6.32,6.32,0,0,0-1.38,3.15,4.56,4.56,0,0,0,.89,3.55c1.11,1.29,3,1.6,4.71,1.51a14.64,14.64,0,0,0,4.62-1,4.83,4.83,0,0,1,3-.59c.83.24,1.43,1,2.24,1.27a4.8,4.8,0,0,0,3.07-.25,14.93,14.93,0,0,0,3.41-1.4A5.09,5.09,0,0,0,88,51c.29-1,.16-2.18.68-3.11.72-1.26,2.35-1.63,3.36-2.66,1.47-1.47,1.25-4.07,0-5.69a8.47,8.47,0,0,0-5.44-2.73c-1.63-.25-3.6-.45-4.29-1.94-.22-.48-.26-1-.46-1.52a3.79,3.79,0,0,0-3.23-1.92,30.32,30.32,0,0,1-3.94-.26c-1.1-.25-2.08-.85-3.17-1.11s-1.88-.13-2.83-.27A6.4,6.4,0,0,0,63,31.68C59.88,35,67,33.05,68.5,32.68Z"/><path class="cls-3" d="M71.12,31.2c.29.3,4.21,3.9,1.09,10.73s-8.56,6.79-10.39,4.9-2.71-3.54-1-9.86S67.84,27.66,71.12,31.2Z"/><path class="cls-7" d="M44,144.28a5.46,5.46,0,0,0,.28-1.38,1.7,1.7,0,0,1,.21-.93,1.87,1.87,0,0,1,1-.51,3.73,3.73,0,0,0,2.21-4.88,6.39,6.39,0,0,1-2.27,2.09,2.21,2.21,0,0,1-2.78-.61,2.17,2.17,0,0,1,.32-2.41,5.52,5.52,0,0,1,2.13-1.41,3.85,3.85,0,0,0-3.71,2,2.6,2.6,0,0,1-.75,1.1,1.82,1.82,0,0,1-1,.2h-.17c-.33-2.84-1.35-5.81-3.09-7.5-2.52-2.44-7.5-2.13-10.66-1.49a.29.29,0,0,0,0,.55c3.13.87,8.1-.43,10,2.74a13.45,13.45,0,0,1,1.52,5.61,37.52,37.52,0,0,0-7.18-.1c-.47-.57-1-1.13-1.45-1.7-1.16-1.33-2.34-3-4.11-3.49-3.41-1-7.42,1.91-9.84,4a.45.45,0,0,0,.51.73c3.39-1.72,7.28-4.43,10.76-1.23a16.31,16.31,0,0,1,1.91,2.16A10.59,10.59,0,0,0,22.4,142c-4.13-2.29-10.38-1-13.71,1.92a.37.37,0,0,0,.14.63c2.34.46,4.11-1.08,6.4-1.52a9.36,9.36,0,0,1,6.13,1,9.6,9.6,0,0,0-.4,1.6c-3.28-.55-6.94.07-8.92,2.94-.29.43.27.8.64.54a14.09,14.09,0,0,1,8.2-2.56,6.8,6.8,0,0,0,.07,1.42c.68,4.3,4.56,4.93,8.52,4.38A10.51,10.51,0,0,1,31.52,155a13.53,13.53,0,0,1,1,5.87.48.48,0,0,0,.92.17c1-2.59.09-6.69-2-9.11.91-.21,1.8-.45,2.62-.7,1.41,1,3.09,1.62,4.46,2.59a9.51,9.51,0,0,1,4.37,7.5c0,.66,1,1,1.24.22.84-2.7-.61-5.49-2.5-7.39a20.77,20.77,0,0,0-5.26-3.72l.21-.08a23.35,23.35,0,0,0,3.26-1.49,29.36,29.36,0,0,1,6.82,1.3c3.91,1.38,5.3,4.11,6.07,7.95a.46.46,0,0,0,.87,0c1.74-6.44-5.41-10.37-11.58-10.83a9.55,9.55,0,0,0,1-1.11c2.29-.24,4.55-.85,6.86-1s4.4.11,6,2c.87,1,1.31,2.25,2.22,3.26.24.28.84.13.8-.29C58.23,142.91,50,142.86,44,144.28Z"/><path class="cls-3" d="M74,41.74a1.49,1.49,0,0,1-.3,1.41,3.65,3.65,0,0,1-1.22.86,4.49,4.49,0,0,1-1.55.47,1.08,1.08,0,0,1-1-.34c-.48-.68.61-2.33,1.19-2.79C71.92,40.74,73.57,40.67,74,41.74Z"/><path class="cls-3" d="M69.58,44.25c1.48-2.68-6,.72-6.23,1.66,0,0-.39,2.63-2.29,3.69A5.79,5.79,0,0,0,65.74,52a5.58,5.58,0,0,0,2.7-.76,1.82,1.82,0,0,1-1-2.3A40,40,0,0,1,69.58,44.25Z"/><path class="cls-8" d="M62.26,41.85c-.08.26-.15.53-.23.8a2.44,2.44,0,0,0-.15,1,.89.89,0,0,0,.61.78c.53.12,1-.43,1.17-.94a2.32,2.32,0,0,0,.2-1.07,1,1,0,0,0-.59-.86.83.83,0,0,0-1.05.52Z"/><path class="cls-7" d="M65.84,33.51c1-.37,2.08-.94,3-.44a2,2,0,0,1,.8.84c.93,1.64.37,3.83,1.28,5.49A3.2,3.2,0,0,0,73.27,41a2.74,2.74,0,0,0,2.57-1.13,4.32,4.32,0,0,0,.5-2.75,6.81,6.81,0,0,0-.6-2.56,8.31,8.31,0,0,0-2.5-2.75,12.81,12.81,0,0,0-3.57-2.16,5.14,5.14,0,0,0-4.07.16,7.82,7.82,0,0,0-1.76,1.44c-.72.72-2.49,1.77-.91,2.37A4.23,4.23,0,0,0,65.84,33.51Z"/><path class="cls-3" d="M72.26,29.69a4.43,4.43,0,0,0-2-.82l-1.2-.28A2.7,2.7,0,0,0,68,28.5a.91.91,0,0,0-.77.68c-.06.37.3.76.65.65l-.34.32,2.24,1.32a4.39,4.39,0,0,0,1.44.63,1.47,1.47,0,0,0,1.42-.46A1.51,1.51,0,0,0,72.26,29.69Z"/><path class="cls-9" d="M55.45,30.75c2.21-1,13.11.57,13.11.57A7.4,7.4,0,0,0,69.05,28c-3-1.47-18.64-5.46-19.94-.83C48,31.07,50,51.23,50.59,57.05c-2.94,7.26-6.81,21.54.23,36,0,0,15.33-2.92,24.12-9,0,0-8.52-13.77-4.2-22.74,1.94-4-.16-9.17-.16-9.17l-2.14-.92a5.58,5.58,0,0,1-2.7.76,5.79,5.79,0,0,1-4.68-2.41C57.47,43.54,53.25,31.78,55.45,30.75Z"/><path class="cls-3" d="M62.12,35.56a2.65,2.65,0,0,0-1.09-.1l-1.23,0a4.32,4.32,0,0,0-2.11.45,1.33,1.33,0,0,0,.61,2.56,4.56,4.56,0,0,0,1.53-.36l2.45-.89L62,36.89a.56.56,0,0,0,.76-.52A.92.92,0,0,0,62.12,35.56Z"/><path class="cls-10" d="M69.88,63.57S88.16,44.19,87.73,39.41s-24-5.14-27.13-4.23A8.88,8.88,0,0,0,60.31,39s16.83.81,18.82,2.22-8,8.83-10.69,10S67.52,63.68,69.88,63.57Z"/><path class="cls-11" d="M49.36,77.23s0,.08,0,.17.08.21.14.11S49.42,77.23,49.36,77.23Z"/><path class="cls-11" d="M50.66,81.66c.11,0,.05-.12,0-.12A.41.41,0,0,0,50.66,81.66Z"/><path class="cls-11" d="M50.55,84.78c-.14-.08-.14-.08-.09.14a.69.69,0,0,1,0,.31.26.26,0,0,0,0,.19,1.78,1.78,0,0,1,.12.24c.1.22.15.15.12-.16,0-.15,0-.28,0-.29S50.7,84.87,50.55,84.78Z"/><path class="cls-11" d="M49.87,82.28c0-.18-.08-.37-.22-.35a6.36,6.36,0,0,0,.41,1.6c.13.34.21.39.31.21a.9.9,0,0,0-.22-.67A1.09,1.09,0,0,1,49.87,82.28Z"/><path class="cls-11" d="M51.05,83.79c-.06,0,0,.16,0,.18A.1.1,0,0,0,51.05,83.79Z"/><path class="cls-11" d="M49.65,72.19l-.17,0c-.17.05-.2.16-.1.35a.37.37,0,0,1,0,.25c0,.17.06.2.13,0A2.36,2.36,0,0,0,49.65,72.19Z"/><path class="cls-11" d="M50.74,81.21c.11-.3.11-.33,0-.34a.15.15,0,0,1-.13-.15c0-.14-.1-.21-.16-.14s0,.15.18.67C50.66,81.46,50.66,81.46,50.74,81.21Z"/><path class="cls-11" d="M52.32,87.51a1.39,1.39,0,0,0-.31-.74c-.06,0,0,.09.06.35C52.24,87.57,52.29,87.65,52.32,87.51Z"/><path class="cls-11" d="M52.18,90.4s0,.11.12.36.21.2.12-.06S52.23,90.34,52.18,90.4Z"/><path class="cls-11" d="M52.79,89a1.94,1.94,0,0,0,.29.81c.05,0,.07,0,.1-.05s0-.1.15,0,.16,0,0-.26S52.86,89,52.79,89Z"/><path class="cls-11" d="M51.9,65.33c-.16.19-.18.24-.15.39s0,.28-.14.15a.31.31,0,0,1-.12-.21c-.07-.06-.14.08-.18.24a.88.88,0,0,1-.14.33.49.49,0,0,0-.13.2c-.13.3-.13.34,0,.42s.06.1,0,.23-.1.16,0,.25a.26.26,0,0,1,0,.23c0,.07,0,.13,0,.15s0,.08-.06.1-.21,0-.24.61c0,.24.09.21.15,0s.27-.44.44-.4a6.8,6.8,0,0,0,.78-2.62C52.09,65.12,52.09,65.12,51.9,65.33Z"/><path class="cls-11" d="M50.86,82.42l-.1.18.12.2c.25.41.42.19.21-.28C51,82.24,51,82.24,50.86,82.42Z"/><path class="cls-11" d="M50.74,68.85a.29.29,0,0,1-.15.18.51.51,0,0,0-.17.19c-.07.17-.09.24-.07.25l.11,0c.12-.14.23-.18.29-.09s.14.09.2-.19a.71.71,0,0,1,.16-.37c.12-.11.19-.33.09-.35A.65.65,0,0,0,50.74,68.85Z"/><path class="cls-11" d="M49.11,78.47c-.13.09,0,.22.06.18S49.17,78.46,49.11,78.47Z"/><path class="cls-11" d="M50.37,73.7c.13-.15.09-.21,0-.16S50.3,73.65,50.37,73.7Z"/><path class="cls-11" d="M50.28,70.56c.06,0,.12-.06.14-.16a.75.75,0,0,1,.27-.31c.25-.17.25-.19,0-.3s-.21-.06-.27,0-.12.18-.05.27,0,.09,0,.16S50.17,70.56,50.28,70.56Z"/><path class="cls-11" d="M49.59,71.78c0,.15,0,.23.09.09a1.08,1.08,0,0,0-.08-.68c-.06-.09-.08-.08-.1.1a.37.37,0,0,0,0,.28A.2.2,0,0,1,49.59,71.78Z"/><path class="cls-11" d="M50.67,70.5c-.19.17-.14.91,0,.83s.15-.38.07-.4,0-.07,0-.17S50.81,70.38,50.67,70.5Z"/><path class="cls-11" d="M48.57,75.32a.16.16,0,0,0,.06-.12C48.54,75.12,48.52,75.17,48.57,75.32Z"/><path class="cls-11" d="M48.13,75c0,.12.09.16.13,0s.05-.13,0-.13S48.13,74.92,48.13,75Z"/><path class="cls-11" d="M49.32,73.51a.16.16,0,0,0-.06.12C49.45,73.55,49.43,73.45,49.32,73.51Z"/><path class="cls-11" d="M48.74,73.64c.09-.14,0-.27-.13-.41s-.23-.16-.31,0a2,2,0,0,0,0,.54c0,.37,0,.37.24.39s.34,0,.25-.3A.38.38,0,0,1,48.74,73.64Z"/><path class="cls-11" d="M48.93,71.85c-.08,0-.08.31,0,.32a.12.12,0,0,0,.09-.08C49.05,72,49,71.82,48.93,71.85Z"/><path class="cls-11" d="M48.34,72.48c-.15.07,0,.19.26.25s.22,0,.24-.06S48.48,72.43,48.34,72.48Z"/><path class="cls-11" d="M48.58,74.7a.18.18,0,0,0-.06.14c0,.06,0,.11,0,.11s.06-.06.06-.14S48.62,74.68,48.58,74.7Z"/><path class="cls-11" d="M51.71,65.22c-.06-.08-.07-.07-.12.11s0,.2,0,.2S51.78,65.33,51.71,65.22Z"/><path class="cls-11" d="M54.52,91.7c-.2-.1-.46-.43-.44-.57s0-.12-.12-.19-.18-.12-.1.21.1.45-.08.48-.26.23,0,.76l1-.25v-.07C54.73,91.81,54.73,91.79,54.52,91.7Z"/><path class="cls-11" d="M49.3,74.6c-.11,0-.15.22-.07.37s.1.07.14-.16S49.37,74.62,49.3,74.6Z"/><path class="cls-11" d="M53.12,92.13c0,.21-.3.48-.43.44a4.91,4.91,0,0,1-1.19-2.42.69.69,0,0,0-.18-.43.84.84,0,0,1-.19-.49c-.1-.47-.09-.49.17-.51s.22,0,.24-.09a.53.53,0,0,1,0-.2c0-.16-.11-.4-.19-.37s0,.11,0,.23.06.23-.25.31-.36,0-.5-.53-.35-.94-.47-.74-.15.1-.27-.08a.27.27,0,0,0-.21-.06c-.16,0-.16,0-.42-.83a4.74,4.74,0,0,0-.41-1.3,1,1,0,0,1-.06-.45c0-.21,0-.35,0-.39a1,1,0,0,1-.1-.42c0-.35,0-.38.11-.45s.23-.07.32.17.16.38.25.36.06-.1,0-.4-.07-.43,0-.61.07-.39-.08-.36-.09,0-.08-.11a.74.74,0,0,0-.09-.29,1.58,1.58,0,0,0-.13.31.36.36,0,0,0,0,.29c.13.28-.06.55-.33.44-.07,0-.08-.07,0-.27s0-.26-.1-.58a3.16,3.16,0,0,1-.21-.88c-.06-.49-.07-.53-.2-.6s-.19-.23-.07-.44a.3.3,0,0,0,0-.33.67.67,0,0,1,0-.55c.07-.17.21-.06.29.21a.66.66,0,0,0,.24.36.64.64,0,0,1,.19.21s0,.07.12.06a4.7,4.7,0,0,0-.21-1.93c-.07,0-.07-.07,0-.21a.26.26,0,0,0,0-.27.41.41,0,0,1,0-.27,1.42,1.42,0,0,0,0-.7.17.17,0,0,1,0-.21c.06-.08.06-.19,0-.49a4,4,0,0,1-.06-.62c0-.18,0-.24-.07-.24a.2.2,0,0,1-.15-.11.44.44,0,0,0-.11-.12,1.64,1.64,0,0,0-.2.66s0,.09,0,.15-.24,0-.19-.16a.16.16,0,0,0-.09-.2c-.1-.06-.11-.09-.07-.31s.05-.42.07-.64.07-.59.1-.83a1.57,1.57,0,0,0,0-.67,1.11,1.11,0,0,1,.21-1c.13-.09.13-.09,0-.22a.44.44,0,0,1-.09-.28,1.41,1.41,0,0,0,0-.28c-.07-.21.16-.61.25-.44s.07.09.1,0a.12.12,0,0,0-.08-.2s-.07,0,0-.14.07-.11.11-.09a.26.26,0,0,0,.15,0,.18.18,0,0,1,.16,0s.1,0,.16-.11c.18-.33.31-.08.22.42s.08.73.2.48A.42.42,0,0,0,49.2,71a1.24,1.24,0,0,1,.15-.77c.08-.08.09-.07.18.09s.13.17.22.17.13,0,.24-.59.14-.82,0-.73a.19.19,0,0,1-.16,0s-.09,0-.12.09-.22.24-.24.13.17-.51.27-.49a.14.14,0,0,0,.15,0s.1,0,.17,0,.12,0,.17-.07.06-.37,0-.39-.1-.19-.07-.35.07,0,.13,0,.21-.07.26-.31.11-.5.22-.9.21-.94.25-1.19.09-.49.2-.61.19-.28.08-.39a.18.18,0,0,1,0-.24c.08-.15.12-.64.05-.66s-.07.08-.11.2c-.1.31-.21.46-.32.45s-.09,0,0-.16a.55.55,0,0,0,0-.23.23.23,0,0,1,.07-.18.28.28,0,0,0,.07-.24c0-.22.28-.51.48-.45s.35-.12.27-.36-.08-.18-.11-.17,0-.05.06-.12.21-.33.1-.4,0-.13.06-.1S52,62,52,62s.23-.08.21.17a.39.39,0,0,0,.09.32c.12.1.05.28-.21.56s-.14.16,0,.39.15.23,0,.36-.17.5,0,.54.31-.06.53-.8.33-1,.39-.63,0,.21.13.1.14-.52,0-.54-.14-.22,0-.72.25-.65.36-.57.1.05.14-.13,0-.2-.06-.2a1.09,1.09,0,0,0,.34-.5.75.75,0,0,0-.09-.35c-.12-.24,0-.64.29-1.45A7.69,7.69,0,0,0,54.82,56a.73.73,0,0,1,.1-.3c.1-.19.1-.24,0-.38A.86.86,0,0,1,55,55a.41.41,0,0,0,0-.28c-.07-.1,0-.4.14-.53a5.58,5.58,0,0,0,.47-1.72c0-.26,0-.35-.08-.44s-.1-.14,0-.2a.38.38,0,0,0,.09-.18c.26,0,.48-1.29.33-1.49a.1.1,0,0,1,0-.14,3.29,3.29,0,0,0,.08-.86c0-.79,0-.79-.17-.91s-.24-.3,0-.29.15,0,.16-.18c0-1.89,0-1.88.1-1.9a.12.12,0,0,0,.07-.12.27.27,0,0,1-.3-.31,2.09,2.09,0,0,0,0-.54c0-.22,0-.55,0-.75a.81.81,0,0,0-.08-.48c-.07-.11-.07-.15,0-.22s.1-.25,0-.3a1.48,1.48,0,0,1-.13-1.07c.08-.05.08-.09,0-.32s-.12-.38-.16-.51-.08-.26-.18-.26-.37-1-.25-1.26a.57.57,0,0,0,0-.22.35.35,0,0,1,0-.23.73.73,0,0,0,0-.3c-.13-.82-.17-1-.23-1.05a10.33,10.33,0,0,1-.7-2.18c-.25-.87-.48-1.61-.51-1.64a.27.27,0,0,1,0-.22c0-.14,0-.27-.13-.71a4.25,4.25,0,0,1-.2-.86,2.56,2.56,0,0,0-.25-.84c-.12-.3-.3-.78-.39-1.08a5.55,5.55,0,0,0-.72-1.57,2,2,0,0,1-.22-.32,5.17,5.17,0,0,0-.74-1,2.39,2.39,0,0,1-.59-.68c0-.1,0-.1-.25,0a.72.72,0,0,1-.38.08.25.25,0,0,0-.28.08c-.05.06-.09.08-.13.07l0,.08C48,31.07,50,51.23,50.59,57.05c-2.89,7.13-6.67,21-.11,35.25v-.07a2.14,2.14,0,0,0-.38-1.16.71.71,0,0,1-.2-.24c-.33-.57-.33-.61-.23-.69s.15-.28,0-.48-.13-.72.1-.42c.05.06.13.11.17.09s.18.08.25.31.11.24.27.09.12-.14,0-.54a2.72,2.72,0,0,0-.24-.49.57.57,0,0,1-.13-.52c.1-.17.32-.08.37.14s.09.32.24.75a3.31,3.31,0,0,0,.55,1c.15.16.15.17.09.33a.31.31,0,0,0,0,.33c.11.21.07.44-.08.44s-.12-.07-.18-.24-.12-.25-.26-.3-.27-.22-.21-.35a.11.11,0,0,0-.12-.15,2.59,2.59,0,0,1-.09.88,1.74,1.74,0,0,0,.37,1.1,3,3,0,0,1,.4.86l.36-.08s0,0,0,0a1,1,0,0,0-.09-.44c-.19-.27.13-.33.39-.07a1.46,1.46,0,0,1,.29.44l1.29-.3a.56.56,0,0,0,0-.12C53.21,91.94,53.17,91.9,53.12,92.13Zm2.26-39.34c0,.05-.05.07-.1.05a.17.17,0,0,1-.06-.27C55.28,52.52,55.39,52.67,55.38,52.79ZM55.24,41.6c.11,0,.12.13,0,.19s-.07,0-.09-.08S55.18,41.59,55.24,41.6Zm0,5.71c0,.14-.09.14-.12.11S55.23,47.28,55.26,47.31ZM55,49.43c0-.36,0-.42.12-.42s.1,0,0,.19,0,.13,0,.18,0,.29-.12.32S55,49.67,55,49.43Zm.36.76c.26.18.33.38.12.32a.19.19,0,0,0-.18,0c-.08.13-.19.07-.27-.14C54.93,50,55.06,50,55.4,50.19Zm-.5,2.18c.09.12,0,.56-.15.59s-.14,0,0-.16.06-.14,0-.21a.22.22,0,0,1-.06-.17A.14.14,0,0,1,54.9,52.37Zm-2.45,8.69a2.57,2.57,0,0,0,.19-.41c.11-.33.12-.33.18-.23a.43.43,0,0,1,0,.28c-.07.23,0,.36.12.41s.15.41-.07.7-.15.22-.09.28a.15.15,0,0,1,0,.25c-.11,0-.19-.15-.12-.26s0-.36-.12-.35a.2.2,0,0,1-.14-.09A.56.56,0,0,1,52.45,61.06Zm0,.91a.09.09,0,0,1,.06.11.09.09,0,0,1-.11.06.09.09,0,0,1,.05-.17ZM50.2,66.51c0-.29.09-.37.13-.34s0,.16,0,.33,0,.31.07.38.1.1,0,.16-.35,0-.33-.07S50.15,66.72,50.2,66.51Zm-.45,1.74c0-.21,0-.24.13-.2s.09.1.07.24-.14.32-.19.24A.73.73,0,0,1,49.75,68.25Zm-.36,1.65c.11,0,.06.13,0,.12A.39.39,0,0,1,49.39,69.9ZM47.78,81.77a.54.54,0,0,0,.2.09c.21,0,.11.19-.12.15a.27.27,0,0,1-.2-.15C47.63,81.73,47.7,81.68,47.78,81.77Zm-.72-7.59a1.27,1.27,0,0,1,0-.74c.06-.09.16.15.15.36S47.12,74.22,47.06,74.18Zm.06-1c-.06-.05-.07-.2,0-.47s.15-.21.13.1S47.22,73.25,47.12,73.18Zm.41,7.74c-.24-.17-.24-.26-.11-.28S47.55,80.68,47.53,80.92Zm0-9.47a3.41,3.41,0,0,0-.1.46c0,.17-.06.23-.13.24s0-1,.09-1.11S47.63,71.18,47.55,71.45Zm.88,13.45s-.09,0-.11-.12-.06-.15-.1-.16a.34.34,0,0,1-.09-.16.22.22,0,0,0-.08-.16.6.6,0,0,1-.14-.26,2.41,2.41,0,0,1-.24-1.33.5.5,0,0,0,.07-.3c0-.26.11-.18.19.11,0,.13.11.38.15.55a1.59,1.59,0,0,0,.18.47c.11.15.12.2.11.49,0,.48,0,.71.05.69S48.48,84.89,48.43,84.9Zm.73,2.8c-.17-.06-.33-.61-.28-.67s.25,0,.27.12v.55Z"/><path class="cls-12" d="M40.36,137.45a1.08,1.08,0,0,0,.29-.13,2.6,2.6,0,0,0,.75-1.1,3.85,3.85,0,0,1,3.71-2A5.52,5.52,0,0,0,43,135.65a2.17,2.17,0,0,0-.32,2.41c-.85,0-.93,0-1,.15s-.2.06-.69-.13a.27.27,0,0,1-.17-.16c0-.06-.06-.11-.1-.11a.13.13,0,0,1-.1-.1A.37.37,0,0,0,40.36,137.45ZM23.94,151.76v.15a5.12,5.12,0,0,1-1.24-.73c.34-.07.39-.36,0-.6a1.07,1.07,0,0,0-.77-.15,5.16,5.16,0,0,1-.62-1.08,1.93,1.93,0,0,0,.39-.27c.18,0,.26.09.13.12s-.14.14.16.24.28.12.28.23.06.15.19.18c.28,0,.51-.06.43-.19s0-.13.17-.17.23-.06.05-.19a1.06,1.06,0,0,1-.41-.67,1.26,1.26,0,0,1,0-.43c0-.12-.36-.26-.62-.22s-.24.19-.09.3a.63.63,0,0,1,.15.32c.07.26.07.26-.25.28s-.45,0-.45-.14-.09-.23-.29-.25a.33.33,0,0,1-.16-.05c0-.17-.08-.34-.11-.52a4.17,4.17,0,0,1-.06-.71l.13-.13a.44.44,0,0,0-.14-.09,4,4,0,0,1,0-.49,14.11,14.11,0,0,0-8.2,2.56c0-.17,0-.35,0-.53,0-.34,0-.57,0-.75,2-2.17,5.18-2.67,8.1-2.23a.22.22,0,0,0,.13.08c.09,0,.15,0,.08-.08s0-.15,0-.22l.19-.16c.16-.13.17-.16,0-.3a.75.75,0,0,1-.09-.15c.06-.25.14-.5.22-.74a9.36,9.36,0,0,0-6.13-1,13.91,13.91,0,0,0-2.46.81c-.12-.14-.12-.2,0-.28s.1-.15.06-.19a3.34,3.34,0,0,1,.13-1.37c0-.18.06-.3.09-.44,3.1-1,6.68-1.05,9.37.44a9.11,9.11,0,0,1,.82-1.06.42.42,0,0,0,.21.08c.07,0,.1,0,.08-.06s.4-.21.49-.15a1.11,1.11,0,0,1,.16.16,1,1,0,0,0,.24.21c.11.06.13.11.08.19a.8.8,0,0,0,0,.37c0,.2,0,.25-.11.25s-.12,0-.06.09a.25.25,0,0,1-.13.37c-.06,0-.06.09,0,.15s.05.12-.08.13-.15,0,0,.11,0,1.13-.26,1-.2-.09-.2-.11-.12-.13-.28-.25a.8.8,0,0,1-.32-.35.45.45,0,0,0-.44-.33c-.24,0-.32.11-.26.25s0,.13-.16.14-.31.1,0,.26.22.15.12.42a.62.62,0,0,0,0,.56c.13.24.12.26-.08.33s-.19.08-.06.15c.44.21.93.21.82,0,0,0,0-.1.14-.12a1.55,1.55,0,0,1,.36,0c.07.07.09.15.06.18s0,.07.1.11c.3.08.29.17,0,.2s-.3.05-.33.24-.07.21-.19.18-.21-.09-.29-.31-.12-.19-.53-.27-.32,0-.42.14-.06.22,0,.26,0,.11-.11.21-.17.18-.12.24.11.26.09.83,0,.52.29.58a.87.87,0,0,1,.37.13.51.51,0,0,0,.47.15.41.41,0,0,1,.47.54c-.09.31,0,.35.6.43s.67.09.67,0a.1.1,0,0,1,.1-.11c.16,0,.24.17.12.24s-.07.06-.06.09a2.55,2.55,0,0,1-.52,0c-.5-.09-.53-.08-.64.17s-.05.22.07.29.13.14.05.26a1.17,1.17,0,0,0,.57,1.49,3.1,3.1,0,0,0,1.12-.11c.25-.1.3-.07.29.15s-.08.3-.38.51c-.14.11-.14.13.1.24s.33.2.23.34-.08.1-.41-.07a4.59,4.59,0,0,1-.47-.27.15.15,0,0,1-.13-.15c0-.15-.29-.36-.59-.33C24,151.25,24,151.49,23.94,151.76ZM17.48,146a.66.66,0,0,0-.42,0c-.15.08-.29.07-.28,0a.32.32,0,0,0-.15-.18c-.35-.26-.8.1-.46.37a2.26,2.26,0,0,0,1,.08,2.13,2.13,0,0,1,.37-.11C17.85,146.11,17.84,146.07,17.48,146Zm.92-.53c-.26-.12-.45,0-.26.16a.41.41,0,0,0,.22.07A.12.12,0,0,0,18.4,145.49ZM21,143.1c.14-.1.13-.14-.1-.22S20.65,142.84,21,143.1Zm.43.78a2.23,2.23,0,0,1-.32-.18c-.11-.1-.28-.13-.26,0s.12.13.31.21C21.58,144,21.83,144.05,21.45,143.88Zm26-6.1.52-.23a3.29,3.29,0,0,0-.24-1,11.15,11.15,0,0,1-1.26,1.4h.06A1.33,1.33,0,0,0,47.43,137.78Zm-9.84-.2c0,.09,0,.17,0,.16,0-.38.08-.59.16-.51a.5.5,0,0,0,.24.09.89.89,0,0,1,.34.13c.11.08.18.08.23,0s.08-.08.1.1.09.28.13.06.51-.13.51.15,0,.21.14.14a.72.72,0,0,1,.27-.07c.11,0,.14,0,.16-.23s0-.05.06-.08h-.34c0,.22-.1.2-.11,0h-.06c-.33-2.84-1.35-5.81-3.09-7.5-2.52-2.44-7.5-2.13-10.66-1.49a.29.29,0,0,0,0,.55c3.13.87,8.1-.43,10,2.74a13.06,13.06,0,0,1,1.5,5.45C37.58,137.37,37.59,137.42,37.59,137.58ZM25.4,140s-.36-.37-.63-.56l-.09.08.34.26C25.33,140,25.38,140,25.4,140Zm.38-1.23a10,10,0,0,1,1.84-.87,1.85,1.85,0,0,0,.36.34c.1.06.09,0-.05-.16s-.13-.19-.12-.29a.13.13,0,0,1,0-.08.23.23,0,0,0,0-.25c-.06-.08-.1-.06-.21.11a15.46,15.46,0,0,0-1.71-1.91c-3.48-3.2-7.37-.49-10.76,1.23a.45.45,0,0,1-.64-.32c.07-.15.14-.32.23-.49,2.43-2.1,6.37-4.93,9.74-3.94,1.77.52,3,2.16,4.11,3.49.34.39.67.79,1,1.18a.57.57,0,0,1,0,.14c.07.31-.08.23-.32-.14s-.6-.61-.58-.39,0,.13-.1.09-.1,0-.09,0a.11.11,0,0,1-.06.12c-.07,0-.06.06,0,.18s.28.22.41.13a.09.09,0,0,1,.13,0c.08.12,0,.43-.07.43s-.06.06,0,.21.12.29-.1.18-.17,0-.24.17a2.09,2.09,0,0,1-.31.52,4,4,0,0,0-.28.34q-.09.16-.36-.12c-.09-.09-.17-.15-.18-.13s0,.23.1.32.16.3.05.3-.13,0-.25-.16a.8.8,0,0,0-.25-.21.88.88,0,0,1-.23-.17c-.15-.14-.44-.13-.4,0a.42.42,0,0,0,.36.2.22.22,0,0,1,.17.08,1.43,1.43,0,0,0,.24.19c.25.16.25.27.05.52s-.19.22-.39.07a1.31,1.31,0,0,1-.33-.37c-.13-.2-.15-.22-.28-.27a.23.23,0,0,0-.26.32c0,.09,0,.13-.09.13a.38.38,0,0,1-.3-.54A.34.34,0,0,0,25.78,138.77Zm1.25-.35c.08.13.25.17.28.07s0-.14-.1-.25-.15-.15-.18,0A.33.33,0,0,0,27,138.42Zm-.56.57c.08.07.17,0,0-.07C26.45,138.94,26.47,139,26.47,139Zm3.56-1.3c-.16-.11-.16-.11,0,.29s.16.39,0,.29-.19.1,0,.33c.27.4.35.42.58.24s.34-.16.4.16.05.21.15.29.12-.14,0-.42-.15-.39,0-.45.27,0,.37.19.1.21.14.14,0-.11-.05-.24c.1.11.31.31.34.24a1.56,1.56,0,0,0-.05-.4c-.08-.36.05-.51.41-.49.13.31,1-.09,1-.27s.07,0,.13,0,.13.07.14-.09a.33.33,0,0,1,.09-.23.1.1,0,0,0,.05-.07,23.92,23.92,0,0,0-2.81.06.7.7,0,0,0,.1.38c.17.35.12.55-.1.4s-.17-.09-.11.06.05.24-.06.11-.19-.42-.11-.38,0-.29-.1-.46l0-.08h-.16s.06,0,.1.12.07.15,0,.17-.06,0-.11-.13-.06-.14,0-.16h-.13a1,1,0,0,0,.07.26C30.38,137.85,30.31,137.88,30,137.69Zm4.73-.41-.54,0A.86.86,0,0,0,34.76,137.28Zm1,.05-.47,0C35.41,137.47,35.63,137.49,35.71,137.33ZM25.62,139.6c-.13-.06-.16.1,0,.19s.11.06.14,0S25.74,139.67,25.62,139.6Zm.51,1.4c-.06,0-.12,0-.13,0C26.34,141.16,26.32,141.09,26.13,141Zm.66,8.35c-.11,0-.09.36,0,.42a.37.37,0,0,0,.24,0,.28.28,0,0,1,.28,0c.19.09.33,0,.22-.1A2.39,2.39,0,0,0,26.79,149.35Zm0-.74c.13,0,0-.37-.18-.41s-.12,0-.08.15S26.68,148.65,26.81,148.61Zm-.46-1.89c.25,0,.14-.06,0-.09S26.23,146.67,26.35,146.72Zm-.56-5c.1.12.16.13.24,0s0-.09-.09-.18S25.66,141.51,25.79,141.68Zm-.24,1.18a.08.08,0,0,0-.12,0c0,.08.09.17.22.18S25.65,142.91,25.55,142.86Zm2.31-.65c.25.08.18,0,0-.07S27.75,142.11,27.86,142.21Zm1.73-3.5c-.07-.14-.09-.15-.14-.09s0,.1,0,.17S29.69,138.9,29.59,138.71Zm-1.21,1.67c-.23-.23-.31-.3-.4-.33s-.17,0-.07.11,0,.09-.05.07-.21,0,0,.17.18.11.22.08a.8.8,0,0,1,.41.14C28.83,140.82,28.82,140.81,28.38,140.38Zm1.46-1.3c-.19-.1-.21-.09-.17,0s0,.22-.17-.1a.94.94,0,0,1-.16-.31c-.09-.14-.17-.14-.22-.08a.16.16,0,0,1-.17,0,.27.27,0,0,0-.17,0c-.16,0-.16.06-.05.23s.09.16,0,.12-.12,0,0,.15.1.2.07.21,0,.07,0,.13.08.12-.07,0c-.3-.25-.3-.25-.31.1,0,.16.14.25.21.16s.37.07.6.32.78-.2.83-.71C30.06,139.2,30.06,139.2,29.84,139.08Zm-1.36.82s-.11,0-.21-.07a.55.55,0,0,0-.25-.1c-.11,0-.13,0-.1.08l.16.16a.93.93,0,0,1,.44.31c.14.2.2.23.27.12a.17.17,0,0,1,.22,0c.17.09.24,0,.12-.1S28.52,139.85,28.48,139.9Zm-2.12.84c-.08,0,.09.18.2.16s.27-.24.21-.28l-.29-.17c-.27-.16-.33-.12-.18.1S26.39,140.72,26.36,140.74Zm2.27.4c.12,0,0-.21-.2-.3s-.21.36.11.54c.13.08.21,0,.09-.15S28.58,141.15,28.63,141.14Zm-3.53,5.08c.18,0,.11-.24-.1-.4s-.35-.43-.17-.49,0-.2-.28-.29c-.1,0-.07.65.06.91A.43.43,0,0,0,25.1,146.22Zm-.54-5c.06,0,.12,0,.13,0S24.5,141.06,24.56,141.19Zm.22-.2a.1.1,0,0,0-.08-.11c-.05,0-.11,0-.12,0s0,.08.07.11S24.76,141,24.78,141Zm0,2.34c.1,0,0-.1-.07-.15S24.72,143.3,24.83,143.33Zm.26-2.74c-.05-.1,0-.14,0-.14s.11-.1-.16-.36-.36-.34-.52-.31a.34.34,0,0,0-.19.25c-.05.21-.05.21.35.47S25.2,140.82,25.09,140.59Zm2.69,11.86a12.67,12.67,0,0,1-1.38,0c0-.07,0-.13.15-.19s.19-.13.08-.17a.27.27,0,0,1-.08-.43.31.31,0,0,0-.05-.31c-.32-.51-.22-.66.4-.61.35,0,.37,0,.49-.18s.15-.17.33-.07.13.1.1.12.1.25.42.33.32.09.21.21a.68.68,0,0,1-.28.18c-.48.13-.55.2-.45.36a1.38,1.38,0,0,1,.14.64A.13.13,0,0,1,27.78,152.45Zm-.43-.82c-.08-.2-.49-.19-.46,0a.17.17,0,0,0,.14.14C27.24,151.81,27.39,151.74,27.35,151.63Zm-3.48-11.06c0,.06.13.17.22.16s.11,0-.05-.12S23.89,140.54,23.87,140.57Zm1.19,11.68c.22.05.43.09.65.12a.38.38,0,0,0-.31-.16Zm1.66-7c0-.06-.1-.15-.23-.16s0,.05.07.36c.05.12.05.12.3.09s.32,0,.06-.15S26.71,145.26,26.72,145.22Zm-.23.95c.28.3.69.31.51,0s-.11-.18-.38-.18h-.27Zm.09-.6s0,0,0,0C26.72,145.69,26.68,145.6,26.58,145.57Zm-1.65,1.16c-.21-.1-.21-.1-.22,0a.17.17,0,0,1-.13.13c-.06,0-.09.06,0,.1a1.11,1.11,0,0,1,.11.16c.08.14.22.13.31,0a.19.19,0,0,1,.2-.1C25.32,147.05,25.16,146.84,24.93,146.73Zm1.78-6.41c-.09,0,0,.16.13.15s.06-.3-.08-.48-.11-.14-.16-.06a.22.22,0,0,0,.06.23C26.73,140.24,26.75,140.31,26.71,140.32Zm-2,9.44c-.12,0-.12,0,0,.19s.26.16.26,0A.21.21,0,0,0,24.73,149.76Z"/><path class="cls-11" d="M32,141.45a.49.49,0,0,0-.11-.88,4.43,4.43,0,0,0-3,.86c-.38-.39-.76-.79-1.16-1.17a.56.56,0,0,0-.79.79c.31.36.63.71.95,1.06A5,5,0,0,0,26,144.6a.35.35,0,0,0,.59.34c.75-.61,1.37-1.34,2.13-1.92A9.08,9.08,0,0,0,30,144.33c.48.36,1.13-.34.82-.82a7.78,7.78,0,0,0-1.05-1.18,6.12,6.12,0,0,1,.75-.33A6.1,6.1,0,0,0,32,141.45Z"/></svg>