<svg xmlns="http://www.w3.org/2000/svg" viewBox="0 0 88 81.63"><defs><style>.cls-1{fill:#f2dfc2;}.cls-2{fill:#c7f0ff;}.cls-20,.cls-3{fill:none;}.cls-10,.cls-12,.cls-14,.cls-17,.cls-20,.cls-3,.cls-7{stroke:#45413c;stroke-linejoin:round;}.cls-10,.cls-12,.cls-14,.cls-3{stroke-linecap:round;}.cls-12,.cls-4{fill:#45413c;}.cls-4{opacity:0.15;isolation:isolate;}.cls-5{fill:#f0f0f0;}.cls-6,.cls-7{fill:#fff;}.cls-10,.cls-8{fill:#f2c6a5;}.cls-9{fill:#dba983;}.cls-11{fill:#e8f4fa;}.cls-13{fill:#ffb59e;}.cls-14,.cls-15{fill:#333232;}.cls-16{fill:#212121;}.cls-17{fill:#8ca4b8;}.cls-18{fill:#adc4d9;}.cls-19{fill:#c0dceb;}</style></defs><title>Asset 50</title><g id="Layer_2" data-name="Layer 2"><g id="Ñëîé_1" data-name="Ñëîé 1"><path class="cls-1" d="M44,81.63a39.94,39.94,0,0,0,34.61-20H9.39A39.94,39.94,0,0,0,44,81.63Z"/><path class="cls-1" d="M7.56,58.13c.55,1.2,1.17,2.37,1.83,3.5H78.61c.66-1.13,1.28-2.3,1.83-3.5Z"/><path class="cls-2" d="M84,41.63A40,40,0,1,0,7.56,58.13H80.44A40,40,0,0,0,84,41.63Z"/><line class="cls-3" x1="5" y1="58.13" x2="83" y2="58.13"/><line class="cls-3" x1="0.5" y1="58.13" x2="3" y2="58.13"/><line class="cls-3" x1="85" y1="58.13" x2="87.5" y2="58.13"/><path class="cls-4" d="M26.5,65.63c0,.83-3.09,1.5-7.42,1.5s-6.58-.66-6.58-1.5,2.24-1.5,6.58-1.5S26.5,64.8,26.5,65.63Z"/><path class="cls-5" d="M43.54,33.17A17.09,17.09,0,0,0,26.45,50.25v5.69A1.44,1.44,0,0,1,25,57.3a1.34,1.34,0,0,1-.65-.2L22.1,55.78a3.32,3.32,0,1,0-3.41,5.69c2.24,1.34,3.68,2.46,6.32,2.46a8,8,0,0,0,7.5-5.41H60.63V50.25A17.09,17.09,0,0,0,43.54,33.17Z"/><path class="cls-6" d="M43.54,33.17A17.09,17.09,0,0,0,26.45,50.25v4.42a17.09,17.09,0,0,1,34.18,0V50.26A17.09,17.09,0,0,0,43.54,33.17Z"/><path class="cls-3" d="M43.54,33.17A17.09,17.09,0,0,0,26.45,50.25v5.69A1.44,1.44,0,0,1,25,57.3a1.34,1.34,0,0,1-.65-.2L22.1,55.78a3.32,3.32,0,1,0-3.41,5.69c2.24,1.34,3.68,2.46,6.32,2.46a8,8,0,0,0,7.5-5.41H60.63V50.25A17.09,17.09,0,0,0,43.54,33.17Z"/><path class="cls-7" d="M44.92,31H42.16A4.69,4.69,0,0,0,42,40.33h2.9A4.69,4.69,0,0,0,45.05,31Z"/><line class="cls-3" x1="32.51" y1="58.52" x2="32.51" y2="48.6"/><line class="cls-3" x1="54.56" y1="58.52" x2="54.56" y2="48.6"/><path class="cls-8" d="M39.68,29.31v6.16s0,2.62,3.86,2.66,3.86-2.66,3.86-2.66V29.31Z"/><path class="cls-9" d="M39.68,32.72c0,.16.08,2.62,3.86,2.65s3.86-2.49,3.86-2.65V29.31H39.68Z"/><path class="cls-3" d="M39.68,29.31v6.16s0,2.62,3.86,2.66,3.86-2.66,3.86-2.66V29.31Z"/><path class="cls-10" d="M20.55,55.21H19.13A3.18,3.18,0,0,0,16,58.43V61.5a1.32,1.32,0,0,0,1,1.26,10.37,10.37,0,0,0,5.79,0,1.32,1.32,0,0,0,1-1.26V58.43A3.18,3.18,0,0,0,20.55,55.21Z"/><path class="cls-6" d="M23.88,65.14H16a1.1,1.1,0,0,1-1.1-1.1.91.91,0,0,1,0-.17l.28-1.81A4.82,4.82,0,0,1,19.93,58h0a4.81,4.81,0,0,1,4.76,4.08L25,63.86a1.09,1.09,0,0,1-.91,1.26Z"/><path class="cls-11" d="M19.93,60.18a4.8,4.8,0,0,0-4.76,4.09l-.07.42a1.08,1.08,0,0,0,.88.45h7.9a1.08,1.08,0,0,0,.87-.45l-.06-.42A4.81,4.81,0,0,0,19.93,60.18Z"/><path class="cls-3" d="M23.88,65.14H16a1.1,1.1,0,0,1-1.1-1.1.91.91,0,0,1,0-.17l.28-1.81A4.82,4.82,0,0,1,19.93,58h0a4.81,4.81,0,0,1,4.76,4.08L25,63.86a1.09,1.09,0,0,1-.91,1.26Z"/><circle class="cls-12" cx="19.83" cy="60.65" r="0.55"/><path class="cls-10" d="M54.56,17.73V15a11,11,0,0,0-22.05,0v2.76a2.21,2.21,0,0,0,0,4.41h.14a11,11,0,0,0,21.78,0h.13a2.21,2.21,0,1,0,0-4.41Z"/><circle class="cls-13" cx="37.2" cy="21.87" r="1.38"/><circle class="cls-13" cx="49.88" cy="21.87" r="1.38"/><path class="cls-3" d="M40.78,18.29a1.79,1.79,0,0,0-3.31,0"/><path class="cls-3" d="M49.61,18.28a1.8,1.8,0,0,0-2.36-1,1.84,1.84,0,0,0-1,1"/><path class="cls-14" d="M52,22.72c-1.13,2.65-1.19,3.32-1.92,3.5l-.84.21a1,1,0,0,1-1.18-.65c-.73-1.69-2-3.09-3.75-3.09H42.77c-1.76,0-3,1.4-3.75,3.09a1,1,0,0,1-1.18.65L37,26.22c-.74-.18-.79-.85-1.93-3.5-.36-.86-1.45-.59-2.43-.6a10.89,10.89,0,0,0,21.78.3,1.5,1.5,0,0,0,0-.3C53.45,22.13,52.37,21.87,52,22.72Z"/><path class="cls-15" d="M32.15,17.93a1.12,1.12,0,0,1-1.28-.54,13.21,13.21,0,0,1-1.11-5.85A10.94,10.94,0,0,1,40.7.59c3,0,8.95-.72,10.95,1.93,8.72,1.94,5.68,16.87,4.79,16A2.06,2.06,0,0,0,55,17.84a2.32,2.32,0,0,0-1.5.44,16.76,16.76,0,0,1-2.8-10.72c0,3-6.53,5.57-12,5.57a13,13,0,0,1-4-.56,15.51,15.51,0,0,1-.47,5.71A2.5,2.5,0,0,0,32.15,17.93Z"/><path class="cls-16" d="M40.7,3.64c3,0,8.95-.72,10.95,1.93,4.22.94,5.68,4.92,6,8.67.31-4.32-.57-10.51-6-11.72-2-2.65-8-1.93-10.95-1.93a10.94,10.94,0,0,0-10.94,11c0,.59,0,1.19.07,1.78A10.94,10.94,0,0,1,40.7,3.64Z"/><path class="cls-3" d="M41.34,25.45a4.67,4.67,0,0,0,4.4,0"/><path class="cls-3" d="M32.15,17.93a1.12,1.12,0,0,1-1.28-.54,13.21,13.21,0,0,1-1.11-5.85A10.94,10.94,0,0,1,40.7.59c3,0,8.95-.72,10.95,1.93,8.72,1.94,5.68,16.87,4.79,16A2.06,2.06,0,0,0,55,17.84a2.32,2.32,0,0,0-1.5.44,16.76,16.76,0,0,1-2.8-10.72c0,3-6.53,5.57-12,5.57a13,13,0,0,1-4-.56,15.51,15.51,0,0,1-.47,5.71A2.5,2.5,0,0,0,32.15,17.93Z"/><path class="cls-4" d="M75.56,72.55c0,1.06-9.3,1.91-22.34,1.91s-19.78-.85-19.78-1.91,6.74-1.91,19.78-1.91S75.56,71.49,75.56,72.55Z"/><path class="cls-17" d="M71,71.27H38a2,2,0,0,1-2-2V68.08H73v1.19A2,2,0,0,1,71,71.27Z"/><path class="cls-18" d="M73,68.08H36L34.1,51.16a2.55,2.55,0,0,1,2.23-2.84l.3,0H72.37a2.56,2.56,0,0,1,2.55,2.56c0,.1,0,.2,0,.3Z"/><path class="cls-19" d="M34.37,53.64a2.41,2.41,0,0,1,.35-.65,2.55,2.55,0,0,1,1.91-.86H72.37a2.55,2.55,0,0,1,1.91.86,2.24,2.24,0,0,1,.34.65l.28-2.48a2.55,2.55,0,0,0-2.23-2.84l-.3,0H36.63a2.56,2.56,0,0,0-2.55,2.56c0,.1,0,.2,0,.3Z"/><path class="cls-20" d="M73,68.08H36L34.1,51.16a2.55,2.55,0,0,1,2.23-2.84l.3,0H72.37a2.56,2.56,0,0,1,2.55,2.56c0,.1,0,.2,0,.3Z"/></g></g></svg>