<svg id="grigor" xmlns="http://www.w3.org/2000/svg" viewBox="0 0 112.12 112.12"><defs><style>.cls-1{fill:#f2dfc2;}.cls-2{fill:#c7f0ff;}.cls-20,.cls-3{fill:none;}.cls-10,.cls-12,.cls-14,.cls-17,.cls-20,.cls-3,.cls-7{stroke:#45413c;stroke-linejoin:round;}.cls-10,.cls-12,.cls-14,.cls-3{stroke-linecap:round;}.cls-12,.cls-4{fill:#45413c;}.cls-4{opacity:0.15;isolation:isolate;}.cls-5{fill:#f0f0f0;}.cls-6,.cls-7{fill:#fff;}.cls-10,.cls-8{fill:#f2c6a5;}.cls-9{fill:#dba983;}.cls-11{fill:#e8f4fa;}.cls-13{fill:#ffb59e;}.cls-14,.cls-15{fill:#333232;}.cls-16{fill:#212121;}.cls-17{fill:#8ca4b8;}.cls-18{fill:#adc4d9;}.cls-19{fill:#c0dceb;}</style></defs><title>grigor</title><path class="cls-1" d="M56.6,96.63a39.94,39.94,0,0,0,34.6-20H22A40,40,0,0,0,56.6,96.63Z"/><path class="cls-1" d="M20.16,73.13c.55,1.2,1.17,2.36,1.83,3.5H91.2A38.79,38.79,0,0,0,93,73.13Z"/><path class="cls-2" d="M96.6,56.63a40,40,0,1,0-76.44,16.5H93A39.83,39.83,0,0,0,96.6,56.63Z"/><line class="cls-3" x1="17.6" y1="73.13" x2="95.6" y2="73.13"/><line class="cls-3" x1="13.1" y1="73.13" x2="15.6" y2="73.13"/><line class="cls-3" x1="97.6" y1="73.13" x2="100.1" y2="73.13"/><path class="cls-4" d="M39.1,80.63c0,.82-3.09,1.5-7.43,1.5s-6.57-.67-6.57-1.5,2.24-1.5,6.57-1.5S39.1,79.8,39.1,80.63Z"/><path class="cls-5" d="M56.13,48.16A17.09,17.09,0,0,0,39.05,65.25v5.68a1.43,1.43,0,0,1-1.49,1.36,1.53,1.53,0,0,1-.66-.19l-2.2-1.33a3.32,3.32,0,0,0-3.42,5.69c2.25,1.35,3.69,2.46,6.32,2.46a8,8,0,0,0,7.51-5.41H73.22V65.25A17.09,17.09,0,0,0,56.13,48.16Z"/><path class="cls-6" d="M56.13,48.16A17.09,17.09,0,0,0,39.05,65.25v4.41a17.09,17.09,0,1,1,34.17,0h0V65.25A17.09,17.09,0,0,0,56.14,48.16Z"/><path class="cls-3" d="M56.13,48.16A17.09,17.09,0,0,0,39.05,65.25v5.68a1.43,1.43,0,0,1-1.49,1.36,1.53,1.53,0,0,1-.66-.19l-2.2-1.33a3.32,3.32,0,0,0-3.42,5.69c2.25,1.35,3.69,2.46,6.32,2.46a8,8,0,0,0,7.51-5.41H73.22V65.25A17.09,17.09,0,0,0,56.13,48.16Z"/><path class="cls-7" d="M57.51,46H54.76a4.69,4.69,0,1,0-.14,9.37h2.89A4.69,4.69,0,1,0,57.65,46Z"/><line class="cls-3" x1="45.11" y1="73.52" x2="45.11" y2="63.59"/><line class="cls-3" x1="67.16" y1="73.52" x2="67.16" y2="63.59"/><path class="cls-8" d="M52.28,44.3v6.17s-.05,2.62,3.85,2.65S60,50.47,60,50.47V44.3Z"/><path class="cls-9" d="M52.28,47.72c0,.15.07,2.61,3.85,2.64S60,47.87,60,47.72V44.3H52.28Z"/><path class="cls-3" d="M52.28,44.3v6.17s-.05,2.62,3.85,2.65S60,50.47,60,50.47V44.3Z"/><path class="cls-10" d="M33.14,70.21H31.72a3.18,3.18,0,0,0-3.15,3.22v3.06a1.34,1.34,0,0,0,1,1.27,10.51,10.51,0,0,0,5.78,0,1.34,1.34,0,0,0,1-1.27V73.43A3.18,3.18,0,0,0,33.14,70.21Z"/><path class="cls-6" d="M36.48,80.13h-7.9a1.06,1.06,0,0,1-1.09-1.27l.27-1.81A4.83,4.83,0,0,1,32.52,73h0a4.83,4.83,0,0,1,4.77,4.09l.28,1.81a1.11,1.11,0,0,1-.92,1.26Z"/><path class="cls-11" d="M32.52,75.17a4.82,4.82,0,0,0-4.76,4.09l-.06.42a1.07,1.07,0,0,0,.87.45h7.9a1.08,1.08,0,0,0,.88-.45l-.07-.42A4.81,4.81,0,0,0,32.52,75.17Z"/><path class="cls-3" d="M36.48,80.13h-7.9a1.06,1.06,0,0,1-1.09-1.27l.27-1.81A4.83,4.83,0,0,1,32.52,73h0a4.83,4.83,0,0,1,4.77,4.09l.28,1.81a1.11,1.11,0,0,1-.92,1.26Z"/><circle class="cls-12" cx="32.43" cy="75.64" r="0.55"/><path class="cls-10" d="M67.16,32.72V30a11,11,0,1,0-22,0v2.75a2.21,2.21,0,1,0,0,4.41h.13a11,11,0,0,0,21.78,0h.14a2.21,2.21,0,0,0,0-4.41Z"/><circle class="cls-13" cx="49.8" cy="36.87" r="1.38"/><circle class="cls-13" cx="62.47" cy="36.87" r="1.38"/><path class="cls-3" d="M53.38,33.28a1.81,1.81,0,0,0-2.36-1,1.84,1.84,0,0,0-1,1"/><path class="cls-3" d="M62.21,33.27a1.81,1.81,0,0,0-3.32,0"/><path class="cls-14" d="M64.6,37.72c-1.14,2.64-1.19,3.31-1.93,3.5l-.83.2a1,1,0,0,1-1.19-.64c-.73-1.7-2-3.09-3.74-3.09H55.37c-1.77,0-3,1.4-3.75,3.09a1,1,0,0,1-1.18.64l-.84-.21c-.74-.18-.8-.85-1.93-3.5-.37-.86-1.45-.59-2.43-.6a10.89,10.89,0,1,0,21.78.3v-.3C66.05,37.13,65,36.86,64.6,37.72Z"/><path class="cls-15" d="M44.74,32.93a1.13,1.13,0,0,1-1.27-.55,13.22,13.22,0,0,1-1.12-5.85,11,11,0,0,1,10.95-11c3,0,9-.72,10.94,1.94,8.73,1.93,5.69,16.86,4.8,16a2.08,2.08,0,0,0-1.48-.66,2.35,2.35,0,0,0-1.5.44,16.76,16.76,0,0,1-2.8-10.72c0,3-6.54,5.57-12.06,5.57a12.46,12.46,0,0,1-4-.56,15.47,15.47,0,0,1-.47,5.71A2.49,2.49,0,0,0,44.74,32.93Z"/><path class="cls-16" d="M53.3,18.64c3,0,9-.73,10.94,1.93,4.22.94,5.69,4.91,6,8.67.32-4.33-.57-10.52-6-11.72-2-2.66-8-1.94-10.94-1.94a11,11,0,0,0-10.95,11,17.67,17.67,0,0,0,.08,1.78A10.94,10.94,0,0,1,53.3,18.64Z"/><path class="cls-3" d="M53.94,40.44a4.64,4.64,0,0,0,4.4,0"/><path class="cls-3" d="M44.74,32.93a1.13,1.13,0,0,1-1.27-.55,13.22,13.22,0,0,1-1.12-5.85,11,11,0,0,1,10.95-11c3,0,9-.72,10.94,1.94,8.73,1.93,5.69,16.86,4.8,16a2.08,2.08,0,0,0-1.48-.66,2.35,2.35,0,0,0-1.5.44,16.76,16.76,0,0,1-2.8-10.72c0,3-6.54,5.57-12.06,5.57a12.46,12.46,0,0,1-4-.56,15.47,15.47,0,0,1-.47,5.71A2.49,2.49,0,0,0,44.74,32.93Z"/><path class="cls-4" d="M88.16,87.54c0,1.06-9.3,1.92-22.34,1.92S46,88.6,46,87.54s6.74-1.91,19.78-1.91S88.16,86.49,88.16,87.54Z"/><path class="cls-17" d="M83.6,86.27h-33a2,2,0,0,1-2-2V83.08h37v1.19A2,2,0,0,1,83.6,86.27Z"/><path class="cls-18" d="M85.6,83.08h-37L46.7,66.15a2.55,2.55,0,0,1,2.23-2.84l.3,0H85a2.56,2.56,0,0,1,2.56,2.56c0,.1,0,.2,0,.3Z"/><path class="cls-19" d="M47,68.64a2.32,2.32,0,0,1,.35-.66,2.57,2.57,0,0,1,1.91-.86H85a2.55,2.55,0,0,1,1.91.86,2.41,2.41,0,0,1,.35.65l.28-2.48a2.55,2.55,0,0,0-2.23-2.84l-.31,0H49.23a2.56,2.56,0,0,0-2.55,2.56c0,.1,0,.2,0,.3Z"/><path class="cls-20" d="M85.6,83.08h-37L46.7,66.15a2.55,2.55,0,0,1,2.23-2.84l.3,0H85a2.56,2.56,0,0,1,2.56,2.56c0,.1,0,.2,0,.3Z"/></svg>