<svg id="london" xmlns="http://www.w3.org/2000/svg" viewBox="0 0 112.12 112.12"><defs><style>.cls-1{fill:#c7f0ff;}.cls-2{fill:#f0d5a8;}.cls-3{fill:#debb7e;}.cls-17,.cls-4,.cls-7{fill:none;}.cls-10,.cls-11,.cls-14,.cls-15,.cls-4,.cls-5,.cls-6,.cls-7,.cls-8{stroke:#45413c;}.cls-10,.cls-11,.cls-14,.cls-15,.cls-17,.cls-4,.cls-8{stroke-linecap:round;}.cls-10,.cls-11,.cls-14,.cls-15,.cls-17,.cls-4,.cls-5,.cls-6,.cls-7,.cls-8{stroke-linejoin:round;}.cls-11,.cls-5{fill:#fff;}.cls-6{fill:#6dd627;}.cls-8,.cls-9{fill:#f7e5c6;}.cls-10,.cls-13{fill:#4acfff;}.cls-12{fill:#00b8f0;}.cls-14{fill:#dea47a;}.cls-15{fill:#e0e0e0;}.cls-16{fill:#80ddff;}.cls-17{stroke:#b8ecff;}</style></defs><title>london</title><circle class="cls-1" cx="56.56" cy="56.74" r="40"/><rect class="cls-2" x="59.31" y="53.16" width="6.21" height="15.51"/><rect class="cls-3" x="59.31" y="53.16" width="6.21" height="3.1"/><rect class="cls-4" x="59.31" y="53.16" width="6.21" height="15.51"/><path class="cls-5" d="M43.63,22.94a2.25,2.25,0,0,0-.81.16,3.72,3.72,0,0,0-7.36,0,2.23,2.23,0,1,0-.81,4.33h9a2.25,2.25,0,0,0,0-4.49Z"/><path class="cls-6" d="M28.7,58c0,3.08-1.1,5.74-2.33,5.74S24,61.12,24,58,26.37,46.9,26.37,46.9,28.7,55,28.7,58Z"/><line class="cls-7" x1="26.37" y1="63.78" x2="26.37" y2="68.67"/><rect class="cls-8" x="65.51" y="23.69" width="13.96" height="4.65"/><path class="cls-2" d="M80.65,46.56l-1.17,1.17V68.67h-14V47.73l-1.16-1.17a1.26,1.26,0,0,1-.38-.92v-16a1.29,1.29,0,0,1,1.29-1.29H79.73A1.3,1.3,0,0,1,81,29.64v16A1.29,1.29,0,0,1,80.65,46.56Z"/><path class="cls-9" d="M81,33H64V29.34a1,1,0,0,1,1-1H80a1,1,0,0,1,1,1Z"/><path class="cls-4" d="M80.65,46.56l-1.17,1.17V68.67h-14V47.73l-1.16-1.17a1.26,1.26,0,0,1-.38-.92v-16a1.29,1.29,0,0,1,1.29-1.29H79.73A1.3,1.3,0,0,1,81,29.64v16A1.29,1.29,0,0,1,80.65,46.56Z"/><polygon class="cls-10" points="76.37 19.81 68.61 19.81 65.51 23.69 79.47 23.69 76.37 19.81"/><rect class="cls-8" x="68.61" y="15.15" width="7.76" height="4.65"/><polygon class="cls-10" points="68.61 15.15 72.49 5.85 76.37 15.15 68.61 15.15"/><line class="cls-4" x1="72.49" y1="5.85" x2="72.49" y2="2.74"/><circle class="cls-11" cx="72.49" cy="36.87" r="4.65"/><polyline class="cls-4" points="76.37 30.67 78.7 30.67 78.7 32.99"/><polyline class="cls-4" points="78.7 40.75 78.7 43.08 76.37 43.08"/><polyline class="cls-4" points="68.61 43.08 66.29 43.08 66.29 40.75"/><polyline class="cls-4" points="66.29 32.99 66.29 30.67 68.61 30.67"/><polyline class="cls-4" points="72.49 34.55 72.49 36.87 74.04 36.87"/><line class="cls-4" x1="69.39" y1="47.73" x2="69.39" y2="49.28"/><line class="cls-4" x1="72.49" y1="47.73" x2="72.49" y2="49.28"/><line class="cls-4" x1="75.59" y1="47.73" x2="75.59" y2="49.28"/><line class="cls-4" x1="64.73" y1="55.49" x2="80.25" y2="55.49"/><line class="cls-4" x1="64.73" y1="58.59" x2="80.25" y2="58.59"/><line class="cls-4" x1="72.49" y1="28.34" x2="72.49" y2="26.01"/><line class="cls-4" x1="68.61" y1="28.34" x2="68.61" y2="26.01"/><line class="cls-4" x1="76.37" y1="28.34" x2="76.37" y2="26.01"/><line class="cls-4" x1="65.51" y1="23.69" x2="65.51" y2="20.58"/><line class="cls-4" x1="79.47" y1="23.69" x2="79.47" y2="20.58"/><line class="cls-4" x1="72.49" y1="19.81" x2="72.49" y2="17.48"/><polygon class="cls-2" points="53.1 46.96 53.1 51.61 42.24 51.61 42.24 46.96 36.04 46.96 36.04 68.67 59.31 68.67 59.31 46.96 53.1 46.96"/><rect class="cls-3" x="36.04" y="46.96" width="6.2" height="3.1"/><rect class="cls-3" x="42.24" y="51.61" width="10.86" height="3.1"/><rect class="cls-3" x="53.1" y="46.96" width="6.21" height="3.1"/><polygon class="cls-4" points="53.1 46.96 53.1 51.61 42.24 51.61 42.24 46.96 36.04 46.96 36.04 68.67 59.31 68.67 59.31 46.96 53.1 46.96"/><path class="cls-10" d="M36,47l1.19-2.39a1.3,1.3,0,0,1,1.16-.72h1.5a1.29,1.29,0,0,1,1.15.72L42.24,47Z"/><path class="cls-10" d="M53.1,47l1.19-2.39a1.3,1.3,0,0,1,1.16-.72H57a1.3,1.3,0,0,1,1.16.72L59.3,47Z"/><line class="cls-4" x1="36.04" y1="46.96" x2="36.04" y2="41.53"/><line class="cls-4" x1="42.24" y1="46.96" x2="42.24" y2="41.53"/><line class="cls-4" x1="53.1" y1="46.96" x2="53.1" y2="41.53"/><line class="cls-4" x1="59.31" y1="46.96" x2="59.31" y2="41.53"/><rect class="cls-10" x="42.24" y="48.51" width="10.86" height="3.1"/><rect class="cls-10" x="59.31" y="50.06" width="6.21" height="3.1"/><line class="cls-4" x1="60.08" y1="58.59" x2="35.26" y2="58.59"/><line class="cls-4" x1="35.26" y1="61.69" x2="60.08" y2="61.69"/><line class="cls-4" x1="42.24" y1="51.61" x2="42.24" y2="56.26"/><line class="cls-4" x1="53.1" y1="51.61" x2="53.1" y2="56.26"/><path class="cls-12" d="M47.67,53.94h0a1.54,1.54,0,0,0-1.55,1.55h0v3.1h3.1v-3.1A1.54,1.54,0,0,0,47.67,53.94Z"/><path class="cls-13" d="M49.1,54.88a1.55,1.55,0,0,0-3,.61v2.37Z"/><path class="cls-4" d="M47.67,53.94h0a1.54,1.54,0,0,0-1.55,1.55h0v3.1h3.1v-3.1A1.54,1.54,0,0,0,47.67,53.94Z"/><path class="cls-12" d="M40.69,64h0a1.55,1.55,0,0,0-1.55,1.55h0v3.1h3.1v-3.1A1.55,1.55,0,0,0,40.69,64Z"/><path class="cls-13" d="M42.12,65a1.56,1.56,0,0,0-2-.81,1.54,1.54,0,0,0-.94,1.42v2.37Z"/><path class="cls-4" d="M40.69,64h0a1.55,1.55,0,0,0-1.55,1.55h0v3.1h3.1v-3.1A1.55,1.55,0,0,0,40.69,64Z"/><path class="cls-12" d="M47.67,64h0a1.55,1.55,0,0,0-1.55,1.55h0v3.1h3.1v-3.1A1.55,1.55,0,0,0,47.67,64Z"/><path class="cls-13" d="M49.1,65a1.56,1.56,0,0,0-2-.81,1.54,1.54,0,0,0-.94,1.42v2.37Z"/><path class="cls-4" d="M47.67,64h0a1.55,1.55,0,0,0-1.55,1.55h0v3.1h3.1v-3.1A1.55,1.55,0,0,0,47.67,64Z"/><path class="cls-12" d="M54.65,64h0a1.55,1.55,0,0,0-1.55,1.55h0v3.1h3.1v-3.1A1.55,1.55,0,0,0,54.65,64Z"/><path class="cls-13" d="M56.08,65a1.55,1.55,0,0,0-3,.61v2.37Z"/><path class="cls-4" d="M54.65,64h0a1.55,1.55,0,0,0-1.55,1.55h0v3.1h3.1v-3.1A1.55,1.55,0,0,0,54.65,64Z"/><line class="cls-4" x1="39.14" y1="51.61" x2="56.2" y2="51.61"/><line class="cls-4" x1="68.61" y1="47.73" x2="76.37" y2="47.73"/><rect class="cls-14" x="65.51" y="55.49" width="13.96" height="3.1"/><line class="cls-4" x1="68.61" y1="53.16" x2="68.61" y2="68.67"/><line class="cls-4" x1="76.37" y1="53.16" x2="76.37" y2="68.67"/><rect class="cls-14" x="36.04" y="58.59" width="23.27" height="3.1"/><path class="cls-15" d="M91,68.67H22.59a1,1,0,0,0-1,1v5.8H92v-5.8a1,1,0,0,0-1-1Z"/><path class="cls-16" d="M85.79,72.82c-2.44,0-2.44,1.56-4.88,1.56S78.48,72.82,76,72.82s-2.44,1.56-4.87,1.56-2.44-1.56-4.88-1.56-2.43,1.56-4.87,1.56S59,72.82,56.54,72.82s-2.44,1.56-4.87,1.56-2.44-1.56-4.87-1.56-2.44,1.56-4.88,1.56-2.43-1.56-4.86-1.56-2.44,1.56-4.88,1.56-2.43-1.56-4.87-1.56-2.44,1.56-4.87,1.56a3.78,3.78,0,0,1-2-.52,40,40,0,0,0,72.31,0,3.67,3.67,0,0,1-2,.53C88.24,74.38,88.24,72.82,85.79,72.82Z"/><path class="cls-4" d="M17.56,72.82c2.43,0,2.43,1.56,4.87,1.56s2.44-1.56,4.88-1.56,2.43,1.56,4.87,1.56,2.44-1.56,4.87-1.56,2.44,1.56,4.87,1.56,2.44-1.56,4.88-1.56,2.43,1.56,4.87,1.56,2.43-1.56,4.87-1.56,2.44,1.56,4.88,1.56,2.43-1.56,4.87-1.56,2.44,1.56,4.88,1.56S73.6,72.82,76,72.82s2.44,1.56,4.88,1.56,2.43-1.56,4.87-1.56,2.45,1.56,4.89,1.56,2.44-1.56,4.88-1.56"/><path class="cls-17" d="M31.22,80.29c2.43,0,2.43-1.56,4.87-1.56s2.44,1.56,4.88,1.56,2.43-1.56,4.87-1.56,2.43,1.56,4.87,1.56,2.44-1.56,4.87-1.56,2.44,1.56,4.87,1.56"/><path class="cls-17" d="M45.73,89.46c2.43,0,2.43-1.56,4.87-1.56s2.44,1.56,4.87,1.56,2.44-1.56,4.87-1.56,2.44,1.56,4.87,1.56"/><path class="cls-17" d="M81.34,82.71c-2.43,0-2.43,1.56-4.87,1.56S74,82.71,71.6,82.71s-2.44,1.56-4.87,1.56"/></svg>