<svg xmlns="http://www.w3.org/2000/svg" viewBox="0 0 80 94.5"><defs><style>.cls-1{fill:#c7f0ff;}.cls-2{fill:#f0d5a8;}.cls-3{fill:#debb7e;}.cls-17,.cls-4,.cls-7{fill:none;}.cls-10,.cls-11,.cls-14,.cls-15,.cls-4,.cls-5,.cls-6,.cls-7,.cls-8{stroke:#45413c;}.cls-10,.cls-11,.cls-14,.cls-15,.cls-17,.cls-4,.cls-8{stroke-linecap:round;}.cls-10,.cls-11,.cls-14,.cls-15,.cls-17,.cls-4,.cls-5,.cls-6,.cls-7,.cls-8{stroke-linejoin:round;}.cls-11,.cls-5{fill:#fff;}.cls-6{fill:#6dd627;}.cls-8,.cls-9{fill:#f7e5c6;}.cls-10,.cls-13{fill:#4acfff;}.cls-12{fill:#00b8f0;}.cls-14{fill:#dea47a;}.cls-15{fill:#e0e0e0;}.cls-16{fill:#80ddff;}.cls-17{stroke:#b8ecff;}</style></defs><title>Asset 49</title><g id="Layer_2" data-name="Layer 2"><g id="Ñëîé_1" data-name="Ñëîé 1"><circle class="cls-1" cx="40" cy="54.5" r="40"/><rect class="cls-2" x="42.75" y="50.92" width="6.21" height="15.51"/><rect class="cls-3" x="42.75" y="50.92" width="6.21" height="3.1"/><rect class="cls-4" x="42.75" y="50.92" width="6.21" height="15.51"/><path class="cls-5" d="M27.07,20.7a2.05,2.05,0,0,0-.81.16,3.72,3.72,0,0,0-7.36,0,2.05,2.05,0,0,0-.81-.16,2.25,2.25,0,0,0,0,4.49h9a2.25,2.25,0,0,0,0-4.49Z"/><path class="cls-6" d="M12.14,55.8c0,3.08-1.1,5.73-2.33,5.73S7.49,58.88,7.49,55.8,9.81,44.66,9.81,44.66,12.14,52.73,12.14,55.8Z"/><line class="cls-7" x1="9.81" y1="61.54" x2="9.81" y2="66.43"/><rect class="cls-8" x="48.95" y="21.44" width="13.96" height="4.65"/><path class="cls-2" d="M64.09,44.31l-1.17,1.18V66.43H49V45.49l-1.16-1.18a1.25,1.25,0,0,1-.38-.91v-16a1.29,1.29,0,0,1,1.29-1.29H63.17a1.29,1.29,0,0,1,1.29,1.29v16A1.25,1.25,0,0,1,64.09,44.31Z"/><path class="cls-9" d="M64.46,30.75H47.4V27.1a1,1,0,0,1,1-1H63.46a1,1,0,0,1,1,1Z"/><path class="cls-4" d="M64.09,44.31l-1.17,1.18V66.43H49V45.49l-1.16-1.18a1.25,1.25,0,0,1-.38-.91v-16a1.29,1.29,0,0,1,1.29-1.29H63.17a1.29,1.29,0,0,1,1.29,1.29v16A1.25,1.25,0,0,1,64.09,44.31Z"/><polygon class="cls-10" points="59.81 17.56 52.05 17.56 48.95 21.44 62.91 21.44 59.81 17.56"/><rect class="cls-8" x="52.06" y="12.91" width="7.76" height="4.65"/><polygon class="cls-10" points="52.05 12.91 55.93 3.6 59.81 12.91 52.05 12.91"/><line class="cls-4" x1="55.93" y1="3.6" x2="55.93" y2="0.5"/><circle class="cls-11" cx="55.93" cy="34.63" r="4.65"/><polyline class="cls-4" points="59.81 28.42 62.14 28.42 62.14 30.75"/><polyline class="cls-4" points="62.14 38.51 62.14 40.83 59.81 40.83"/><polyline class="cls-4" points="52.05 40.83 49.73 40.83 49.73 38.51"/><polyline class="cls-4" points="49.73 30.75 49.73 28.42 52.05 28.42"/><polyline class="cls-4" points="55.93 32.3 55.93 34.63 57.48 34.63"/><line class="cls-4" x1="52.83" y1="45.49" x2="52.83" y2="47.04"/><line class="cls-4" x1="55.93" y1="45.49" x2="55.93" y2="47.04"/><line class="cls-4" x1="59.04" y1="45.49" x2="59.04" y2="47.04"/><line class="cls-4" x1="48.18" y1="53.24" x2="63.69" y2="53.24"/><line class="cls-4" x1="48.18" y1="56.35" x2="63.69" y2="56.35"/><line class="cls-4" x1="55.93" y1="26.1" x2="55.93" y2="23.77"/><line class="cls-4" x1="52.06" y1="26.1" x2="52.06" y2="23.77"/><line class="cls-4" x1="59.81" y1="26.1" x2="59.81" y2="23.77"/><line class="cls-4" x1="48.95" y1="21.44" x2="48.95" y2="18.34"/><line class="cls-4" x1="62.91" y1="21.44" x2="62.91" y2="18.34"/><line class="cls-4" x1="55.93" y1="17.56" x2="55.93" y2="15.24"/><polygon class="cls-2" points="36.54 44.71 36.54 49.37 25.68 49.37 25.68 44.71 19.48 44.71 19.48 66.43 42.75 66.43 42.75 44.71 36.54 44.71"/><rect class="cls-3" x="19.48" y="44.71" width="6.2" height="3.1"/><rect class="cls-3" x="25.68" y="49.37" width="10.86" height="3.1"/><rect class="cls-3" x="36.54" y="44.71" width="6.21" height="3.1"/><polygon class="cls-4" points="36.54 44.71 36.54 49.37 25.68 49.37 25.68 44.71 19.48 44.71 19.48 66.43 42.75 66.43 42.75 44.71 36.54 44.71"/><path class="cls-10" d="M19.48,44.71l1.19-2.38a1.3,1.3,0,0,1,1.16-.72h1.5a1.29,1.29,0,0,1,1.15.72l1.2,2.38Z"/><path class="cls-10" d="M36.54,44.71l1.2-2.38a1.27,1.27,0,0,1,1.15-.72h1.5a1.3,1.3,0,0,1,1.16.72l1.19,2.38Z"/><line class="cls-4" x1="19.48" y1="44.71" x2="19.48" y2="39.28"/><line class="cls-4" x1="25.68" y1="44.71" x2="25.68" y2="39.28"/><line class="cls-4" x1="36.54" y1="44.71" x2="36.54" y2="39.28"/><line class="cls-4" x1="42.75" y1="44.71" x2="42.75" y2="39.28"/><rect class="cls-10" x="25.68" y="46.26" width="10.86" height="3.1"/><rect class="cls-10" x="42.75" y="47.81" width="6.21" height="3.1"/><line class="cls-4" x1="43.52" y1="56.35" x2="18.7" y2="56.35"/><line class="cls-4" x1="18.7" y1="59.45" x2="43.52" y2="59.45"/><line class="cls-4" x1="25.68" y1="49.37" x2="25.68" y2="54.02"/><line class="cls-4" x1="36.54" y1="49.37" x2="36.54" y2="54.02"/><path class="cls-12" d="M31.11,51.69h0a1.56,1.56,0,0,0-1.55,1.55h0v3.1h3.1v-3.1A1.56,1.56,0,0,0,31.11,51.69Z"/><path class="cls-13" d="M32.54,52.64a1.55,1.55,0,0,0-3,.6v2.38Z"/><path class="cls-4" d="M31.11,51.69h0a1.56,1.56,0,0,0-1.55,1.55h0v3.1h3.1v-3.1A1.56,1.56,0,0,0,31.11,51.69Z"/><path class="cls-12" d="M24.13,61.78h0a1.54,1.54,0,0,0-1.55,1.55h0v3.1h3.1v-3.1A1.54,1.54,0,0,0,24.13,61.78Z"/><path class="cls-13" d="M25.56,62.72a1.55,1.55,0,0,0-3,.61V65.7Z"/><path class="cls-4" d="M24.13,61.78h0a1.54,1.54,0,0,0-1.55,1.55h0v3.1h3.1v-3.1A1.54,1.54,0,0,0,24.13,61.78Z"/><path class="cls-12" d="M31.11,61.78h0a1.54,1.54,0,0,0-1.55,1.55h0v3.1h3.1v-3.1A1.54,1.54,0,0,0,31.11,61.78Z"/><path class="cls-13" d="M32.54,62.72a1.55,1.55,0,0,0-3,.61V65.7Z"/><path class="cls-4" d="M31.11,61.78h0a1.54,1.54,0,0,0-1.55,1.55h0v3.1h3.1v-3.1A1.54,1.54,0,0,0,31.11,61.78Z"/><path class="cls-12" d="M38.09,61.78h0a1.55,1.55,0,0,0-1.55,1.55h0v3.1h3.1v-3.1A1.54,1.54,0,0,0,38.09,61.78Z"/><path class="cls-13" d="M39.52,62.72a1.55,1.55,0,0,0-3,.61V65.7Z"/><path class="cls-4" d="M38.09,61.78h0a1.55,1.55,0,0,0-1.55,1.55h0v3.1h3.1v-3.1A1.54,1.54,0,0,0,38.09,61.78Z"/><line class="cls-4" x1="22.58" y1="49.37" x2="39.64" y2="49.37"/><line class="cls-4" x1="52.06" y1="45.49" x2="59.81" y2="45.49"/><rect class="cls-14" x="48.95" y="53.24" width="13.96" height="3.1"/><line class="cls-4" x1="52.06" y1="50.92" x2="52.06" y2="66.43"/><line class="cls-4" x1="59.81" y1="50.92" x2="59.81" y2="66.43"/><rect class="cls-14" x="19.48" y="56.35" width="23.27" height="3.1"/><path class="cls-15" d="M74.44,66.43H6a1,1,0,0,0-1,1v5.79H75.44V67.43a1,1,0,0,0-1-1Z"/><path class="cls-16" d="M69.24,70.58c-2.44,0-2.44,1.56-4.88,1.56s-2.44-1.56-4.88-1.56-2.43,1.56-4.87,1.56-2.44-1.56-4.88-1.56-2.43,1.56-4.87,1.56S42.42,70.58,40,70.58s-2.44,1.56-4.87,1.56-2.44-1.56-4.87-1.56-2.44,1.56-4.88,1.56-2.43-1.56-4.86-1.56-2.44,1.56-4.87,1.56-2.44-1.56-4.88-1.56-2.44,1.56-4.87,1.56a3.72,3.72,0,0,1-2-.53,40,40,0,0,0,72.31,0,3.73,3.73,0,0,1-2,.53C71.68,72.14,71.68,70.58,69.24,70.58Z"/><path class="cls-4" d="M1,70.58c2.44,0,2.44,1.56,4.87,1.56s2.44-1.56,4.88-1.56,2.43,1.56,4.87,1.56,2.44-1.56,4.88-1.56,2.43,1.56,4.86,1.56,2.44-1.56,4.88-1.56,2.43,1.56,4.87,1.56,2.44-1.56,4.87-1.56,2.44,1.56,4.88,1.56,2.44-1.56,4.87-1.56,2.44,1.56,4.88,1.56,2.43-1.56,4.87-1.56,2.44,1.56,4.88,1.56,2.44-1.56,4.88-1.56,2.44,1.56,4.88,1.56,2.44-1.56,4.88-1.56"/><path class="cls-17" d="M14.66,78c2.44,0,2.44-1.56,4.87-1.56S22,78,24.41,78s2.43-1.56,4.87-1.56S31.72,78,34.15,78s2.44-1.56,4.87-1.56S41.46,78,43.9,78"/><path class="cls-17" d="M29.17,87.22c2.43,0,2.43-1.56,4.87-1.56s2.44,1.56,4.87,1.56,2.44-1.56,4.87-1.56,2.44,1.56,4.88,1.56"/><path class="cls-17" d="M64.78,80.47c-2.43,0-2.43,1.56-4.87,1.56S57.48,80.47,55,80.47,52.6,82,50.17,82"/></g></g></svg>