<svg id="sandra" xmlns="http://www.w3.org/2000/svg" viewBox="0 0 112.12 112.12"><defs><style>.cls-1{fill:#c7f0ff;}.cls-2{fill:#f2dfc2;}.cls-20,.cls-3{fill:none;}.cls-12,.cls-16,.cls-18,.cls-20,.cls-3,.cls-4,.cls-9{stroke:#45413c;stroke-linejoin:round;}.cls-12,.cls-16,.cls-3,.cls-4,.cls-9{stroke-linecap:round;}.cls-4,.cls-7{fill:#f9e1b7;}.cls-5{fill:#c0dceb;}.cls-6{fill:#daedf7;}.cls-8{fill:#ddc69f;}.cls-9{fill:#ffda8f;}.cls-10{fill:#bf8df2;}.cls-11{fill:#9f5ae5;}.cls-12{fill:#fff;}.cls-13{fill:#ffbe3d;}.cls-14{fill:#614b44;}.cls-15{fill:#947063;}.cls-16{fill:#00dba8;}.cls-17{fill:#45413c;opacity:0.15;isolation:isolate;}.cls-18{fill:#8ca4b8;}.cls-19{fill:#adc4d9;}</style></defs><title>sandra</title><path class="cls-1" d="M96.56,56.74a40,40,0,1,0-76.44,16.5H93A39.8,39.8,0,0,0,96.56,56.74Z"/><path class="cls-2" d="M20.12,73.24a40,40,0,0,0,72.87,0Z"/><line class="cls-3" x1="17.06" y1="73.24" x2="95.06" y2="73.24"/><line class="cls-3" x1="12.56" y1="73.24" x2="15.06" y2="73.24"/><line class="cls-3" x1="97.06" y1="73.24" x2="99.56" y2="73.24"/><path class="cls-4" d="M41,67.73a3.31,3.31,0,0,1-6.42-1.1v-.5l-.1.3a2.64,2.64,0,0,1-3.32,1.73l-2.05-.66a8.82,8.82,0,0,0,17.53.23Z"/><path class="cls-5" d="M74.22,65A17.09,17.09,0,0,0,57.13,47.88l-.83,0C47.11,48.33,40,56.25,40,65.45v2.28h6.62v5.51H67.6V67.73h5.51a1.1,1.1,0,0,0,1.1-1.1Z"/><path class="cls-6" d="M56.3,47.9C47.11,48.33,40,56.25,40,65.45v1.17a1.05,1.05,0,0,0,.21.62,17.3,17.3,0,0,1,16-14.93A17.08,17.08,0,0,1,74.06,67.16a1.13,1.13,0,0,0,.16-.54V65A17.09,17.09,0,0,0,57.13,47.88Z"/><path class="cls-3" d="M74.22,65A17.09,17.09,0,0,0,57.13,47.88l-.83,0C47.11,48.33,40,56.25,40,65.45v2.28h6.62v5.51H67.6V67.73h5.51a1.1,1.1,0,0,0,1.1-1.1Z"/><line class="cls-3" x1="46.65" y1="63.32" x2="46.65" y2="67.73"/><path class="cls-7" d="M53.27,48.43a3.86,3.86,0,0,0,7.72.13v-4H53.27Z"/><path class="cls-8" d="M53.27,48.42a13.53,13.53,0,0,0,7.72,0V44.57H53.27Z"/><path class="cls-3" d="M53.27,48.43V44.57H61v3.86a3.86,3.86,0,0,1-7.72.13Z"/><rect class="cls-9" x="67.6" y="67.73" width="5.51" height="5.51"/><line class="cls-3" x1="57.13" y1="52.29" x2="57.13" y2="73.24"/><circle class="cls-3" cx="34.53" cy="63.87" r="2.76"/><path class="cls-10" d="M35.63,61.66a6.06,6.06,0,0,0,6.06,6.07q.3,0,.6,0a6.25,6.25,0,0,0,5.47-6.3v-.29a1.1,1.1,0,0,0-1.1-1.1H36.73a1.1,1.1,0,0,0-1.1,1.1Z"/><path class="cls-11" d="M42.29,65.49a6.13,6.13,0,0,0,5.3-4.92,1,1,0,0,1,.17.54v.29a6.25,6.25,0,0,1-5.47,6.3,6.06,6.06,0,0,1-6.63-5.44c0-.2,0-.4,0-.59v-.55a1,1,0,0,1,.12-.48A6,6,0,0,0,42.29,65.49Z"/><path class="cls-3" d="M35.63,61.66a6.06,6.06,0,0,0,6.06,6.07q.3,0,.6,0a6.25,6.25,0,0,0,5.47-6.3v-.29a1.1,1.1,0,0,0-1.1-1.1H36.73a1.1,1.1,0,0,0-1.1,1.1Z"/><path class="cls-4" d="M27.91,66.31a1.09,1.09,0,0,0,.77,1.07l2.43.77a2.65,2.65,0,0,0,3.32-1.72l.4-1.26a2.65,2.65,0,0,0-1.72-3.32h0l-2.43-.77a1.11,1.11,0,0,0-1.25.43A8.94,8.94,0,0,0,27.91,66.31Z"/><path class="cls-12" d="M36.26,49.22a2.56,2.56,0,0,1,2.85,4h0a1.55,1.55,0,0,1,.7,2.06A1.54,1.54,0,0,1,37,54.2a2.56,2.56,0,0,1-.74-5Z"/><path class="cls-7" d="M68.15,31.88V29.12a11,11,0,0,0-22.05,0v2.76a2.21,2.21,0,0,0,0,4.41h.14a11,11,0,0,0,21.78,0h.13a2.21,2.21,0,1,0,0-4.41Z"/><path class="cls-3" d="M68.15,31.88V29.12a11,11,0,0,0-22.05,0v2.76a2.21,2.21,0,0,0,0,4.41h.14a11,11,0,0,0,21.78,0h.13a2.21,2.21,0,1,0,0-4.41Z"/><circle class="cls-13" cx="50.79" cy="36.56" r="1.38"/><circle class="cls-13" cx="63.47" cy="36.56" r="1.38"/><path class="cls-3" d="M53.81,39.36a4.8,4.8,0,0,0,6.63,0"/><path class="cls-3" d="M63.19,33a1.81,1.81,0,0,0-2.36-1,1.84,1.84,0,0,0-1,1"/><path class="cls-3" d="M54.36,33A1.8,1.8,0,0,0,51,33"/><path class="cls-14" d="M41.68,35.72a6.64,6.64,0,0,1-.42,7.93A3.86,3.86,0,0,0,40.45,47a5,5,0,0,0,3.79,3.79,1.85,1.85,0,0,1,.85.45l.69,1h0a16.92,16.92,0,0,1,7.48-3.86V45a11,11,0,0,1-7-8.68H46.1a2.2,2.2,0,0,1-.9-4.21l1.11,1.11a1.17,1.17,0,0,0,2-.83v-2.2A2.68,2.68,0,0,1,51,27.47a2.82,2.82,0,0,0,2.82-2.82.45.45,0,0,1,.75-.35A7.09,7.09,0,0,0,61,26.05a.86.86,0,0,1,1,.65,1.23,1.23,0,0,1,0,.19,2.74,2.74,0,0,0,.8,1.93l0,0a2.82,2.82,0,0,0,2,.82,1.6,1.6,0,0,1,1.58,1.59v.62a4.71,4.71,0,0,1-1,2.94l-.59.74a2.64,2.64,0,0,0,.41,3.71,2.29,2.29,0,0,0,.73.41l.75.29a11,11,0,0,1-5.77,5v3.42a17.11,17.11,0,0,1,9.07,5.46h0l.71-.74a4.17,4.17,0,0,0-.8-3.15,3.6,3.6,0,0,1,.71-5l.41-.26.85-.47a4.42,4.42,0,0,0,1.72-6L73.55,38,72,35.55A1.91,1.91,0,0,1,72,33.67a11.1,11.1,0,0,0,1.17-5,4.67,4.67,0,0,0-2.59-4.18,4.1,4.1,0,0,1-2.19-2.92,7.59,7.59,0,0,0-8.82-6.11,7.37,7.37,0,0,0-1.37.39l-4.33,1.66-1-.18a6,6,0,0,0-6.94,5c0,.11,0,.22,0,.33a3.37,3.37,0,0,1-2.17,2.79,5.16,5.16,0,0,0-3.16,3.46l-.18.67a6.54,6.54,0,0,0,.86,5.32Z"/><path class="cls-15" d="M40.27,32.88l.18-.66a5.13,5.13,0,0,1,3.16-3.47A3.39,3.39,0,0,0,45.78,26a6,6,0,0,1,6.66-5.33l.32.05,1.06.17,4.33-1.66A7.59,7.59,0,0,1,68,23.54a8.46,8.46,0,0,1,.38,1.37,4.08,4.08,0,0,0,2.19,2.92,4.65,4.65,0,0,1,2.4,2.89,11.3,11.3,0,0,0,.18-2,4.69,4.69,0,0,0-2.58-4.19,4.06,4.06,0,0,1-2.19-2.91,7.58,7.58,0,0,0-8.82-6.11,7.13,7.13,0,0,0-1.37.38l-4.33,1.67-1.06-.18a6,6,0,0,0-6.93,5c0,.11,0,.21,0,.32a3.38,3.38,0,0,1-2.17,2.79,5.13,5.13,0,0,0-3.16,3.47l-.18.67a6.49,6.49,0,0,0,0,3.36Z"/><path class="cls-3" d="M41.68,35.72a6.64,6.64,0,0,1-.42,7.93A3.86,3.86,0,0,0,40.45,47a5,5,0,0,0,3.79,3.79,1.85,1.85,0,0,1,.85.45l.69,1h0a16.92,16.92,0,0,1,7.48-3.86V45a11,11,0,0,1-7-8.68H46.1a2.2,2.2,0,0,1-.9-4.21l1.11,1.11a1.17,1.17,0,0,0,2-.83v-2.2A2.68,2.68,0,0,1,51,27.47a2.82,2.82,0,0,0,2.82-2.82.45.45,0,0,1,.75-.35A7.09,7.09,0,0,0,61,26.05a.86.86,0,0,1,1,.65,1.23,1.23,0,0,1,0,.19,2.74,2.74,0,0,0,.8,1.93l0,0a2.82,2.82,0,0,0,2,.82,1.6,1.6,0,0,1,1.58,1.59v.62a4.71,4.71,0,0,1-1,2.94l-.59.74a2.64,2.64,0,0,0,.41,3.71,2.29,2.29,0,0,0,.73.41l.75.29a11,11,0,0,1-5.77,5v3.42a17.11,17.11,0,0,1,9.07,5.46h0l.71-.74a4.17,4.17,0,0,0-.8-3.15,3.6,3.6,0,0,1,.71-5l.41-.26.85-.47a4.42,4.42,0,0,0,1.72-6L73.55,38,72,35.55A1.91,1.91,0,0,1,72,33.67a11.1,11.1,0,0,0,1.17-5,4.67,4.67,0,0,0-2.59-4.18,4.1,4.1,0,0,1-2.19-2.92,7.59,7.59,0,0,0-8.82-6.11,7.37,7.37,0,0,0-1.37.39l-4.33,1.66-1-.18a6,6,0,0,0-6.94,5c0,.11,0,.22,0,.33a3.37,3.37,0,0,1-2.17,2.79,5.16,5.16,0,0,0-3.16,3.46l-.18.67a6.54,6.54,0,0,0,.86,5.32Z"/><path class="cls-3" d="M66.76,40s3.18.55,3,2.38-4.18,1.7-4.41,4.41"/><ellipse class="cls-16" cx="46.1" cy="37.94" rx="1.1" ry="2.2"/><path class="cls-12" d="M57.13,52.29s-3.86-5-5.52-5-2.89,2.76-2.89,2.76l3.89,4.24a1.1,1.1,0,0,0,1.45.15Z"/><path class="cls-12" d="M57.13,52.29s3.86-5,5.51-5,2.89,2.76,2.89,2.76l-3.88,4.24a1.11,1.11,0,0,1-1.46.15Z"/><path class="cls-17" d="M87.14,87.48c0,1-9.16,1.91-22,1.91s-19.48-.86-19.48-1.91,6.64-1.92,19.48-1.92S87.14,86.42,87.14,87.48Z"/><path class="cls-18" d="M82.66,86.2H50.13a2,2,0,0,1-2-2V83H84.63V84.2A2,2,0,0,1,82.66,86.2Z"/><path class="cls-19" d="M84.63,83H48.16L46.31,66.09a2.54,2.54,0,0,1,2.2-2.84,1.37,1.37,0,0,1,.29,0H84a2.53,2.53,0,0,1,2.51,2.55c0,.1,0,.21,0,.31Z"/><path class="cls-5" d="M46.58,68.57a2.12,2.12,0,0,1,.34-.65,2.49,2.49,0,0,1,1.88-.86H84a2.49,2.49,0,0,1,1.88.86,2.45,2.45,0,0,1,.34.64l.27-2.47a2.53,2.53,0,0,0-2.19-2.84,1.51,1.51,0,0,0-.3,0H48.8a2.53,2.53,0,0,0-2.51,2.55c0,.1,0,.21,0,.31Z"/><path class="cls-20" d="M84.63,83H48.16L46.31,66.09a2.54,2.54,0,0,1,2.2-2.84,1.37,1.37,0,0,1,.29,0H84a2.53,2.53,0,0,1,2.51,2.55c0,.1,0,.21,0,.31Z"/></svg>