<svg xmlns="http://www.w3.org/2000/svg" viewBox="0 0 88 81.87"><defs><style>.cls-1{fill:#c7f0ff;}.cls-2{fill:#f2dfc2;}.cls-20,.cls-3{fill:none;}.cls-12,.cls-16,.cls-18,.cls-20,.cls-3,.cls-4,.cls-9{stroke:#45413c;stroke-linejoin:round;}.cls-12,.cls-16,.cls-3,.cls-4,.cls-9{stroke-linecap:round;}.cls-4,.cls-7{fill:#f9e1b7;}.cls-5{fill:#c0dceb;}.cls-6{fill:#daedf7;}.cls-8{fill:#ddc69f;}.cls-9{fill:#ffda8f;}.cls-10{fill:#bf8df2;}.cls-11{fill:#9f5ae5;}.cls-12{fill:#fff;}.cls-13{fill:#ffbe3d;}.cls-14{fill:#614b44;}.cls-15{fill:#947063;}.cls-16{fill:#00dba8;}.cls-17{fill:#45413c;opacity:0.15;isolation:isolate;}.cls-18{fill:#8ca4b8;}.cls-19{fill:#adc4d9;}</style></defs><title>Asset 51</title><g id="Layer_2" data-name="Layer 2"><g id="Ñëîé_1" data-name="Ñëîé 1"><path class="cls-1" d="M84.5,41.86A40,40,0,1,0,8.06,58.36H80.94A40,40,0,0,0,84.5,41.86Z"/><path class="cls-2" d="M8.06,58.36a40,40,0,0,0,72.88,0Z"/><line class="cls-3" x1="5" y1="58.36" x2="83" y2="58.36"/><line class="cls-3" x1="0.5" y1="58.36" x2="3" y2="58.36"/><line class="cls-3" x1="85" y1="58.36" x2="87.5" y2="58.36"/><path class="cls-4" d="M37.89,52.85a3.31,3.31,0,0,1-6.42-1.1v-.49l-.1.3a2.64,2.64,0,0,1-3.32,1.72L26,52.63a8.82,8.82,0,0,0,17.53.22Z"/><path class="cls-5" d="M71.16,50.09A17.09,17.09,0,0,0,54.07,33l-.83,0C44.05,33.46,37,41.37,37,50.58v2.27H43.6v5.51H64.54V52.85h5.52a1.09,1.09,0,0,0,1.09-1.1Z"/><path class="cls-6" d="M53.24,33C44.05,33.46,37,41.37,37,50.58v1.17a1.12,1.12,0,0,0,.21.61A17.31,17.31,0,0,1,53.24,37.43,17.09,17.09,0,0,1,71,52.28a1.13,1.13,0,0,0,.16-.54V50.09A17.09,17.09,0,0,0,54.07,33Z"/><path class="cls-3" d="M71.16,50.09A17.09,17.09,0,0,0,54.07,33l-.83,0C44.05,33.46,37,41.37,37,50.58v2.27H43.6v5.51H64.54V52.85h5.52a1.09,1.09,0,0,0,1.09-1.1Z"/><line class="cls-3" x1="43.6" y1="48.44" x2="43.6" y2="52.85"/><path class="cls-7" d="M50.21,33.55a3.86,3.86,0,0,0,7.72.13v-4H50.21Z"/><path class="cls-8" d="M50.21,33.54a13.35,13.35,0,0,0,7.72,0V29.7H50.21Z"/><path class="cls-3" d="M50.21,33.55V29.7h7.72v3.85a3.86,3.86,0,0,1-7.72.13Z"/><rect class="cls-9" x="64.54" y="52.85" width="5.51" height="5.51"/><line class="cls-3" x1="54.07" y1="37.41" x2="54.07" y2="58.36"/><circle class="cls-3" cx="31.47" cy="48.99" r="2.76"/><path class="cls-10" d="M32.57,46.78a6.07,6.07,0,0,0,6.06,6.07q.3,0,.6,0a6.25,6.25,0,0,0,5.47-6.3v-.29a1.1,1.1,0,0,0-1.1-1.1H33.67a1.1,1.1,0,0,0-1.1,1.1Z"/><path class="cls-11" d="M39.23,50.62a6.15,6.15,0,0,0,5.3-4.93,1,1,0,0,1,.17.54v.29a6.25,6.25,0,0,1-5.47,6.3,6.06,6.06,0,0,1-6.63-5.44,5.83,5.83,0,0,1,0-.59v-.55a1,1,0,0,1,.12-.48A6.07,6.07,0,0,0,39.23,50.62Z"/><path class="cls-3" d="M32.57,46.78a6.07,6.07,0,0,0,6.06,6.07q.3,0,.6,0a6.25,6.25,0,0,0,5.47-6.3v-.29a1.1,1.1,0,0,0-1.1-1.1H33.67a1.1,1.1,0,0,0-1.1,1.1Z"/><path class="cls-4" d="M24.85,51.43a1.12,1.12,0,0,0,.77,1.08l2.43.77a2.65,2.65,0,0,0,3.32-1.73l.4-1.26A2.65,2.65,0,0,0,30.05,47h0l-2.43-.77a1.1,1.1,0,0,0-1.25.44A8.91,8.91,0,0,0,24.85,51.43Z"/><path class="cls-12" d="M33.2,34.34a2.56,2.56,0,0,1,2.85,4l.05,0a1.54,1.54,0,0,1-1.35,2.76,1.55,1.55,0,0,1-.81-1.8,2.56,2.56,0,0,1-.74-5Z"/><path class="cls-7" d="M65.09,17V14.25a11,11,0,1,0-22.05,0V17a2.21,2.21,0,0,0,0,4.41h.14A11,11,0,0,0,65,21.4h.13a2.21,2.21,0,1,0,0-4.41Z"/><path class="cls-3" d="M65.09,17V14.24a11,11,0,0,0-22.05,0V17a2.21,2.21,0,0,0,0,4.41h.14A11,11,0,0,0,65,21.4h.13a2.21,2.21,0,1,0,0-4.41Z"/><circle class="cls-13" cx="47.73" cy="21.69" r="1.38"/><circle class="cls-13" cx="60.41" cy="21.69" r="1.38"/><path class="cls-3" d="M50.75,24.49a4.8,4.8,0,0,0,6.63,0"/><path class="cls-3" d="M60.13,18.1a1.79,1.79,0,0,0-3.31,0"/><path class="cls-3" d="M51.3,18.1a1.81,1.81,0,0,0-2.36-1,1.87,1.87,0,0,0-1,1"/><path class="cls-14" d="M38.62,20.84a6.64,6.64,0,0,1-.42,7.93,3.87,3.87,0,0,0-.81,3.32,5,5,0,0,0,3.8,3.79,1.86,1.86,0,0,1,.84.45l.69,1h0a17.08,17.08,0,0,1,7.48-3.86v-3.4a11,11,0,0,1-7-8.68H43a2.2,2.2,0,0,1-.9-4.21l1.11,1.11a1.17,1.17,0,0,0,2-.82V15.28a2.69,2.69,0,0,1,2.69-2.69,2.82,2.82,0,0,0,2.82-2.82.47.47,0,0,1,.46-.46.46.46,0,0,1,.29.11A7.09,7.09,0,0,0,58,11.17a.86.86,0,0,1,1,.65A.62.62,0,0,1,59,12a2.74,2.74,0,0,0,.8,1.93l0,0a2.83,2.83,0,0,0,2,.83,1.58,1.58,0,0,1,1.58,1.58V17a4.74,4.74,0,0,1-1,2.94l-.6.74A2.66,2.66,0,0,0,63,24.81l.75.28a11,11,0,0,1-5.77,5v3.42A17.11,17.11,0,0,1,67,38.94h0l.71-.74a4.19,4.19,0,0,0-.8-3.15A3.61,3.61,0,0,1,68,29.76l.85-.47a4.41,4.41,0,0,0,1.72-6l-.12-.2L69,20.68a1.91,1.91,0,0,1-.09-1.88,11.1,11.1,0,0,0,1.17-5,4.67,4.67,0,0,0-2.59-4.19,4.06,4.06,0,0,1-2.18-2.92A7.59,7.59,0,0,0,56.46.62,8.11,8.11,0,0,0,55.1,1L50.77,2.67,49.71,2.5a6,6,0,0,0-6.94,5,3.11,3.11,0,0,0,0,.32,3.39,3.39,0,0,1-2.17,2.79A5.17,5.17,0,0,0,37.39,14l-.18.66A6.51,6.51,0,0,0,38.08,20Z"/><path class="cls-15" d="M37.21,18l.18-.67a5.13,5.13,0,0,1,3.16-3.47,3.38,3.38,0,0,0,2.17-2.79,6,6,0,0,1,6.66-5.33l.33,0,1,.18,4.33-1.67A7.6,7.6,0,0,1,64.9,8.67,7.13,7.13,0,0,1,65.28,10,4.06,4.06,0,0,0,67.47,13a4.65,4.65,0,0,1,2.4,2.89,11.22,11.22,0,0,0,.19-2,4.71,4.71,0,0,0-2.59-4.19,4.06,4.06,0,0,1-2.19-2.91A7.59,7.59,0,0,0,56.46.62,7.13,7.13,0,0,0,55.09,1L50.76,2.67l-1-.18a6,6,0,0,0-6.94,5c0,.11,0,.22-.05.32a3.36,3.36,0,0,1-2.17,2.79A5.13,5.13,0,0,0,37.39,14l-.18.67a6.49,6.49,0,0,0,0,3.36Z"/><path class="cls-3" d="M38.62,20.84a6.64,6.64,0,0,1-.42,7.93,3.87,3.87,0,0,0-.81,3.32,5,5,0,0,0,3.8,3.79,1.86,1.86,0,0,1,.84.45l.69,1h0a17.08,17.08,0,0,1,7.48-3.86v-3.4a11,11,0,0,1-7-8.68H43a2.2,2.2,0,0,1-.9-4.21l1.11,1.11a1.17,1.17,0,0,0,2-.82V15.28a2.69,2.69,0,0,1,2.69-2.69,2.82,2.82,0,0,0,2.82-2.82.47.47,0,0,1,.46-.46.46.46,0,0,1,.29.11A7.09,7.09,0,0,0,58,11.17a.86.86,0,0,1,1,.65A.62.62,0,0,1,59,12a2.74,2.74,0,0,0,.8,1.93l0,0a2.83,2.83,0,0,0,2,.83,1.58,1.58,0,0,1,1.58,1.58V17a4.74,4.74,0,0,1-1,2.94l-.6.74A2.66,2.66,0,0,0,63,24.81l.75.28a11,11,0,0,1-5.77,5v3.42A17.11,17.11,0,0,1,67,38.94h0l.71-.74a4.19,4.19,0,0,0-.8-3.15A3.61,3.61,0,0,1,68,29.76l.85-.47a4.41,4.41,0,0,0,1.72-6l-.12-.2L69,20.68a1.91,1.91,0,0,1-.09-1.88,11.1,11.1,0,0,0,1.17-5,4.67,4.67,0,0,0-2.59-4.19,4.06,4.06,0,0,1-2.18-2.92A7.59,7.59,0,0,0,56.46.62,8.11,8.11,0,0,0,55.1,1L50.77,2.67,49.71,2.5a6,6,0,0,0-6.94,5,3.11,3.11,0,0,0,0,.32,3.39,3.39,0,0,1-2.17,2.79A5.17,5.17,0,0,0,37.39,14l-.18.66A6.51,6.51,0,0,0,38.08,20Z"/><path class="cls-3" d="M63.7,25.09s3.18.55,3,2.38-4.18,1.7-4.41,4.41"/><ellipse class="cls-16" cx="43.04" cy="23.06" rx="1.1" ry="2.2"/><path class="cls-12" d="M54.07,37.41s-3.86-5-5.51-5-2.89,2.76-2.89,2.76l3.88,4.24A1.09,1.09,0,0,0,51,39.6Z"/><path class="cls-12" d="M54.07,37.41s3.86-5,5.51-5,2.89,2.76,2.89,2.76l-3.88,4.24a1.1,1.1,0,0,1-1.46.15Z"/><path class="cls-17" d="M75.08,72.6c0,1.06-9.16,1.91-22,1.91S33.6,73.66,33.6,72.6s6.64-1.92,19.48-1.92S75.08,71.54,75.08,72.6Z"/><path class="cls-18" d="M70.6,71.32H38.07a2,2,0,0,1-2-2V68.13H72.57v1.19A2,2,0,0,1,70.6,71.32Z"/><path class="cls-19" d="M72.57,68.13H36.1L34.25,51.21a2.55,2.55,0,0,1,2.2-2.84l.3,0H71.94a2.53,2.53,0,0,1,2.51,2.55,1.56,1.56,0,0,1,0,.31Z"/><path class="cls-5" d="M34.52,53.69a2.38,2.38,0,0,1,.34-.65,2.49,2.49,0,0,1,1.88-.86h35.2a2.49,2.49,0,0,1,1.88.86,2.12,2.12,0,0,1,.34.65l.27-2.48a2.54,2.54,0,0,0-2.19-2.84l-.3,0H36.74a2.53,2.53,0,0,0-2.51,2.55,3,3,0,0,0,0,.31Z"/><path class="cls-20" d="M72.57,68.13H36.1L34.25,51.21a2.55,2.55,0,0,1,2.2-2.84l.3,0H71.94a2.53,2.53,0,0,1,2.51,2.55,1.56,1.56,0,0,1,0,.31Z"/></g></g></svg>