<svg xmlns="http://www.w3.org/2000/svg" xmlns:xlink="http://www.w3.org/1999/xlink" viewBox="0 0 46.83 76.02"><defs><style>.cls-1{fill:#2b245c;}.cls-2{fill:url(#Áåçûìÿííûé_ãðàäèåíò_1869);}.cls-3{clip-path:url(#clip-path);}.cls-4{fill:#ffd19a;}.cls-5{fill:#1a486c;}.cls-6{fill:#a699d9;}.cls-7{fill:url(#Áåçûìÿííûé_ãðàäèåíò_1869-2);}.cls-8{fill:url(#Áåçûìÿííûé_ãðàäèåíò_1869-3);}.cls-9{fill:url(#Áåçûìÿííûé_ãðàäèåíò_1869-4);}.cls-10{fill:url(#Áåçûìÿííûé_ãðàäèåíò_1869-5);}.cls-11{fill:url(#Áåçûìÿííûé_ãðàäèåíò_1869-6);}.cls-12{fill:url(#Áåçûìÿííûé_ãðàäèåíò_1869-7);}.cls-13{fill:url(#Áåçûìÿííûé_ãðàäèåíò_1869-8);}.cls-14{fill:url(#Áåçûìÿííûé_ãðàäèåíò_1869-9);}.cls-15{fill:url(#Áåçûìÿííûé_ãðàäèåíò_1869-10);}.cls-16{fill:url(#Áåçûìÿííûé_ãðàäèåíò_1869-11);}.cls-17{fill:#c4824a;}.cls-18{fill:#9189d0;}.cls-19{fill:#fff;}</style><linearGradient id="Áåçûìÿííûé_ãðàäèåíò_1869" x1="-11.61" y1="116.71" x2="58.81" y2="-45.74" gradientUnits="userSpaceOnUse"><stop offset="0" stop-color="#e4ddff"/><stop offset="1" stop-color="#faf9ff"/></linearGradient><clipPath id="clip-path"><path class="cls-1" d="M19.05,11a.49.49,0,0,0,.21-.51,2.22,2.22,0,0,0-.36-.63.65.65,0,0,1-.09-.68c.38-.11.73.32,1.12.3a.64.64,0,0,0,.54-.41,1.37,1.37,0,0,0,.08-.7,3,3,0,0,0-.46-1.29,3,3,0,0,1-.38-.64.59.59,0,0,1,.17-.68.62.62,0,0,1,.71.11,5.71,5.71,0,0,1,.51.58c.6.65,1.75.91,2-.12a6.38,6.38,0,0,1,.66-1.8c.12-.21.33-.45.55-.37s.25.29.28.48c.07.37-.07,2.08.61,1.84A1.08,1.08,0,0,0,25.64,6a8.16,8.16,0,0,1,2-2.23c.15-.12.35-.23.52-.14a.44.44,0,0,1,.19.34c.2,1.21-1,2.33-.82,3.54a.89.89,0,0,0,.92,0,6,6,0,0,0,.76-.59,2.81,2.81,0,0,1,1.25-.54.53.53,0,0,1,.25,0c.16.08.17.32.11.49a3.33,3.33,0,0,1-.63.87,1,1,0,0,0-.26,1c.38.84,1.74.21,2.36.16a1,1,0,0,1,.46,0A.41.41,0,0,1,33,9.2c0,.22-.2.39-.38.51A6.83,6.83,0,0,0,31,11a6.3,6.3,0,0,0-.86,1.1c.33.18.56-.11.88,0s.26.53,0,.71-.78.17-1.13.26a3.08,3.08,0,0,0-1.41.73c-.31.33-.48.82-.9,1s-1-.14-1.47-.47-1-.68-1.47-.44a2.33,2.33,0,0,0-.5.39c-1.18,1-2.69,0-3.66-.8S18.05,12,17.56,10.92c-.1-.23-.1-.58.14-.63a.45.45,0,0,1,.34.14l.57.43a.6.6,0,0,0,.31.15A.28.28,0,0,0,19.05,11Z"/></clipPath><linearGradient id="Áåçûìÿííûé_ãðàäèåíò_1869-2" x1="0" y1="43.17" x2="10.11" y2="43.17" xlink:href="#Áåçûìÿííûé_ãðàäèåíò_1869"/><linearGradient id="Áåçûìÿííûé_ãðàäèåíò_1869-3" x1="7.25" y1="45.05" x2="11.85" y2="45.05" xlink:href="#Áåçûìÿííûé_ãðàäèåíò_1869"/><linearGradient id="Áåçûìÿííûé_ãðàäèåíò_1869-4" x1="2.65" y1="13.22" x2="10.93" y2="13.22" xlink:href="#Áåçûìÿííûé_ãðàäèåíò_1869"/><linearGradient id="Áåçûìÿííûé_ãðàäèåíò_1869-5" x1="3.84" y1="7.33" x2="9.47" y2="7.33" xlink:href="#Áåçûìÿííûé_ãðàäèåíò_1869"/><linearGradient id="Áåçûìÿííûé_ãðàäèåíò_1869-6" x1="7.11" y1="5.68" x2="10.22" y2="5.68" xlink:href="#Áåçûìÿííûé_ãðàäèåíò_1869"/><linearGradient id="Áåçûìÿííûé_ãðàäèåíò_1869-7" x1="39.36" y1="6.73" x2="46.83" y2="6.73" xlink:href="#Áåçûìÿííûé_ãðàäèåíò_1869"/><linearGradient id="Áåçûìÿííûé_ãðàäèåíò_1869-8" x1="41.51" y1="10.13" x2="45.39" y2="10.13" xlink:href="#Áåçûìÿííûé_ãðàäèåíò_1869"/><linearGradient id="Áåçûìÿííûé_ãðàäèåíò_1869-9" x1="38.59" y1="58.33" x2="43.4" y2="58.33" xlink:href="#Áåçûìÿííûé_ãðàäèåíò_1869"/><linearGradient id="Áåçûìÿííûé_ãðàäèåíò_1869-10" x1="40.02" y1="54.94" x2="43.54" y2="54.94" xlink:href="#Áåçûìÿííûé_ãðàäèåíò_1869"/><linearGradient id="Áåçûìÿííûé_ãðàäèåíò_1869-11" x1="40.32" y1="51.45" x2="46.45" y2="51.45" xlink:href="#Áåçûìÿííûé_ãðàäèåíò_1869"/></defs><title>Asset 10</title><g id="Layer_2" data-name="Layer 2"><g id="Ñëîé_1" data-name="Ñëîé 1"><path class="cls-2" d="M13.57,18.93c-1.08,1.45-2.52,2.62-3.48,4.15a9.47,9.47,0,0,0-.17,9.24c.9,1.72,2.25,3.17,3.19,4.88a11.74,11.74,0,0,1,1.12,8.36c-.42,1.71-1.22,3.33-1.36,5.08a7,7,0,0,0,2.92,6.2c1.79,1.26,4.06,1.59,6.05,2.52,1,.46,1.88,1.06,2.89,1.46a8.16,8.16,0,0,0,6.76-.48A9.3,9.3,0,0,0,35.8,55c.45-1.4.59-2.89,1.12-4.25a28.75,28.75,0,0,1,2.71-4.55,6.94,6.94,0,0,0,1.26-5c-.34-1.47-1.42-2.66-1.93-4.07-.78-2.2-.11-4.62.47-6.88a29.84,29.84,0,0,0,1.15-8.06,12.92,12.92,0,0,0-2.5-7.62c-.88-1.12-2-2.11-2.4-3.48s.11-2.8,0-4.21c-.16-2.83-2.57-5.09-5.21-6.12A12.58,12.58,0,0,0,16.69,4.32,6.81,6.81,0,0,0,15,7.83c-.13,1.19.49,2.19.62,3.37A10.94,10.94,0,0,1,13.57,18.93Z"/><path class="cls-1" d="M19.05,11a.49.49,0,0,0,.21-.51,2.22,2.22,0,0,0-.36-.63.65.65,0,0,1-.09-.68c.38-.11.73.32,1.12.3a.64.64,0,0,0,.54-.41,1.37,1.37,0,0,0,.08-.7,3,3,0,0,0-.46-1.29,3,3,0,0,1-.38-.64.59.59,0,0,1,.17-.68.62.62,0,0,1,.71.11,5.71,5.71,0,0,1,.51.58c.6.65,1.75.91,2-.12a6.38,6.38,0,0,1,.66-1.8c.12-.21.33-.45.55-.37s.25.29.28.48c.07.37-.07,2.08.61,1.84A1.08,1.08,0,0,0,25.64,6a8.16,8.16,0,0,1,2-2.23c.15-.12.35-.23.52-.14a.44.44,0,0,1,.19.34c.2,1.21-1,2.33-.82,3.54a.89.89,0,0,0,.92,0,6,6,0,0,0,.76-.59,2.81,2.81,0,0,1,1.25-.54.53.53,0,0,1,.25,0c.16.08.17.32.11.49a3.33,3.33,0,0,1-.63.87,1,1,0,0,0-.26,1c.38.84,1.74.21,2.36.16a1,1,0,0,1,.46,0A.41.41,0,0,1,33,9.2c0,.22-.2.39-.38.51A6.83,6.83,0,0,0,31,11a6.3,6.3,0,0,0-.86,1.1c.33.18.56-.11.88,0s.26.53,0,.71-.78.17-1.13.26a3.08,3.08,0,0,0-1.41.73c-.31.33-.48.82-.9,1s-1-.14-1.47-.47-1-.68-1.47-.44a2.33,2.33,0,0,0-.5.39c-1.18,1-2.69,0-3.66-.8S18.05,12,17.56,10.92c-.1-.23-.1-.58.14-.63a.45.45,0,0,1,.34.14l.57.43a.6.6,0,0,0,.31.15A.28.28,0,0,0,19.05,11Z"/><path class="cls-1" d="M19.05,11a.49.49,0,0,0,.21-.51,2.22,2.22,0,0,0-.36-.63.65.65,0,0,1-.09-.68c.38-.11.73.32,1.12.3a.64.64,0,0,0,.54-.41,1.37,1.37,0,0,0,.08-.7,3,3,0,0,0-.46-1.29,3,3,0,0,1-.38-.64.59.59,0,0,1,.17-.68.62.62,0,0,1,.71.11,5.71,5.71,0,0,1,.51.58c.6.65,1.75.91,2-.12a6.38,6.38,0,0,1,.66-1.8c.12-.21.33-.45.55-.37s.25.29.28.48c.07.37-.07,2.08.61,1.84A1.08,1.08,0,0,0,25.64,6a8.16,8.16,0,0,1,2-2.23c.15-.12.35-.23.52-.14a.44.44,0,0,1,.19.34c.2,1.21-1,2.33-.82,3.54a.89.89,0,0,0,.92,0,6,6,0,0,0,.76-.59,2.81,2.81,0,0,1,1.25-.54.53.53,0,0,1,.25,0c.16.08.17.32.11.49a3.33,3.33,0,0,1-.63.87,1,1,0,0,0-.26,1c.38.84,1.74.21,2.36.16a1,1,0,0,1,.46,0A.41.41,0,0,1,33,9.2c0,.22-.2.39-.38.51A6.83,6.83,0,0,0,31,11a6.3,6.3,0,0,0-.86,1.1c.33.18.56-.11.88,0s.26.53,0,.71-.78.17-1.13.26a3.08,3.08,0,0,0-1.41.73c-.31.33-.48.82-.9,1s-1-.14-1.47-.47-1-.68-1.47-.44a2.33,2.33,0,0,0-.5.39c-1.18,1-2.69,0-3.66-.8S18.05,12,17.56,10.92c-.1-.23-.1-.58.14-.63a.45.45,0,0,1,.34.14l.57.43a.6.6,0,0,0,.31.15A.28.28,0,0,0,19.05,11Z"/><g class="cls-3"><path class="cls-1" d="M29.17,13.54a5.53,5.53,0,0,0,1.6-4.26,3.62,3.62,0,0,0-2.9-3.23,6.14,6.14,0,0,1-2.07-.28,6.06,6.06,0,0,1-1.26-1.22,4.19,4.19,0,0,0-3.87-.84A12.6,12.6,0,0,0,17,5.52Z"/></g><path class="cls-4" d="M27.22,34.16v6.26a11,11,0,0,0-.71,3.42,101.74,101.74,0,0,0-.43,13c.15,2.68-3.76,9.39-5.6,13.18a6.51,6.51,0,0,0-.93,2.58c.11.45.75.94,1.52,1.41,1.56.94,3.66,1.79,3.18,2-.71.29-6.46-.7-7-.91-.29-.11-.38-.86-.4-1.53a6.55,6.55,0,0,1,.23-1.93c.22-.81.48-1.69.77-2.59,1.65-5.24,4.07-11.54,4.07-13.87,0-2.89-1.26-3-2.39-9.16a25.28,25.28,0,0,1,0-10.34l6.23-1.21.22,0,.51-.09Z"/><path class="cls-4" d="M36.14,73.69c0,.62-.13,1.27-.4,1.37-.52.21-6.27,1.2-7,.91-.48-.19,1.71-1.06,3.27-2,.74-.45,1.33-.93,1.45-1.36S33,71,32.2,69.33c-2-3.86-5.41-10-5.27-12.5a103.39,103.39,0,0,0-.42-13,11.46,11.46,0,0,0-.73-3.42V34.16l.73.14.47.09.24,0,6.25,1.21a25.5,25.5,0,0,1,0,10.34c-1.14,6.2-2.41,6.27-2.41,9.16,0,2.25,2.38,8.06,4,13.22.35,1.11.66,2.19.9,3.2a7.87,7.87,0,0,1,.2,2.11Z"/><path class="cls-1" d="M24.25,76c-.71.29-6.46-.7-7-.91-.29-.11-.38-.86-.4-1.53.19.08.38.17.55.23a6.69,6.69,0,0,0,3.52.26l.13,0C22.63,74.94,24.73,75.79,24.25,76Z"/><path class="cls-1" d="M36.14,73.69c0,.62-.13,1.27-.4,1.37-.52.21-6.27,1.2-7,.91-.48-.19,1.71-1.06,3.27-2l.41.07A6.73,6.73,0,0,0,36,73.76Z"/><path class="cls-1" d="M35,68.36a16.39,16.39,0,0,1-2.84,1c-2-3.86-5.41-10-5.27-12.5a103.39,103.39,0,0,0-.42-13,101.74,101.74,0,0,0-.43,13c.15,2.68-3.76,9.39-5.6,13.18a9.17,9.17,0,0,1-2.61-1c1.65-5.24,4.07-11.54,4.07-13.87,0-2.89-1.26-3-2.39-9.16a25.28,25.28,0,0,1,0-10.34l6.23-1.21v0H26l.19,0a7,7,0,0,0,.79,0l.24,0v.06l6.25,1.21a25.5,25.5,0,0,1,0,10.34c-1.14,6.2-2.41,6.27-2.41,9.16C31.06,57.39,33.44,63.2,35,68.36Z"/><path class="cls-5" d="M31.71,35.82a.05.05,0,0,0,.05,0,.61.61,0,0,0,0-.11c0-.06,0-.06-.06,0a.15.15,0,0,0,0,.08.09.09,0,0,1,0,.07S31.66,35.84,31.71,35.82Z"/><path class="cls-5" d="M31.64,43.87a.08.08,0,0,1,0,.09c0,.07,0,.11.06.09s0-.07,0-.34c0-.1,0-.1-.08,0S31.56,43.84,31.64,43.87Z"/><path class="cls-5" d="M31.35,48a.19.19,0,0,1,0-.13c0-.07,0-.1-.07,0a1,1,0,0,0-.09.33h.09C31.37,48.13,31.4,48.08,31.35,48Z"/><path class="cls-5" d="M31.21,48.61a.24.24,0,0,0,0-.15.08.08,0,0,1,0-.1c0-.07,0-.11,0,0a.5.5,0,0,0,0,.34C31.18,48.7,31.19,48.69,31.21,48.61Z"/><path class="cls-5" d="M31.62,46.84c0-.06,0,0-.08.07s0,.09,0,.11S31.65,46.93,31.62,46.84Z"/><path class="cls-5" d="M31.45,47.54a.07.07,0,0,0,0,0C31.38,47.51,31.39,47.56,31.45,47.54Z"/><path class="cls-5" d="M31.54,48.37c.05,0,.07-.13,0-.15a.05.05,0,0,0-.05,0C31.49,48.31,31.5,48.39,31.54,48.37Z"/><path class="cls-5" d="M31.43,36c.08,0,.1,0,.13-.07s0-.11-.13-.09A.08.08,0,0,0,31.43,36Z"/><path class="cls-5" d="M30.48,49.75s0-.07.08-.09a.14.14,0,0,0,.09-.08c.05-.08.06-.12,0-.12l-.05,0c-.07.07-.13.08-.16,0s-.07-.05-.1.09-.06.16-.1.18-.1.16-.05.17S30.46,49.81,30.48,49.75Z"/><path class="cls-5" d="M30.54,49.29c.08,0,.11,0,.15,0s.06-.09,0-.14,0,0,0-.08.09-.16,0-.16a.09.09,0,0,0-.09.07s-.08.11-.15.15S30.39,49.22,30.54,49.29Z"/><path class="cls-5" d="M29.88,51.46c.08-.09.09-.11.08-.19s0-.14.07-.07.07.08.06.11.07,0,.09-.12a.5.5,0,0,1,.07-.16.23.23,0,0,0,.07-.09c.06-.15.07-.17,0-.21s0,0,0-.11,0-.08,0-.12a.13.13,0,0,1,0-.12,0,0,0,0,0,0-.07c-.06,0,0,0,0-.05s.11,0,.12-.3c0-.11,0-.1-.08,0s-.14.21-.23.19-.36.83-.38,1.28C29.79,51.56,29.79,51.56,29.88,51.46Z"/><path class="cls-5" d="M30.56,48.93c.1-.08.11-.45,0-.42s-.09.18,0,.19,0,0,0,.09S30.48,49,30.56,48.93Z"/><path class="cls-5" d="M30.9,47.43s.05,0,0-.08S30.85,47.44,30.9,47.43Z"/><path class="cls-5" d="M30,51.52s0,0,.06-.06,0-.09,0-.09S30,51.46,30,51.52Z"/><path class="cls-5" d="M31.86,45.69c0-.08,0-.12-.06-.08s0,.14,0,.15S31.85,45.73,31.86,45.69Z"/><path class="cls-5" d="M32.09,45.12s0,.09,0,.1A.05.05,0,0,0,32.09,45.12Z"/><path class="cls-5" d="M31.79,47.41a.14.14,0,0,1,0,.13c-.05.05,0,.12,0,.2s.1.1.16,0A.81.81,0,0,0,32,47.5c0-.17,0-.17-.1-.21S31.76,47.28,31.79,47.41Z"/><path class="cls-5" d="M32.28,43.37c-.05.07,0,.18,0,.19a3,3,0,0,0,.06-.78c0-.17,0-.21-.12-.14s-.06.24,0,.33A.47.47,0,0,1,32.28,43.37Z"/><path class="cls-5" d="M31.77,48c-.1,0-.12,0-.13,0s.18.15.25.13S31.91,48,31.77,48Z"/><path class="cls-5" d="M32.41,42.1a.38.38,0,0,1,.05-.14.13.13,0,0,0,0-.09s0-.08,0-.12-.05-.09-.08,0a.24.24,0,0,1-.06.12c-.05,0,0,.16,0,.23S32.4,42.2,32.41,42.1Z"/><path class="cls-5" d="M31.8,43.14l.08-.06,0-.11c-.06-.22-.18-.15-.15.09S31.72,43.21,31.8,43.14Z"/><path class="cls-5" d="M32.5,39.45s0,0,0-.17-.08-.12-.07,0S32.46,39.47,32.5,39.45Z"/><path class="cls-5" d="M31.84,36.16s-.05,0-.06-.11,0-.12-.07-.09-.17.13-.16.19a.54.54,0,0,1-.19.35c-.07.07,0,.13.07.13s.1,0,.11.07a1.61,1.61,0,0,1,0,.53.25.25,0,0,0,0,.1,3.46,3.46,0,0,0,.1.55.31.31,0,0,1-.1.34.47.47,0,0,0-.06.17c0,.11,0,.12.06.19s.16.24.13.29,0,.06,0,.1.06.08.08-.08,0-.2.13-.19.19-.11.07-.54a.71.71,0,0,1,0-.27.53.53,0,0,0-.06-.36s0-.06,0-.15a.31.31,0,0,0-.06-.33s0-.06,0-.14a.26.26,0,0,0,0-.3s0,0,0-.1.07-.17,0-.15-.06,0,0-.09a.13.13,0,0,1,.17,0,.55.55,0,0,1,.07.39c0,.12,0,.18,0,.2s0,.23,0,.25.05.32.12.32l.1,0c.25-.15.27-.13.32.39l0,.43c-.07,0-.16-.13-.17-.26s0-.12,0-.12l-.14-.21c-.11-.14-.11-.13-.12-.05a.33.33,0,0,0,.09.28c.07.09.07.1,0,.19a.92.92,0,0,0-.07.45c0,.19,0,.21.08.12s.24-.17.29-.13a1.86,1.86,0,0,1,.19,1.21.3.3,0,0,0,0,.22s0,.11,0,.24,0,.22-.17.19a.31.31,0,0,0-.14,0,.15.15,0,0,1,0,.09c0,.07,0,.19,0,.19s0,0,0-.1,0-.11.18-.1.19,0,.15.31,0,.47.12.4.09,0,.12.08.05,0,.09.06.09,0,.07.43a2.31,2.31,0,0,0,0,.64.49.49,0,0,1,0,.21c0,.09-.06.15,0,.17a.61.61,0,0,1,0,.21c0,.16,0,.17-.13.18s-.13,0-.14-.13,0-.2-.06-.2,0,0-.07.18,0,.2-.11.26-.1.16,0,.17,0,0,0,.07a.23.23,0,0,0,0,.14,1.2,1.2,0,0,0,.11-.12.18.18,0,0,0,0-.12.15.15,0,0,1,.24-.15s0,0,0,.13-.07.11-.05.27A1.29,1.29,0,0,1,33,44c-.05.23-.05.25,0,.3s.07.13,0,.2a.17.17,0,0,0-.06.15.24.24,0,0,1-.09.24c-.06.07-.12,0-.11-.14a.29.29,0,0,0-.08-.19c0-.06-.07-.11-.06-.13s0,0-.06,0a1.9,1.9,0,0,0-.16.91s0,.05,0,.1a.14.14,0,0,0,0,.13.2.2,0,0,1,0,.13.51.51,0,0,0-.07.32.1.1,0,0,1,0,.1s0,.08-.06.23a2.33,2.33,0,0,1,0,.3c0,.08,0,.11,0,.12s0,0,.06.07l.05.07s.19-.26.17-.29,0,0,0-.06.12,0,.08.1,0,.06,0,.1.05.05,0,.15a1.73,1.73,0,0,0-.1.28l-.12.38a.67.67,0,0,0,0,.31.51.51,0,0,1-.17.46c-.07,0-.07,0,0,.1a.24.24,0,0,1,0,.14.28.28,0,0,0,0,.13c0,.1-.12.28-.16.19s0,0-.05,0a.06.06,0,0,0,0,.1s0,0,0,.07,0,0-.06,0h-.08a.11.11,0,0,1-.08,0s-.06,0-.09,0-.17,0-.1-.21,0-.36-.09-.25a.23.23,0,0,0,0,.14.5.5,0,0,1-.1.36c-.05,0-.06,0-.1,0a.11.11,0,0,0-.1-.09c-.07,0-.08,0-.16.27s-.09.4,0,.36H31s.05,0,.06,0,.12-.11.13-.05-.1.24-.15.22a.11.11,0,0,0-.08,0s-.06,0-.09,0-.06,0-.09,0,0,.18,0,.19.05.1,0,.17,0,0-.07,0-.11,0-.13.15l-.12.43a4.39,4.39,0,0,0-.11.58c0,.18,0,.23-.09.29s-.1.13,0,.19a.07.07,0,0,1,0,.11c0,.07,0,.31,0,.32s0,0,0-.09.1-.23.15-.22.05,0,0,.07a.17.17,0,0,0,0,.12.1.1,0,0,1,0,.08.12.12,0,0,0,0,.12.23.23,0,0,1-.24.22c-.12,0-.18.06-.13.18s.05.09.06.08,0,0,0,.06-.09.17,0,.2,0,.06,0,.05-.05,0-.08,0-.12,0-.12-.08a.18.18,0,0,0-.06-.15c-.06-.05,0-.15.09-.29s.07-.08,0-.19-.08-.11,0-.18.08-.24,0-.26-.17,0-.26.4-.14.49-.18.32,0-.11-.08,0-.05.27,0,.28.09.11,0,.37-.1.35-.16.31-.06,0-.07.08,0,.11.05.11a.55.55,0,0,0-.15.28.4.4,0,0,0,.08.18c.08.12.07.34,0,.81a1.48,1.48,0,0,0-.06.7,2.67,2.67,0,0,0,.12.73.37.37,0,0,1,0,.17c0,.11,0,.14,0,.2a.61.61,0,0,1,.09.16.2.2,0,0,0,.07.13c.06,0,.09.18.06.27a2.3,2.3,0,0,0,.16.85c0,.11.07.15.14.17s.07,0,0,.07a.14.14,0,0,0,0,.09c-.12.06,0,.63.14.67s0,0,0,.05a1.27,1.27,0,0,0,.11.35c.12.31.12.31.23.32s.17.07.06.1-.07,0-.05.11c.24.75.24.75.18.77a0,0,0,0,0,0,.06c.1,0,.18,0,.18.08a1.06,1.06,0,0,0,.07.22,2,2,0,0,1,.08.31c0,.11,0,.16.08.19s.05.06,0,.1,0,.12,0,.12.2.4.14.45,0,0,0,.14a1.06,1.06,0,0,1,.11.21c0,.08.06.1.11.09s.24.41.19.54a.12.12,0,0,0,0,.1.18.18,0,0,1,0,.1.24.24,0,0,0,0,.14,1.79,1.79,0,0,0,.15.46c.06,0,.11.14.43.94.15.38.28.7.29.71s0,.06,0,.1,0,.12.07.32a1.59,1.59,0,0,1,.11.37.91.91,0,0,0,.13.37,4.62,4.62,0,0,1,.19.47,2.41,2.41,0,0,0,.35.69.67.67,0,0,1,.11.14,2.41,2.41,0,0,0,.36.45l0,0c.43-.15.85-.31,1.26-.5-1.6-5.16-4-11-4-13.22,0-2.89,1.27-3,2.41-9.16a25.5,25.5,0,0,0,0-10.34l-1.62-.32a2.53,2.53,0,0,0,.06.49C32,36,31.93,36.14,31.84,36.16Zm-.21.38c-.06,0-.06,0,0-.08a.17.17,0,0,1,.1-.07c.06,0,.07,0,0,.1S31.71,36.57,31.63,36.54Zm.17,1.25s0,.06.05.11-.09.19-.12,0S31.74,37.77,31.8,37.79ZM29.74,53s0,0,0,.05,0,0-.05,0,0,0,0,0A0,0,0,0,1,29.74,53Zm-.12,5.05a.05.05,0,0,1,0-.05c.05,0,.11.06.09.1S29.64,58.15,29.62,58.09Zm.14-4.5a.76.76,0,0,0-.08.21c0,.17,0,.18-.08.13a.21.21,0,0,1,0-.14c0-.13,0-.19-.09-.21s-.11-.2,0-.36.07-.11,0-.15,0-.11,0-.12.11.07.07.13,0,.18.09.17a.13.13,0,0,1,.07,0C29.82,53.35,29.81,53.47,29.76,53.59Zm.18,4.57c-.06,0-.11-.24-.06-.29s.08,0,.07.06S30,58,30,58a.13.13,0,0,1,.07,0C30.08,58.13,30,58.18,29.94,58.16Zm.22,1c-.16,0-.23-.08-.12-.1a.12.12,0,0,0,.08,0c0-.07.08-.07.16,0S30.37,59.17,30.16,59.15Zm.33.42s-.06,0,0-.08,0-.06-.05-.06-.07-.1,0-.15.05,0,.09.09S30.53,59.55,30.49,59.57Zm.21.69c0-.06,0-.07.05-.06S30.72,60.27,30.7,60.26Zm.06-9.35c0,.14,0,.18-.06.16s0-.08,0-.16,0-.15,0-.18,0-.06,0-.08.19,0,.18,0Zm.23-.83c0,.1,0,.11-.06.09s-.05-.05,0-.12.07-.15.1-.11A.32.32,0,0,1,31,50.08ZM31.2,62.6s0,0,.05,0,0,0,0,0S31.16,62.64,31.2,62.6Zm0-13.31c-.06,0,0-.06,0-.06A.11.11,0,0,1,31.21,49.29Zm1.09-.42c-.08.06-.11-.08-.06-.2a.7.7,0,0,0,.08-.2c0-.08,0-.11.09-.1S32.37,48.81,32.3,48.87Zm.22-.75c-.05.11-.08.08-.06-.06s.07-.19.11-.15S32.59,48,32.52,48.12Zm.09-.33s-.07-.08,0-.18.1-.18.13-.15A.52.52,0,0,1,32.61,47.79Zm.66-3.3c-.06,0-.07,0,0-.14C33.35,44.46,33.34,44.5,33.27,44.49Zm0-.56a.23.23,0,0,0-.09-.07c-.1-.06,0-.1.08,0a.11.11,0,0,1,.08.1C33.33,44,33.28,44,33.26,43.93Zm.2-.4a.16.16,0,0,0-.08.12c0,.12-.09.07-.09-.08s0-.18,0-.26a.6.6,0,0,0,0-.24c0-.09,0-.11,0-.23s.12-.31.09-.32,0-.08,0-.08,0,0,0,.07,0,.08,0,.09a.17.17,0,0,1,0,.09.1.1,0,0,0,0,.08s0,.07,0,.13C33.57,43.23,33.53,43.49,33.46,43.53Zm.11-2.1s-.12-.06-.12-.09l0-.11,0-.13C33.62,41.15,33.61,41.42,33.57,41.43Zm0-3.18c0,.28,0,.37.07.39s0,.16,0,.27a.89.89,0,0,0,0,.56.45.45,0,0,1,.06.14c.06.3.06.32,0,.34a.14.14,0,0,0-.09.2c.05.19-.06.34-.12.17s0-.06-.07-.06-.08-.06-.08-.18,0-.12-.12-.08-.08,0-.07.24a1.24,1.24,0,0,0,0,.25.24.24,0,0,1,0,.25c-.07.06-.17,0-.16-.12a2.24,2.24,0,0,0,0-.36,1.42,1.42,0,0,0-.11-.52c-.05-.09-.05-.1,0-.16a.14.14,0,0,0,0-.15c0-.1,0-.2.11-.17s0,0,0,.13a.18.18,0,0,0,.08.17c.08.06.09.13,0,.18a.05.05,0,0,0,0,.09.91.91,0,0,1,.2-.38.7.7,0,0,0,0-.53,1.75,1.75,0,0,1,0-.7.41.41,0,0,0,0-.21c0-.08,0-.2.08-.15A1.18,1.18,0,0,1,33.62,38.25ZM33,37.39c-.05,0,0-.14,0-.15s0,0,.05.07S33,37.44,33,37.39Zm.11.33a.66.66,0,0,0,0,.11c0,.07,0,.12-.09.09s-.09-.09,0-.19S33,37.65,33.06,37.72Zm0,.45s.06,0,0-.06,0-.15.11-.15,0,0,.06.11a.61.61,0,0,1,0,.42.44.44,0,0,0,0,.21c0,.14-.12.12-.21,0S32.9,38.18,33,38.17Zm.46-.86c.08,0,.09.25,0,.26s-.06,0-.07-.15S33.43,37.27,33.48,37.31Zm0-.15s0,0,0,0S33.46,37.15,33.44,37.16Zm-.52-1.37s0,.07,0,.15a.37.37,0,0,0,.08.26.61.61,0,0,1,.09.23c0,.09,0,.09.14.08s.2,0,.16.19-.06.13-.1,0a.09.09,0,0,0-.08-.06.18.18,0,0,1-.12,0c-.1,0-.12,0-.11.19s0,.37-.1.1,0-.19,0-.24,0-.08,0-.12a.21.21,0,0,1,0-.13v-.56C32.84,35.81,32.87,35.76,32.92,35.79Zm-.43.3s0,.11,0,.15-.06,0-.07,0A.11.11,0,0,1,32.49,36.09Zm-.1.26a.54.54,0,0,1,.06.3,1.22,1.22,0,0,0,0,.23q0,.27-.09.24s-.05,0-.05-.1l0-.33C32.3,36.46,32.33,36.33,32.39,36.35Zm-.15-.41c.07,0,.09,0,0,.08a.06.06,0,0,1-.07,0S32.19,36,32.24,35.94Z"/><path class="cls-5" d="M31.32,35.61c.08,0,.2-.06.21-.18s0-.12,0-.13a0,0,0,0,1,0,0l-.16,0,0,0C31.35,35.37,31.29,35.6,31.32,35.61Z"/><path class="cls-5" d="M31.92,40.67s0,.35,0,.37,0,0,0-.16S32,40.62,31.92,40.67Z"/><path class="cls-5" d="M32,46.76a.07.07,0,0,0,0,0C32,46.85,32,46.83,32,46.76Z"/><path class="cls-5" d="M31.94,40s0-.35,0-.39,0,0-.07,0,0,0-.07,0-.09,0-.06.11A.77.77,0,0,0,31.94,40Z"/><path class="cls-5" d="M31.94,47.05s0,0,0-.06,0-.06,0-.06,0,0,0,.06S31.92,47.05,31.94,47.05Z"/><path class="cls-5" d="M31.76,43.57a.08.08,0,0,0,0,0C31.73,43.49,31.74,43.57,31.76,43.57Z"/><path class="cls-5" d="M32.2,47s0-.08-.07,0,0,.06,0,.07S32.19,47,32.2,47Z"/><path class="cls-5" d="M31.93,42.5s0-.06,0-.09S31.9,42.5,31.93,42.5Z"/><path class="cls-6" d="M18.48,15c-.07-.2,7.18-2.53,13.78-.42,0,0-.37,16.16,1.43,21A17.47,17.47,0,0,1,19,36.14S20.49,20.67,18.48,15Z"/><path class="cls-6" d="M18.48,15C16.74,16,12.9,25.18,15,30.06c0,0,4.71-2,5-5.21a70.28,70.28,0,0,0,0-8.56Z"/><path class="cls-4" d="M29.38,13.29a2,2,0,0,1-.27,1.05.61.61,0,0,1-.83.23,1.34,1.34,0,0,1-.36-.92c-.05-.53,0-1.26.52-1.44S29.4,12.64,29.38,13.29Z"/><path class="cls-4" d="M20.48,13.29a2,2,0,0,0,.28,1.05.61.61,0,0,0,.83.23,1.34,1.34,0,0,0,.35-.92c0-.53,0-1.26-.52-1.44S20.47,12.64,20.48,13.29Z"/><path class="cls-4" d="M24,9.26c-.2.11-2.92,1.27-2.54,5.42s3.23,5.14,4.53,4.49,2.08-1.36,2.35-5S26.37,8,24,9.26Z"/><path class="cls-1" d="M22.09,11.55c.2-.42.47-.91.93-.92s.7.25,1,.06.22-.47.41-.64a.63.63,0,0,1,.72,0,7.14,7.14,0,0,0,.64.43c.56.25,1.34-.17,1.8.25s.45,1.27.73,1.81a.26.26,0,0,0,.14.15c.13,0,.24-.11.29-.23a3.32,3.32,0,0,0-.26-2.39,3.67,3.67,0,0,0-1-1.5,3.1,3.1,0,0,0-1.91-.54,5.66,5.66,0,0,0-3,.73,3.71,3.71,0,0,0-1.81,2.49c-.07.34,0,1,.47,1.12S22,11.85,22.09,11.55Z"/><path class="cls-6" d="M32.26,14.55c1.74,1,4.88,10.33,2.8,15.21,0,0-4.72-2-5-5.22A70.14,70.14,0,0,1,30,16Z"/><path class="cls-7" d="M9.85,41.76A22.48,22.48,0,0,0,5,43,38.62,38.62,0,0,0,.18,44.05a.27.27,0,0,0,.15.52c3.16-.77,6.72-.72,9.65-2.32A.26.26,0,0,0,9.85,41.76Z"/><path class="cls-8" d="M11.47,43.81a16.7,16.7,0,0,0-4.08,1.92c-.29.16-.09.67.22.54a17,17,0,0,0,4.1-1.9A.31.31,0,0,0,11.47,43.81Z"/><path class="cls-9" d="M10.84,14.62A13.82,13.82,0,0,0,7.43,13,36.28,36.28,0,0,0,3,11.31a.27.27,0,0,0-.21.5,29.23,29.23,0,0,0,4.3,2,12.37,12.37,0,0,0,3.55,1.27A.3.3,0,0,0,10.84,14.62Z"/><path class="cls-10" d="M9.39,9.43C8.57,8.58,7.44,8,6.54,7.22S4.83,5.54,4,4.7a.08.08,0,0,0-.13.1,11.62,11.62,0,0,0,2.33,3A8.55,8.55,0,0,0,9.07,10C9.39,10.08,9.6,9.65,9.39,9.43Z"/><path class="cls-11" d="M10.2,6.83A4.08,4.08,0,0,0,8.94,5.44,14.12,14.12,0,0,0,7.4,4.18c-.15-.11-.37.1-.26.26A14.11,14.11,0,0,0,8.43,6,4,4,0,0,0,9.83,7.2.3.3,0,0,0,10.2,6.83Z"/><path class="cls-12" d="M46.4,4.56a12.74,12.74,0,0,0-3.32,1.56,38.61,38.61,0,0,0-3.53,2.05.4.4,0,0,0,.4.69c1.24-.56,2.42-1.25,3.62-1.9a14.39,14.39,0,0,0,3.16-1.83A.34.34,0,0,0,46.4,4.56Z"/><path class="cls-13" d="M45.13,9.64a5,5,0,0,0-1.59.11,10.34,10.34,0,0,0-1.84.37.26.26,0,0,0,.07.51,9.42,9.42,0,0,0,1.76-.05,5.34,5.34,0,0,0,1.6-.23C45.42,10.23,45.54,9.7,45.13,9.64Z"/><path class="cls-14" d="M43.36,60.58a14.73,14.73,0,0,0-2-2.4,29.88,29.88,0,0,0-2.3-2.48.28.28,0,0,0-.43.34,17.45,17.45,0,0,0,2,2.62A11.09,11.09,0,0,0,42.94,61,.3.3,0,0,0,43.36,60.58Z"/><path class="cls-15" d="M43.46,55.41A8.62,8.62,0,0,0,40.36,54c-.29-.11-.47.35-.21.5a8.52,8.52,0,0,0,3.1,1.44A.3.3,0,0,0,43.46,55.41Z"/><path class="cls-16" d="M46.19,51.5a21.41,21.41,0,0,0-5.58-.84.3.3,0,0,0-.08.58,21.52,21.52,0,0,0,5.56,1A.38.38,0,0,0,46.19,51.5Z"/><path class="cls-17" d="M25.06,14.86a.59.59,0,0,1-.6,0c0-.17,0-.34,0-.51,0-.35,0-.69,0-1a2.54,2.54,0,0,0-.14-1.19c-.32-.61-1.33-.55-1.83-.21,0,0,0,0,0,0,.56.11,1.47-.27,1.68.57a7.06,7.06,0,0,1,0,1.95c0,.77.12.78.87.66C25.27,15.07,25.21,14.84,25.06,14.86Z"/><path class="cls-17" d="M25.65,11.61c.21,0,.39-.1.6-.08s.37.19.57.21.08-.05.08-.1C26.82,11.22,25.74,11.17,25.65,11.61Z"/><path class="cls-17" d="M23.54,12.9a.64.64,0,0,0-.68-.35c-.18,0-.5.14-.45.38,0,0,0,0,.05,0s.2-.13.33-.17a.65.65,0,0,1,.24,0,.58.58,0,0,0-.07.57c.06.18.21.35.4.22A.54.54,0,0,0,23.54,12.9Z"/><path class="cls-17" d="M26.74,12.58c-.21-.63-1.16-.36-1.24.22,0,.06.09.07.12,0a1.18,1.18,0,0,1,.42-.38l.1,0a.71.71,0,0,0-.1.7.36.36,0,0,0,.53.2A.74.74,0,0,0,26.74,12.58Z"/><path class="cls-18" d="M21.16,29s0,0,0-.06,0-.05-.05-.06,0,0,0,.14,0,.05.08,0S21.22,29,21.16,29Z"/><path class="cls-18" d="M21.13,27.62s0,0,.07,0,0,0,0-.05S21.1,27.58,21.13,27.62Z"/><path class="cls-18" d="M21.24,27.37a0,0,0,0,0,0,0C21.3,27.4,21.3,27.38,21.24,27.37Z"/><path class="cls-18" d="M21,29.23h-.07v.06c0,.13.15.15.14,0S21.06,29.24,21,29.23Z"/><path class="cls-18" d="M20.77,28.17c-.07,0,0,0,0,0S20.8,28.19,20.77,28.17Z"/><path class="cls-18" d="M20.79,27.52s0,0,0,0S20.78,27.49,20.79,27.52Z"/><path class="cls-18" d="M21.34,27.15c-.08,0-.1,0-.05.05s0,.05,0,.06,0,0,.06,0a.17.17,0,0,0,.06-.12Z"/><path class="cls-18" d="M20.8,29.48c.06,0,0,0,0,0S20.77,29.46,20.8,29.48Z"/><path class="cls-18" d="M20.8,27.43s0,0,0,0a0,0,0,0,0,0,0s0,0,0,0Z"/><path class="cls-18" d="M21.77,26.81s-.05,0,0,.05,0,0,0,0-.06,0,0,.07a.08.08,0,0,0,.07,0s.06,0,.12,0,.12,0,0-.08S21.8,26.8,21.77,26.81Z"/><path class="cls-18" d="M21.91,26.66s0,0-.06,0a.09.09,0,0,0-.08,0s0,0,0,0l.05,0a.17.17,0,0,1,.14,0c0,.05.07,0,.09,0a.09.09,0,0,1,.06-.06c.06,0,.08,0,0-.06A.37.37,0,0,0,21.91,26.66Z"/><path class="cls-18" d="M22,27.09s0-.08-.06-.08-.06.18,0,.2.07-.06,0-.08S22,27.11,22,27.09Z"/><path class="cls-18" d="M21.36,27a.11.11,0,0,0,0,.07s0,0,0,0,0,.05.05,0,0-.11,0-.15S21.38,26.93,21.36,27Z"/><path class="cls-18" d="M21.74,27.64c.07,0,.05,0,0,0S21.7,27.61,21.74,27.64Z"/><path class="cls-18" d="M19.78,30.4c0,.06,0,.08,0,0s0-.08,0-.1S19.79,30.34,19.78,30.4Z"/><path class="cls-18" d="M22.15,26s0,0,0,0,0,0,0,.05S22.19,26,22.15,26Z"/><path class="cls-18" d="M22.26,26.05c-.07,0-.08,0-.05.06s0,.07-.06,0-.07-.05-.07-.06-.06,0-.07,0,0,.05-.05.05a.07.07,0,0,0-.05,0s0,0,0,.08,0,0,0,.05,0,0,0,.05,0,0,0,.06,0,0,0,0,0,0,0,0-.1,0-.08.1.06.06.07,0,.11-.05.2,0,.23-.28.2-.48C22.33,26,22.33,26,22.26,26.05Z"/><path class="cls-18" d="M20.42,29.51s0-.06,0-.12,0-.05-.06,0a.05.05,0,0,1-.05,0,0,0,0,0,0,0,0s0,0,0,.06,0,.06.08,0S20.41,29.5,20.42,29.51Z"/><path class="cls-18" d="M19.39,31.31c.06,0,.09-.11,0-.16l-.07,0v.21Z"/><path class="cls-18" d="M19.4,30.83a0,0,0,0,0,0,.06,1.24,1.24,0,0,0,0,.16c0,.1,0,.1.06.09s.06-.05,0-.14,0-.08,0-.08a.24.24,0,0,0,.2-.09c0-.06,0-.08,0-.09a.65.65,0,0,1-.26-.14.47.47,0,0,1,.16-.51s.05,0,0-.08,0-.06,0-.09.08-.06.18,0L20,30s0,0,0,0,0-.06,0-.08a0,0,0,0,0-.05,0s0,0-.17-.07-.14-.12-.07-.19.06-.19,0-.21a.12.12,0,0,1-.09-.1s0,0-.07-.07-.07-.05,0-.19.09-.19.08-.24,0,0,.06-.06.06,0,.05,0,0,0,0-.07.06,0,.13,0,.11.07.11.12,0,.09,0,.11,0,0,.07,0,0-.07.11-.06.1,0,0-.06,0,0,0,0a.06.06,0,0,0,0-.06h-.11s0,0,0,0-.12,0-.22-.05,0,0,0,0,.06,0,0-.1a.2.2,0,0,1,0-.16c0-.07,0-.08,0-.13s-.06-.08,0-.07.06,0,.06,0,0-.07.08-.07a.11.11,0,0,1,.1.11.17.17,0,0,0,.06.11.21.21,0,0,1,.06.09l.05,0c.06,0,.21-.27.14-.33s0,0,0,0,0,0,0,0,0-.05,0-.05.07-.09.05-.12,0,0,0,0,0,0,0-.09a.19.19,0,0,1,0-.11s0,0,0-.06-.05,0-.07-.06a.14.14,0,0,0,0,0s-.16,0-.14.06,0,0,0,0-.11-.06-.08-.08,0,0,0-.05,0,0,0-.07a.29.29,0,0,0,.07-.08l.08-.13a.11.11,0,0,0,0-.12.1.1,0,0,1,.12-.14c.06,0,.06,0,0,0a.13.13,0,0,1,0-.07s0,0,0-.06.08-.08.12,0a.09.09,0,0,0,.06,0s0,0-.05-.05,0,0,0,0a0,0,0,0,1,.05,0l.07,0a.13.13,0,0,1,.08,0,.11.11,0,0,0,.08,0,.08.08,0,0,1,.11.12c0,.08,0,.16.1.14s0,0,0,0,0-.13.06-.13,0,0,.09.05a.23.23,0,0,0,.11.08c.06,0,.06,0,.11-.08s0-.15,0-.16l-.08,0h0s-.1,0-.11,0,.05-.08.1-.06l.08,0,.08,0s.06,0,.08,0,0-.07,0-.09a.08.08,0,0,1-.05-.09h.06c.06,0,.1,0,.11,0l.05-.17a.61.61,0,0,0,0-.22c0-.08,0-.09.05-.11s.07,0,0-.07-.05,0,0-.06,0-.12,0-.13,0,0,0,0a.08.08,0,0,1-.12.06s0,0,0,0a0,0,0,0,0,0,0s0,0,0,0,0,0,0-.05.08-.07.19,0,.16,0,.1-.05l-.07-.05c-.05,0,0,0,0,0s.07,0,0-.08,0,0,0,0a.09.09,0,0,0,.07,0c.06,0,.11,0,.12.06a.15.15,0,0,0,.08.08c.06,0,0,.07-.05.1s-.06,0,0,.09.09.07,0,.08,0,.08,0,.11.15,0,.19-.11.07-.17.13-.09,0,.05.08,0,0-.1-.06-.12-.1-.07-.06-.15.07-.11.13-.08.06,0,.06,0,0,0,0,0,.13,0,.12-.06,0-.06-.08-.09-.08-.14,0-.27.19-.38.15-.42,0,0,0-.05,0,0,0-.07a.11.11,0,0,1,0-.07.07.07,0,0,0,0-.06s0-.07,0-.08.15-.17.17-.26a.08.08,0,0,0-.06-.09c-.05,0-.05,0,0,0s0,0,0,0,.24-.17.16-.22,0,0,0,0,0-.06.05-.13,0-.13-.06-.17-.12-.08,0-.05.08,0,.09,0c.12-.28.12-.28.18-.27h.05c-.1,0-.15-.06-.12-.09a.22.22,0,0,0,0-.08.39.39,0,0,1,.06-.11s0-.07,0-.09,0,0,0,0,.08,0,0,0,0-.18.06-.17.06,0,0-.05a.34.34,0,0,1,0-.1s0,0-.05-.06-.05-.19,0-.22a0,0,0,0,0,0,0s0,0,0,0,0,0,.05-.05.06-.17,0-.19,0-.07,0-.42a1.13,1.13,0,0,0,0-.32s0,0,0,0,0,0,0-.13a.37.37,0,0,1,0-.16.18.18,0,0,0,0-.16,2.09,2.09,0,0,1-.05-.21.5.5,0,0,0-.17-.32.23.23,0,0,1-.07-.07.93.93,0,0,0-.25-.21c-.08,0-.21-.12-.21-.15s0,0-.13,0a1.46,1.46,0,0,1-.21,0h-.15a.22.22,0,0,1-.14,0,2,2,0,0,0-.6,0,.52.52,0,0,1-.17,0,1.49,1.49,0,0,0-.68.17.29.29,0,0,1-.11.06c-.08,0-.24.12-.24.15l0,0s0,0-.06.06l-.07.09a.88.88,0,0,0-.15.21l-.07.06a.09.09,0,0,0-.05,0l-.05.06s0,0,0,.05,0,0,0,.05-.06,0,0,.07,0,0,0,0,0,.11,0,.12a0,0,0,0,1,0,.06s0,.06-.1.09,0,.06,0,.12,0,0,0,.06,0,0,0,.05,0,0,0,0l-.09,0c-.05,0-.06,0,0,0-.11,0-.16,0-.14,0a.24.24,0,0,1,0,.09s0,0,.05.07a.1.1,0,0,1,.08.06l0,.05s0,0-.08,0-.13,0-.08.05.09.16,0,.18,0,0,0,0,0,.13,0,.14,0,0-.05.05a.43.43,0,0,1-.05.13.39.39,0,0,0-.05.14.66.66,0,0,1,0,.11c0,.05,0,.05,0,.12a.23.23,0,0,1,0,.07.22.22,0,0,0,0,.06s0,.05,0,.05c.07,2,.05,4.07,0,6,0-.05,0-.07.08-.06a.08.08,0,0,0,.07,0s.07,0,.07.07a.44.44,0,0,1,0,.1.17.17,0,0,0,0,.1c0,.05,0,.05,0,.08s-.13.06-.1.07,0,0,0,0,0,0,0,0,0,0,0-.05,0,0,0,0c0,.39,0,.76,0,1.13a.17.17,0,0,1,0-.05.22.22,0,0,0,0-.11c0-.05,0-.08.07-.07s.14.11.11.13l-.08.12a.38.38,0,0,0,0,.24c0,.06,0,.06,0,.05s-.07,0-.07,0,0,0,0,0l0,.62A.15.15,0,0,1,19.4,30.83Zm4.09-8.75c.05,0,0,0,0,0s0,0,0,0S23.46,22.07,23.49,22.08ZM23,23.86s0,0-.05,0-.08-.05,0-.05A.15.15,0,0,1,23,23.86Zm0-.92h-.07S22.9,22.93,22.92,22.94Zm-.19.31c0-.06,0-.07.07-.06s.05,0,0,0,0,0,0,0,0,0-.07,0S22.72,23.28,22.73,23.25Zm.18.17c.14.06.18.1.07.06h-.1a.17.17,0,0,1-.14-.06C22.67,23.34,22.74,23.34,22.91,23.42Zm-.22.32s0,.09-.06.09-.07,0,0,0,0,0,0,0l0,0S22.64,23.71,22.69,23.74Zm-.5,1.66s0,0,0,0h0l0,0S22.22,25.41,22.19,25.4Zm-.07-.22a.12.12,0,0,0,.06-.06c0-.06,0-.06.07,0a.09.09,0,0,1,0,.06s0,.07.1.1.11.11,0,.14-.05,0,0,.05.05.06,0,0-.11,0-.09-.07,0-.08-.09-.09a.15.15,0,0,1-.08,0C22.08,25.25,22.08,25.21,22.12,25.18Zm-.61.88s0-.07,0,0a.06.06,0,0,1,0,.07c0,.05,0,.06.06.09s.06,0,0,0-.17-.05-.17-.07Zm-.06.28s.05,0,.05.06a0,0,0,0,1-.08,0s0,0,0-.06S21.4,26.32,21.45,26.34Zm-.15.34a.1.1,0,0,1,0,0C21.34,26.67,21.32,26.69,21.3,26.68Zm-1-.18c.06,0,.11.07.07.1l-.05.06s0,0-.06,0S20.28,26.5,20.34,26.5Zm-.12.24s.07,0,.06.05,0,.06-.09,0S20.17,26.77,20.22,26.74Zm0,.12s.08.06.06.09-.07,0-.1,0S20.14,26.86,20.17,26.86ZM19.74,28c.05,0,.06,0,0,.06S19.68,28,19.74,28Zm-.06.2s0,0,.06,0l.07.07c.09.07,0,.05-.07,0S19.68,28.22,19.68,28.2Z"/><path class="cls-18" d="M20.3,30.63a0,0,0,0,0,.05,0s0,0,.06.05.07.06.07,0a.46.46,0,0,0-.09-.23S20.28,30.59,20.3,30.63Z"/><path class="cls-18" d="M19.35,32a.07.07,0,0,0,0-.05v.1C19.36,32.11,19.39,32.09,19.35,32Z"/><path class="cls-18" d="M19.65,32c.08,0,.09,0,0-.08s-.06-.07,0-.09.19-.15.22-.14l.05,0A1.14,1.14,0,0,0,20,31.4c0-.07.06-.08.2,0a.18.18,0,0,0,.1,0c.06,0,.06,0,0-.11s0-.18,0-.18,0,0,0-.05,0-.07-.09,0-.09.06-.16,0-.17-.08-.23.13a.13.13,0,0,1-.07.1.15.15,0,0,0-.09.14s0,0-.06,0-.1,0-.08.12,0,0-.06,0-.13,0-.1.09,0,0-.07,0,0,.18,0,.27,0,0,0,0A.54.54,0,0,1,19.65,32Zm.21-.71a.06.06,0,1,1,.1.07s-.07,0-.1,0A.06.06,0,0,1,19.86,31.25Zm-.48.43s.06,0,.11.08,0,0,0,0l-.09-.05C19.32,31.7,19.32,31.69,19.38,31.68Z"/><path class="cls-18" d="M20.54,29.23s.06-.08,0-.14-.05-.17,0-.18,0-.07,0-.11-.09.22-.1.31S20.46,29.22,20.54,29.23Z"/><path class="cls-18" d="M21,27.31s0,0,0,0,0,0-.05-.1-.11-.08-.15-.06a.16.16,0,0,0-.05.08c0,.07,0,.07.1.13S21,27.38,21,27.31Z"/><path class="cls-18" d="M20.92,27.06c.09.05.1.06.11,0a.72.72,0,0,0-.24-.14C20.72,26.94,20.78,27,20.92,27.06Z"/><path class="cls-18" d="M20.54,30.1c0,.1,0,.12,0,.12s.07-.14,0-.17S20.56,30.05,20.54,30.1Z"/><path class="cls-18" d="M20.61,27.36s0,.05.06,0,0,0,0,0Z"/><path class="cls-18" d="M21,29.07s0,0,0,0S21,29.06,21,29.07Z"/><path class="cls-18" d="M21.12,27s0-.05,0-.06,0,0,0,.06A0,0,0,0,0,21.12,27Z"/><path class="cls-18" d="M21,28.06s0,.06.05.06,0-.06,0-.07A0,0,0,0,0,21,28.06Z"/><path class="cls-18" d="M27.8,25.78s0,0,0,0S27.75,25.81,27.8,25.78Z"/><path class="cls-18" d="M27.89,26.16s0,0-.06,0,.08.11.14.11.05,0,0,0a.06.06,0,0,0-.06,0S27.89,26.18,27.89,26.16Z"/><path class="cls-18" d="M27.76,25.94s0,.16,0,.16l.07-.05c.08,0,.08-.06,0-.08s-.05,0-.05,0S27.77,25.9,27.76,25.94Z"/><path class="cls-18" d="M28,25.31s0,0,0,0S28.05,25.33,28,25.31Z"/><path class="cls-18" d="M28.26,25.31s-.06,0-.07,0,0,0,0,0S28.26,25.32,28.26,25.31Z"/><path class="cls-18" d="M28.05,25.61s0,0,0,.05,0,.06.11.06.13,0,.15-.06a.26.26,0,0,0,0-.11c0-.07,0-.07-.16,0S28,25.58,28.05,25.61Z"/><path class="cls-18" d="M28.05,25.43s0,0,0,0,0,0,0,0,0,0,0,0S28,25.44,28.05,25.43Z"/><path class="cls-18" d="M27.84,26.68s0-.05,0-.06,0,0,0,0,0-.09-.05-.07-.05,0,0,.06,0,.07-.08.12-.08.09.08,0S27.82,26.71,27.84,26.68Z"/><path class="cls-18" d="M28.1,27.58h.1s0,0,0-.09a.12.12,0,0,1,0-.08.08.08,0,0,0,0-.06c0-.07,0-.08-.07-.07s-.05,0,0,0,0,0-.05,0-.06,0-.06,0,0,0,0,0,0,0,0,0,.09-.06,0-.15-.08,0-.06,0,0,.14-.11.17.06.43.24.58,0,0,.07,0,0-.08,0-.1S28,27.6,28.1,27.58Z"/><path class="cls-18" d="M27.85,26.92s0,0,0-.06a.18.18,0,0,0,.05-.07c0-.05,0-.06,0-.06h-.06c0,.05-.07.09-.12.08s-.08,0-.05.08a.17.17,0,0,1,0,.1c0,.05,0,.1,0,.08S27.86,27,27.85,26.92Z"/><path class="cls-18" d="M28.14,25.86a.6.6,0,0,0,.27-.05c.07,0,0,0-.16,0S28.14,25.84,28.14,25.86Z"/><path class="cls-18" d="M27.53,24.68s0,0,0,0S27.56,24.67,27.53,24.68Z"/><path class="cls-18" d="M27.4,26.47s0,.1,0,.09,0,0,0,0,.06.07.1,0S27.49,26.42,27.4,26.47Z"/><path class="cls-18" d="M27.7,25.56c.05,0,.05-.07,0-.08s-.05,0-.05.05S27.66,25.57,27.7,25.56Z"/><path class="cls-18" d="M27.48,25s0,0,0,0a0,0,0,0,0-.08,0S27.45,25,27.48,25Z"/><path class="cls-18" d="M32.15,27a1.28,1.28,0,0,1-.26-.43s0,0,0,0a.17.17,0,0,1-.06-.06.42.42,0,0,0-.09-.15.33.33,0,0,1-.06-.12.07.07,0,0,0,0-.06s0,0,0,0,0,0-.05,0-.08,0,0,0,0,0,0,0a3.89,3.89,0,0,1-.41-.74l-.06-.15-.14-.35c-.09-.25-.18-.53-.19-.56a3.52,3.52,0,0,0-.16-.39.74.74,0,0,1-.08-.24c0-.12,0-.14-.06-.21s-.08-.27-.11-.28,0,0,0,0,0,0-.05-.06-.06,0-.05-.09,0-.07,0-.07a1.33,1.33,0,0,1-.13-.44c0-.19,0-.17-.1-.44a2.12,2.12,0,0,1,0-.32c0-.05,0-.1,0-.1s-.08-.18-.05-.2,0-.06,0-.12a2.72,2.72,0,0,1,0-.45s0,0,0,0,0-.05,0-.12a.49.49,0,0,0,0-.34c0-.08,0-.09-.15-.07s-.17,0-.09,0,0-.06,0-.05-.12,0-.11,0,0,0,0,0-.05,0-.05,0-.08,0-.18,0-.09,0-.08,0,0,0,0,0-.07,0-.07-.05-.1,0-.17,0a.1.1,0,0,0,0,.09.15.15,0,0,1-.05.1c-.07,0-.09,0,0,0s0-.07-.07-.07-.1.06-.07.09,0,.05,0,.09-.21.07-.14-.11-.06-.14-.24-.11-.13,0-.14,0,0-.05-.12,0,0,.13.08.12.14.07,0,.09a.42.42,0,0,0-.15,0c-.14,0-.35,0-.25,0s0,0,0,0-.11.07-.18.05h-.1a.18.18,0,0,1-.12,0c-.08,0-.08-.08,0-.1s.07-.06,0-.07-.19.08-.18.11a.2.2,0,0,1,0,.08s0,0-.09,0-.1,0-.13,0,0,0-.17,0a.32.32,0,0,0-.15,0,.47.47,0,0,0-.08.28.14.14,0,0,1-.13.17s-.05,0,0-.06,0-.06-.06,0-.19.06-.18.09-.14.13-.25.17-.06.06,0,.06.1,0,.1,0,0,.25-.06.26a.11.11,0,0,0,0,.06.83.83,0,0,0,.06.27c0,.08,0,.1-.1.18a.23.23,0,0,0-.07.09c0,.06,0,.06.07.09s.16.11.13.14,0,0,0,0S26,22,26,22s0-.1.12-.11.19-.06.08-.27a.13.13,0,0,1,0-.13.16.16,0,0,0,0-.17s0,0,0-.08,0-.11,0-.16,0,0,0-.07.06-.11,0-.14,0,0,0-.06.1-.07,0-.07-.06,0,0,0a.25.25,0,0,1,.17,0c.05,0,.05.09,0,.19s0,.09,0,.1,0,.11,0,.12,0,.15.09.15l.1,0c.27-.08.28-.07.3.17l0,.2a.15.15,0,0,1-.17-.11s0-.05,0-.05l-.13-.1c-.1-.06-.1-.06-.11,0s0,.08.07.13.07.05,0,.09a.26.26,0,0,0-.08.22c0,.09,0,.1.09.05a.6.6,0,0,1,.29-.08c.13,0,.27.34.22.53s0,.08,0,.1,0,0,0,.1,0,.11-.15.11l-.14,0a0,0,0,0,1,0,.05,0,0,0,0,0,.05.08s0,0,0-.05,0-.05.17-.07.19,0,.19.11.08.2.16.16a.11.11,0,0,1,.14,0h.1c.08,0,.08,0,.13.17s.06.23.1.26,0,0,0,.09,0,.08,0,.08,0,0,0,.09,0,.07-.09.09-.12,0-.16,0-.06-.08-.1-.07,0,0,0,.09,0,.09,0,.13-.06.09,0,.07.05,0,0,0,0,.05,0,.06.05-.05.07-.07,0-.05,0-.07.06-.12.19-.11,0,0,0,.06,0,.05,0,.11A.28.28,0,0,1,28,24c0,.1,0,.11.08.12s.1,0,0,.08,0,.05,0,.07,0,.07,0,.12a.1.1,0,0,1-.15,0,.2.2,0,0,0-.13-.06s-.1,0-.1,0h-.06c-.08,0,0,.39.12.4s0,0,0,0,0,0,0,.06,0,0,0,.05a.12.12,0,0,0,.05.14s0,0,0,0,0,.05,0,.1a.52.52,0,0,1,.07.12s0,.05.06,0a.11.11,0,0,1,.08,0h.06s.08-.16.06-.16,0,0,0,0,.12,0,.11,0,0,0,.06,0,.06,0,.06.05a.3.3,0,0,0,0,.13l0,.17a.12.12,0,0,0,.08.11.13.13,0,0,1,0,.21c-.06,0-.06,0,0,0l.09,0a0,0,0,0,0,.05,0c.05,0,0,.13-.06.12s-.05,0-.06,0,0,0,.07,0,0,0,0,0a0,0,0,0,1,0,0l-.07,0s0,0-.07,0a.06.06,0,0,0-.06.05c0,.09-.14.07-.18,0s-.14-.11-.17,0,0,.05,0,.06a.13.13,0,0,1,.06.16s0,0-.1,0a.32.32,0,0,0-.14,0c-.06,0-.06,0,0,.15s.09.17.15.12a.13.13,0,0,1,.07,0s0,0,0,0,.06-.09.09-.07,0,.11,0,.13l-.07,0s0,0-.08,0-.06,0-.06.05,0,.07.09.05a.1.1,0,0,1,.1,0l-.05,0c-.07,0-.08.06-.06.11l.1.18a.7.7,0,0,0,.15.23c.06.06.07.08.05.13s0,.08.05.07.07,0,.07,0,.1.1.14.09a0,0,0,0,0,0-.05c0-.07,0-.12,0-.14s.05,0,.05,0,0,0,0,0,0,0,0,0,0,0,0,0,0,.14-.1.19-.12.11,0,.12l.09,0s0,0,0,0,0,.1.06.07,0,0,0,0l-.06,0a.07.07,0,0,1-.12,0,.16.16,0,0,0-.12,0c-.07,0-.09,0-.05-.12s0,0-.09,0-.12,0-.1,0,0-.11-.11-.07-.12.09,0,.24.09.21,0,.19-.07,0-.09,0,.08.1.15.06.12,0,.16.08.06.15,0,.18-.05,0,0,0,0,0,.07,0-.05.13,0,.15.06,0,.12,0,.17.05.23.23.25.47.3.47,0,0,0,.06,0,.06.06,0a.12.12,0,0,1,.09,0s.05,0,.07,0,.08,0,.06.1a.55.55,0,0,0,.16.34.08.08,0,0,0,.11,0c.06,0,.07,0,.05,0a0,0,0,0,0,0,.05c-.1.09,0,.34.13.3s0,0,0,0a.39.39,0,0,0,.11.15c.11.11.11.11.19.06s.14-.05.06,0-.06.06,0,.09c.24.3.24.31.21.35s0,0,0,.05.14-.1.15-.06a.18.18,0,0,0,.07.1l.1.12c0,.05.05.07.08.07s0,0,0,.05,0,.09,0,.05.2.11.17.17,0,.06,0,.07l.12.06s.06,0,.09,0,.24.08.23.19a.05.05,0,0,0,0,0,.05.05,0,0,1,0,0,.13.13,0,0,0,0,.07c.15.14.18.16.21.15s.1,0,.53.2a1.59,1.59,0,0,0,.4.12s0,0,0,0,0,.06.15.09l.12,0c-.25-1.51-.43-3.33-.56-5.24a5.46,5.46,0,0,1-.25-.54A.79.79,0,0,0,32.15,27ZM26,21.49s0-.08.08-.07,0,0,.05,0S26,21.57,26,21.49Zm.16-.71s0,0-.13,0-.06,0,0,0a.23.23,0,0,1,.11,0C26.18,20.72,26.19,20.73,26.15,20.78Zm.57-.26c.07,0,.09,0,0,0a.12.12,0,0,1-.08,0S26.67,20.53,26.72,20.52Zm.1.34a.15.15,0,0,0,0,.1c0,.09,0,.12-.12.12s0,0,0,0l0-.16c0-.1.06-.16.12-.15S26.84,20.83,26.82,20.86Zm.09-.19c-.05,0-.06,0-.06,0s0-.06.09-.07S27,20.65,26.91,20.67Zm1.29-.55c.1,0,.12,0,0,0s-.12,0-.11,0S28.15,20.13,28.2,20.12Zm-.44,1.12s-.06,0-.05-.06,0-.06.07-.05S27.84,21.24,27.76,21.24Zm0-.19c.05,0,0,0,0,0S27.69,21.07,27.73,21.05Zm-.47-.17s0,0,0-.05a0,0,0,0,1,0-.06l.05-.18,0-.07c0-.05.05-.07.1-.05s0,0,0,.07,0,.07,0,.11a.22.22,0,0,1,.06.1s0,0,.13,0,.19,0,.13.08-.07.06-.1,0,0,0-.08,0h-.12c-.09,0-.11,0-.12.09s-.06.16-.11,0S27.23,20.91,27.26,20.88Zm0,.24a0,0,0,0,1,.05,0s0,.06-.08,0S27.22,21.12,27.27,21.12Zm0,.22c.05,0,.05,0,.07,0l0,.05s0,.05-.08,0S27.19,21.39,27.25,21.34Zm0,.19s0,0,0,0,.06-.07.12-.07a.08.08,0,0,1,.06,0,.15.15,0,0,1,0,.19s0,.08,0,.09-.12.07-.2,0S27.15,21.54,27.28,21.53Zm.56.89-.07,0a.07.07,0,0,1-.09-.06c0-.05,0-.05-.13,0s-.08,0-.05.11.05.1.07.1.05.09,0,.11-.18,0-.18,0a.64.64,0,0,0,0-.16.46.46,0,0,0-.15-.22c-.06,0-.06,0,0-.07s.05,0,0-.07,0-.09.11-.09a0,0,0,0,1,.05,0s0,.06.09.07.11.05.06.07,0,0,0,0a.61.61,0,0,1,.17-.19c.07,0,.05-.19,0-.23s-.08-.22,0-.29a.11.11,0,0,0,0-.1s0-.09.08-.07a.3.3,0,0,1,.05.17c0,.11,0,.15.07.16s0,.06,0,.11,0,.23,0,.24a.13.13,0,0,1,.07.05c.08.12.08.13,0,.15s-.12.05-.07.09S27.92,22.48,27.84,22.42Zm.09.43,0-.05,0-.07c.08,0,.1.12.07.14A.24.24,0,0,1,27.93,22.85Zm.35,1.06h-.1c-.11,0-.05,0,.07,0l.1,0S28.32,23.92,28.28,23.91Zm0-.14c0,.05-.07.05-.1,0a.54.54,0,0,1-.05-.11.2.2,0,0,0-.07-.09c-.05,0-.06,0,0-.1s.05-.14,0-.14,0,0,0,0,0,0,0,0,0,0,0,0,0,0,0,0,0,0,0,0l.06.05c.08.12.11.23.05.26S28.32,23.76,28.33,23.77Zm.11.34c-.06,0-.07,0-.05-.05S28.51,24.1,28.44,24.11Zm-.18,2.32,0,0C28.24,26.48,28.24,26.44,28.26,26.43Zm.11.32a.09.09,0,0,1,.06,0s0,0,0,.05-.06,0-.08,0A0,0,0,0,1,28.37,26.75Zm.23.46s-.05,0-.07,0-.05-.05-.12,0-.07,0-.05,0,.16-.09.17-.07l.06.08C28.62,27.18,28.63,27.2,28.6,27.21Zm.06,1h.05a.07.07,0,0,1,0,0s0,0-.05,0A.05.05,0,0,1,28.66,28.24Zm.23.31a.07.07,0,0,1-.07,0c0-.05-.08-.05-.15,0s-.16,0-.14-.09,0-.07,0-.06-.08,0-.05,0,.12,0,.12,0,.09,0,.14,0l.08,0c.07,0,.11,0,.1.08a.3.3,0,0,0,0,.1C28.94,28.54,28.94,28.54,28.89,28.55Zm-.16-5.47s-.05,0,0-.07a.06.06,0,0,1,.06,0C28.84,23,28.81,23.08,28.73,23.08Zm.09,2.31s0-.09.06-.09.07.1.05.13S28.83,25.43,28.82,25.39Zm.08.18c0-.05,0-.09,0-.09s0,0,0,.08S28.93,25.62,28.9,25.57Zm.16.3a.07.07,0,0,1-.12,0,.34.34,0,0,0,0-.1s0,0,0-.06S29.1,25.83,29.06,25.87Zm0-2.59c-.05,0-.23,0-.25,0s0,0,.05,0,.16-.06.15-.11,0-.09.07-.07S29.12,23.23,29,23.28Zm.11-.46s-.06,0-.06,0,0,0-.07,0l-.1,0c-.1,0-.11,0,0,0l.09-.06a.54.54,0,0,1,.25-.06C29.34,22.73,29.26,22.86,29.15,22.82Zm.44,7.3s0,0,0,0,.09,0,.07,0S29.6,30.14,29.59,30.12Zm.14-9.29h-.05s0,0,0,0,.05,0,.05,0S29.75,20.83,29.73,20.83ZM29.85,30a.07.07,0,0,1-.05-.12s.06,0,.05,0,0,0,0,0h.05S29.9,30,29.85,30Zm.19.43c-.13.07-.19.07-.1,0l.06-.06c0-.05.07-.08.13-.09S30.21,30.33,30,30.43Zm.28.07s0,0,0,0,0,0,0,0-.06,0,0-.09,0,0,.07,0S30.36,30.46,30.32,30.5Zm.2.28a0,0,0,0,1,0-.06A0,0,0,0,1,30.52,30.78Zm.65,1.09s-.06,0,0,0,0,0,0,0S31.19,31.85,31.17,31.87Z"/><path class="cls-18" d="M26.17,22.3s0,0-.08,0-.09,0-.05.06a.54.54,0,0,0,.23.11s0-.17,0-.19S26.2,22.28,26.17,22.3Z"/><path class="cls-18" d="M27.7,20s0,0,0,0-.08,0,0,0A.09.09,0,0,0,27.7,20Z"/><path class="cls-18" d="M26.33,22.81s0,.16.08.16,0,0,0-.08S26.36,22.78,26.33,22.81Z"/><path class="cls-18" d="M28.14,26s0,0,.07,0,0-.07,0-.05A0,0,0,0,0,28.14,26Z"/><path class="cls-18" d="M26.65,23.6c-.06,0,0,0,0,0S26.69,23.61,26.65,23.6Z"/><path class="cls-18" d="M26.18,20.4a0,0,0,0,1,0,0s0,0,0,0,.06,0,.06,0,0,0,0-.05,0,0-.05,0Z"/><path class="cls-18" d="M25.92,20.51c.08,0,.09,0,.14,0s0-.06-.11-.06S25.83,20.49,25.92,20.51Z"/><path class="cls-18" d="M26.13,20.25s.06-.06.08-.06,0-.08,0-.09a.07.07,0,0,0-.06,0l-.07,0c-.09.05-.2.16-.17.17A.3.3,0,0,0,26.13,20.25Z"/><path class="cls-18" d="M26.78,22.16s0,0,0-.08-.08,0-.07,0S26.74,22.18,26.78,22.16Z"/><path class="cls-18" d="M27,23.63s0,.11.07.14.14.11.11.16,0,.08.11.07-.08-.26-.14-.34S27.08,23.58,27,23.63Z"/><path class="cls-18" d="M27.26,26s0,0,0,0S27.23,26,27.26,26Z"/><path class="cls-18" d="M28.18,27.62c-.05,0,0,.07,0,.07s.05,0,0-.05S28.2,27.61,28.18,27.62Z"/><path class="cls-18" d="M26.75,23.91l-.05,0c-.11-.09-.21,0-.12.07s.05.06.11,0Z"/><path class="cls-18" d="M26.77,24.15s0,0,0,0S26.74,24.15,26.77,24.15Z"/><path class="cls-18" d="M26.72,24.23c-.07.08-.07.09,0,.08s.06,0,.07,0,0,0,.07,0,0,0-.07-.15S26.77,24.17,26.72,24.23Z"/><path class="cls-18" d="M27.05,23.36a.06.06,0,0,1,0-.06s0,0,0-.05l0-.05s-.07,0-.08,0,0,.07,0,.07,0,.07.08.09S27.06,23.41,27.05,23.36Z"/><path class="cls-1" d="M21.14,17.89c.2.34.5.58.74.91s.22.79.32,1.24a1.38,1.38,0,0,0,.76.86,3.8,3.8,0,0,0,2.08.3c.64-.06,1.3,0,1.78-.51a5.55,5.55,0,0,1,.61-.75,5.21,5.21,0,0,1,.52-.28,1.51,1.51,0,0,0,.68-1.59,3.34,3.34,0,0,1-.25-1,2.55,2.55,0,0,1,.24-.67,1.74,1.74,0,0,0,.09-.72c0-.31-.09-1.48-.5-1.53-.19,0-.34.14-.49.26a1.12,1.12,0,0,1-.65.28c-.34,0-.72,0-1,.13-.1.06-.19.16-.29.23a1.86,1.86,0,0,1-1.64.13c-.26-.14-.46-.38-.72-.51a2.93,2.93,0,0,0-1.11-.14,1.44,1.44,0,0,1-.89-.31,3.74,3.74,0,0,0-.18,1.15,3.47,3.47,0,0,1-.27,1,2,2,0,0,0,.11,1.33A1.09,1.09,0,0,0,21.14,17.89Z"/><path class="cls-19" d="M25,15.73a.93.93,0,0,1,.44.08,1,1,0,0,1,.32.28.93.93,0,0,1,.26.6.15.15,0,0,1,0,.11.11.11,0,0,1-.08,0,1.2,1.2,0,0,1-.38,0c-.21-.06-.38-.23-.59-.23s-.39.17-.57.28c-.38.22-1.08.09-.65-.4A2,2,0,0,1,25,15.73Z"/><path class="cls-4" d="M18.18,29.47A2.82,2.82,0,0,1,16,30.66c-.64-.09-1.26-.4-1.2-1.33.1-1.84,5.26-9.27,5.87-10.71s2.05-2.49,3.26-1.69-1.83,1.2-2,2.42A21.72,21.72,0,0,1,18.18,29.47Z"/><path class="cls-4" d="M31.86,29.17A2.85,2.85,0,0,0,34,30.36,1.2,1.2,0,0,0,35.2,29c-.1-1.85-5.26-9.27-5.87-10.72s-2-2.48-3.26-1.69,1.83,1.21,2,2.43A21.49,21.49,0,0,0,31.86,29.17Z"/></g></g></svg>