<svg xmlns="http://www.w3.org/2000/svg" viewBox="0 0 74.87 77.08"><defs><style>.cls-1{fill:#3f4d8f;}.cls-2{fill:#808ed0;}.cls-3{fill:#5967a9;}</style></defs><title>Asset 1</title><g id="Layer_2" data-name="Layer 2"><g id="Ñëîé_1" data-name="Ñëîé 1"><path class="cls-1" d="M59.41,47.25,72.9,32.66a8.24,8.24,0,0,1,.82-1,2.79,2.79,0,0,1,.5-.47L54.93,19.41,11.74,66.11l20.08,11L58.24,48.51h0l0,0Z"/><path class="cls-2" d="M54.93,19.42l-1-.63L42.77,0l0,0L64.56,13.23,74.87,30.58a5.67,5.67,0,0,0-.65.56Z"/><polygon class="cls-3" points="53.92 18.79 54.54 19.84 11.74 66.12 10.72 65.49 0 47.44 42.77 0.03 53.92 18.79"/></g></g></svg>