<svg xmlns="http://www.w3.org/2000/svg" viewBox="0 0 231.95 356.76"><defs><style>.cls-1{fill:#00a1ad;}.cls-2{fill:#1d2bcb;}.cls-3{fill:#070c9e;}.cls-4{fill:#af1cb2;}.cls-5{fill:#8329bf;}.cls-6{fill:#b9a28c;}.cls-7{fill:#03bbc7;}.cls-8{fill:#073b49;}.cls-9{fill:#a88c7b;}</style></defs><title>Asset 23</title><g id="Layer_2" data-name="Layer 2"><g id="Ñëîé_1" data-name="Ñëîé 1"><path class="cls-1" d="M112.83,40.53a16.59,16.59,0,0,0-.39,6l.13,2.32c.09,1.48.17,3,.26,4.45a38.24,38.24,0,0,1,6.24,0h0a21.59,21.59,0,0,1,2.52.38,10.32,10.32,0,0,0-1.5-5.31c-1.64-2.64-4.46-4.29-6.42-6.7A10.11,10.11,0,0,1,112.83,40.53Z"/><path class="cls-2" d="M119.17,22.15a15,15,0,0,1,2,4,4.39,4.39,0,0,1,.52-.13,16.54,16.54,0,0,1,1.86-.37c-.78-2-1.54-3.95-2.32-5.93l-.58-1.5a11.52,11.52,0,0,0-2-3.68c-.09-.09-.17-.18-.26-.26a9.38,9.38,0,0,0-2.51-1.64,6.26,6.26,0,0,1,.1,4.18,6.93,6.93,0,0,1-1,1.64,13.85,13.85,0,0,1-8.78,5q.63.72,1.32,1.38c1.36,1.32,3.1,2.52,5,2.39l.29,0c1.76-.24,3.21-1.58,4.46-2.88C117.86,23.63,118.53,22.9,119.17,22.15Z"/><path class="cls-3" d="M101.37,8.82c.07-.32.15-.63.25-.94q-2.43-.5-4.89-.75a3.35,3.35,0,0,0-1.34.06,3.09,3.09,0,0,0-1.47,1.39,17.32,17.32,0,0,0-2.41,6.27c-.2,1.16-.21,2.53.67,3.31a2.64,2.64,0,0,0,2.42.4A6.62,6.62,0,0,0,96,18c1.18-.63,2.37-1.5,3.71-1.43,2.08.13,3.29,2.32,4.37,4.09a22.6,22.6,0,0,0,2.06,2.82,13.85,13.85,0,0,0,8.78-5,6.93,6.93,0,0,0,1-1.64,6.26,6.26,0,0,0-.1-4.18c-.32-.16-.64-.3-1-.44A65.31,65.31,0,0,0,102.2,8C101.92,8.26,101.64,8.54,101.37,8.82Z"/><path class="cls-4" d="M119.93,31.75a1.77,1.77,0,0,0,.38,1.8c.94.87,3,.57,4.11-.18a2.47,2.47,0,0,0,1.08-1.27,1.9,1.9,0,0,0-.78-1.81C123.25,29.09,120.36,29.83,119.93,31.75Z"/><path class="cls-5" d="M121.65,26a16.54,16.54,0,0,1,1.86-.37,7.26,7.26,0,0,1,1.4-.06A5.12,5.12,0,0,1,129.46,30a6,6,0,0,1-2.83,6.3A12.21,12.21,0,0,1,123.56,38a5.46,5.46,0,0,1-1,.22,5.75,5.75,0,0,1-5.95-3.81,7,7,0,0,1-.25-1,6.47,6.47,0,0,1,4.76-7.28A4.39,4.39,0,0,1,121.65,26Zm2.77,7.35a2.47,2.47,0,0,0,1.08-1.27,1.9,1.9,0,0,0-.78-1.81c-1.47-1.2-4.36-.46-4.79,1.46a1.77,1.77,0,0,0,.38,1.8C121.25,34.42,123.34,34.12,124.42,33.37Z"/><path class="cls-6" d="M115.85,12.64a9.38,9.38,0,0,1,2.51,1.64,9.87,9.87,0,0,0-3.19-6.47c-2.37-2-5.59-2.61-8.82-2.75h0a11.14,11.14,0,0,0-1.12.61,18,18,0,0,0-3,2.34,65.31,65.31,0,0,1,12.69,4.19C115.21,12.34,115.53,12.48,115.85,12.64Z"/><path class="cls-7" d="M112.72,27.23a13,13,0,0,0-1.67,8.15c1.71-.57,3.4-1.23,5.06-1.9l.26,0a6.47,6.47,0,0,1,4.76-7.28,15,15,0,0,0-2-4c-.64.75-1.31,1.48-2,2.2C115.93,25.65,114.48,27,112.72,27.23Z"/><path class="cls-6" d="M21.6,19.27l.1-.09a30.85,30.85,0,0,1,6.2-3.71c-2.29-2.39-4.69-4.68-7.16-6.89a21.91,21.91,0,0,0-4.58-3.39,18.64,18.64,0,0,0-5.64-1.62h0L8.09,4A61.61,61.61,0,0,0,0,5.86,46.91,46.91,0,0,0,8.79,13a3.56,3.56,0,0,0-3.4.67C8.14,16,11.91,16.84,15,18.75A19.62,19.62,0,0,1,19,22,17.35,17.35,0,0,1,21.6,19.27Z"/><path class="cls-3" d="M41.49,187.49c.59.7,1.17,1.38,1.75,2.08h0l19.31,16.17,5.14,4.31c5.89,4.93,11.9,10,15.58,16.75a38.08,38.08,0,0,1,2.7,6.35l.19-.17a42.82,42.82,0,0,1,5.43-4c-1.74-2.58-3.18-5.48-4.76-8.38-1.65-3.05-3.25-6.12-4.85-9.21-2.15-4.17-4.29-8.36-6.55-12.48q-2.09-3.81-4.35-7.53c-1-1.66-2.06-3.3-3.14-4.9h0a82.29,82.29,0,0,0-15.31-17.45c-.36-.31-.73-.61-1.11-.91a44,44,0,0,1-5.6-5l-2.26-.75-5.26-1.76A15.2,15.2,0,0,1,34.6,159a5.14,5.14,0,0,1-2.29-3.33,3.31,3.31,0,0,1,.12-1.4l-.39,0a5.81,5.81,0,0,1,1.58-3.32c2.28-2.28,6-1.88,9.18-1.21l1.69.38c5.27,1.2,10.45,2.71,15.58,4.39,12.58,4.14,24.85,9.34,37.38,13.69a76.67,76.67,0,0,0,12,3.35,17.2,17.2,0,0,0,3.74-1.68,13,13,0,0,0,5.43-6.21,12.84,12.84,0,0,0,2.27-4.39,20.2,20.2,0,0,0-4.07-9.45h0c-9.8-5.92-21.83-8.45-32.71-11.14-4.87-1.21-9.77-2.32-14.7-3.23a141.19,141.19,0,0,0-26.18-2.69c-6,0-12.29.56-17.34,3.79-3.64,2.32-5.75,5.63-7.51,9.45s-.23,7.42,1.25,11.09c3.39,8.4,9.3,15.52,15.08,22.38Z"/><path class="cls-4" d="M73.08,66.55C70.33,61.84,66.23,58,62,54.48,49.09,43.56,32.58,32.56,21.6,19.27A17.35,17.35,0,0,0,19,22a64.15,64.15,0,0,1,4.53,5.45q4.2,5.43,8.73,10.58C43.69,51.08,59.13,65,75.77,70.67a8,8,0,0,0-1.94-3.41A8.31,8.31,0,0,0,73.08,66.55Z"/><path class="cls-5" d="M97,64.1l.48-10.58-7.87-.2a63.37,63.37,0,0,1-8.82-.63c-9.27-1.54-17.32-7-25-12.39A134.94,134.94,0,0,1,41.55,29.47c-4-3.68-9.67-9.91-13.47-13.83l-.18-.17a30.85,30.85,0,0,0-6.2,3.71l-.1.09C32.58,32.56,49.09,43.56,62,54.48c4.19,3.53,8.29,7.36,11,12.07a8.31,8.31,0,0,1,.75.71,8,8,0,0,1,1.94,3.41,5.53,5.53,0,0,1,.08,2.62c-.56,2.57-2.91,4.26-4.62,6.26a14.24,14.24,0,0,0-2.9,12.55c.46,1.8,1.27,3.49,1.8,5.26.12.4.23.81.31,1.21a8,8,0,0,0,6.32.62c.88-.33,1.66-.86,2.51-1.26,3.68-1.73,8.11-.68,11.65,1.31s6.53,4.85,9.92,7.08a42.9,42.9,0,0,0,9.85,4.65c.71-4.38,2.55-8.69,4.42-12.78,0-.09.08-.17.11-.26s0,0,0,0a3.85,3.85,0,0,0,0-.48,27.43,27.43,0,0,0-.66-4.3,15.88,15.88,0,0,1,.94-9.52,9.81,9.81,0,0,1,7.34-5.71c3.74-.46,7.23,1.69,10.68,3.22A68.83,68.83,0,0,0,142.05,84a187.82,187.82,0,0,0,24.49,5.33c7.61,1.07,21.66,1.06,29.08-1,2.81-.77,7.64-1.83,10-3.57a23.13,23.13,0,0,0,2-1.7,20.91,20.91,0,0,1-3.7-8.07.76.76,0,0,1-.09.09c-4.79,4.08-14.18,6.17-22.92,6.54a50.6,50.6,0,0,1-13.78-1.06,68.88,68.88,0,0,1-22.35-10.71,61.27,61.27,0,0,1-5.42-4.34c-1.3-1.18-2.61-2.4-3.94-3.6-3.85-3.47-7.9-6.72-12.84-8l-1-.23a21.59,21.59,0,0,0-2.52-.38h0a38.24,38.24,0,0,0-6.24,0l.18,3.27c-.38.39-.8.75-1.2,1.1a28,28,0,0,1-5.12,3.76,22.07,22.07,0,0,1-4.53,1.63A34.66,34.66,0,0,1,97,64.1Z"/><path class="cls-2" d="M32.43,154.22a3.31,3.31,0,0,0-.12,1.4A5.14,5.14,0,0,0,34.6,159a15.2,15.2,0,0,0,3.8,1.67l5.26,1.76,2.26.75a16.89,16.89,0,0,1-1.48-2,11.13,11.13,0,0,1-1.74-5.37,7.3,7.3,0,0,1,1.69-5.29l.1-.47-1.69-.38c-3.15-.67-6.9-1.07-9.18,1.21A5.81,5.81,0,0,0,32,154.18Z"/><path class="cls-3" d="M50.61,313.73A43.62,43.62,0,0,0,57.07,312a21.9,21.9,0,0,0,3.47-1.55l.5-.3c-.63-3.16-1.13-6.35-1.55-9.56-2.24-8.54-6.7-16.48-10.39-24.58a149.13,149.13,0,0,1-13-70.69,101.83,101.83,0,0,0-2.47,25.86c.57,15.07,4.6,29.82,7.34,44.63q3.54,19.15,6.54,38.39C48.53,314.09,49.58,313.93,50.61,313.73Z"/><path class="cls-2" d="M36.07,205.33A149.13,149.13,0,0,0,49.1,276c3.69,8.1,8.15,16,10.39,24.58-.6-4.4-1.05-8.83-1.5-13.25q-1.4-13.68-2.8-27.34-.7-7-1.42-13.91c-.37-3.63-1.63-6.92-1.74-10.58-.26-9.13,3.74-17.69,8.21-25.78l-17-20.16h0L41.31,188a124.39,124.39,0,0,0-5.23,17.33A.09.09,0,0,0,36.07,205.33Z"/><path class="cls-2" d="M44.39,150.5a7.3,7.3,0,0,0-1.69,5.29c1.69.37,3.38.8,5,1.29a6.93,6.93,0,0,1,1.82,0c-.54.27-1.22-.06-1.82,0,1.58.48,6,2.07,8.84,3.09l.12-.19c-.33-.18-.85-.18-1-.53l1,.53q1.48-2.25,3-4.47l.35-1.09c-5.13-1.68-10.31-3.19-15.58-4.39Z"/><path class="cls-2" d="M43.25,189.58l17,20.16c.69-1.25,1.39-2.49,2.09-3.72l.23-.27Z"/><path class="cls-8" d="M43.87,353.71c-.31,1-.64,2.05-1,3.05a20.14,20.14,0,0,0,8.78-3c5.71-3.95,7.43-11.68,12.2-16.74,1.75-1.85,3.87-3.32,5.62-5.17s3.15-4.28,2.91-6.82c-.33-3.43-3.42-5.84-6.22-7.86-.24-.18-.48-.36-.7-.54a16.21,16.21,0,0,0-3.55,3.75c-2.35,3.46-3.56,7.54-4.84,11.53s-2.72,8-5.42,11.22a14.65,14.65,0,0,1-3.06,2.71A34.17,34.17,0,0,1,43.87,353.71Z"/><path class="cls-6" d="M61.42,312c-.32-.51-.61-1-.88-1.54A21.9,21.9,0,0,1,57.07,312a43.62,43.62,0,0,1-6.46,1.72,68.07,68.07,0,0,1,.91,21.53,41.34,41.34,0,0,1-2.93,10.56,14.65,14.65,0,0,0,3.06-2.71c2.7-3.2,4.14-7.24,5.42-11.22s2.49-8.07,4.84-11.53a16.21,16.21,0,0,1,3.55-3.75,17.86,17.86,0,0,1-4-4.58h0A0,0,0,0,1,61.42,312Z"/><path class="cls-3" d="M51.52,168.16c.38.3.75.6,1.11.91a82.29,82.29,0,0,1,15.31,17.45h0c1.08,1.6,2.12,3.24,3.14,4.9l1.07-1.6q6.38-9.39,13.16-18.49c-9.41-2.07-18.52-6.06-27.15-10.59h0l-1.57-.57Q54,164.1,51.52,168.16Z"/><path class="cls-2" d="M85.32,171.34a59.17,59.17,0,0,0,16.74,1.41,30,30,0,0,0,7.35-1.29,76.67,76.67,0,0,1-12-3.35c-12.53-4.35-24.8-9.55-37.38-13.69l-.35,1.09q-1.53,2.22-3,4.47l1.45.76h0C66.8,165.28,75.91,169.27,85.32,171.34Z"/><path class="cls-2" d="M83.84,235.27A20.31,20.31,0,0,1,86,233.16a38.08,38.08,0,0,0-2.7-6.35C79.6,220.08,73.59,215,67.7,210.06l-5.14-4.31-.23.27c-.7,1.23-1.4,2.47-2.09,3.72q3,3.57,6,7.13c5.73,6.82,11.57,13.8,15.51,21.72a9.85,9.85,0,0,1,.65-1.35A12.14,12.14,0,0,1,83.84,235.27Z"/><path class="cls-5" d="M72.89,126.13c-.38,3.28-2.11,6.22-3.53,9.23,4.93.91,9.83,2,14.7,3.23,10.88,2.69,22.91,5.22,32.71,11.14a15.8,15.8,0,0,0-1.39-1.56c-2.8-2.8-6.35-4.69-9.86-6.54l-14.63-7.71c-2.2-1.17-4.59-2.51-5.51-4.83a5.36,5.36,0,0,1,.51-4.93c.4-.61.94-1.14,1.33-1.77,1.32-2.1.77-5-.66-7a19.49,19.49,0,0,0-5.65-4.74,76.63,76.63,0,0,1-9.75-7c0,.18,0,.36,0,.54q.78,8.55,1.57,17.11A23,23,0,0,1,72.89,126.13Z"/><path class="cls-4" d="M116.78,149.73a20.2,20.2,0,0,1,4.07,9.45c.08-.25.15-.51.21-.76a33.74,33.74,0,0,0,.59-9.09,40.75,40.75,0,0,0-1.07-9.81c-2.13-7.7-8.6-13.81-9.94-21.68a20.31,20.31,0,0,1,0-6.87,42.9,42.9,0,0,1-9.85-4.65c-3.39-2.23-6.37-5.09-9.92-7.08s-8-3-11.65-1.31c-.85.4-1.63.93-2.51,1.26a8,8,0,0,1-6.32-.62,39.41,39.41,0,0,1,.72,5.07,76.63,76.63,0,0,0,9.75,7,19.49,19.49,0,0,1,5.65,4.74c1.43,2,2,4.87.66,7-.39.63-.93,1.16-1.33,1.77a5.36,5.36,0,0,0-.51,4.93c.92,2.32,3.31,3.66,5.51,4.83l14.63,7.71c3.51,1.85,7.06,3.74,9.86,6.54a15.8,15.8,0,0,1,1.39,1.56Z"/><path class="cls-6" d="M86,233.16a20.31,20.31,0,0,0-2.14,2.11c3.28,7.19,6,14.72,6.7,22.57a41.34,41.34,0,0,1-.37,10.94,14.47,14.47,0,0,0,2.34-3.34c1.88-3.73,2.34-8,2.65-12.18s.55-8.43,2-12.33a16.33,16.33,0,0,1,2.58-4.49A20.17,20.17,0,0,1,91.6,229a42.82,42.82,0,0,0-5.43,4Z"/><path class="cls-8" d="M87.4,277.58c-.06,1.06-.14,2.13-.25,3.19a20.18,20.18,0,0,0,7.83-5c4.63-5.18,4.5-13.09,8-19.12,1.26-2.21,3-4.13,4.26-6.34s2.07-4.89,1.25-7.3c-1.12-3.27-4.7-4.89-7.88-6.21-.28-.12-.55-.24-.81-.37a16.33,16.33,0,0,0-2.58,4.49c-1.48,3.9-1.71,8.16-2,12.33s-.77,8.45-2.65,12.18a14.47,14.47,0,0,1-2.34,3.34h0A34,34,0,0,1,87.4,277.58Z"/><path class="cls-6" d="M106.12,23.49a22.6,22.6,0,0,1-2.06-2.82c-1.08-1.77-2.29-4-4.37-4.09-1.34-.07-2.53.8-3.71,1.43a6.62,6.62,0,0,1-1.38.55c-.48.89-.91,1.75-1.3,2.59C92,23.92,89.54,28,90.4,31.21c.51,1.91,2.06,3.45,3.54,5h0a22.3,22.3,0,0,0,6.38,1.09,31.58,31.58,0,0,0,10.72-1.94,13,13,0,0,1,1.67-8.15l-.29,0c-1.89.13-3.63-1.07-5-2.39Q106.75,24.21,106.12,23.49Z"/><path class="cls-9" d="M100.33,37.32A22.3,22.3,0,0,1,94,36.23a16,16,0,0,1,2.43,3,9.6,9.6,0,0,1,.73,1.68c4.9.45,10-.81,14.84-2.13a12.51,12.51,0,0,1-.9-3.42A31.58,31.58,0,0,1,100.33,37.32Z"/><path class="cls-6" d="M97.51,53.52,97,64.1a34.66,34.66,0,0,0,5.13-1,22.07,22.07,0,0,0,4.53-1.63,28,28,0,0,0,5.12-3.76c.4-.35.82-.71,1.2-1.1l-.18-3.27c-.09-1.48-.17-3-.26-4.45l-.13-2.32a16.59,16.59,0,0,1,.39-6A10.82,10.82,0,0,1,112,38.8c-4.84,1.32-9.94,2.58-14.84,2.13a22.38,22.38,0,0,1,.62,7.89C97.65,50.39,97.58,52,97.51,53.52Z"/><path class="cls-7" d="M121.19,19.72c.78,2,1.54,4,2.32,5.93a7.26,7.26,0,0,1,1.4-.06A5.12,5.12,0,0,1,129.46,30a6,6,0,0,1-2.83,6.3A12.21,12.21,0,0,1,123.56,38a14.67,14.67,0,0,0,8.06,6.11c3.06.91,6.3.79,9.46,1.13s6.5,1.26,8.54,3.71c1.65,2,2.2,4.58,3.13,7A22.33,22.33,0,0,0,171,69.68c3.88.37,7.92-.27,11.83-.44-.86-1.34-3-2.64-3.24-4a5.24,5.24,0,0,1,1-4.6c1.47-1.55,3.94-1.48,5.86-2.4,2.61-1.27,3.89-4.2,5-6.89a8.21,8.21,0,0,0,.79-3.08c0-2-1.41-3.67-2.87-5-7.14-6.54-17.52-9-27.09-7.42a62.78,62.78,0,0,1-7.81,1.23,17.77,17.77,0,0,1-10-2.66c-1.38-.86-2.77-2.5-2-3.92.65-1.17,2.32-1.22,3.43-2a4.08,4.08,0,0,0,1.39-4.22,11.79,11.79,0,0,0-2.13-4.15A62.67,62.67,0,0,0,135.93,9c-6.34-5.71-27.36-14.77-33.22-3.93a9.63,9.63,0,0,0-.62,1.38c-.18.46-.33,1-.47,1.43l.58.13a18,18,0,0,1,3-2.34,11.14,11.14,0,0,1,1.12-.61h0c3.23.14,6.45.77,8.82,2.75a9.87,9.87,0,0,1,3.19,6.47c.09.08.17.17.26.26a11.52,11.52,0,0,1,2,3.68Z"/><path class="cls-1" d="M111.05,35.38a12.51,12.51,0,0,0,.9,3.42,10.82,10.82,0,0,0,.88,1.73,10.11,10.11,0,0,0,.85,1.18c2,2.41,4.78,4.06,6.42,6.7a10.32,10.32,0,0,1,1.5,5.31l1,.23c4.94,1.33,9,4.58,12.84,8,1.33,1.2,2.64,2.42,3.94,3.6a61.27,61.27,0,0,0,5.42,4.34,68.88,68.88,0,0,0,22.35,10.71,50.6,50.6,0,0,0,13.78,1.06,14.23,14.23,0,0,0,2.21-11.83,2.31,2.31,0,0,0-.3-.64c-3.91.17-8,.81-11.83.44a22.33,22.33,0,0,1-18.25-13.79c-.93-2.39-1.48-5-3.13-7-2-2.45-5.37-3.38-8.54-3.71s-6.4-.22-9.46-1.13A14.67,14.67,0,0,1,123.56,38a5.46,5.46,0,0,1-1,.22,5.75,5.75,0,0,1-5.95-3.81,7,7,0,0,1-.25-1l-.26,0C114.45,34.15,112.76,34.81,111.05,35.38Z"/><path class="cls-4" d="M115.52,83.62a15.88,15.88,0,0,0-.94,9.52,27.43,27.43,0,0,1,.66,4.3,3.85,3.85,0,0,1,0,.48c2-4.24,5.06-10,9.77-11.46a11.54,11.54,0,0,1,6.19.18c2.66.64,5.17,1.9,7.81,2.49s5.13,1,7.69,1.62a163.17,163.17,0,0,0,20,3.29c9.28.9,25.14.1,33.51-4,2.61-1.28,6.82-2.87,9.5-4.48a21.74,21.74,0,0,1-2.1-2.4,23.13,23.13,0,0,1-2,1.7c-2.34,1.74-7.17,2.8-10,3.57-7.42,2-21.47,2-29.08,1A187.82,187.82,0,0,1,142.05,84a68.83,68.83,0,0,1-8.51-2.91c-3.45-1.53-6.94-3.68-10.68-3.22A9.81,9.81,0,0,0,115.52,83.62Z"/><path class="cls-6" d="M207.63,83.15a21.74,21.74,0,0,0,2.1,2.4l.6-.39c6.94-4.67,13.84-9.54,21.62-12.61-2.47-3.87-7.52-5.06-12.08-5.57a16.24,16.24,0,0,0-4.67,0c-4.62.85-7.7,5.06-11.27,8.12A20.91,20.91,0,0,0,207.63,83.15Z"/></g></g></svg>