<svg xmlns="http://www.w3.org/2000/svg" viewBox="0 0 577.6 504.88"><defs><style>.cls-1{fill:#684fe0;}.cls-2{fill:#edd6c0;}.cls-3{fill:#182668;}.cls-4{fill:#324082;}.cls-5{fill:#b836cc;}.cls-6{fill:#144856;}.cls-7{fill:#d3bca6;}.cls-8{fill:#215563;}.cls-9{fill:#b35fd9;}.cls-10{fill:#c2a695;}.cls-11,.cls-13,.cls-14{fill:none;stroke-linecap:round;stroke-linejoin:round;}.cls-11,.cls-13{stroke:#9b786e;}.cls-11{stroke-width:1.12px;}.cls-12{fill:#444;}.cls-13{stroke-width:1.22px;}.cls-14{stroke:#fff;stroke-width:6.55px;}.cls-15{fill:#4d90ff;}.cls-16{fill:#0c4fe4;}.cls-17{fill:#ff85bf;}.cls-18{fill:#0c36c4;}</style></defs><title>Asset 3</title><g id="Layer_2" data-name="Layer 2"><g id="Ñëîé_1" data-name="Ñëîé 1"><path class="cls-1" d="M.12,496.29c-.65,2.21,1.51,4.19,3.53,5.27,8.07,4.29,17.24,4.21,25.56,1A55.55,55.55,0,0,1,54,498.88c4.08.34,8.18,1.13,12.23.58a15.87,15.87,0,0,0,3.73-1l-.3-.82q2.33-7.5,4.89-14.92c-.1-.23-.19-.43-.27-.65-6.08-1.53-12.71-.85-18.82.78-7.82,2.08-15.17,5.61-22.91,7.94-6.81,2.06-14.22,3.14-21.07,1.43-2.45.57-5,1.05-7.49,1.43C2.33,493.88.57,494.72.12,496.29Z"/><path class="cls-2" d="M51.23,467.63c-9.59,13.21-23.8,20.92-39.78,24.58,6.85,1.71,14.26.63,21.07-1.43,7.74-2.33,15.09-5.86,22.91-7.94,6.11-1.63,12.74-2.31,18.82-.78-.64-1.6-1.32-3.2-1.8-4.78A27.1,27.1,0,0,1,72,465a72.07,72.07,0,0,1-8.58-3.5c-2.19-1.07-4.36-2.24-6.48-3.47A57.54,57.54,0,0,1,51.23,467.63Z"/><path class="cls-3" d="M137.92,212c-15.64,3.75-32.6,10.5-34,29-.4,5.33.56,10.64,1.58,15.87,3.83,19.78,9.42,37.13,14.92,55.82,9.52-14.17,20.21-27.6,35.81-46.72,14.75-18.08,26.06-23.55,43.14-39.45,8.28-7.71,16.73-16,26.07-22.39a82.06,82.06,0,0,0,9.86-8.14C202.06,203.39,171.38,203.9,137.92,212Z"/><path class="cls-4" d="M141.79,361.6c9.24-11.23,19.14-22.18,29.69-33.16q6.92-7.21,14.21-14.47c8.11-8.08,15.32-12.79,23.84-19.92,8.22-6.89,13.15-5.87,23.76-8.64,7.13-1.88,14.62-1.75,21.89-2.93,10.25-1.68,18.58-7.54,25-15.26a42.09,42.09,0,0,0-1.61-20.86c-1.86-5.37-4.78-10.31-7.69-15.2-3.85-6.45-7.72-12.94-12.69-18.58-3.36-3.81-7.2-7.19-10.27-11.25a25.35,25.35,0,0,1-4.46-8.8,7.9,7.9,0,0,1-1.48-3.12c-2.24,2.21-4.47,4.43-6.75,6.58a82.06,82.06,0,0,1-9.86,8.14c-9.34,6.39-17.79,14.68-26.07,22.39C182.26,242.42,171,247.89,156.2,266c-15.6,19.12-26.29,32.55-35.81,46.72s-17.84,29-28.77,51c-15.2,30.65-25.84,55-36.29,84.79-.55,2.53-1.08,5.06-1.62,7.59,1.06.66,2.12,1.31,3.21,1.93,2.12,1.23,4.29,2.4,6.48,3.47A72.07,72.07,0,0,0,72,465a52.21,52.21,0,0,0,8.23,2.08q2.39-6.22,4.93-12.37C100,418.78,118.91,389.34,141.79,361.6Z"/><path class="cls-2" d="M53.71,456.09q-1.24,5.78-2.48,11.54A57.54,57.54,0,0,0,56.92,458C55.83,457.4,54.77,456.75,53.71,456.09Z"/><path class="cls-1" d="M69.63,497.63l.3.82a10,10,0,0,0,5.85-5.64c1.18-3.33.08-6.72-1.26-10.1Q72,490.12,69.63,497.63Z"/><path class="cls-3" d="M159.1,405.15a77.43,77.43,0,0,1,21-9.18c1.84-.51,3.69-.93,5.56-1.28l-14.19-66.25c-10.55,11-20.45,21.93-29.69,33.16A215,215,0,0,0,156.32,407C157.22,406.33,158.16,405.73,159.1,405.15Z"/><path class="cls-1" d="M140.4,479.72c-1.29,1-2.39,2.62-2,4.23.55,2.22,3.42,2.86,5.71,2.77,9.14-.31,17-5,22.6-12a55.59,55.59,0,0,1,19.61-15.54c3.71-1.74,7.65-3.11,10.88-5.62s5.7-6.54,5-10.56c-.85-4.58-5.2-7.27-8.92-10.3-5.2,0-10.29,3.4-13.63,7.59-4,5-6.35,11.06-10.12,16.21a37,37,0,0,1-18.37,13.21A92.43,92.43,0,0,1,140.4,479.72Z"/><path class="cls-2" d="M168.32,433.54c-1.47,13.9-7.87,26-17.21,36.21a37,37,0,0,0,18.37-13.21c3.77-5.15,6.15-11.22,10.12-16.21,3.34-4.19,8.43-7.63,13.63-7.59-.6-.47-1.18-1-1.74-1.48-8.51-7.93-9.8-23.09-11.38-35.29a77.43,77.43,0,0,0-21,9.18Q163.7,419.34,168.32,433.54Z"/><path class="cls-3" d="M279.05,223.6c-7.64-9.38-15-19-25.58-24.51-3.52-1.81-7.7-3.61-10-6.56a25.35,25.35,0,0,0,4.46,8.8c3.07,4.06,6.91,7.44,10.27,11.25,5,5.64,8.84,12.13,12.69,18.58,2.91,4.89,5.83,9.83,7.69,15.2a42.09,42.09,0,0,1,1.61,20.86,57.22,57.22,0,0,0,3.72-4.89,137.63,137.63,0,0,0,11.83-21.95,27.48,27.48,0,0,1-4.64-3.49A118.57,118.57,0,0,1,279.05,223.6Z"/><path class="cls-5" d="M399.93,186.8a79.6,79.6,0,0,0-7.31,3.88,93.85,93.85,0,0,1-11.54-27.23,65.63,65.63,0,0,0,6.49-1.23A49.69,49.69,0,0,0,399.93,186.8Z"/><path class="cls-6" d="M412.69,258.2c-2.8,7.87-9.5,15.24-17.85,15.33-7.62.07-14.09-5.73-21.57-7.06a19.37,19.37,0,0,0-20.57,11.12c-4.55,10.64,1.13,24-4.68,34-7.91,2-17-.6-22.31-6.82-6.67-7.73-6.86-20.25-.44-28.19,5.47-6.77,15-10.48,17.7-18.76,1.79-5.5-.2-11.71-4.05-16.07,9.54-4.15,19.81-6.46,30-4.95,13.95,2.07,25.8,10.92,38.73,16.54q2.89,1.24,5.86,2.3C413.26,256.5,413,257.35,412.69,258.2Z"/><path class="cls-6" d="M445.28,187h.23c2.54,0,5.34-.41,7-2.31,1.94-2.2,1.66-5.71.15-8.21s-4-4.25-6.39-5.93a65.15,65.15,0,0,0,12-.71,27.77,27.77,0,0,1-15,37.51c-4.75,1.88-10,2.46-14.48,5.06a21.8,21.8,0,0,0-8.24,9.18,98,98,0,0,1-21.71-21.66q-3.35-4.47-6.29-9.25a79.6,79.6,0,0,1,7.31-3.88A70.82,70.82,0,0,1,413.87,182h0a53.31,53.31,0,0,1,11.28-1.4h.51C432.7,180.58,440,182.57,445.28,187Z"/><path class="cls-5" d="M292.62,149.66c-2.33,8.9-5.77,17.86-13.49,22.47-6.87,4.11-15.6,3.66-23.34,1.63-9.23-2.44-17.76-6.86-26.54-10.61,8.06-.61,16.25-.44,24.34-.79,13.59-.59,27.92-3,38.18-11.93C292.06,150.18,292.35,149.92,292.62,149.66Z"/><path class="cls-5" d="M342.76,154.36c-4.7,3.8-12,1.6-16.42-2.47s-7.3-9.64-11.57-13.9a16.82,16.82,0,0,0-1.72-1.52c4.66,0,9.36,1.75,14.06,2.41,5.9.84,12.78,1.76,14.7-3.86,8-23.41,21.32-46.94,40-63.42,19-16.77,45.33-38.48,66.83-55.56l0,0c1,1.92,2,3.8,3.16,5.63C409.37,52.17,367.63,100,347.29,147.17,346.15,149.8,345,152.56,342.76,154.36Z"/><path class="cls-5" d="M338.92,241.75a92.92,92.92,0,0,0-11,5.63c-11.35,6.72-21.62,15.16-32.88,22-1,.62-2,1.23-3.06,1.81-9.07,5.17-19.22,9.15-29.51,9.88a74,74,0,0,0,7.15-14.84q1.14-3.19,2.06-6.45c1-3.39,1.78-6.81,2.49-10.27,1.09,1.6,2.21,3.19,3.39,4.74.66.86,1.36,1.73,2.06,2.57a81.94,81.94,0,0,0,15.82-28.55c1-3.25,1.86-6.59,3.58-9.54s4.53-5.47,7.91-5.88c4.37-.5,8.32,2.56,11.27,5.83s5.62,7.07,9.65,8.82c7.58,3.3,15.87-1.85,23.7-4.49a40.28,40.28,0,0,1,26.95.64c7.91,3,12.05,10.3,19.18,14.79a97.74,97.74,0,0,0,17.46,8.63,102.39,102.39,0,0,0,36.53,6.55c10,0,21.95-2.23,33.86-5.79,14.61-4.36,29.17-10.76,40.05-17.83.62,1.49,1.31,3,2.06,4.4h0c.61,1.15,1.25,2.28,2,3.38a296,296,0,0,1-43.92,17.14,155.26,155.26,0,0,1-19.36,4.63c-17.63,2.81-36.07,2-52.85-3.93q-3-1-5.86-2.3c-12.93-5.62-24.78-14.47-38.73-16.54C358.73,235.29,348.46,237.6,338.92,241.75Z"/><path class="cls-7" d="M547.09,217.31q15.25,5.34,30.51,10.65c-6.2,3.7-12.72,7.49-19.92,7.76-5.22.2-10.31-1.51-15.48-2.18a39.45,39.45,0,0,0-14.52.88h0c-.75-1.43-1.44-2.91-2.06-4.4a52,52,0,0,1-3-10.19,55.23,55.23,0,0,1,31.45-7.69C551.69,213.77,549.37,215.51,547.09,217.31Z"/><path class="cls-8" d="M440.74,322.93c-1,7.33-7.8,12.86-15,14.47s-14.77,0-21.83-2.22C394,332.07,383.5,326.77,380,317c-2-5.38-2.15-12.38-7.23-15-3.22-1.65-7.2-.67-10.33,1.14s-5.76,4.39-8.88,6.21a19.61,19.61,0,0,1-5.49,2.2c5.81-10,.13-23.36,4.68-34a19.37,19.37,0,0,1,20.57-11.12c7.48,1.33,14,7.13,21.57,7.06,8.35-.09,15.05-7.46,17.85-15.33.3-.85.57-1.7.81-2.56,16.78,5.91,35.22,6.74,52.85,3.93a155.26,155.26,0,0,0,19.36-4.63,49.82,49.82,0,0,1-.69,6.65c-2.81,16.29-16.28,31.7-32.81,31.7-2.93,0-6-.44-8.68.79-4.7,2.18-5.82,8.44-5,13.55S441.46,317.8,440.74,322.93Z"/><path class="cls-9" d="M274.2,249.52c-7.92-11.67-13.77-24.67-21.33-36.61S235,189.44,222,184.14h0a40.39,40.39,0,0,0-5-1.69A42.22,42.22,0,0,0,183,188.07c-1,.66-1.93,1.35-2.83,2.09a59.62,59.62,0,0,1,32.86-24.31,80,80,0,0,1,16.19-2.7c8.78,3.75,17.31,8.17,26.54,10.61,7.74,2,16.47,2.48,23.34-1.63,7.72-4.61,11.16-13.57,13.49-22.47,5.34-4.89,9.89-11.32,16.9-12.85a15.59,15.59,0,0,1,3.53-.34,16.82,16.82,0,0,1,1.72,1.52c4.27,4.26,7.1,9.83,11.57,13.9s11.72,6.27,16.42,2.47c2.23-1.8,3.39-4.56,4.53-7.19,20.34-47.19,62.08-95,104.51-125.48a70.38,70.38,0,0,0,5.16,7.2c.85,1,1.71,2,2.61,3,.51.57,1,1.12,1.56,1.67a448.7,448.7,0,0,0-37,35.94c-9.08,9.9-26.83,27.19-33.47,38.86s-11.17,24.79-11.42,38.22a67.65,67.65,0,0,0,1.87,16.86,93.85,93.85,0,0,0,11.54,27.23q2.94,4.77,6.29,9.25a98,98,0,0,0,21.71,21.66c7.85,5.49,16.61,9.37,26.13,10.51,11.54,1.38,23.08-1.33,34.34-4.21l1.54-.39c9.72-2.5,27-7.57,39.5-11,.11,1.12.28,2.22.48,3.33h0a52,52,0,0,0,3,10.19c-10.88,7.07-25.44,13.47-40.05,17.83-11.91,3.56-23.86,5.74-33.86,5.79a102.39,102.39,0,0,1-36.53-6.55,97.74,97.74,0,0,1-17.46-8.63c-7.13-4.49-11.27-11.79-19.18-14.79a40.28,40.28,0,0,0-26.95-.64c-7.83,2.64-16.12,7.79-23.7,4.49-4-1.75-6.7-5.55-9.65-8.82s-6.9-6.33-11.27-5.83c-3.38.41-6.19,2.94-7.91,5.88s-2.55,6.29-3.58,9.54a81.94,81.94,0,0,1-15.82,28.55c-.7-.84-1.4-1.71-2.06-2.57C276.41,252.71,275.29,251.12,274.2,249.52Z"/><path class="cls-8" d="M461.05,135.44h0a96.89,96.89,0,0,0-26.77-1.31,27.93,27.93,0,0,1,4.42-4.8h0a35.34,35.34,0,0,1,10.34-3h0c10.15-1.34,20.93,1.53,28.47,8.5,12.15,11.21,14.38,31.62,4.94,45.19-4.21,6.07-10.57,11.29-11.4,18.64-.59,5.27,1.92,10.34,4.19,15.16a142.85,142.85,0,0,1,5.83,14.09c-11.26,2.88-22.8,5.59-34.34,4.21-9.52-1.14-18.28-5-26.13-10.51a21.8,21.8,0,0,1,8.24-9.18c4.43-2.6,9.73-3.18,14.48-5.06a27.77,27.77,0,0,0,15-37.51,25.59,25.59,0,0,0,4.61-1.26c5.26-2,10-6.39,10.64-12s-2.89-11-6.68-15.24A79.58,79.58,0,0,0,461.05,135.44Z"/><path class="cls-5" d="M200.74,204.18c-4.08.65-8.17,1.17-12.28,1.59-4,.39-8.55.44-11.15-2.57-2.33-2.71-2-7-.12-10,5.86-9.69,20.77-13,31.32-12,5,.49,10.29,2.5,15.07,4.2,2,.72,14.58,9.44,15,9.29A217.5,217.5,0,0,1,200.74,204.18Z"/><path class="cls-7" d="M458.32,169.84a65.15,65.15,0,0,1-12,.71c2.41,1.68,4.89,3.43,6.39,5.93s1.79,6-.15,8.21c-1.68,1.9-4.48,2.34-7,2.31h-.23c-5.3-4.42-12.58-6.41-19.61-6.42-.77-.49-1.51-1-2.24-1.54-6.42-4.69-11.67-10.81-16.37-17.22a33.41,33.41,0,0,1-3.9-6.56h0a11.64,11.64,0,0,1-.68-8.34c1.66-4.83,6.93-7.29,11.81-8.82A96.69,96.69,0,0,1,461,135.43h0a79.58,79.58,0,0,1,5.84,5.92c3.79,4.27,7.34,9.56,6.68,15.24s-5.38,10-10.64,12A25.59,25.59,0,0,1,458.32,169.84Z"/><path class="cls-10" d="M425.67,180.57h-.51a53.31,53.31,0,0,0-11.28,1.4h0a159,159,0,0,1-17.28-22.87,38.12,38.12,0,0,0,6.57-3.86,33.41,33.41,0,0,0,3.9,6.56c4.7,6.41,9.95,12.53,16.37,17.22C424.16,179.57,424.9,180.08,425.67,180.57Z"/><path class="cls-7" d="M413.87,182a70.82,70.82,0,0,0-13.94,4.82,49.69,49.69,0,0,1-12.36-24.58l1-.25a47.41,47.41,0,0,0,8-2.86A159,159,0,0,0,413.87,182Z"/><path class="cls-7" d="M451.8,21.69c-1.13-1.83-2.2-3.71-3.16-5.63l0,0c3-2.35,5.84-4.62,8.59-6.77,4.35-3.41,10.38-9,16.12-9.24s12.56,1.84,18.3,4.49c0,0,0,0,0,0q-7.33,4.49-14.42,9.3c3.19.36,6.38.72,8.68,2.19-5.72,3.68-14,5.11-20.38,8.16A86.89,86.89,0,0,0,457,28.89,70.38,70.38,0,0,1,451.8,21.69Z"/><path class="cls-11" d="M445.16,147.33a25.39,25.39,0,0,1-11.44-.07,4.48,4.48,0,0,0-2.43-.16c-1.37.45-1.89,2-2.2,3.35"/><path class="cls-12" d="M444.33,163.4a12.41,12.41,0,0,0,.36-3.48,2.18,2.18,0,0,1,2.25.87,2.09,2.09,0,0,1-.87,2.91,2.54,2.54,0,0,1-1.94.29A3.72,3.72,0,0,0,444.33,163.4Z"/><path class="cls-12" d="M444,139.76a13.12,13.12,0,0,0-.74-4,2.11,2.11,0,0,1,.61-.16,2,2,0,0,1,2.39,1.82,2.39,2.39,0,0,1-2.19,2.34Z"/><path class="cls-13" d="M453.5,167.12c3-3.41,3.39-8.43.94-11.8"/><path class="cls-13" d="M454,142A8.59,8.59,0,0,0,453,131.53"/><path class="cls-14" d="M422.35,157.53a8.28,8.28,0,0,1-1.12-10"/><path class="cls-15" d="M456.46,186.21A52.41,52.41,0,0,1,431.9,186a20.61,20.61,0,0,0,6.15-4.65c2.22-2.74,3.74-6.66,4.85-10,2.47-7.34,2.68-15.15,1.91-22.74q-.9-8.82-1.8-17.65c-.28-2.78-.67-5.77-2.67-7.79a6.73,6.73,0,0,0-5-1.93c5.69-3.11,15.19-3,20.48-.17a16.38,16.38,0,0,1,6.72,7.07,35.5,35.5,0,0,1,3,9.26c2.06,9.76,2.63,19.95.32,29.68A45.62,45.62,0,0,1,456.46,186.21Zm-1.11-30.35a3.48,3.48,0,0,0,3.22-3.74L457,135.49a3.4,3.4,0,0,0-1.27-2.31,3.68,3.68,0,0,0-2.61-.76,3.5,3.5,0,0,0-3.22,3.75l1.59,16.63a3.37,3.37,0,0,0,1.26,2.31A3.6,3.6,0,0,0,455.35,155.86Z"/><path class="cls-16" d="M437.82,134.66l-.36-2.94a14.46,14.46,0,0,0-1.45-5.59,5.3,5.3,0,0,0-4.84-2.85,2.67,2.67,0,0,0-.45.08,6.65,6.65,0,0,1,3.79-2,4.25,4.25,0,0,1,.87-.06,6.73,6.73,0,0,1,5,1.93c2,2,2.39,5,2.67,7.79q.89,8.82,1.8,17.65c.77,7.59.56,15.4-1.91,22.74-1.11,3.29-2.63,7.21-4.85,10A20.61,20.61,0,0,1,431.9,186a45.76,45.76,0,0,1-4.49-1.39,19.53,19.53,0,0,0,4.68-3.36,23.81,23.81,0,0,0,6.06-10.84,48.35,48.35,0,0,0,1.39-12.29A192.42,192.42,0,0,0,437.82,134.66Z"/><path class="cls-17" d="M458.57,152.12a3.48,3.48,0,0,1-3.22,3.74,3.6,3.6,0,0,1-2.61-.75,3.37,3.37,0,0,1-1.26-2.31l-1.59-16.63a3.5,3.5,0,0,1,3.22-3.75,3.68,3.68,0,0,1,2.61.76,3.4,3.4,0,0,1,1.27,2.31Z"/><path class="cls-18" d="M430.72,123.36a2.67,2.67,0,0,1,.45-.08,5.3,5.3,0,0,1,4.84,2.85,14.46,14.46,0,0,1,1.45,5.59l.36,2.94c-2.62.12-5.25.32-7.85.63a67.5,67.5,0,0,0-7,.77,30.76,30.76,0,0,1,2.65-7.3C426.72,126.44,428.22,123.83,430.72,123.36Z"/></g></g></svg>