<svg xmlns="http://www.w3.org/2000/svg" viewBox="0 0 325.27 129.67"><defs><style>.cls-1{fill:#385dd2;}.cls-2{fill:#253375;}.cls-3{fill:#e0c9b3;}.cls-4{fill:#5277ec;}.cls-5{fill:#4128b9;}.cls-6{fill:#5b42d3;}.cls-7{fill:#0b195b;}.cls-8{fill:#373737;}.cls-10,.cls-9{fill:none;stroke:#8e6b61;stroke-linecap:round;stroke-linejoin:round;}.cls-9{stroke-width:0.6px;}.cls-10{stroke-width:0.53px;}.cls-11{fill:#4d90ff;}.cls-12{fill:#0c4fe4;}.cls-13{fill:#ff85bf;}</style></defs><title>Asset 2</title><g id="Layer_2" data-name="Layer 2"><g id="Ñëîé_1" data-name="Ñëîé 1"><path class="cls-1" d="M6,90.4c0-.22,0-.43.07-.64-.86.08-1.71.17-2.58.28L0,124.49a8.86,8.86,0,0,0,1.85-.85C3,118.23,3.4,112.59,4,107.05c.09-.88.18-1.76.29-2.63Q5.12,97.42,6,90.4Z"/><path class="cls-2" d="M14,91.89a4.52,4.52,0,0,0,.18-1.1,5.42,5.42,0,0,0,0-.57L6,90.4q-.84,7-1.67,14c-.11.87-.2,1.75-.29,2.63a4.88,4.88,0,0,0,.86-1.63,8.65,8.65,0,0,1,3.91-4.35,8.56,8.56,0,0,1,5.18-.94,3.77,3.77,0,0,0-1.73-1.4c-1.05-.4-2.47-.5-2.86-1.55s.4-1.9,1.25-2.4a12.25,12.25,0,0,0,2.55-1.44A3.21,3.21,0,0,0,14,91.89Z"/><path class="cls-1" d="M54.12,60.42l2.22-1.48,12.33-8.11c-.62-.61-1.25-1.21-1.88-1.8L38.24,68.6a8.33,8.33,0,0,0,1.83.88C44.93,66.85,49.52,63.54,54.12,60.42Z"/><path class="cls-3" d="M13.94,100.13a4,4,0,0,1,.47.89c1.55-.24,3.09-.5,4.63-.8a37.63,37.63,0,0,1-1.15-8.45c-1.29.09-2.6.13-3.9.12a3.21,3.21,0,0,1-.84,1.45,12.25,12.25,0,0,1-2.55,1.44c-.85.5-1.61,1.48-1.25,2.4s1.81,1.15,2.86,1.55A3.77,3.77,0,0,1,13.94,100.13Z"/><path class="cls-2" d="M63.62,62.82c.61.56,1.23,1.12,1.86,1.67a5.3,5.3,0,0,0,.37-.93A8.58,8.58,0,0,0,55.94,60a4.78,4.78,0,0,1-1.82.4c-4.6,3.12-9.19,6.43-14,9.06a12.34,12.34,0,0,0,5.7.45,27.72,27.72,0,0,0,7.74-2.65c1.22-.57,2.44-1.16,3.68-1.71a10.5,10.5,0,0,1,3.31-1.25A5.3,5.3,0,0,1,64,66a3.33,3.33,0,0,0,.71-.52h0c-.51-.71-1-1.42-1.58-2.11Z"/><path class="cls-4" d="M17.89,91.77A37.63,37.63,0,0,0,19,100.22c.26,1,.57,2.08.93,3.1,22.37,1.24,44.77,2.19,67.12.88h0c-.82-1.38-1.63-2.78-2.41-4.18-2-3.44-3.84-6.92-5.74-10.39a117.78,117.78,0,0,1-49.7.06c-3.78.18-7.56.33-11.34.43C17.88,90.68,17.88,91.22,17.89,91.77Z"/><path class="cls-2" d="M72.17,58.29a4.46,4.46,0,0,0,1-.58,7.37,7.37,0,0,0,1.06-1c-1.77-2-3.62-4-5.52-5.85L56.34,58.94l-2.22,1.48a4.78,4.78,0,0,0,1.82-.4,8.58,8.58,0,0,1,9.91,3.54,3.74,3.74,0,0,0,0-2.22c-.37-1.06-1.21-2.21-.66-3.2a2.18,2.18,0,0,1,2.64-.58,12.31,12.31,0,0,0,2.74,1A3.35,3.35,0,0,0,72.17,58.29Z"/><path class="cls-2" d="M14.41,101a4,4,0,0,0-.47-.89,8.56,8.56,0,0,0-5.18.94,8.65,8.65,0,0,0-3.91,4.35A4.88,4.88,0,0,1,4,107.05c-.59,5.54-1,11.18-2.14,16.59a12.23,12.23,0,0,0,4-4,27.91,27.91,0,0,0,3-7.63c.35-1.31.67-2.62,1.05-3.92a10.85,10.85,0,0,1,1.19-3.33,5.27,5.27,0,0,1,3.54-1.58s0-.08,0-.11A4,4,0,0,0,14.41,101Z"/><path class="cls-3" d="M65.85,63.56a5.3,5.3,0,0,1-.37.93c1.06.94,2.14,1.86,3.24,2.75,1.31-.92,2.59-1.88,3.83-2.9,1-.8,1.93-1.63,2.86-2.49q-1.68-1.71-3.24-3.56a3.35,3.35,0,0,1-1.65.3,12.31,12.31,0,0,1-2.74-1,2.18,2.18,0,0,0-2.64.58c-.55,1,.29,2.14.66,3.2A3.74,3.74,0,0,1,65.85,63.56Z"/><path class="cls-2" d="M63.62,62.82l-.5.55c.55.69,1.07,1.4,1.58,2.11a4.21,4.21,0,0,0,.78-1C64.85,63.94,64.23,63.38,63.62,62.82Z"/><path class="cls-1" d="M75.89,84.17C60.63,87.43,45,88.93,29.24,89.69a117.78,117.78,0,0,0,49.7-.06C77.93,87.81,76.92,86,75.89,84.17Z"/><path class="cls-4" d="M68.72,67.24q-1,.69-2,1.32c2.62,4.09,4.9,8.37,7.38,12.58q.88,1.52,1.74,3Q81.47,83,87,81.46A117.36,117.36,0,0,0,72.55,64.34C71.31,65.36,70,66.32,68.72,67.24Z"/><path class="cls-1" d="M76.94,60.39c-.5.49-1,1-1.53,1.46Q77,63.5,78.78,65l1.19-1C79,62.83,78,61.6,76.94,60.39Z"/><path class="cls-1" d="M75.41,61.85c-.93.86-1.89,1.69-2.86,2.49A117.36,117.36,0,0,1,87,81.46c1.86-.52,3.71-1.06,5.54-1.65q-6.15-8-12.54-15.75l-1.19,1Q77,63.5,75.41,61.85Z"/><path class="cls-1" d="M92.51,79.81c-1.83.59-3.68,1.13-5.54,1.65Q81.47,83,75.89,84.17c1,1.81,2,3.64,3,5.46a112.78,112.78,0,0,0,15.58-4.52c15.25-5.62,25.46-11.26,38-19.47C119.88,70.22,110.76,73.56,97,78.32Q94.79,79.1,92.51,79.81Z"/><path class="cls-4" d="M132.09,99.8a124.45,124.45,0,0,0,22.5-6.55,12.63,12.63,0,0,1-.72-2.78,44.51,44.51,0,0,1-.19-6.11,61.82,61.82,0,0,0-2-15.44,24.49,24.49,0,0,0-2.33-6.23,13.58,13.58,0,0,0-1.38-2,93.88,93.88,0,0,0-10.42,3.07l-5.13,1.87C120,73.85,109.77,79.49,94.52,85.11a112.78,112.78,0,0,1-15.58,4.52c1.9,3.47,3.79,7,5.74,10.39.78,1.4,1.59,2.8,2.41,4.18h0l1-.06c5-.3,9.88-.58,14.6-.9A230.33,230.33,0,0,0,132.09,99.8Z"/><path class="cls-4" d="M88.11,104.14l-1,.06c1,1.62,1.94,3.23,3,4.81a94,94,0,0,0,13.42,17c1,1,2.3,2.63,3.67,3.2a10.72,10.72,0,0,0,3.44.42,16.75,16.75,0,0,0,8.48-2.17,46.47,46.47,0,0,0,8.62-6.51c11.11-9.8,17.29-15.45,28.39-25.25h0a8.31,8.31,0,0,1-1.45-2.45s0,0,0,0a124.45,124.45,0,0,1-22.5,6.55c-4,3.28-6.55,5.36-11.9,9.8a12.09,12.09,0,0,1-4.69,2.8c-3.59.84-7.09-1.73-9.39-4.59-1.18-1.47-2.24-3.08-3.4-4.57C98,103.56,93.14,103.84,88.11,104.14Z"/><path class="cls-1" d="M102.71,103.24c1.16,1.49,2.22,3.1,3.4,4.57,2.3,2.86,5.8,5.43,9.39,4.59a12.09,12.09,0,0,0,4.69-2.8c5.35-4.44,7.92-6.52,11.9-9.8A230.33,230.33,0,0,1,102.71,103.24Z"/><path class="cls-5" d="M175.29,30.37c-5.19,1.38-10.23,3.84-13.86,7.8a18.81,18.81,0,0,0-4.59,9.2q5.15-3,10.52-5.65,2.94-1.41,6-2.66a80.91,80.91,0,0,1,28.11-6.33l.09-.13c-2.37-1.68-5.37-4-8.38-4.08A60,60,0,0,0,175.29,30.37Z"/><path class="cls-6" d="M136.88,69.07c.06.12.11.23.18.35,3.89,7.53,7.13,15.46,12,22.4a43.05,43.05,0,0,0,8,8.71l-.12.08.11.09a33.24,33.24,0,0,0,4,2.78l.12-.09.13.07c2.19-1.56,4.38-3.1,6.59-4.62,2.58-3.1,5-6.33,7.74-9.33A69.43,69.43,0,0,1,195,74.46c6.3-3.27,13.41-5.6,20.45-4.69,6,.78,11.4,3.81,16.5,7.2,2.58.63,4.9,1.61,7.78,2.45,5.72,1.65,12.3,2.22,18.23,2.73a88.48,88.48,0,0,0,37.64-5c.9-.33,1.79-.67,2.67-1a31.22,31.22,0,0,1-3-7.27c-.11-.39-.21-.79-.3-1.18a79.2,79.2,0,0,1-53-3l-.12-.09a72.71,72.71,0,0,1-14.29-8,55.14,55.14,0,0,1-5.42-4.51l-.9-.86c-2.54-2.44-4.92-5-7.39-7.59-.76-.79-1.52-1.56-2.3-2.33-.5-.51-1-1-1.54-1.49a77.23,77.23,0,0,0-8.62-7.1,80.91,80.91,0,0,0-28.11,6.33q-3,1.24-6,2.66-5.38,2.6-10.52,5.65c-3.53,2.08-7,4.29-10.39,6.59-4.43,3-8.8,6.11-13.14,9.26l.1.16q.83,1.32,1.59,2.67c.59,1,1.18,2.12,1.74,3.18Z"/><path class="cls-7" d="M223.31,36.94a11.25,11.25,0,0,0,2.36-3.08c1.84-3.57,1.9-7.61,1.67-11.44s-.71-7.7.18-11.53a18,18,0,0,1,5.43-9c-1,.42-2,.89-3,1.4-3.84,2-7.82,4.05-10.94,7.1-4,3.87-4.53,8-3,12.7q2,6.24,3.94,12.47a8.61,8.61,0,0,0,1.34,2.91A10.59,10.59,0,0,0,223.31,36.94Z"/><path class="cls-2" d="M242,16.27c-2.59,2.2-2.49,4.71-1.78,7.44.42,1.57.51,3.58-.87,4.67-.37-1.59-.79-3.26-2-4.33s-3.48-1.16-4.51.25a3.26,3.26,0,0,0-.18,3.09c.41,1,1.08,1.79,1.57,2.72a6.66,6.66,0,0,1-.73,7.34c-2,2.36-5.51,2.84-8.5,2.57a6.58,6.58,0,0,1-2.84-.75,7.56,7.56,0,0,0,1.15-2.33,11.25,11.25,0,0,0,2.36-3.08c1.84-3.57,1.9-7.61,1.67-11.44s-.71-7.7.18-11.53a18,18,0,0,1,5.43-9c7.21-3,14.19-3.09,19.44,4.67,5.7,8.42,0,7.74-5.25,8.18C245.15,14.91,243.22,15.23,242,16.27Zm8-11.64a3.08,3.08,0,0,0-1,.42A1.67,1.67,0,0,0,250,4.63Z"/><path class="cls-3" d="M247.14,14.74c-2,.17-3.92.49-5.14,1.53-2.59,2.2-2.49,4.71-1.78,7.44.42,1.57.51,3.58-.87,4.67-.37-1.59-.79-3.26-2-4.33s-3.48-1.16-4.51.25a3.26,3.26,0,0,0-.18,3.09c.41,1,1.08,1.79,1.57,2.72a6.66,6.66,0,0,1-.73,7.34c-2,2.36-5.51,2.84-8.5,2.57a6.58,6.58,0,0,1-2.84-.75,3,3,0,0,1-.27.35c-1.79,2.17-4.69,3.08-7.39,3.86l-.58.17c2.47,2.55,4.85,5.15,7.39,7.59l.9.86,6.9-3.63c2.17-1.13,4.43-2.3,6.8-2.41,1.72-.08,3.43.4,5.12-.06a6.66,6.66,0,0,0,3.71-3,15.2,15.2,0,0,0,1.72-4.4c.29-1.12.24-3.93,1.34-4.56a4.12,4.12,0,0,0,1.27-.79,2.21,2.21,0,0,0,.25-1.78,67.87,67.87,0,0,1-1.18-8.65A51.19,51.19,0,0,0,247.14,14.74Z"/><path class="cls-5" d="M226.47,80.77l.21,0L238.5,83.6a85.4,85.4,0,0,0,15.1,2.63c5.59.3,11.18-.47,16.72-1.25,10-1.4,20.08-2.83,29.45-6.54-.48-.69-.93-1.4-1.36-2.13l-2.77.83a88.48,88.48,0,0,1-37.64,5c-5.93-.51-12.51-1.08-18.23-2.73-2.88-.84-5.2-1.82-7.78-2.45-5.1-3.39-10.49-6.42-16.5-7.2-7-.91-14.15,1.42-20.45,4.69a69.43,69.43,0,0,0-19.5,15.05c-2.71,3-5.16,6.23-7.74,9.33a163.74,163.74,0,0,1,25.94-15.12c.37-.17.75-.34,1.14-.5a85,85,0,0,1,21.25-3.38A38.55,38.55,0,0,1,226.47,80.77Z"/><path class="cls-3" d="M298.31,76.11c0,.07.07.13.1.2a25.45,25.45,0,0,1,6.35-1.3,35.17,35.17,0,0,0,9.16-1.85c2.07-.63,8.45-2.28,8-5.36,0,0,5-2.85,2.72-4.93,0,0,2.84-3.52-3.31-2.13,0,0,.78-2.69-5.79-.36l-6.58,2.33s2.4-4.19,1.51-7.19c-.43-1.42-1.34-.08-1.81.58-1.22,1.67-2.13,3.53-3.39,5.19a23.14,23.14,0,0,1-9.94,7.55A31.22,31.22,0,0,0,298.31,76.11Z"/><path class="cls-3" d="M295,67.66c.09.39.19.79.3,1.18A22.77,22.77,0,0,0,301,65.57C299.06,66.36,297.05,67.05,295,67.66Z"/><path class="cls-8" d="M245.22,25.19a6.39,6.39,0,0,0-1.74.17,1.07,1.07,0,0,1,.25-1.14,1,1,0,0,1,1.5.12,1.11,1.11,0,0,1,.29.89A1.36,1.36,0,0,0,245.22,25.19Z"/><path class="cls-9" d="M246.33,20.5a5,5,0,0,0-5.87.71"/><path class="cls-10" d="M245.86,38a7.33,7.33,0,0,1-3.38-1.34"/><path class="cls-11" d="M251.43,28.88a1.24,1.24,0,0,0,.1-.2,2.47,2.47,0,0,0,.09-.86,1.68,1.68,0,0,0-.21-.91,1.67,1.67,0,0,0-1.17-.53L246,25.7a4.3,4.3,0,0,1-1.62-.49,1.48,1.48,0,0,1-.76-1.41,1.46,1.46,0,0,1,1.18-1.09,4.2,4.2,0,0,1,1.69.06l4.26.73c.26,0-.22-2.09-.3-2.26a3.26,3.26,0,0,0-1.56-1.61c-.05,0-.07-.07-.12-.1a27.68,27.68,0,0,0-9.64-.42,19.46,19.46,0,0,0-8.36,3.28,20.76,20.76,0,0,0-.74,8.9,2.44,2.44,0,0,0,.74.37,7,7,0,0,1,1.55-1.57,14,14,0,0,1,4.36-1.68,23.75,23.75,0,0,1,9.72-.06C247.48,28.53,250.61,30.19,251.43,28.88Z"/><path class="cls-12" d="M251.43,29.22l-5-.87a23.75,23.75,0,0,0-9.72.06,14,14,0,0,0-4.36,1.68,7,7,0,0,0-1.55,1.57,4,4,0,0,0,2.45-.4,12.32,12.32,0,0,1,4.71-1,22.88,22.88,0,0,1,4.3-.09,74.8,74.8,0,0,1,8.16,1.13A12.45,12.45,0,0,0,251.43,29.22Z"/><path class="cls-13" d="M251.45,25.68c-.2-.72-.39-1.43-.55-2.16l-5.54-.93a1.46,1.46,0,0,0-1.68,1.21,1.43,1.43,0,0,0,.25,1.09,1.41,1.41,0,0,0,.94.59l6.67,1.12C251.52,26.29,251.48,26,251.45,25.68Z"/><path class="cls-12" d="M232.13,29.7A6,6,0,1,1,228.84,22,6,6,0,0,1,232.13,29.7Z"/><path class="cls-13" d="M228.82,28.37a2.38,2.38,0,1,1-1.32-3.1A2.39,2.39,0,0,1,228.82,28.37Z"/></g></g></svg>