<svg xmlns="http://www.w3.org/2000/svg" xmlns:xlink="http://www.w3.org/1999/xlink" viewBox="0 0 100.5 146.06"><defs><style>.cls-1{fill:url(#Áåçûìÿííûé_ãðàäèåíò_1869);}.cls-2{fill:#2b245c;}.cls-3{fill:#ffd19a;}.cls-4{fill:url(#Áåçûìÿííûé_ãðàäèåíò_1868);}.cls-5{fill:#8d86c5;}.cls-6{fill:#8580ad;}.cls-7{fill:#a699d9;}.cls-8{fill:url(#Áåçûìÿííûé_ãðàäèåíò_1868-2);}.cls-9{fill:url(#Áåçûìÿííûé_ãðàäèåíò_1868-3);}.cls-10{fill:url(#Áåçûìÿííûé_ãðàäèåíò_1868-4);}.cls-11{fill:#d28174;}.cls-12{fill:#d83d5b;}</style><linearGradient id="Áåçûìÿííûé_ãðàäèåíò_1869" x1="8.14" y1="153.97" x2="117.34" y2="-33.53" gradientUnits="userSpaceOnUse"><stop offset="0" stop-color="#e4ddff"/><stop offset="1" stop-color="#faf9ff"/></linearGradient><linearGradient id="Áåçûìÿííûé_ãðàäèåíò_1868" x1="16.94" y1="102.73" x2="87.45" y2="102.73" gradientUnits="userSpaceOnUse"><stop offset="0" stop-color="#ef6e98"/><stop offset="1" stop-color="#db385b"/></linearGradient><linearGradient id="Áåçûìÿííûé_ãðàäèåíò_1868-2" x1="59.89" y1="-8.93" x2="27.79" y2="31.87" xlink:href="#Áåçûìÿííûé_ãðàäèåíò_1868"/><linearGradient id="Áåçûìÿííûé_ãðàäèåíò_1868-3" x1="81.54" y1="9" x2="79.14" y2="48.3" xlink:href="#Áåçûìÿííûé_ãðàäèåíò_1868"/><linearGradient id="Áåçûìÿííûé_ãðàäèåíò_1868-4" x1="8.45" y1="20.64" x2="19.55" y2="63.54" xlink:href="#Áåçûìÿííûé_ãðàäèåíò_1868"/></defs><title>Asset 9</title><g id="Layer_2" data-name="Layer 2"><g id="Ñëîé_1" data-name="Ñëîé 1"><path class="cls-1" d="M17.13,42.16c-.65,4.42-.42,9-1.87,13.25-1.73,5.06-5.65,9-8.62,13.47a40.51,40.51,0,0,0-4.33,35.68c2.31,6.38,6.6,12.41,12.87,15,4.68,1.94,10,1.8,14.72,3.63,6.31,2.44,11.46,8.32,18.22,8.39,7.45.07,13-6.91,20-9.34,4.59-1.59,9.72-1.19,14.21-3,5.9-2.41,9.64-8.17,12.73-13.74,1.78-3.22,3.51-7,2.12-10.44-.64-1.56-1.87-2.8-2.73-4.24-4-6.65.39-14.89,3.07-22.16a49,49,0,0,0,3-18.17c-.13-5.07-1.2-10.39-4.6-14.16-4.44-4.91-11.83-6.1-16.65-10.65-4.26-4-6-10.2-10.43-14C63.94,7.38,56.69,6.87,50.51,8.69,35.43,13.14,19.5,26,17.13,42.16Z"/><path class="cls-2" d="M69.9,95.84s-8.17-8.36-19.35-7.19-15.89,7.77-15.89,7.77,1.13,7.2,15.4,7.2c0,0,0,26.72,0,26.72a13.14,13.14,0,0,1-8.48,11.55,10.86,10.86,0,0,0-2.92.91c-.42.24-.64.5-.64.76,0,1.38,6.15,2.5,13.74,2.5s13.74-1.12,13.74-2.5c0-.27-.24-.52-.66-.77a10.78,10.78,0,0,0-2.88-.9c-7.12-2.15-8.38-11.55-8.38-11.55V103.43C65.24,102.29,69.9,95.84,69.9,95.84Z"/><path class="cls-3" d="M33.19,137.54c-2.2,2.35-6.31,7.78-7.2,6.9-.62-.63,1.74-5.36,3.14-8a4.16,4.16,0,0,0,.12-3.67c-.69-1.51-1.74-3.82-2.94-6.5a15.41,15.41,0,0,0,2.85-.7A14.58,14.58,0,0,0,32,124.07c.64,3.24,1.32,5.83,2.2,6.86.1.11.18.22.26.32C36.75,134.1,35.31,135.28,33.19,137.54Z"/><path class="cls-4" d="M63,80.56,53,78.93v-.27l-.82.13-.81-.13v.26l-10,1.64S15.13,98,17,104.21c1.17,3.79,5.84,14.41,9.27,22a15.61,15.61,0,0,0,2.85-.7A13.82,13.82,0,0,0,32,124.07c-1.3-6.47-2.5-15.56-5.14-20.16,0,0,11.31-9.28,26.72-10.16a43.68,43.68,0,0,1,23.91,10.16c-2.77,4.84-4,14.65-5.34,21.15a17.94,17.94,0,0,0,5.1,1.66l.56.08c3.44-7.65,8.32-18.71,9.52-22.59C89.26,98,63,80.56,63,80.56Z"/><path class="cls-3" d="M78.4,144.44c-.88.88-5-4.55-7.2-6.9-2-2.17-3.45-3.35-1.54-6,.15-.21.32-.42.51-.65.8-.92,1.41-3.09,2-5.87a17.94,17.94,0,0,0,5.1,1.66l.56.08c-1.08,2.39-2,4.46-2.66,5.86a4.3,4.3,0,0,0,.12,3.8C76.71,139.17,79,143.81,78.4,144.44Z"/><path class="cls-2" d="M33.19,137.54c-2.2,2.35-6.31,7.78-7.2,6.9-.62-.63,1.74-5.36,3.14-8a6.55,6.55,0,0,0,3.48-2.25,13.88,13.88,0,0,0,1.87-2.91C36.75,134.1,35.31,135.28,33.19,137.54Z"/><path class="cls-2" d="M78.4,144.44c-.88.88-5-4.55-7.2-6.9-2-2.17-3.45-3.35-1.54-6a13.13,13.13,0,0,0,1.71,2.58,6.42,6.42,0,0,0,3.82,2.32h.11C76.71,139.17,79,143.81,78.4,144.44Z"/><path class="cls-5" d="M49.56,46.35s-11.89.88-19,4.41C19.9,56,7,62.82,13.68,66.56c5.3,3,23.77-3.62,23.77-3.62l4,17.62s9.11,4,21.88,0l1.76-18.35s15,6.86,24.8,2.31c0,0-8.79-20.15-33.46-18.17Z"/><path class="cls-6" d="M39.53,48a.65.65,0,0,0-.28.05.17.17,0,0,1,0,.12c-.05.11,0,.26.12.25s0-.07,0-.15,0-.15.33-.19.37,0,.4.34.2.57.36.43.17-.06.27,0a.27.27,0,0,0,.21,0c.17,0,.16,0,.31.46s.23.62.32.7.06.13,0,.25,0,.21,0,.22a.43.43,0,0,1,.11.22c0,.19,0,.21-.11.29s-.23.11-.33,0-.18-.2-.26-.17-.06.08,0,.25.08.25,0,.39,0,.26.1.2.09,0,.09,0a.28.28,0,0,0,.12.15,1.07,1.07,0,0,0,.1-.23.15.15,0,0,0,0-.18c-.15-.13,0-.35.31-.36.08,0,.09,0,0,.15s0,.17.14.31a1.06,1.06,0,0,1,.3.42c.12.25.14.27.27.25s.22,0,.14.21,0,.13,0,.18.13.16.09.31-.18.14-.31,0a.41.41,0,0,0-.31-.08.46.46,0,0,1-.23,0s-.07,0-.13,0,.51,1,.69,1,.09,0,.08.1,0,.13.09.15a.15.15,0,0,1,.12.11.51.51,0,0,0,.29.33c.06,0,.08,0,.08.11s0,.13.21.23a1.45,1.45,0,0,1,.31.24c.08.08.12.09.17,0a.38.38,0,0,1,.17-.07.49.49,0,0,0,.13,0s-.1-.43-.15-.42,0,0,0-.07.18-.18.22-.08.06.06.14,0,.12,0,.18.06a2.21,2.21,0,0,0,.23.28l.33.32a.44.44,0,0,0,.34.17c.22,0,.45.2.42.39s0,.14.11.06.16-.07.19,0a.25.25,0,0,0,.17,0c.14,0,.26.23.14.3s-.08.06-.07.09.09,0,.14-.06.06-.06.1,0a.09.09,0,0,1,0,.12.33.33,0,0,0,0,.15.32.32,0,0,1-.06.15.14.14,0,0,0,0,.17c.15.19,0,.32-.35.18s-.49,0-.39.13A.17.17,0,0,0,46,57c.15,0,.42.11.46.22s0,.1-.11.18a.33.33,0,0,0-.19.2c0,.13,0,.14.35.3s.56.14.52,0a.44.44,0,0,1,0-.17.08.08,0,0,0,0-.11c-.1-.06-.12-.23,0-.25s.31.15.27.26a.29.29,0,0,0,0,.16.19.19,0,0,1,0,.17c0,.09,0,.12,0,.17a.18.18,0,0,0,.28,0c0-.07.14-.11.25-.09s0,.06,0,.12,0,.21.2.23l.61.1a4.23,4.23,0,0,0,.81,0c.25,0,.31,0,.41,0s.2.11.25,0,.07-.11.14-.09.4-.1.4-.17-.06-.05-.14,0-.31-.07-.32-.19,0-.1.09-.09.12,0,.14,0a.09.09,0,0,1,.11,0s.09,0,.15,0,.34.1.36.32.15.31.27.15a.3.3,0,0,0,.06-.18c0-.09,0-.07.08,0s.24.07.24-.07.08,0,.07,0a.23.23,0,0,0,.07.15c.13.09.12.19,0,.27a.27.27,0,0,0-.15.21c0,.15-.15.17-.38,0s-.13-.09-.23.14-.1.23-.22.14a.23.23,0,0,0-.34.16c0,.25.11.29.63.25s.68-.05.5.14-.12.13,0,.18a.24.24,0,0,0,.33-.24c0-.16.08-.23.42-.26s.45,0,.45.1,0,.12.13.08.11-.07.09-.15.31.17.41.11a.72.72,0,0,0,.14-.24c.07-.23.31-.33.85-.42,0,.08.41,0,.76-.15a2.71,2.71,0,0,0,.72-.4s.09-.05.17-.05.17,0,.2-.14a.35.35,0,0,1,.13-.18.19.19,0,0,0,.1-.16c0-.11.17-.17.3-.13a1.79,1.79,0,0,0,1-.38c.12-.09.14-.15.12-.26s0-.14.06-.11a.19.19,0,0,0,.13,0c.16.22.85-.16.83-.36s0-.07,0-.06a1.41,1.41,0,0,0,.41-.28c.32-.29.32-.29.25-.48s-.06-.3.08-.13.12.12.2.06c.82-.64.8-.66.89-.58s.08,0,.1,0c-.14-.15-.16-.29-.07-.33a.85.85,0,0,0,.24-.19,2,2,0,0,1,.32-.27c.12-.08.17-.14.17-.22s0-.09.12-.06.19,0,.12-.11.29-.51.43-.44.11,0,.16-.11A1.47,1.47,0,0,1,62.5,53c.06-.1.06-.14,0-.2s.21-.59.44-.6a.13.13,0,0,0,.1-.08s.08-.08.12-.07a.29.29,0,0,0,.16-.11c.31-.37.35-.45.34-.52s.05-.23.5-1.24a5.45,5.45,0,0,0,.34-.92s0-.07.1-.09.14-.09.21-.34a1.58,1.58,0,0,1,.21-.45.69.69,0,0,0,.16-.46,4.13,4.13,0,0,1,.13-.63,2.08,2.08,0,0,0,.07-.61,38.76,38.76,0,0,0-7.6-.36s0,0,0,.06,0,.09,0,.16a.41.41,0,0,1-.29.19c-.06,0-.1.12-.1.32s0,.13-.1.13-.1,0-.07.12,0,.11,0,.1a.44.44,0,0,0-.14-.12c-.08-.05-.13,0-.06.08-.18-.13-.29-.12-.29,0a.47.47,0,0,1-.07.21c-.05.1-.05.13,0,.21a.23.23,0,0,1,.07.2.39.39,0,0,0,0,.16c0,.08,0,.07-.16,0s-.3,0-.22.06,0,.44-.14.45-.1,0,0,.1-.1.29-.25.26a.17.17,0,0,0-.16.08,1.5,1.5,0,0,1-.25.21,2.47,2.47,0,0,0-.29.24,1.63,1.63,0,0,1-.21.19c-.11.06-.11.05-.19.21a.39.39,0,0,1-.08.14l-.09.11a.15.15,0,0,1-.14.06.07.07,0,0,0-.09,0,6,6,0,0,1-.85.57,6.19,6.19,0,0,1-1.29.37,1.05,1.05,0,0,0-.35.11,2,2,0,0,1-.91.23s0,0-.08,0a.35.35,0,0,1-.14.06.81.81,0,0,0-.31.05.25.25,0,0,1-.21,0,.08.08,0,0,0-.1,0s0,0-.08,0,0,0-.08,0-.09.12-.1,0,0-.07,0,0a2.16,2.16,0,0,1-1-.07,2.13,2.13,0,0,1-.6-.29,3.65,3.65,0,0,1-.66-.58l-.5-.51a1.15,1.15,0,0,1-.26-.36l-.2-.37c-.18-.32-.26-.47-.31-.48s0,0,0-.08,0-.08-.11-.11-.15,0-.12-.16,0-.13,0-.14a2.12,2.12,0,0,1-.33-.88c-.07-.36-.08-.38-.16-.78-1.22.17-2.63.39-4.14.67.16.21,0,.42-.19.25a.25.25,0,0,0-.16-.06.14.14,0,0,1-.15-.09l-.4.08s0,0,0,.08a.64.64,0,0,0,.14.28.21.21,0,0,1,0,.31c-.12.1-.34,0-.35-.08s0-.19-.07-.45l0-.09-.42.09C39.8,48,39.75,48,39.53,48ZM62.28,53c.07.08,0,.13-.07.08a.05.05,0,0,1,0-.08C62.21,53,62.24,53,62.28,53Zm-2.66,1.85c-.08,0-.12,0-.13-.06S59.61,54.84,59.62,54.88Zm-1,.6c.15-.13.19-.14.26-.06s0,.09-.06.09-.08,0,0,.1-.08.14-.2,0S58.52,55.56,58.62,55.48Zm0,.6c.11.28.07.42,0,.22a.31.31,0,0,0-.13-.13c-.1,0-.15-.13-.13-.28S58.43,55.7,58.57,56.08Zm-1.07.86c.06,0,.08.2,0,.24s-.06,0-.09-.07S57.43,56.91,57.5,56.94Zm-.41-.33c.07,0,.09,0,.08-.09a.14.14,0,0,1,0-.13s.17.09.18.2-.23.23-.32.14S57,56.59,57.09,56.61Zm-5,2a.25.25,0,0,1,0-.17.25.25,0,0,1,.33-.17.87.87,0,0,0,.28,0c.2,0,.21,0,.18.08a.18.18,0,0,1-.14.12c-.14,0-.2.13-.16.3s-.17.33-.41.23S52,59,52,59.08s-.11.14-.16.05,0-.24.11-.22S52.13,58.75,52.09,58.65Zm-.16,0a.1.1,0,0,1,0,.1s-.06,0-.06-.08a.08.08,0,0,1,0-.1S51.92,58.62,51.93,58.67Zm-3.4-.82h.29c.19,0,.24,0,.22.06s-.1.07-.21.07-.19,0-.25.15-.06.13-.1.06S48.47,57.84,48.53,57.85Zm-1-.17a.31.31,0,0,1,.19,0c.14,0,.15,0,.11.11s-.07.1-.16.09S47.47,57.74,47.53,57.68Zm-.93-.35h.08C46.67,57.44,46.58,57.38,46.6,57.33Zm-.39-2.24c0-.1.49.08.51.21s-.16.2-.27.1-.14-.11-.19-.15S46.18,55.15,46.21,55.09Zm-.38-.36c.06,0,.12,0,.2.12s0,.17-.13.11S45.74,54.8,45.83,54.73Zm-.4-.29c.07,0,.29.13.3.21s-.17.11-.26,0S45.38,54.47,45.43,54.44Zm-1.59-4.63c-.09.09-.44.16-.5.09s0-.06.1-.09.29-.19.25-.3,0-.22.12-.19S44,49.68,43.84,49.81Zm-.46-1.1a.8.8,0,0,0,.16-.15.9.9,0,0,1,.5-.16c.21.09.08.38-.15.32a.26.26,0,0,1-.11-.07c0-.07-.09,0-.14,0a.4.4,0,0,1-.2.12C43.25,48.86,43.24,48.84,43.38,48.71Zm-.28.51a.16.16,0,0,1,.12,0c.13,0,.08.18-.07.18A.09.09,0,0,1,43.1,49.22ZM43.2,52c-.11.06-.14,0-.14-.09C43.31,51.93,43.32,52,43.2,52Zm-.49-.44a.55.55,0,0,0-.2,0c-.22.06-.13-.06.1-.12a.23.23,0,0,1,.21,0C42.87,51.56,42.8,51.62,42.71,51.6ZM42,50.06a.08.08,0,0,1,.11,0,.1.1,0,0,0,.09.07.09.09,0,0,1,.08.07s.05.07.08.07a.35.35,0,0,1,.15.1c.23.3.35.55.26.66a.17.17,0,0,0,0,.17c.06.13-.09.14-.2,0a1.1,1.1,0,0,1-.17-.25.62.62,0,0,0-.2-.22c-.11-.05-.13-.08-.11-.25s0-.39,0-.37S41.93,50.07,42,50.06Zm-.49-1.32,0-.17c.17,0,.24.31.18.35a.36.36,0,0,1-.26,0A.87.87,0,0,1,41.49,48.74Z"/><path class="cls-6" d="M44,55.41s0,.07,0,.11.08,0,.09,0a.1.1,0,0,0,0-.1A.06.06,0,0,0,44,55.41Z"/><path class="cls-6" d="M45.49,56c0-.16-.09-.06-.28.18s-.14.2-.09.23S45.46,56.1,45.49,56Z"/><path class="cls-6" d="M44.89,56.89a.23.23,0,0,1-.19,0c-.09-.09-.17,0-.1.1s.4.32.42.28l0-.17C45.12,56.9,45.06,56.85,44.89,56.89Z"/><path class="cls-6" d="M44.33,56.57a.11.11,0,0,0,0-.11C44.23,56.66,44.3,56.68,44.33,56.57Z"/><path class="cls-6" d="M38.21,48.73c-.05.09.13.52.22.52s0-.06,0-.25S38.27,48.64,38.21,48.73Z"/><path class="cls-6" d="M44.33,55.06c0-.05-.14,0-.12.08s0,.09.1,0S44.35,55.08,44.33,55.06Z"/><path class="cls-6" d="M45.38,56.57a.12.12,0,0,0,0,.1c.06.07.18,0,.19,0S45.43,56.5,45.38,56.57Z"/><path class="cls-6" d="M49.74,59.33c-.15-.12-.18-.12-.28,0s-.2.08-.12-.11.1-.17.13-.17-.08-.12-.19-.13a.41.41,0,0,1-.23-.07.31.31,0,0,0-.14-.09c-.22-.07-.24-.07-.3,0s-.07.09-.16,0-.11-.08-.18,0a.14.14,0,0,1-.16.07s-.1,0-.11,0-.07.07-.08,0,0-.21-.43-.18c-.18,0-.17.1,0,.15a.36.36,0,0,1,.27.41c0,.1.31.23.73.31a3.45,3.45,0,0,0,1.25,0C49.92,59.46,49.91,59.46,49.74,59.33Z"/><path class="cls-6" d="M49.79,59.09c0-.08,0-.09-.09-.09s-.14,0-.13.08S49.73,59.2,49.79,59.09Z"/><path class="cls-6" d="M47.17,58.72a.25.25,0,0,1-.13-.15.29.29,0,0,0-.11-.18c-.11-.07-.16-.09-.17-.07l-.06.11c.09.12.09.24,0,.3s-.09.14.12.2a.44.44,0,0,1,.27.17c.07.12.24.18.26.09A.64.64,0,0,0,47.17,58.72Z"/><path class="cls-6" d="M46.32,58.27s-.08,0-.12,0-.21-.17-.24-.06a.14.14,0,0,0,.08.17.55.55,0,0,1,.17.31c.08.26.1.26.25,0s.09-.21,0-.28S46.4,58.22,46.32,58.27Z"/><path class="cls-6" d="M45.73,57.42c.08-.06.08-.07,0-.12a.2.2,0,0,0-.21,0,.13.13,0,0,1-.16,0c-.09-.08-.17,0-.1.07A.57.57,0,0,0,45.73,57.42Z"/><path class="cls-6" d="M45.21,58.5c0,.09.26.23.3.14s.07,0,.14,0,.3.06.24-.09S45.22,58.3,45.21,58.5Z"/><path class="cls-6" d="M44.91,56c.21-.13.22-.16.16-.28a.6.6,0,0,0-.25-.21c-.18-.11-.18-.11-.35.08s-.2.3,0,.31.13,0,.14.09S44.73,56.14,44.91,56Z"/><path class="cls-6" d="M43.86,55.35c.1,0,.1-.07,0-.09A.07.07,0,0,0,43.86,55.35Z"/><path class="cls-6" d="M39.87,52.7c-.12,0,0,.11,0,.08A.13.13,0,0,0,39.87,52.7Z"/><path class="cls-6" d="M39.88,50.4a.28.28,0,0,1,0-.2.1.1,0,0,0,0-.13l-.12-.14c-.08-.14-.15-.09-.13.12s0,.19,0,.2.07.22.22.25S39.92,50.54,39.88,50.4Z"/><path class="cls-6" d="M39.31,52.21c.16.18.16.17.24,0l.08-.16L39.49,52C39.21,51.72,39.05,51.93,39.31,52.21Z"/><path class="cls-6" d="M39.21,51.16c-.11.07,0,.15,0,.13S39.29,51.17,39.21,51.16Z"/><path class="cls-6" d="M39.86,53.05c-.06.25,0,.27.11.23a.11.11,0,0,1,.16,0c0,.09.14.11.18,0s0-.1-.31-.41C39.9,52.84,39.9,52.84,39.86,53.05Z"/><path class="cls-6" d="M43.54,55.93c-.11,0-.11,0,0,.17s.11.09.17,0S43.68,55.93,43.54,55.93Z"/><path class="cls-6" d="M43.59,57.41c0,.18.09.17.1.08S43.67,57.37,43.59,57.41Z"/><path class="cls-6" d="M42,54s.06.1.12.07S42.05,53.93,42,54Z"/><path class="cls-6" d="M40,51.18c-.06.09.09.34.25.4a.52.52,0,0,1,.35.45c0,.13.12.21.26.15a4,4,0,0,0-.53-.93C40.14,51.06,40.06,51,40,51.18Z"/><path class="cls-6" d="M42.16,54.81c0,.06.16.13.2.09s0-.07,0-.12S42.18,54.71,42.16,54.81Z"/><path class="cls-3" d="M53.79,32.83c.46.22,6.43,2.48,6,11.48S53.28,55.69,50.4,54.4s-4.6-2.73-5.52-10.53S48.55,30.36,53.79,32.83Z"/><path class="cls-2" d="M42.89,36.25a6.37,6.37,0,0,1,2.37-4.11c1.08-.73,2.47-.82,3.67-1.32,2.42-1,3.85-3.55,6-5,1-.63,2.55-.87,3.08.16a3.3,3.3,0,0,1,.06,1.74c0,.59.08,1.3.62,1.53a5.8,5.8,0,0,0,.93.14c1.23.3,1,1.62.75,2.45a7.25,7.25,0,0,0-.12,4.18c.37,1.4,1,2.75,1.21,4.17a5.33,5.33,0,0,1-.71,4.16c-1,1.3-2-.53-2.22-1.49a13.91,13.91,0,0,1-.19-2.41,6.9,6.9,0,0,0-.92-3.4,3.5,3.5,0,0,0-2.94-1.7,8.23,8.23,0,0,0-1.83.42,8.33,8.33,0,0,1-3.18.25,4.18,4.18,0,0,0-2.11,0A3.06,3.06,0,0,0,46,38.6c-.26,1.77-.34,3.54-.66,5.3-.1.54,0,1.2-.62,1.44s-1.22-.31-1.52-.8a8.24,8.24,0,0,1-.7-4.73A21.38,21.38,0,0,1,42.89,36.25Z"/><path class="cls-3" d="M43.21,41.68a1.57,1.57,0,0,0-.72,1.13,4.71,4.71,0,0,0,.47,2.8,3.21,3.21,0,0,0,.93,1.3,1.48,1.48,0,0,0,1.52.2,2.14,2.14,0,0,0,.81-2C46.21,43.87,45.13,40.72,43.21,41.68Z"/><path class="cls-3" d="M60.92,41.68a1.57,1.57,0,0,1,.72,1.13,4.64,4.64,0,0,1-.47,2.8,3.21,3.21,0,0,1-.93,1.3,1.48,1.48,0,0,1-1.52.2,2.12,2.12,0,0,1-.8-2C57.93,43.87,59,40.72,60.92,41.68Z"/><path class="cls-3" d="M16.23,54.3l.07-.09C19.32,51,37.21,40.15,38,39.43a8.78,8.78,0,0,0,1.56-2.37,10.64,10.64,0,0,1,3-3.56,6,6,0,0,1,4.39-1.19,1.45,1.45,0,0,1,1,.55,1.24,1.24,0,0,1-.37,1.49,14.36,14.36,0,0,1-1.39.9c-1.77,1.27-1.88,3.9-3.3,5.56-1.21,1.41-3,2.39-4.38,3.56S21.55,62.79,19.61,64.65c-2.11,2-5.62,3.68-7.47.32C10.08,61.22,13.81,56.88,16.23,54.3Z"/><path class="cls-3" d="M86.69,52.68l-.08-.08c-3-3.22-20.91-14.07-21.68-14.79a8.57,8.57,0,0,1-1.56-2.36,10.67,10.67,0,0,0-3-3.57A5.92,5.92,0,0,0,56,30.7a1.4,1.4,0,0,0-1,.54,1.23,1.23,0,0,0,.37,1.49,14.45,14.45,0,0,0,1.39.91c1.77,1.26,1.88,3.9,3.3,5.55,1.21,1.41,3,2.4,4.38,3.57S81.36,61.17,83.3,63c2.11,2,5.62,3.67,7.47.31C92.83,59.61,89.1,55.26,86.69,52.68Z"/><path class="cls-7" d="M30,32.46c-6.84-4.65-13.87-9-20.69-13.69-.5-.35-1.06.43-.64.85,5.83,5.7,13.55,10.13,20.5,14.3C30.11,34.49,30.89,33.06,30,32.46Z"/><path class="cls-7" d="M32.69,24.36a54.41,54.41,0,0,0-5.38-6A69.87,69.87,0,0,0,21.24,12c-.38-.32-1,.08-.73.55a51,51,0,0,0,5,6.23c1.89,2.15,3.73,4.66,6,6.44C32.12,25.75,33.22,25.12,32.69,24.36Z"/><path class="cls-8" d="M51.29,7.87l-5.69.29c.31-.8,1.83-7.93,1.79-7.93-1.08-.05-4-.57-4.93.13s-1,13.9-1.32,14l5.23-.86A52,52,0,0,0,44.91,23C47.48,18.47,51.21,8.14,51.29,7.87Z"/><path class="cls-9" d="M84.08,32.2l-2-3.27c.58-.07,5.28-1.45,5.26-1.47-.32-.66-.95-2.57-1.65-2.87S77.18,28.43,77,28.25c.72.94,1.45,1.88,2.18,2.81a36.69,36.69,0,0,0-6.11,2.17A87.91,87.91,0,0,0,84.08,32.2Z"/><path class="cls-10" d="M12.37,33.24c-.37,1.44-.75,2.88-1.13,4.31-.52-.42-5.48-3.24-5.49-3.21-.29.8-1.38,2.88-1.07,3.71s10.14,4,10.1,4.29c.2-1.37.39-2.74.59-4.11a41.38,41.38,0,0,0,6.77,3.35A101.74,101.74,0,0,0,12.37,33.24Z"/><path class="cls-7" d="M74.38,5.87c-2.53,2-4.62,4.88-6.66,7.4-1.67,2.07-3.84,4.3-4.64,6.86-.11.36.34.76.67.52,2.38-1.73,4-4.62,5.88-6.87s4.22-4.48,6-7C76.18,6,75,5.35,74.38,5.87Z"/><path class="cls-7" d="M77.47,15.56c-1.73.36-3.29,1.59-4.79,2.48A21,21,0,0,0,68.18,21a.52.52,0,0,0,.5.86,17.76,17.76,0,0,0,4.88-2.27c1.52-.84,3.37-1.62,4.49-3A.6.6,0,0,0,77.47,15.56Z"/><path class="cls-11" d="M50.73,41.84a5.66,5.66,0,0,0-1.92-.59A4.8,4.8,0,0,0,47.06,41a.18.18,0,0,0-.08.3,4.32,4.32,0,0,0,1.65.61,5.71,5.71,0,0,0,2,.42A.26.26,0,0,0,50.73,41.84Z"/><path class="cls-11" d="M57.2,40a19.26,19.26,0,0,0-3.84,1.95c-.22.17,0,.5.26.44a9.44,9.44,0,0,0,1.88-.81c.68-.33,1.36-.65,2-1C57.92,40.34,57.58,39.79,57.2,40Z"/><path class="cls-11" d="M50.07,44.47A6.41,6.41,0,0,0,48.78,44a3.54,3.54,0,0,0-1.31-.31.27.27,0,0,0-.19.47,3.53,3.53,0,0,0,1.22.54,6.75,6.75,0,0,0,1.39.42C50.25,45.16,50.35,44.63,50.07,44.47Z"/><path class="cls-11" d="M57,43.38a5.93,5.93,0,0,0-1.74.48,3.25,3.25,0,0,0-1.46.66.13.13,0,0,0,.06.21,3.37,3.37,0,0,0,1.54-.35,6.68,6.68,0,0,0,1.71-.6A.22.22,0,0,0,57,43.38Z"/><path class="cls-11" d="M52.46,48.19c-.86.16-.89-.33-.86-1,0-.37,0-.74,0-1.11a5.86,5.86,0,0,0-.11-2.25s-.11-.08-.14,0a6.1,6.1,0,0,0-.32,2.26,8.39,8.39,0,0,0,0,2.5.27.27,0,0,0,.2.19,2.05,2.05,0,0,0,1.35-.26C52.78,48.41,52.64,48.16,52.46,48.19Z"/><path class="cls-11" d="M54.69,50.2a8.28,8.28,0,0,0-2.93-.26c-.65,0-1.59,0-2,.57a.29.29,0,0,0,0,.39l.07.09s.1,0,.15,0c1.44-.61,3.15-.31,4.65-.14C55,50.91,55,50.31,54.69,50.2Z"/><path class="cls-11" d="M45.9,45.41a2.28,2.28,0,0,0-.81-.88,4.73,4.73,0,0,0-1.2-.72c-.11,0-.18.12-.11.2a9.69,9.69,0,0,0,.79.78.84.84,0,0,0-.57.67.22.22,0,0,0,.27.2,1.13,1.13,0,0,0,.61-.57,2.4,2.4,0,0,0,.76.59A.22.22,0,0,0,45.9,45.41Z"/><path class="cls-11" d="M60.27,44a.14.14,0,0,0-.09-.16c-.38-.09-.72.31-1,.57a3,3,0,0,0-.76,1.13.15.15,0,0,0,.25.15l.35-.43a.26.26,0,0,0,.09,0c.29,0,.53.24.82.16a.17.17,0,0,0,.12-.15c0-.33-.32-.45-.62-.52l.07-.07C59.78,44.52,60.2,44.36,60.27,44Z"/><path class="cls-12" d="M65,92.72a.7.7,0,0,1-.69,0,.2.2,0,0,0-.33.11A5.57,5.57,0,0,0,65.3,93c.29,0,.37,0,.28-.22S65.18,92.63,65,92.72Z"/><path class="cls-12" d="M63.56,91.4a.12.12,0,0,1-.16.09c-.12,0-.2,0-.16.11s.11,0,.58,0c.18,0,.18,0,0-.17S63.62,91.26,63.56,91.4Z"/><path class="cls-12" d="M64.07,91.67a.25.25,0,0,0,.09,0C64.22,91.61,64.08,91.61,64.07,91.67Z"/><path class="cls-12" d="M65.93,92.14c0,.07.1.1.15,0A.08.08,0,0,0,65.93,92.14Z"/><path class="cls-12" d="M64.92,91.94l.19,0c.42-.07.32-.33-.12-.31-.27,0-.27,0-.17.18Z"/><path class="cls-12" d="M60.35,92s0,.06.12.07.18,0,.12-.13S60.36,91.89,60.35,92Z"/><path class="cls-12" d="M67,93.2c-.11,0-.19-.13-.18-.16s-.28-.08-.41,0-.12.09,0,.13a.49.49,0,0,1,.22.13.16.16,0,0,0,.14.07H67C67.24,93.4,67.22,93.32,67,93.2Z"/><path class="cls-12" d="M61.24,92.43c0,.14.18,0,.16,0S61.25,92.36,61.24,92.43Z"/><path class="cls-12" d="M77.63,98c-.18,0-.2.07-.15.25s.16.21.35.07S77.82,97.94,77.63,98Z"/><path class="cls-12" d="M77.42,98.5s-.06,0-.12,0a.13.13,0,0,0,0,.16.67.67,0,0,0,.17.17c.11.08.12.08.11,0a.34.34,0,0,0,0-.17A.32.32,0,0,1,77.42,98.5Z"/><path class="cls-12" d="M58.77,92.57a.1.1,0,0,0-.08-.07C58.62,92.58,58.65,92.61,58.77,92.57Z"/><path class="cls-12" d="M78.22,98.57c-.18,0-.27.29-.19.53a.62.62,0,0,1,0,.3c0,.08.17.32.27.3s.07-.06.06-.12a1,1,0,0,1,0-.24C78.43,99.09,78.32,98.56,78.22,98.57Z"/><path class="cls-12" d="M76.13,101.57a.16.16,0,0,0-.11.07c0,.08.07.16.16.12A.1.1,0,0,0,76.13,101.57Z"/><path class="cls-12" d="M68.54,92.73s0,.08.27.14c.41.1.49.1.42,0S68.59,92.65,68.54,92.73Z"/><path class="cls-12" d="M71.24,94.81c-.2-.09-.33-.1-.33,0s0,.09.28.15S71.45,94.92,71.24,94.81Z"/><path class="cls-12" d="M71.18,93.25a1.39,1.39,0,0,0-.7.13,1.79,1.79,0,0,0,.71.31c.06,0,.07,0,0-.12s0-.11.09-.13S71.41,93.29,71.18,93.25Z"/><path class="cls-12" d="M57,91.47a1.34,1.34,0,0,0-.55-.07l0,.18c0,.18.13.21.28.09a.25.25,0,0,1,.2-.06C57.07,91.65,57.1,91.53,57,91.47Z"/><path class="cls-12" d="M57.55,91.78c0-.21-.13-.19-.09-.07A.13.13,0,0,0,57.55,91.78Z"/><path class="cls-12" d="M57.68,90.6c-.11-.15-.16-.1-.13,0S57.64,90.68,57.68,90.6Z"/><path class="cls-12" d="M55,90.75a.66.66,0,0,1-.27-.25c-.16-.23-.17-.22-.24.1s0,.23,0,.28.15.09.22,0,.07,0,.14,0,.27.1.26,0S55.06,90.76,55,90.75Z"/><path class="cls-12" d="M52.94,90.3c0-.21-1.46-.29-2.18-.08-.18,0-.18,0,0,.17s.21.11.32,0,.21-.1.14.1a.35.35,0,0,1-.13.18c0,.09.09.11.22.11a.46.46,0,0,1,.27.06.34.34,0,0,0,.18.07c.25,0,.28,0,.32-.06s.07-.09.18,0,.15,0,.2,0a.19.19,0,0,1,.17-.09c.06,0,.11,0,.11-.06s.06-.07.09,0,.06.21.51.1c.19,0,.15-.13-.06-.14A.37.37,0,0,1,52.94,90.3Z"/><path class="cls-12" d="M58.31,91.76c0,.11.15.16.28.08s.07-.1-.11-.15S58.33,91.68,58.31,91.76Z"/><path class="cls-12" d="M50.74,90.63c-.05.08,0,.09.11.08s.16,0,.15-.07A.14.14,0,0,0,50.74,90.63Z"/><path class="cls-12" d="M55.72,90.32c0-.09-.32-.11-.33,0s-.06,0-.15,0-.31,0-.2.16S55.79,90.52,55.72,90.32Z"/><path class="cls-12" d="M54.16,90.56c.1-.12.06-.16-.17-.17a.57.57,0,0,1-.32-.1c-.1-.11-.28-.13-.28,0s.21.41.31.41a.27.27,0,0,1,.17.12.29.29,0,0,0,.16.15c.14,0,.2,0,.2,0l0-.12C54.14,90.75,54.1,90.64,54.16,90.56Z"/><path class="cls-12" d="M57.71,92.33a.17.17,0,0,1-.2,0c-.1-.09-.2,0-.32.14s-.13.24,0,.32a1,1,0,0,0,.4.07c.27,0,.27,0,.32-.25S57.91,92.24,57.71,92.33Z"/><path class="cls-12" d="M56.17,91.39a.62.62,0,0,0-.53.13c-.07.08-.06.08.08.09a.26.26,0,0,0,.22-.07.13.13,0,0,1,.16-.06C56.22,91.53,56.28,91.44,56.17,91.39Z"/><path class="cls-12" d="M58.5,92.54s0-.07-.1-.08-.1,0-.09.05a.12.12,0,0,0,.1.08A.09.09,0,0,0,58.5,92.54Z"/><path class="cls-12" d="M58.4,92.91a.09.09,0,0,0,.05.1.08.08,0,0,0,.06-.14C58.42,92.81,58.41,92.81,58.4,92.91Z"/><path class="cls-12" d="M75.61,102.27c.14.12.17.12.27,0s-.28-.4-.4-.29-.39,0-.23-.23a.9.9,0,0,0,.18-.28c.1-.31.47-.52.44-.25a.13.13,0,0,0,.06.13c0-.26,0-.33.2-.33a.27.27,0,0,0,.2-.09c0-.06.12-.07.26,0s.31.17.2.32a.16.16,0,0,0,.15.24c.11,0,.16-.43.06-.54a.93.93,0,0,1-.12-.28c0-.19,0-.2.13-.14s.26,0,.2-.16,0-.16.18-.32.23-.19.23-.22a3.26,3.26,0,0,0-.67-1c-.27-.29-.39-.57-.27-.7s.1,0,.24.13.16.2.22.09.14-.42,0-.52A1.47,1.47,0,0,1,77,96.9c0-.21-.1-.28-.29-.15s-.18.1-.27,0a4.93,4.93,0,0,1-.8-.86s-.07-.12-.15-.18a7.16,7.16,0,0,0-1-.67.72.72,0,0,1-.46-.6,1,1,0,0,0-.22-.31c-.18-.18-.2-.19-.41-.12s-.61,0-.67-.12-.11-.06-.21-.06-.2,0,0,.23.33.26.2.41,0,.42.84.76a1.19,1.19,0,0,1,.47.29,1.3,1.3,0,0,0,.65.41c.09,0,.14,0,.22.21a.67.67,0,0,0,.56.42c.09,0,.14.07.2.24a.66.66,0,0,0,.47.44c.11,0,.12,0,.1.2s.08.36.18.25.16,0,.16.11a.24.24,0,0,1-.26.23c-.16,0-.36-.2-.59-.55s-.25-.29-.31-.28-.38-.27-.37-.36-.53-.4-.61-.29a1.56,1.56,0,0,0-.07.21c-.14.56-.2.56-1,0-.33-.24-.64-.42-.66-.44,0-.17.39-.12.6,0s.21.1.23.08.32,0,.5.06c.33,0,.34,0,.23-.11a.58.58,0,0,0-.53-.23c-.23,0-.25,0-.35-.18a1.78,1.78,0,0,0-.62-.63c-.32-.2-.37-.2-.29,0s0,.57-.12.63a4.11,4.11,0,0,1-2.09-.77A.5.5,0,0,0,70,95c-.11,0-.2,0-.4-.13s-.34-.21-.19-.44a.53.53,0,0,0,.1-.26.33.33,0,0,1-.14-.09C69.23,94,69,94,69,94s0,.08.15.12.18.08,0,.39-.2.33-.62.12-.77-.2-.71,0,0,.18-.2.2-.12.08-.15.16-.07.14-.72,0-.85-.23-1-.2-.18,0-.31-.13-.22-.14-.26-.12-.18,0-.32-.06-.26-.11-.25-.28,0-.25.24-.25.33,0,.35-.1,0-.1-.27-.15-.32-.1-.41-.26-.24-.21-.28,0,0,.08-.11,0a.38.38,0,0,0-.24,0,1.14,1.14,0,0,0,.17.23.26.26,0,0,0,.2.11c.24,0,.35.27.17.48s-.08.06-.2-.06-.15-.14-.43-.11a1.8,1.8,0,0,1-.67-.06c-.36-.09-.39-.09-.48,0s-.22.13-.32,0-.11-.13-.23-.11a.37.37,0,0,1-.38-.16c-.1-.12,0-.24.23-.24a.6.6,0,0,0,.33-.16.48.48,0,0,1,.21-.15s.07,0,.08-.1-1.36-.39-1.47-.23-.08.06-.17,0-.12-.08-.2,0a.3.3,0,0,1-.21,0A.67.67,0,0,0,60,92.7a.12.12,0,0,1-.16,0c-.05-.06-.13-.07-.36,0a3.8,3.8,0,0,1-.48,0c-.13,0-.18,0-.19,0a.23.23,0,0,1-.11.15.66.66,0,0,0-.1.11s.43.3.46.26.07,0,.11,0a.12.12,0,0,1-.15.19c-.07,0-.11,0-.16.07s-.08.11-.23,0a2.73,2.73,0,0,0-.46-.12l-.6-.11a.69.69,0,0,0-.48,0c-.25.1-.66,0-.74-.18s0-.13-.16,0a.29.29,0,0,1-.2.12.36.36,0,0,0-.2,0c-.16.08-.45-.12-.33-.23s.07-.08,0-.11-.14,0-.15.11,0,.08-.1.06a.09.09,0,0,1-.07-.1.29.29,0,0,0,0-.16.29.29,0,0,1,0-.16c0-.06,0-.11-.09-.16-.25-.15-.07-.31.32-.29s.55-.14.36-.26a.21.21,0,0,0-.23,0,.73.73,0,0,1-.59-.06c-.07-.08-.07-.09,0-.2a.35.35,0,0,0,.13-.26c0-.13,0-.14-.48-.18s-.65,0-.56.16a.5.5,0,0,1,0,.16.1.1,0,0,0,.07.11c.13,0,.21.18.12.22s-.4-.07-.39-.18a.25.25,0,0,0,0-.16.19.19,0,0,1,0-.17c0-.1,0-.13-.07-.17s-.29,0-.29.11-.14.15-.26.14-.05,0-.05-.12-.08-.2-.28-.19h-.71a7.18,7.18,0,0,0-.94.08c-.3.06-.37.06-.49,0s-.24-.1-.3,0-.08.12-.17.1-.48.09-.48.17.08,0,.17,0,.38.06.4.18,0,.1-.11.09a.31.31,0,0,0-.18,0s-.09,0-.13,0a.15.15,0,0,0-.19,0c-.15.1-.43-.11-.44-.33s-.18-.31-.33-.15-.1.15-.09.18,0,.06-.1,0-.29-.09-.3.06-.1,0-.09,0a.17.17,0,0,0-.07-.15c-.14-.09-.12-.19.06-.27a.29.29,0,0,0,.19-.2c0-.16.2-.16.46,0s.15.09.28-.14.13-.23.26-.14.4,0,.4-.15-.12-.29-.72-.26-.79,0-.57-.16.14-.12,0-.18-.42.06-.4.23-.11.22-.52.23-.54,0-.52-.15,0-.12-.13-.08-.15.06-.13.14c-.09-.07-.34-.19-.46-.14a.56.56,0,0,0-.21.22c-.12.2-.44.3-1.1.31-.06-.19-1.82.19-1.91.33a.36.36,0,0,1-.23,0c-.17,0-.21,0-.27.09a.46.46,0,0,1-.23.16.28.28,0,0,0-.17.15c0,.11-.26.16-.4.08a2.83,2.83,0,0,0-1.27.19c-.17.06-.21.11-.24.23s0,.14-.1.1a.16.16,0,0,0-.15,0c-.09-.25-1-.09-1,.12,0,0,0,.07-.08,0a1.82,1.82,0,0,0-.57.15c-.5.19-.5.19-.52.4s-.1.32-.16.1-.07-.15-.19-.12c-1.24.39-1.25.4-1.3.29a.07.07,0,0,0-.1,0c.08.19,0,.34-.12.34a1.25,1.25,0,0,0-.37.12,3.56,3.56,0,0,1-.52.18c-.18,0-.28.09-.32.16s-.09.1-.17,0-.22,0-.21.07-.65.46-.76.35-.1-.07-.25.06a3.69,3.69,0,0,1-.34.25c-.14.1-.17.15-.14.24s-.63.6-.9.55a.25.25,0,0,0-.17.07.29.29,0,0,1-.18.06.7.7,0,0,0-.25.1c-.61.37-.72.46-.75.55s-.24.24-1.34,1.49a7.88,7.88,0,0,0-.87,1.15s-.07.08-.15.1-.2.11-.41.43a2.67,2.67,0,0,1-.42.54,1.22,1.22,0,0,0-.36.56c-.09.21-.27.55-.38.74a2.83,2.83,0,0,0-.42,1.16.9.9,0,0,1,0,.29,2.9,2.9,0,0,0-.07.93,1.61,1.61,0,0,1,0,.69c-.05.06,0,.08.17.2a1.24,1.24,0,0,1,.31.27.43.43,0,0,0,.25.19c.13,0,.15.06.2.2a.91.91,0,0,0,.19.25c-.22-.5-.45-1-.69-1.4,0,0,11.31-9.28,26.72-10.16a42,42,0,0,1,11,2.6.14.14,0,0,1,.1-.06c.07,0,.07,0,.05.12a45,45,0,0,1,9.89,5.27c.09-.18.15-.22.21-.13s0,.11-.06.2c.2.17.39.32.59.46C75.49,102.16,75.52,102.18,75.61,102.27Zm-1.2-6.82a.57.57,0,0,1-.25-.09c-.3-.2-.2-.39.13-.22C74.46,95.24,74.52,95.39,74.41,95.45Zm2,1.92c-.06-.13,0-.17.14-.23s.13,0,.14.12a.36.36,0,0,1-.06.24C76.54,97.59,76.48,97.55,76.4,97.37Zm-.22,1.28c.1,0,.16.12.08.21s-.17,0-.17-.08S76.13,98.65,76.18,98.65ZM33.67,94.58c-.06,0-.1,0-.11,0s.06-.14.14-.06S33.71,94.55,33.67,94.58Zm4-1.12c.11,0,.12.06.11.1S37.65,93.5,37.66,93.46Zm1.45-.29c-.24.08-.29.08-.32,0s0-.1.11-.07.1,0,.1-.09.17-.11.25,0S39.26,93.12,39.11,93.17Zm.59-.32c-.17.24-.28.15-.26-.27s.11-.43.15-.2.06.15.09.16S39.8,92.71,39.7,92.85ZM41,91.77s.07,0,.08.08-.07.2-.14.15S41,91.79,41,91.77Zm.29.65c-.08,0-.11,0-.13.07a.14.14,0,0,1-.08.12c-.08,0-.17-.12-.13-.23s.34-.18.41-.08S41.43,92.45,41.32,92.42ZM48,91.21a.33.33,0,0,1-.43.13,1.87,1.87,0,0,0-.34,0c-.26,0-.26,0-.21-.09a.26.26,0,0,1,.18-.11c.19,0,.27-.12.25-.29s.24-.3.51-.19.2.07.23,0,.15-.13.2,0-.06.25-.16.22S48,90.93,48,91A.37.37,0,0,1,48,91.21Zm.22-.19a.07.07,0,0,1,.06-.09.08.08,0,0,1,.07.08.09.09,0,0,1-.06.1A.08.08,0,0,1,48.21,91Zm4.14.75-.35,0c-.22,0-.29,0-.28,0s.12-.08.25-.09.23,0,.27-.17.06-.14.11-.08S52.43,91.76,52.35,91.77Zm1.21,0a.53.53,0,0,1-.21.07c-.16,0-.18,0-.16-.09s.07-.11.17-.12S53.62,91.69,53.56,91.76Zm1.08.14c0-.11.1-.08.09,0A.22.22,0,0,1,54.64,91.9Zm.9,1.95c-.11-.12.1-.25.29-.18l.33.08c.12,0,.16,0,.17.12S55.65,94,55.54,93.85Zm1.51.19c0,.06-.14.06-.34,0s-.13-.15.09-.15S57.11,93.94,57.05,94Zm.18,0c-.06-.06.12-.16.27-.15s.29.14.25.21S57.31,94.15,57.23,94.06Zm5.11.59c0-.12.07-.13.22,0C62.37,94.81,62.31,94.79,62.34,94.65Zm1.06-.05c0,.1-.12.16-.17.16s-.11-.09,0-.15a.46.46,0,0,0,.13-.16C63.45,94.25,63.5,94.39,63.4,94.6Zm2,.56a.2.2,0,0,0-.14,0s-.09,0-.14,0a.12.12,0,0,0-.13,0,.39.39,0,0,1-.22,0c-.51,0-.9-.1-1-.24a.25.25,0,0,0-.16-.17c-.19,0-.08-.16.14-.16a3.26,3.26,0,0,1,.41,0,.69.69,0,0,0,.38,0c.14,0,.18,0,.36.09s.44.28.46.22.13,0,.12.06A.09.09,0,0,1,65.36,95.16Zm.33,1.51c-.15.07-.27-.06-.17-.18s.23,0,.23.08A.1.1,0,0,1,65.69,96.67Zm1.29-1c0-.06.16-.2.21-.18l.15.12.17.16A.5.5,0,0,1,67,95.65Zm8.72,3.24c-.07.08-.21-.12-.17-.24s0-.11.12-.05A.22.22,0,0,1,75.7,98.89Zm-1.08-1.68s.11,0,.2.07l.46.47c.29.33.39.57.27.62s-.38-.28-.44-.4a1.85,1.85,0,0,0-.31-.29C74.52,97.46,74.46,97.32,74.62,97.21Zm-2.52.88a2.35,2.35,0,0,1-.57-.28c-.38-.23-.52-.29-.58-.25s-.26-.07-.33-.27-.65-.51-.79-.44a.49.49,0,0,1-.25,0c-.47-.09-.5-.1-.47-.23s0-.29-.23-.29-.46-.29-.16-.32a.23.23,0,0,0,.15-.09c0-.1.15-.11.32,0s.2,0,.22-.17,0-.18-.32-.28a1.51,1.51,0,0,0-.42-.07.33.33,0,0,1-.36-.19A.2.2,0,0,1,68.6,95a4.73,4.73,0,0,0,.57.24,2.93,2.93,0,0,0,.9.15c.19,0,.2,0,.24.14a.22.22,0,0,0,.2.19c.18,0,.27.22.16.33s-.11,0-.24,0a.28.28,0,0,0-.33,0c-.16.1-.29.08-.31-.05s-.13-.08-.16,0a1.65,1.65,0,0,1,.38.62c0,.16.56.46.76.41a1.89,1.89,0,0,1,1,.58.61.61,0,0,0,.26.24C72.15,97.84,72.22,98.07,72.1,98.09Zm.34-.71s-.13,0-.24,0a1,1,0,0,1-.57-.43.49.49,0,0,0-.26-.23c-.25,0-.05-.33.26-.34s.84.32.7.54,0,.11,0,.12S72.5,97.28,72.44,97.38Zm.42,1.19c-.16.07-.41-.16-.32-.29s.12-.06.27.07S73,98.52,72.86,98.57Zm0-1.13-.2,0c-.14,0-.15-.14,0-.23s.22,0,.29.17S73,97.49,72.9,97.44Zm.18,1.23c0-.11.07-.09.09,0S73.07,98.71,73.08,98.67Zm.39-1c.13,0,.22.12.16.2s-.09,0-.16,0S73.34,97.68,73.47,97.68Zm1.6,2a.52.52,0,0,0-.38-.28,1,1,0,0,1-.37-.19c-.11-.11-.12-.11-.29.07s-.32.22-.43,0-.06-.25.09-.2a.17.17,0,0,0,.18,0,.69.69,0,0,1,.2-.14c.2-.08.19-.14-.07-.38s-.39-.52,0-.28c.23.13.29.2.32.31s.05.14.15.14a.3.3,0,0,1,.21.13l.43.6.14.2c.11.16.09.27,0,.28S75.15,99.78,75.07,99.65Z"/><path class="cls-12" d="M56.15,92.18c0,.08.23.07.24,0s0-.07-.06-.08S56.13,92.11,56.15,92.18Z"/><path class="cls-12" d="M56.78,92.24c-.08,0-.21.39-.17.53s.14,0,.2-.29S56.85,92.24,56.78,92.24Z"/></g></g></svg>