<svg xmlns="http://www.w3.org/2000/svg" viewBox="0 0 82.59 84.48"><defs><style>.cls-1,.cls-23{fill:#e8f4fa;}.cls-1{stroke:#daedf7;stroke-miterlimit:10;}.cls-2{fill:#d18660;}.cls-11,.cls-12,.cls-13,.cls-16,.cls-2,.cls-21,.cls-22,.cls-23,.cls-24,.cls-25{stroke:#45413c;}.cls-11,.cls-12,.cls-13,.cls-16,.cls-2,.cls-21,.cls-22,.cls-23,.cls-24,.cls-25,.cls-3,.cls-4,.cls-5,.cls-6,.cls-7{stroke-linecap:round;stroke-linejoin:round;}.cls-3,.cls-6,.cls-9{fill:#80ddff;}.cls-3,.cls-4,.cls-7{stroke:#009fd9;}.cls-4{fill:#b8ecff;}.cls-16,.cls-5,.cls-7{fill:none;}.cls-5,.cls-6{stroke:#00b8f0;}.cls-8{fill:#009fd9;}.cls-10,.cls-14{fill:#45413c;}.cls-10{opacity:0.15;isolation:isolate;}.cls-11{fill:#f7e5c6;}.cls-12{fill:#f0d5a8;}.cls-13{fill:#ff6242;}.cls-15{fill:#bd704a;}.cls-17{fill:#724f3d;}.cls-18{fill:#a86c4d;}.cls-19{fill:#525252;}.cls-20,.cls-21{fill:#656769;}.cls-22{fill:#87898c;}.cls-24{fill:#ffe500;}.cls-25{fill:#915e3a;}</style></defs><title>Asset 45</title><g id="Layer_2" data-name="Layer 2"><g id="Ñëîé_1" data-name="Ñëîé 1"><circle class="cls-1" cx="40.5" cy="43.98" r="40"/><rect class="cls-2" x="56.43" y="36.85" width="6.18" height="5" transform="translate(-3.19 73.39) rotate(-61.96)"/><path class="cls-3" d="M32.16,31.64a10.28,10.28,0,1,0-20.55-.2v2.31h4.23v10h13.3V35.27h3Z"/><path class="cls-3" d="M26,22.21a9.7,9.7,0,0,1,2.11,1.23,1,1,0,0,1,.21,1.45.85.85,0,0,1-.26.24,1,1,0,0,0-.44,1.22l.12.36a1,1,0,0,1-.35,1.15l-4.86,3.78Z"/><polygon class="cls-4" points="26.93 62.47 27.32 55.82 17.65 55.82 18.04 62.47 26.93 62.47"/><line class="cls-5" x1="22.49" y1="55.82" x2="22.49" y2="62.47"/><path class="cls-3" d="M27.34,55.82a1.2,1.2,0,0,0,1.2-1.14l.6-11H15.84l.59,11a1.2,1.2,0,0,0,1.21,1.14Z"/><path class="cls-6" d="M31,66.1a3.62,3.62,0,0,0-3.63-3.63H22.49V66.1Z"/><path class="cls-6" d="M26.49,66.1a3.62,3.62,0,0,0-3.62-3.63H18v2.42a1.21,1.21,0,0,0,1.21,1.21Z"/><line class="cls-7" x1="15.84" y1="31.04" x2="15.84" y2="34.06"/><polygon class="cls-4" points="20.27 25.6 22.49 31.64 24.71 25.6 20.27 25.6"/><line class="cls-7" x1="22.49" y1="31.04" x2="22.49" y2="43.73"/><path class="cls-4" d="M38,30a1.21,1.21,0,0,0-.49-1.64h0l-7.41-4a1.27,1.27,0,0,0-1.71.51h0L21.27,38.07a1.25,1.25,0,0,0,.51,1.7h0l7.4,4a1.2,1.2,0,0,0,1.63-.49h0Z"/><path class="cls-4" d="M34.51,33.09a2.11,2.11,0,0,0-1.94,3.75l.8.42A1.21,1.21,0,0,0,35,36.75h0l.84-1.61a1.22,1.22,0,0,0-.52-1.63Z"/><path class="cls-4" d="M15.84,33.76v1.81a1.51,1.51,0,0,0,1.51,1.51h7.86a2.12,2.12,0,1,1,.09,4.23H17.35a5.74,5.74,0,0,1-5.74-5.74V33.76Z"/><path class="cls-3" d="M16.8,22.71l-.48.84a1,1,0,0,0,.33,1.38l.34.23a1,1,0,0,1,.41,1.19l-.12.36a1,1,0,0,0,.35,1.15l4.86,3.78-3.62-9.83A10,10,0,0,0,16.8,22.71Z"/><path class="cls-4" d="M25.32,22a1,1,0,0,1-.67-.94V18.59H20.19v2.1a1,1,0,0,1-.76,1l-.56.15,1.4,3.79h4.44L26,22.21h0Z"/><circle class="cls-3" cx="14.63" cy="4.13" r="3.63"/><path class="cls-4" d="M22.49,3.52a7.26,7.26,0,0,0-7.25,7.26v1a1.48,1.48,0,0,0,.15,2.94,7.26,7.26,0,0,0,14.36-1.49V10.78a7.26,7.26,0,0,0-7.26-7.26Z"/><circle class="cls-8" cx="21.58" cy="11.68" r="0.91"/><circle class="cls-8" cx="26.42" cy="11.68" r="0.91"/><circle class="cls-9" cx="19.16" cy="14.1" r="0.91"/><path class="cls-7" d="M21.88,16.27a3.28,3.28,0,0,0,3.63,0"/><path class="cls-3" d="M14.07,12.83a8.47,8.47,0,1,1,15.67-.13V10.78C21.88,9.57,17.65,6.55,17.65,6.55s-.6,3.62-2.42,5.19A1.53,1.53,0,0,0,14.07,12.83Z"/><ellipse class="cls-10" cx="44.25" cy="76.39" rx="35.19" ry="3.25"/><path class="cls-11" d="M75,49.58a2.67,2.67,0,0,0,0-3.77h0l-.34-.34a2.66,2.66,0,0,0-3.76,0h0L50.16,66.2h8.21Z"/><path class="cls-12" d="M12.45,71h5.32v2.67a2.66,2.66,0,1,1-5.32.1V71Z"/><path class="cls-12" d="M76.76,71H71.44v2.67a2.66,2.66,0,0,0,5.32,0h0Z"/><rect class="cls-11" x="7.13" y="66.2" width="74.95" height="4.76" rx="1.51"/><path class="cls-13" d="M69.92,44.57a5.32,5.32,0,0,0-7.53,0L49.75,57.21a8,8,0,0,1-5.65,2.34h-29a5.32,5.32,0,0,0-5.32,5.32V66.2H50.16L70.85,45.51Z"/><path class="cls-2" d="M65.12,20.2a8,8,0,0,1,5.73,9.67h0l-.39,1.54c2.19.56,1.06,4.38-1.38,3.75h0A7.93,7.93,0,0,1,54.66,29l.78-3.08a8,8,0,0,1,9.68-5.73Z"/><path class="cls-14" d="M64.05,29a1,1,0,1,0,.25,0A1.09,1.09,0,0,0,64.05,29Z"/><path class="cls-14" d="M58.27,27.51a1,1,0,1,0,.25,0A1,1,0,0,0,58.27,27.51Z"/><path class="cls-15" d="M64.23,33.31a.78.78,0,0,0,.57,1,.79.79,0,1,0-.57-1Z"/><path class="cls-16" d="M62,34.09a3,3,0,0,1-3.85-1"/><path class="cls-17" d="M74.33,27.75A1.81,1.81,0,0,0,72.47,26l-.19,0a8.73,8.73,0,0,0-12.73-7.44,2.44,2.44,0,0,0-1.9-.88A2.33,2.33,0,0,0,55.26,20a2.17,2.17,0,0,0,.13.71,1.73,1.73,0,0,0-1.79,1.67,1.75,1.75,0,0,0,1.49,1.78.19.19,0,0,1,0,.07c3.2,2.09,8.89,4.12,13.11,1.7-.52,2,.91,3.63,2,4.53a1.8,1.8,0,0,0,1,.73l.1.06v0a2,2,0,0,0,.42,0,1.8,1.8,0,0,0,1.86-1.74,1.32,1.32,0,0,0,0-.34A1.7,1.7,0,0,0,74.33,27.75Z"/><path class="cls-18" d="M56.11,22.54a1.94,1.94,0,0,1-.13-.71,2.31,2.31,0,0,1,2.39-2.24,2.46,2.46,0,0,1,1.89.88A8.71,8.71,0,0,1,72,24.2v0a8.72,8.72,0,0,0-10.58-6.34,8.55,8.55,0,0,0-1.88.71,2.43,2.43,0,0,0-1.89-.88A2.33,2.33,0,0,0,55.26,20a2,2,0,0,0,.14.71,1.78,1.78,0,0,0-1.79,1.73,1.71,1.71,0,0,0,.78,1.43A1.82,1.82,0,0,1,56.11,22.54Z"/><path class="cls-16" d="M74.33,27.75A1.81,1.81,0,0,0,72.47,26l-.19,0a8.73,8.73,0,0,0-12.73-7.44,2.44,2.44,0,0,0-1.9-.88A2.33,2.33,0,0,0,55.26,20a2.17,2.17,0,0,0,.13.71,1.73,1.73,0,0,0-1.79,1.67,1.75,1.75,0,0,0,1.49,1.78.19.19,0,0,1,0,.07c3.2,2.09,8.89,4.12,13.11,1.7-.52,2,.91,3.63,2,4.53a1.8,1.8,0,0,0,1,.73l.1.06v0a2,2,0,0,0,.42,0,1.8,1.8,0,0,0,1.86-1.74,1.32,1.32,0,0,0,0-.34A1.7,1.7,0,0,0,74.33,27.75Z"/><path class="cls-16" d="M68.18,25.88a3.3,3.3,0,0,0,1-.61"/><path class="cls-19" d="M52.68,23a22.67,22.67,0,0,0-1,4,2.17,2.17,0,0,0,1.58,2.49l11.5,2.94a2.17,2.17,0,0,0,2.58-1.43,22.9,22.9,0,0,0,1-4,2.17,2.17,0,0,0-1.58-2.5l-11.5-2.94A2.17,2.17,0,0,0,52.68,23Z"/><path class="cls-20" d="M67.61,30q.11-.46.18-.93a2.19,2.19,0,0,0-1.58-2.5l-11.5-2.94a2.18,2.18,0,0,0-2.58,1.43c-.11.3-.2.6-.3.9a24.75,24.75,0,0,1,.85-3.06,2.18,2.18,0,0,1,2.58-1.43l11.5,2.94A2.18,2.18,0,0,1,68.34,27,21.68,21.68,0,0,1,67.61,30Z"/><path class="cls-16" d="M52.68,23a22.67,22.67,0,0,0-1,4,2.17,2.17,0,0,0,1.58,2.49l11.5,2.94a2.17,2.17,0,0,0,2.58-1.43,22.9,22.9,0,0,0,1-4,2.17,2.17,0,0,0-1.58-2.5l-11.5-2.94A2.17,2.17,0,0,0,52.68,23Z"/><ellipse class="cls-21" cx="70.75" cy="33.46" rx="3.19" ry="2.72" transform="translate(20.81 93.71) rotate(-75.65)"/><path class="cls-16" d="M65.73,24.19a1.64,1.64,0,0,0-2,1.18h0l-1.21,4.75a1.62,1.62,0,0,0,1.18,2"/><path class="cls-22" d="M67.09,15.67C74,17.44,72.28,26,72.28,26a8.75,8.75,0,0,0-1.76-4.86,6.81,6.81,0,0,0-3.44-3c-4.55-1.17-5.77,4.91-5.79,5L58,22.2C58.71,18.43,61.06,14.13,67.09,15.67Z"/><path class="cls-23" d="M70.47,34.57a1.15,1.15,0,0,0,1.4-.83,1.1,1.1,0,0,0,0-.57,8.19,8.19,0,0,0-5.65-5.82,1.15,1.15,0,1,0-.77,2.17,6,6,0,0,1,4.19,4.22A1.13,1.13,0,0,0,70.47,34.57Z"/><path class="cls-24" d="M40,51.94,53,40.33a5,5,0,0,1,6.54,7.5h0L47.43,58.32a5,5,0,0,1-3.26,1.23Z"/><polygon class="cls-22" points="44.17 59.55 17.26 59.55 17.26 51.93 39.97 51.93 44.17 59.55"/><path class="cls-25" d="M12.21,48.54h2a3,3,0,0,1,3,3v8H12.21a.5.5,0,0,1-.5-.5V49A.5.5,0,0,1,12.21,48.54Z"/><path class="cls-24" d="M52,42a31.91,31.91,0,0,1-4.76,2.17.54.54,0,0,0-.34.67l1.71,5.86a40.73,40.73,0,0,0,6.72-3"/><path class="cls-2" d="M47,45.1c-3.82,1.33-8.65,2.29-12.46.94a2.49,2.49,0,0,0-1.66,4.69h0a17.66,17.66,0,0,0,5.85.94,30.07,30.07,0,0,0,9.16-1.62.56.56,0,0,0,.36-.68Z"/></g></g></svg>