<svg id="does_it_work" data-name="does it work" xmlns="http://www.w3.org/2000/svg" viewBox="0 0 112.12 112.12"><defs><style>.cls-1,.cls-23{fill:#e8f4fa;}.cls-1{stroke:#e8f4fa;stroke-miterlimit:10;}.cls-2{fill:#d18660;}.cls-11,.cls-12,.cls-13,.cls-16,.cls-2,.cls-21,.cls-22,.cls-23,.cls-24,.cls-25{stroke:#45413c;}.cls-11,.cls-12,.cls-13,.cls-16,.cls-2,.cls-21,.cls-22,.cls-23,.cls-24,.cls-25,.cls-3,.cls-4,.cls-5,.cls-6,.cls-7{stroke-linecap:round;stroke-linejoin:round;}.cls-3,.cls-6,.cls-9{fill:#80ddff;}.cls-3,.cls-4,.cls-7{stroke:#009fd9;}.cls-4{fill:#b8ecff;}.cls-16,.cls-5,.cls-7{fill:none;}.cls-5,.cls-6{stroke:#00b8f0;}.cls-8{fill:#009fd9;}.cls-10,.cls-14{fill:#45413c;}.cls-10{opacity:0.15;isolation:isolate;}.cls-11{fill:#f7e5c6;}.cls-12{fill:#f0d5a8;}.cls-13{fill:#ff6242;}.cls-15{fill:#bd704a;}.cls-17{fill:#724f3d;}.cls-18{fill:#a86c4d;}.cls-19{fill:#525252;}.cls-20,.cls-21{fill:#656769;}.cls-22{fill:#87898c;}.cls-24{fill:#ffe500;}.cls-25{fill:#915e3a;}</style></defs><title>doesItWork</title><circle class="cls-1" cx="56.56" cy="56.25" r="40"/><rect class="cls-2" x="72.49" y="49.13" width="6.18" height="5" transform="translate(-5.51 94.07) rotate(-61.96)"/><path class="cls-3" d="M48.22,43.91a10.28,10.28,0,1,0-20.55-.2V46H31.9V56H45.2V47.54h3Z"/><path class="cls-3" d="M42,34.48a10.58,10.58,0,0,1,2.11,1.23,1,1,0,0,1,.21,1.46,1.2,1.2,0,0,1-.26.24,1,1,0,0,0-.45,1.22l.12.36a1,1,0,0,1-.34,1.15l-4.86,3.77Z"/><polygon class="cls-4" points="42.99 74.74 43.38 68.09 33.71 68.09 34.1 74.74 42.99 74.74"/><line class="cls-5" x1="38.55" y1="68.1" x2="38.55" y2="74.74"/><path class="cls-3" d="M43.4,68.1A1.21,1.21,0,0,0,44.6,67L45.2,56H31.9L32.49,67a1.21,1.21,0,0,0,1.2,1.15Z"/><path class="cls-6" d="M47,78.37a3.63,3.63,0,0,0-3.63-3.63H38.55v3.63Z"/><path class="cls-6" d="M42.55,78.37a3.63,3.63,0,0,0-3.63-3.63H34.09v2.42a1.21,1.21,0,0,0,1.21,1.21Z"/><line class="cls-7" x1="31.9" y1="43.31" x2="31.9" y2="46.33"/><polygon class="cls-4" points="36.32 37.87 38.55 43.92 40.77 37.87 36.32 37.87"/><line class="cls-7" x1="38.55" y1="43.31" x2="38.55" y2="56.01"/><path class="cls-4" d="M54.05,42.24a1.21,1.21,0,0,0-.49-1.64h0l-7.41-4a1.27,1.27,0,0,0-1.71.51h0L37.33,50.34a1.27,1.27,0,0,0,.51,1.71h0l7.4,4a1.22,1.22,0,0,0,1.64-.49h0Z"/><path class="cls-4" d="M50.57,45.36a2.12,2.12,0,0,0-1.94,3.76l.8.42A1.22,1.22,0,0,0,51.06,49h0l.83-1.61a1.21,1.21,0,0,0-.51-1.63Z"/><path class="cls-4" d="M31.9,46v1.82a1.51,1.51,0,0,0,1.51,1.51h7.86a2.12,2.12,0,0,1,.09,4.23h-8a5.75,5.75,0,0,1-5.74-5.74V46Z"/><path class="cls-3" d="M32.86,35l-.48.84a1,1,0,0,0,.32,1.38l.35.23a1,1,0,0,1,.41,1.19l-.12.37a1,1,0,0,0,.35,1.15l4.86,3.77-3.62-9.82A10.26,10.26,0,0,0,32.86,35Z"/><path class="cls-4" d="M41.37,34.23a1,1,0,0,1-.66-.95V30.86H36.25V33a1,1,0,0,1-.77,1l-.55.15,1.4,3.78h4.44L42,34.48h0C41.81,34.39,41.59,34.3,41.37,34.23Z"/><circle class="cls-3" cx="30.69" cy="16.4" r="3.63"/><path class="cls-4" d="M38.55,15.8a7.25,7.25,0,0,0-7.25,7.25v1A1.48,1.48,0,0,0,31.45,27a7.26,7.26,0,0,0,14.36-1.48V23.05a7.25,7.25,0,0,0-7.26-7.25Z"/><circle class="cls-8" cx="37.64" cy="23.96" r="0.91"/><circle class="cls-8" cx="42.48" cy="23.96" r="0.91"/><circle class="cls-9" cx="35.22" cy="26.38" r="0.91"/><path class="cls-7" d="M37.94,28.55a3.28,3.28,0,0,0,3.63,0"/><path class="cls-3" d="M30.13,25.1A8.47,8.47,0,1,1,45.8,25V23.05c-7.86-1.21-12.09-4.23-12.09-4.23s-.6,3.63-2.42,5.2A1.51,1.51,0,0,0,30.13,25.1Z"/><ellipse class="cls-10" cx="60.31" cy="88.66" rx="35.19" ry="3.25"/><path class="cls-11" d="M91.05,61.85a2.66,2.66,0,0,0,0-3.76h0l-.34-.34a2.66,2.66,0,0,0-3.76,0h0L66.22,78.48h8.21Z"/><path class="cls-12" d="M28.51,83.23h5.32V85.9a2.66,2.66,0,1,1-5.32.11V83.23Z"/><path class="cls-12" d="M92.82,83.23H87.5V85.9a2.66,2.66,0,0,0,5.32,0h0Z"/><rect class="cls-11" x="23.19" y="78.48" width="74.95" height="4.76" rx="1.51"/><path class="cls-13" d="M86,56.84a5.33,5.33,0,0,0-7.52,0L65.8,69.49a7.94,7.94,0,0,1-5.64,2.34h-29a5.32,5.32,0,0,0-5.32,5.32v1.33H66.22L86.91,57.79Z"/><path class="cls-2" d="M81.18,32.47a8,8,0,0,1,5.73,9.67h0l-.4,1.54c2.2.56,1.07,4.37-1.37,3.75h0a7.93,7.93,0,0,1-14.43-6.15l.79-3.08a8,8,0,0,1,9.67-5.74Z"/><path class="cls-14" d="M80.11,41.26a1,1,0,0,0-1,1,1,1,0,0,0,.74,1,1.07,1.07,0,0,0,.25,0,1,1,0,0,0,.25-2A1.07,1.07,0,0,0,80.11,41.26Z"/><path class="cls-14" d="M74.33,39.78a1,1,0,1,0,.25,0A1,1,0,0,0,74.33,39.78Z"/><path class="cls-15" d="M80.28,45.58a.8.8,0,0,0,1.55.39.79.79,0,0,0-.58-1A.81.81,0,0,0,80.28,45.58Z"/><path class="cls-16" d="M78,46.36a3,3,0,0,1-3.85-1"/><path class="cls-17" d="M90.39,40a1.81,1.81,0,0,0-1.86-1.74l-.19,0A8.75,8.75,0,0,0,75.6,30.86,2.45,2.45,0,0,0,73.71,30a2.32,2.32,0,0,0-2.39,2.24,2.17,2.17,0,0,0,.13.71,1.73,1.73,0,0,0-.3,3.45.24.24,0,0,1,0,.08c3.2,2.08,8.89,4.11,13.11,1.7-.52,2,.9,3.63,2,4.52a1.83,1.83,0,0,0,1,.74l.1.06v0a3,3,0,0,0,.42,0,1.81,1.81,0,0,0,1.86-1.74,1.34,1.34,0,0,0,0-.35A1.7,1.7,0,0,0,90.39,40Z"/><path class="cls-18" d="M72.17,34.81A2.09,2.09,0,0,1,72,34.1a2.32,2.32,0,0,1,2.4-2.23,2.4,2.4,0,0,1,1.89.88,8.71,8.71,0,0,1,11.74,3.73h0a8.72,8.72,0,0,0-10.58-6.34,9.17,9.17,0,0,0-1.89.71A2.45,2.45,0,0,0,73.71,30a2.32,2.32,0,0,0-2.39,2.24,2.17,2.17,0,0,0,.13.71,1.79,1.79,0,0,0-1.79,1.74,1.73,1.73,0,0,0,.79,1.42A1.83,1.83,0,0,1,72.17,34.81Z"/><path class="cls-16" d="M90.39,40a1.81,1.81,0,0,0-1.86-1.74l-.19,0A8.75,8.75,0,0,0,75.6,30.86,2.45,2.45,0,0,0,73.71,30a2.32,2.32,0,0,0-2.39,2.24,2.17,2.17,0,0,0,.13.71,1.73,1.73,0,0,0-.3,3.45.24.24,0,0,1,0,.08c3.2,2.08,8.89,4.11,13.11,1.7-.52,2,.9,3.63,2,4.52a1.83,1.83,0,0,0,1,.74l.1.06v0a3,3,0,0,0,.42,0,1.81,1.81,0,0,0,1.86-1.74,1.34,1.34,0,0,0,0-.35A1.7,1.7,0,0,0,90.39,40Z"/><path class="cls-16" d="M84.24,38.16a3.52,3.52,0,0,0,1-.61"/><path class="cls-19" d="M68.73,35.22a24.84,24.84,0,0,0-1,4,2.19,2.19,0,0,0,1.58,2.5l11.5,2.94a2.2,2.2,0,0,0,2.59-1.43,23,23,0,0,0,1-4,2.18,2.18,0,0,0-1.58-2.5l-11.5-2.94A2.2,2.2,0,0,0,68.73,35.22Z"/><path class="cls-20" d="M83.67,42.31q.1-.47.18-.93a2.18,2.18,0,0,0-1.58-2.49l-11.5-3a2.18,2.18,0,0,0-2.58,1.44c-.11.3-.2.6-.3.9a23.12,23.12,0,0,1,.85-3.06,2.19,2.19,0,0,1,2.58-1.44l11.5,2.95a2.17,2.17,0,0,1,1.58,2.5A23.36,23.36,0,0,1,83.67,42.31Z"/><path class="cls-16" d="M68.73,35.22a24.84,24.84,0,0,0-1,4,2.19,2.19,0,0,0,1.58,2.5l11.5,2.94a2.2,2.2,0,0,0,2.59-1.43,23,23,0,0,0,1-4,2.18,2.18,0,0,0-1.58-2.5l-11.5-2.94A2.2,2.2,0,0,0,68.73,35.22Z"/><ellipse class="cls-21" cx="86.81" cy="45.73" rx="3.19" ry="2.72" transform="translate(20.99 118.5) rotate(-75.65)"/><path class="cls-16" d="M81.79,36.47a1.63,1.63,0,0,0-2,1.17h0L78.59,42.4a1.63,1.63,0,0,0,1.17,2"/><path class="cls-22" d="M83.15,28c6.91,1.76,5.19,10.28,5.19,10.28a8.76,8.76,0,0,0-1.76-4.87,6.85,6.85,0,0,0-3.44-3c-4.55-1.16-5.77,4.92-5.79,5L74,34.47C74.76,30.7,77.12,26.4,83.15,28Z"/><path class="cls-23" d="M86.53,46.85a1.17,1.17,0,0,0,1.4-.83,1.37,1.37,0,0,0,0-.57,8.19,8.19,0,0,0-5.65-5.83,1.16,1.16,0,0,0-.77,2.18A5.91,5.91,0,0,1,85.69,46,1.19,1.19,0,0,0,86.53,46.85Z"/><path class="cls-24" d="M56,64.21,69,52.6a5,5,0,1,1,6.53,7.5h0L63.49,70.6a4.94,4.94,0,0,1-3.27,1.22Z"/><polygon class="cls-22" points="60.23 71.82 33.32 71.82 33.32 64.21 56.03 64.21 60.23 71.82"/><path class="cls-25" d="M28.27,60.81h2.05a3,3,0,0,1,3,3v8H28.27a.5.5,0,0,1-.5-.5v-10A.5.5,0,0,1,28.27,60.81Z"/><path class="cls-24" d="M68,54.24a31.57,31.57,0,0,1-4.77,2.17.55.55,0,0,0-.33.67l1.71,5.86a39.87,39.87,0,0,0,6.72-3"/><path class="cls-2" d="M63,57.37c-3.82,1.33-8.65,2.29-12.46,1A2.49,2.49,0,0,0,48.9,63h0a17.61,17.61,0,0,0,5.85.93,29.77,29.77,0,0,0,9.16-1.62.55.55,0,0,0,.36-.67Z"/></svg>