<svg xmlns="http://www.w3.org/2000/svg" viewBox="0 0 88 80.01"><defs><style>.cls-1{fill:#c7f0ff;}.cls-2{fill:#daedf7;}.cls-3,.cls-7,.cls-8{fill:none;}.cls-10,.cls-11,.cls-12,.cls-13,.cls-14,.cls-17,.cls-18,.cls-23,.cls-3,.cls-6{stroke:#45413c;}.cls-10,.cls-11,.cls-12,.cls-13,.cls-14,.cls-17,.cls-18,.cls-23,.cls-3,.cls-6,.cls-8{stroke-linecap:round;}.cls-10,.cls-11,.cls-12,.cls-13,.cls-14,.cls-17,.cls-18,.cls-23,.cls-3,.cls-6,.cls-7,.cls-8{stroke-linejoin:round;}.cls-4{fill:#c0dceb;}.cls-5{fill:#adc4d9;}.cls-6{fill:#00ad85;}.cls-7,.cls-8{stroke:#fff;}.cls-9{fill:#45413c;opacity:0.15;isolation:isolate;}.cls-10,.cls-19{fill:#724f3d;}.cls-11{fill:#dabff5;}.cls-12{fill:#656769;}.cls-13{fill:#947746;}.cls-14,.cls-18{fill:#ffcebf;}.cls-15,.cls-17{fill:#f0f0f0;}.cls-16{fill:#fff;}.cls-18{stroke-width:1.01px;}.cls-20{fill:#a86c4d;}.cls-21{fill:#00b8f0;}.cls-22{fill:#4acfff;}.cls-23{fill:#ff6242;}</style></defs><title>Asset 43</title><g id="Layer_2" data-name="Layer 2"><g id="Ñëîé_1" data-name="Ñëîé 1"><path class="cls-1" d="M84,40A40,40,0,1,0,7.56,56.51H80.44A40,40,0,0,0,84,40Z"/><path class="cls-2" d="M7.56,56.51a40,40,0,0,0,72.88,0Z"/><line class="cls-3" x1="5" y1="56.51" x2="83" y2="56.51"/><line class="cls-3" x1="0.5" y1="56.51" x2="3" y2="56.51"/><line class="cls-3" x1="85" y1="56.51" x2="87.5" y2="56.51"/><rect class="cls-4" x="78.28" y="39.11" width="3.82" height="17.39"/><rect class="cls-5" x="78.28" y="39.11" width="3.82" height="5.8"/><rect class="cls-3" x="78.28" y="39.11" width="3.82" height="17.39"/><rect class="cls-6" x="30.5" y="5.49" width="51.59" height="37.1" rx="2.32"/><polygon class="cls-7" points="63.54 21.14 59.48 22.88 55.43 21.14 55.43 15.35 59.48 13.61 63.54 15.35 63.54 21.14"/><polygon class="cls-7" points="63.54 35.64 59.48 37.38 55.43 35.64 55.43 29.84 59.48 28.1 63.54 29.84 63.54 35.64"/><polygon class="cls-7" points="71.66 35.64 67.6 37.38 63.54 35.64 63.54 29.84 67.6 28.1 71.66 29.84 71.66 35.64"/><line class="cls-8" x1="58.33" y1="11.87" x2="58.33" y2="8.97"/><line class="cls-8" x1="60.64" y1="11.87" x2="60.64" y2="8.97"/><line class="cls-8" x1="59.49" y1="28.1" x2="59.49" y2="22.88"/><line class="cls-8" x1="55.43" y1="21.14" x2="52.53" y2="22.88"/><polygon class="cls-7" points="55.43 35.64 51.37 37.38 47.31 35.64 47.31 29.84 51.37 28.1 55.43 29.84 55.43 35.64"/><line class="cls-8" x1="46.73" y1="37.38" x2="43.83" y2="39.11"/><line class="cls-8" x1="45.57" y1="35.64" x2="42.67" y2="37.38"/><line class="cls-8" x1="71.66" y1="35.64" x2="74.56" y2="37.38"/><line class="cls-8" x1="36.88" y1="11.29" x2="44.41" y2="11.29"/><line class="cls-8" x1="36.88" y1="24.62" x2="44.41" y2="24.62"/><line class="cls-8" x1="36.88" y1="14.19" x2="47.31" y2="14.19"/><line class="cls-3" x1="41.22" y1="41.29" x2="47.6" y2="31.72"/><ellipse class="cls-9" cx="26.43" cy="74.49" rx="12.68" ry="1.9"/><path class="cls-10" d="M29.23,24.28v2.37c0,2.23,2.78,3.9,2.78,3.9V18.86A6.63,6.63,0,0,1,29.23,24.28Z"/><path class="cls-11" d="M34.66,36.76a10.42,10.42,0,1,0-20.84,0V50.63h4.47v-2.7h13.4V42h3Z"/><polygon class="cls-12" points="18.28 47.92 18.28 47.94 19.77 72.48 30.19 72.48 31.68 47.94 31.68 47.92 18.28 47.92"/><line class="cls-3" x1="24.98" y1="72.48" x2="24.98" y2="53.14"/><path class="cls-13" d="M25,69.51h3.72c3.65,0,4.49,3.72,4.49,3.72H26a1,1,0,0,1-1-1Z"/><path class="cls-13" d="M19.75,69.51h3.72c3.65,0,4.49,3.72,4.49,3.72H20.79a1,1,0,0,1-1-1Z"/><path class="cls-14" d="M13.82,50.63v2.51a2.23,2.23,0,0,0,4.46,0V50.63Z"/><line class="cls-3" x1="31.68" y1="41.97" x2="31.68" y2="36.79"/><path class="cls-15" d="M20.51,27a21.19,21.19,0,0,1,2.9,10c0,2.56-.18,25.12-.18,25.12-3.48,0-4.95-1.72-4.95-1.72V50.63H13.82V36.76A10.43,10.43,0,0,1,20.51,27Z"/><path class="cls-16" d="M20.51,27A25.74,25.74,0,0,1,22,30.11a10.43,10.43,0,0,0-8.17,10.18V36.76A10.43,10.43,0,0,1,20.51,27Z"/><line class="cls-3" x1="18.28" y1="50.63" x2="18.28" y2="36.79"/><path class="cls-3" d="M20.51,27a21.19,21.19,0,0,1,2.9,10c0,2.56-.18,25.12-.18,25.12-3.48,0-4.95-1.72-4.95-1.72V50.63H13.82V36.76A10.43,10.43,0,0,1,20.51,27Z"/><path class="cls-15" d="M38.58,42.62c-.44.67-.85,1.33-1.94,1.33-1.64,0-2-1.76-2-2V36.76a10.42,10.42,0,0,0-5.21-9,14.2,14.2,0,0,0-1.88,7.12V62.09s3.5.35,4.11-1.29V45.58a6.15,6.15,0,0,0,5,2.53c2.67,0,4.21-1.4,5.56-3.42Z"/><path class="cls-16" d="M28.15,30.78a13.86,13.86,0,0,1,1.3-3,10.42,10.42,0,0,1,5.21,9v3.68A10.42,10.42,0,0,0,28.15,30.78Z"/><path class="cls-3" d="M38.58,42.62c-.44.67-.85,1.33-1.94,1.33-1.64,0-2-1.76-2-2V36.76a10.42,10.42,0,0,0-5.21-9,14.2,14.2,0,0,0-1.88,7.12V62.09s3.5.35,4.11-1.29V45.58a6.15,6.15,0,0,0,5,2.53c2.67,0,4.21-1.4,5.56-3.42Z"/><line class="cls-3" x1="31.68" y1="45.58" x2="31.68" y2="36.79"/><path class="cls-17" d="M17.42,28.88A10.49,10.49,0,0,1,20.52,27a21.3,21.3,0,0,1,2.89,10c0,1.1,0,5.87-.07,11L20.14,35.5l.38-2.86-1.9-.49Z"/><path class="cls-17" d="M32.08,29.91l-1,4.18-1.87.37.46,3-2.13,8.83V34.86a14.2,14.2,0,0,1,1.88-7.12A10.16,10.16,0,0,1,32.08,29.91Z"/><path class="cls-18" d="M21.29,26.77l.3-.08a1,1,0,0,0,.77-1V22h4.26v3.82a1.05,1.05,0,0,0,.73,1,10.64,10.64,0,0,1,1.32.52,3.71,3.71,0,0,1-7.41-.26C21.26,27,21.28,26.87,21.29,26.77Z"/><circle class="cls-10" cx="18.1" cy="9.95" r="3.9"/><circle class="cls-19" cx="24.22" cy="16.08" r="7.79"/><path class="cls-20" d="M17.22,18a7.8,7.8,0,0,1,14.56-3.87A7.8,7.8,0,0,0,16.67,18,7.68,7.68,0,0,0,17.46,20,7.85,7.85,0,0,1,17.22,18Z"/><circle class="cls-3" cx="24.22" cy="16.08" r="7.79"/><path class="cls-14" d="M29.23,14.41C28,14.41,27.64,15,27,15a20.84,20.84,0,0,0-3.33-.55c-1,0-1.92,1.1-2.56,2a3,3,0,0,1-2.45,1.31v2.43l.14,0A6.68,6.68,0,0,0,32,18.86V16.63S30.42,14.41,29.23,14.41Z"/><path class="cls-3" d="M24.78,21.69a3,3,0,0,0,3.34,0"/><rect class="cls-21" x="20.88" y="16.63" width="5.01" height="3.34" rx="0.56"/><path class="cls-22" d="M21.44,16.63a.56.56,0,0,0-.56.56h0v2.22s0,.08,0,.12,0,0,0,0a.56.56,0,0,0,.53.39H22l3.34-3.34Z"/><rect class="cls-21" x="28.12" y="16.63" width="5.01" height="3.34" rx="0.56"/><rect class="cls-3" x="20.88" y="16.63" width="5.01" height="3.34" rx="0.56"/><path class="cls-22" d="M28.67,16.63a.56.56,0,0,0-.55.56h0v2.22a.49.49,0,0,0,0,.12s0,0,0,0a.57.57,0,0,0,.54.39h.55l3.34-3.34Z"/><line class="cls-3" x1="25.89" y1="17.75" x2="28.12" y2="17.75"/><rect class="cls-3" x="28.12" y="16.63" width="5.01" height="3.34" rx="0.56"/><path class="cls-10" d="M20.33,16.08H19.21a1.19,1.19,0,0,1-.55-.15V26.65c0,2.23,2.78,3.9,2.78,3.9V15a1.12,1.12,0,0,1-1.11,1.12Z"/><path class="cls-23" d="M19.21,13.85h1.12A1.11,1.11,0,0,1,21.44,15h0a1.12,1.12,0,0,1-1.11,1.12H19.21A1.12,1.12,0,0,1,18.1,15h0A1.11,1.11,0,0,1,19.21,13.85Z"/><path class="cls-14" d="M43.19,42.94a2.08,2.08,0,0,0-3.6-2.07l-1,1.75,3.6,2.07Z"/></g></g></svg>