<svg id="how_does_it_work" data-name="how does it work" xmlns="http://www.w3.org/2000/svg" viewBox="0 0 112.12 112.12"><defs><style>.cls-1{fill:#c7f0ff;}.cls-2{fill:#daedf7;}.cls-3,.cls-7,.cls-8{fill:none;}.cls-10,.cls-11,.cls-12,.cls-13,.cls-14,.cls-17,.cls-18,.cls-23,.cls-3,.cls-6{stroke:#45413c;}.cls-10,.cls-11,.cls-12,.cls-13,.cls-14,.cls-17,.cls-18,.cls-23,.cls-3,.cls-6,.cls-8{stroke-linecap:round;}.cls-10,.cls-11,.cls-12,.cls-13,.cls-14,.cls-17,.cls-18,.cls-23,.cls-3,.cls-6,.cls-7,.cls-8{stroke-linejoin:round;}.cls-4{fill:#c0dceb;}.cls-5{fill:#adc4d9;}.cls-6{fill:#00ad85;}.cls-7,.cls-8{stroke:#fff;}.cls-9{fill:#45413c;opacity:0.15;isolation:isolate;}.cls-10,.cls-19{fill:#724f3d;}.cls-11{fill:#dabff5;}.cls-12{fill:#656769;}.cls-13{fill:#947746;}.cls-14,.cls-18{fill:#ffcebf;}.cls-15,.cls-17{fill:#f0f0f0;}.cls-16{fill:#fff;}.cls-18{stroke-width:1.01px;}.cls-20{fill:#a86c4d;}.cls-21{fill:#00b8f0;}.cls-22{fill:#4acfff;}.cls-23{fill:#ff6242;}</style></defs><title>howDoesItWork</title><path class="cls-1" d="M97.21,56.4A40.57,40.57,0,1,0,19.69,73.13h73.9A40.42,40.42,0,0,0,97.21,56.4Z"/><path class="cls-2" d="M19.69,73.13a40.57,40.57,0,0,0,73.9,0Z"/><line class="cls-3" x1="17.09" y1="73.13" x2="96.19" y2="73.13"/><line class="cls-3" x1="12.53" y1="73.13" x2="15.06" y2="73.13"/><line class="cls-3" x1="98.22" y1="73.13" x2="100.75" y2="73.13"/><rect class="cls-4" x="91.4" y="55.49" width="3.87" height="17.64"/><rect class="cls-5" x="91.4" y="55.49" width="3.87" height="5.88"/><rect class="cls-3" x="91.4" y="55.49" width="3.87" height="17.64"/><rect class="cls-6" x="42.95" y="21.4" width="52.32" height="37.62" rx="2.35"/><polygon class="cls-7" points="76.46 37.27 72.34 39.03 68.23 37.27 68.23 31.39 72.34 29.63 76.46 31.39 76.46 37.27"/><polygon class="cls-7" points="76.46 51.97 72.34 53.73 68.23 51.97 68.23 46.09 72.34 44.32 76.46 46.09 76.46 51.97"/><polygon class="cls-7" points="84.69 51.97 80.58 53.73 76.46 51.97 76.46 46.09 80.58 44.32 84.69 46.09 84.69 51.97"/><line class="cls-8" x1="71.17" y1="27.86" x2="71.17" y2="24.92"/><line class="cls-8" x1="73.52" y1="27.86" x2="73.52" y2="24.92"/><line class="cls-8" x1="72.35" y1="44.32" x2="72.35" y2="39.03"/><line class="cls-8" x1="68.23" y1="37.27" x2="65.29" y2="39.03"/><polygon class="cls-7" points="68.23 51.97 64.11 53.73 60 51.97 60 46.09 64.11 44.32 68.23 46.09 68.23 51.97"/><line class="cls-8" x1="59.41" y1="53.73" x2="56.47" y2="55.49"/><line class="cls-8" x1="58.24" y1="51.96" x2="55.3" y2="53.73"/><line class="cls-8" x1="84.69" y1="51.96" x2="87.63" y2="53.73"/><line class="cls-8" x1="49.42" y1="27.27" x2="57.06" y2="27.27"/><line class="cls-8" x1="49.42" y1="40.79" x2="57.06" y2="40.79"/><line class="cls-8" x1="49.42" y1="30.21" x2="60" y2="30.21"/><line class="cls-3" x1="53.83" y1="57.7" x2="60.29" y2="47.99"/><ellipse class="cls-9" cx="38.82" cy="91.37" rx="12.86" ry="1.93"/><path class="cls-10" d="M41.67,40.45v2.4c0,2.26,2.82,4,2.82,4V35A6.77,6.77,0,0,1,41.67,40.45Z"/><path class="cls-11" d="M47.17,53.1A10.57,10.57,0,0,0,26,53.1V67.16h4.53V64.43H44.15v-6h3Z"/><polygon class="cls-12" points="30.56 64.42 30.56 64.44 32.07 89.33 42.64 89.33 44.15 64.44 44.15 64.42 30.56 64.42"/><line class="cls-3" x1="37.36" y1="89.33" x2="37.36" y2="69.72"/><path class="cls-13" d="M37.34,86.31h3.77c3.7,0,4.55,3.77,4.55,3.77H38.39a1,1,0,0,1-1-1Z"/><path class="cls-13" d="M32.05,86.31h3.78c3.7,0,4.54,3.77,4.54,3.77H33.1a1,1,0,0,1-1.05-1Z"/><path class="cls-14" d="M26,67.16v2.56a2.26,2.26,0,1,0,4.52,0V67.16Z"/><line class="cls-3" x1="44.15" y1="58.39" x2="44.15" y2="53.13"/><path class="cls-15" d="M32.83,43.23a21.59,21.59,0,0,1,2.93,10.09c0,2.59-.18,25.47-.18,25.47-3.53,0-5-1.74-5-1.74V67.16H26V53.1A10.57,10.57,0,0,1,32.83,43.23Z"/><path class="cls-16" d="M32.83,43.23a28,28,0,0,1,1.49,3.13A10.56,10.56,0,0,0,26,56.68V53.1A10.57,10.57,0,0,1,32.83,43.23Z"/><line class="cls-3" x1="30.56" y1="67.16" x2="30.56" y2="53.13"/><path class="cls-3" d="M32.83,43.23a21.59,21.59,0,0,1,2.93,10.09c0,2.59-.18,25.47-.18,25.47-3.53,0-5-1.74-5-1.74V67.16H26V53.1A10.57,10.57,0,0,1,32.83,43.23Z"/><path class="cls-15" d="M51.15,59.05c-.45.67-.87,1.34-2,1.34-1.67,0-2-1.78-2-2V53.1A10.57,10.57,0,0,0,41.89,44,14.45,14.45,0,0,0,40,51.18V78.79s3.55.35,4.17-1.3V62.05a6.22,6.22,0,0,0,5,2.56c2.71,0,4.27-1.42,5.63-3.46Z"/><path class="cls-16" d="M40.57,47A13.83,13.83,0,0,1,41.89,44a10.57,10.57,0,0,1,5.28,9.15v3.73A10.57,10.57,0,0,0,40.57,47Z"/><path class="cls-3" d="M51.15,59.05c-.45.67-.87,1.34-2,1.34-1.67,0-2-1.78-2-2V53.1A10.57,10.57,0,0,0,41.89,44,14.45,14.45,0,0,0,40,51.18V78.79s3.55.35,4.17-1.3V62.05a6.22,6.22,0,0,0,5,2.56c2.71,0,4.27-1.42,5.63-3.46Z"/><line class="cls-3" x1="44.15" y1="62.05" x2="44.15" y2="53.13"/><path class="cls-17" d="M29.68,45.12a10.53,10.53,0,0,1,3.15-1.89,21.47,21.47,0,0,1,2.93,10.09c0,1.11,0,6-.07,11.11L32.45,51.82l.39-2.89-1.94-.5Z"/><path class="cls-17" d="M44.56,46.15l-1,4.25-1.9.37.47,3.06-2.16,9V51.18A14.45,14.45,0,0,1,41.89,44,11.08,11.08,0,0,1,44.56,46.15Z"/><path class="cls-18" d="M33.61,43l.3-.08a1.05,1.05,0,0,0,.78-1V38.15H39V42a1,1,0,0,0,.73,1,13,13,0,0,1,1.35.53,3.76,3.76,0,0,1-7.52-.26C33.58,43.18,33.61,43.08,33.61,43Z"/><circle class="cls-10" cx="30.38" cy="25.92" r="3.95"/><circle class="cls-19" cx="36.59" cy="32.13" r="7.9"/><path class="cls-20" d="M29.48,34.1a7.9,7.9,0,0,1,14.76-3.92,7.9,7.9,0,1,0-15.31,3.9,7.48,7.48,0,0,0,.8,2A7.5,7.5,0,0,1,29.48,34.1Z"/><circle class="cls-3" cx="36.59" cy="32.13" r="7.9"/><path class="cls-14" d="M41.67,30.43c-1.21,0-1.62.57-2.26.57A21.62,21.62,0,0,0,36,30.43c-1,0-1.94,1.12-2.59,2.07a3,3,0,0,1-2.49,1.32v2.47l.14,0A6.78,6.78,0,0,0,44.49,35V32.69S42.87,30.43,41.67,30.43Z"/><path class="cls-3" d="M37.15,37.82a3,3,0,0,0,3.39,0"/><rect class="cls-21" x="33.2" y="32.69" width="5.08" height="3.39" rx="0.56"/><path class="cls-22" d="M33.76,32.69a.56.56,0,0,0-.56.57h0v2.25a.49.49,0,0,0,0,.12s0,0,0,0a.58.58,0,0,0,.54.4h.57l3.39-3.39Z"/><rect class="cls-21" x="40.54" y="32.69" width="5.08" height="3.39" rx="0.56"/><rect class="cls-3" x="33.2" y="32.69" width="5.08" height="3.39" rx="0.56"/><path class="cls-22" d="M41.1,32.69a.56.56,0,0,0-.56.57h0v2.25a.49.49,0,0,0,0,.12s0,0,0,0a.57.57,0,0,0,.54.4h.57l3.38-3.39Z"/><line class="cls-3" x1="38.28" y1="33.82" x2="40.54" y2="33.82"/><rect class="cls-3" x="40.54" y="32.69" width="5.08" height="3.39" rx="0.56"/><path class="cls-10" d="M32.63,32.13H31.51a1.13,1.13,0,0,1-.57-.15V42.85c0,2.26,2.82,4,2.82,4V31a1.13,1.13,0,0,1-1.12,1.13Z"/><path class="cls-23" d="M31.51,29.87h1.12A1.13,1.13,0,0,1,33.76,31h0a1.13,1.13,0,0,1-1.12,1.13H31.51A1.13,1.13,0,0,1,30.38,31h0A1.13,1.13,0,0,1,31.51,29.87Z"/><path class="cls-14" d="M55.82,59.37a2.11,2.11,0,0,0-3.65-2.1l-1,1.78,3.65,2.1Z"/></svg>