<svg xmlns="http://www.w3.org/2000/svg" viewBox="0 0 87.65 81"><defs><style>.cls-1{fill:#e8f4fa;stroke:#daedf7;}.cls-1,.cls-11,.cls-13,.cls-5,.cls-6,.cls-7{stroke-linecap:round;stroke-linejoin:round;}.cls-2{fill:#45413c;opacity:0.15;isolation:isolate;}.cls-13,.cls-3{fill:#fff;}.cls-4{fill:#daedf7;}.cls-5{fill:none;}.cls-11,.cls-13,.cls-5,.cls-6,.cls-7{stroke:#45413c;}.cls-6{fill:#f0f0f0;}.cls-7,.cls-8{fill:#ffda8f;}.cls-9{fill:#ffe9bd;}.cls-10{fill:#ffbe3d;}.cls-11{fill:#ffcebf;}.cls-12{fill:#ffdcd1;}.cls-14{fill:#bf8256;}.cls-15{fill:#915e3a;}</style></defs><title>Asset 44</title><g id="Layer_2" data-name="Layer 2"><g id="Ñëîé_1" data-name="Ñëîé 1"><circle class="cls-1" cx="40.5" cy="40.5" r="40"/><rect class="cls-2" x="13.15" y="13.41" width="74" height="30"/><rect class="cls-3" x="13.15" y="10.09" width="74" height="30"/><path class="cls-4" d="M85.15,10.09h-70a2,2,0,0,0-2,2h0v3h0a2,2,0,0,1,2-2h70a2,2,0,0,1,2,2v-3h0A2,2,0,0,0,85.15,10.09Z"/><rect class="cls-5" x="13.15" y="10.09" width="74" height="30"/><rect class="cls-6" x="15.65" y="12.59" width="5" height="2.5"/><rect class="cls-6" x="23.65" y="12.59" width="5" height="2.5"/><rect class="cls-6" x="30.65" y="12.59" width="5" height="2.5"/><rect class="cls-6" x="37.65" y="12.59" width="5" height="2.5"/><rect class="cls-6" x="44.65" y="12.59" width="5" height="2.5"/><rect class="cls-6" x="51.65" y="12.59" width="5" height="2.5"/><rect class="cls-6" x="58.65" y="12.59" width="5" height="2.5"/><rect class="cls-6" x="65.65" y="12.59" width="5" height="2.5"/><rect class="cls-6" x="72.65" y="12.59" width="5" height="2.5"/><rect class="cls-6" x="79.65" y="12.59" width="5" height="2.5"/><rect class="cls-6" x="15.65" y="17.59" width="5" height="3.5"/><rect class="cls-6" x="22.65" y="17.59" width="5" height="3.5"/><rect class="cls-6" x="29.65" y="17.59" width="5" height="3.5"/><rect class="cls-6" x="36.65" y="17.59" width="5" height="3.5"/><rect class="cls-6" x="43.65" y="17.59" width="5" height="3.5"/><rect class="cls-6" x="50.65" y="17.59" width="5" height="3.5"/><rect class="cls-6" x="57.65" y="17.59" width="5" height="3.5"/><rect class="cls-6" x="64.65" y="17.59" width="5" height="3.5"/><rect class="cls-6" x="71.65" y="17.59" width="5" height="3.5"/><rect class="cls-6" x="78.65" y="17.59" width="6" height="3.5"/><rect class="cls-6" x="15.65" y="23.09" width="6.5" height="3.5"/><rect class="cls-6" x="24.15" y="23.09" width="5" height="3.5"/><rect class="cls-6" x="31.15" y="23.09" width="5" height="3.5"/><rect class="cls-6" x="38.15" y="23.09" width="5" height="3.5"/><rect class="cls-6" x="45.15" y="23.09" width="5" height="3.5"/><rect class="cls-6" x="52.15" y="23.09" width="5" height="3.5"/><rect class="cls-6" x="59.15" y="23.09" width="5" height="3.5"/><rect class="cls-6" x="66.15" y="23.09" width="5" height="3.5"/><rect class="cls-6" x="73.15" y="23.09" width="5" height="3.5"/><path class="cls-6" d="M76.65,32.09h0a1,1,0,0,1-1-1h0v-1.5h0a1,1,0,0,1,1-1h2.54a1,1,0,0,0,1-1h0l0-3.49h0a1,1,0,0,1,1-1h2.5a1,1,0,0,1,1,1v7h0a1,1,0,0,1-1,1Z"/><rect class="cls-6" x="15.65" y="28.59" width="9" height="3.5"/><rect class="cls-6" x="26.65" y="28.59" width="5" height="3.5"/><rect class="cls-6" x="33.65" y="28.59" width="5" height="3.5"/><rect class="cls-6" x="40.65" y="28.59" width="5" height="3.5"/><rect class="cls-6" x="47.65" y="28.59" width="5" height="3.5"/><rect class="cls-6" x="54.65" y="28.59" width="5" height="3.5"/><rect class="cls-6" x="61.65" y="28.59" width="5" height="3.5"/><rect class="cls-6" x="68.65" y="28.59" width="5" height="3.5"/><rect class="cls-6" x="15.65" y="34.09" width="5" height="3.5"/><rect class="cls-6" x="22.65" y="34.09" width="5" height="3.5"/><rect class="cls-6" x="29.65" y="34.09" width="33" height="3.5"/><rect class="cls-6" x="64.65" y="34.09" width="5" height="3.5"/><rect class="cls-6" x="71.65" y="34.09" width="5" height="3.5"/><rect class="cls-6" x="78.65" y="34.09" width="5" height="3.5"/><path class="cls-7" d="M29.88,69.1h0a2.23,2.23,0,0,0,1.53-1.51h0A17.82,17.82,0,0,0,30.48,56h0a2.24,2.24,0,0,0-4.08,1.85h0a13.25,13.25,0,0,1,.72,8.47h0a2.24,2.24,0,0,0,1.5,2.79,2.34,2.34,0,0,0,1.26,0Z"/><path class="cls-7" d="M34.31,68.27h0a2.25,2.25,0,0,0,1.53-1.51h0a17.76,17.76,0,0,0-.94-11.61h0A2.24,2.24,0,0,0,30.83,57h0a13.22,13.22,0,0,1,.72,8.46h0a2.24,2.24,0,0,0,1.51,2.79,2.22,2.22,0,0,0,1.25,0Z"/><path class="cls-7" d="M38.49,67.59h0A2.25,2.25,0,0,0,40,66.08h0a17.79,17.79,0,0,0-.94-11.62h0A2.25,2.25,0,0,0,35,56.27l0,0h0a13.19,13.19,0,0,1,.72,8.47h0a2.24,2.24,0,0,0,2.77,2.79Z"/><path class="cls-8" d="M42.23,50,40,48.56h0a15.91,15.91,0,0,0-12.16-1.84c-11.76,2.52-18.29,20-19.76,28.87l0,.22,12.27,2.47.13-1.45c.7-6.42,3.9-6,6.72-8.74,4.47-4.73,6.2-6.62,11.91-13.11.57-.94.63-1.23,1.2-1h0a2.24,2.24,0,0,0,1.93-4Z"/><path class="cls-9" d="M42.23,50,40,48.56h0a15.91,15.91,0,0,0-12.16-1.84c-11.76,2.52-18.29,20-19.76,28.87l0,.22,3,.6C12.7,67.34,18.55,51.24,29,49.05h0a14.77,14.77,0,0,1,11.4,2.64l2.07,1.43h0l.21.18h0a2,2,0,0,0,.11-2.89,1.92,1.92,0,0,0-.56-.42Z"/><path class="cls-10" d="M36.14,51.55l-6.2,4.82c-.08.06-.18.12-.26.19h0a14.88,14.88,0,0,1-4.46,2.21l-.25.07c-.63.18-.61-.24-.67-.77.53-3.94,2.64-6.22,5.4-7h0A10.17,10.17,0,0,1,36.14,51.55Z"/><path class="cls-5" d="M20.34,78.27l.13-1.45c.7-6.41,3.9-6,6.73-8.73,4.46-4.74,6.18-6.62,11.9-13.12.57-.93.62-1.22,1.21-1h0a2.24,2.24,0,0,0,1.92-4L40,48.56h0a15.86,15.86,0,0,0-12.14-1.84c-11.76,2.52-18.3,20-19.78,28.87l0,.22M29.94,56.37a2.48,2.48,0,0,0-.26.19h0a14.88,14.88,0,0,1-4.46,2.21l-.25.07c-.63.18-.61-.24-.68-.77.54-3.94,2.65-6.22,5.41-7h0a10.17,10.17,0,0,1,6.44.49Z"/><path class="cls-11" d="M24.3,58.07h0a.56.56,0,0,0,.27.74.53.53,0,0,0,.39,0h0l.25-.07h0a14.39,14.39,0,0,0,4.73-2.4l6.59-5.12h0a2.24,2.24,0,0,1,3.52,1.16h0a2.58,2.58,0,0,1-.79,2.39c-5.76,6.55-7.5,8.45-11.87,13.08"/><path class="cls-12" d="M24.91,58.87h0a18.62,18.62,0,0,0,5-2.5l6.59-5.12h0a2.22,2.22,0,0,1,2.74,0C35.22,56.13,28.32,62.5,24.91,58.87Z"/><path class="cls-5" d="M24.3,58.07h0a.56.56,0,0,0,.27.74.53.53,0,0,0,.39,0h0l.25-.07h0a14.39,14.39,0,0,0,4.73-2.4l6.59-5.12h0a2.24,2.24,0,0,1,3.52,1.16h0a2.58,2.58,0,0,1-.79,2.39c-5.76,6.55-7.5,8.45-11.87,13.08"/><path class="cls-2" d="M50.47,39.4h0a11.75,11.75,0,0,0-7.35,13h0a12,12,0,0,0,1.62,4.21h0a11.74,11.74,0,1,0,5.73-17.2Z"/><path class="cls-4" d="M45.6,49l-6.32,2.44h0A2.25,2.25,0,0,0,38,54.37h0a2.25,2.25,0,0,0,2.92,1.3h0l6.32-2.43Z"/><path class="cls-13" d="M45.6,49l-6.32,2.44h0A2.25,2.25,0,0,0,38,54.37h0a2.25,2.25,0,0,0,2.92,1.3h0l6.32-2.43Z"/><path class="cls-13" d="M51,36.77h0a11.75,11.75,0,0,0-7.34,13h0A11.7,11.7,0,0,0,45.32,54h0A11.74,11.74,0,1,0,51,36.77Z"/><circle class="cls-14" cx="55.26" cy="47.72" r="8.39"/><path class="cls-15" d="M56.39,54.72h0a8.39,8.39,0,0,0,1.3-15h0a8.39,8.39,0,1,1-6.75,15.22h0A8.35,8.35,0,0,0,56.39,54.72Z"/><circle class="cls-5" cx="55.26" cy="47.72" r="8.39"/><path class="cls-7" d="M24.3,58.07h0a.56.56,0,0,0,.27.74.53.53,0,0,0,.39,0h0l.25-.07h0a14.39,14.39,0,0,0,4.73-2.4l6.59-5.12h0a2.24,2.24,0,0,1,3.52,1.16h0a2.58,2.58,0,0,1-.79,2.39c-5.76,6.55-7.5,8.45-11.87,13.08"/><path class="cls-9" d="M24.91,58.87h0a18.62,18.62,0,0,0,5-2.5l6.59-5.12h0a2.22,2.22,0,0,1,2.74,0C35.22,56.13,28.32,62.5,24.91,58.87Z"/><path class="cls-5" d="M24.3,58.07h0a.56.56,0,0,0,.27.74.53.53,0,0,0,.39,0h0l.25-.07h0a14.39,14.39,0,0,0,4.73-2.4l6.59-5.12h0a2.24,2.24,0,0,1,3.52,1.16h0a2.58,2.58,0,0,1-.79,2.39c-5.76,6.55-7.5,8.45-11.87,13.08"/></g></g></svg>