<svg id="who_are_we" data-name="who are we" xmlns="http://www.w3.org/2000/svg" viewBox="0 0 112.12 112.12"><defs><style>.cls-1{fill:#e8f4fa;stroke:#e8f4fa;}.cls-1,.cls-11,.cls-13,.cls-5,.cls-6,.cls-7{stroke-linecap:round;stroke-linejoin:round;}.cls-2{fill:#45413c;opacity:0.15;isolation:isolate;}.cls-13,.cls-3{fill:#fff;}.cls-4{fill:#daedf7;}.cls-5{fill:none;}.cls-11,.cls-13,.cls-5,.cls-6,.cls-7{stroke:#45413c;}.cls-6{fill:#f0f0f0;}.cls-7,.cls-8{fill:#ffda8f;}.cls-9{fill:#ffe9bd;}.cls-10{fill:#ffbe3d;}.cls-11{fill:#ffcebf;}.cls-12{fill:#ffdcd1;}.cls-14{fill:#bf8256;}.cls-15{fill:#915e3a;}</style></defs><title>whoAreWe</title><g id="keyboard"><circle class="cls-1" cx="56.56" cy="56.4" r="40"/><rect class="cls-2" x="29.21" y="29.3" width="74" height="30"/><rect class="cls-3" x="29.21" y="25.99" width="74" height="30"/><path class="cls-4" d="M101.21,26h-70a2,2,0,0,0-2,2h0v3h0a2,2,0,0,1,2-2h70a2,2,0,0,1,2,2V28h0A2,2,0,0,0,101.21,26Z"/><rect class="cls-5" x="29.21" y="25.99" width="74" height="30"/><rect class="cls-6" x="31.71" y="28.49" width="5" height="2.5"/><rect class="cls-6" x="39.71" y="28.49" width="5" height="2.5"/><rect class="cls-6" x="46.71" y="28.49" width="5" height="2.5"/><rect class="cls-6" x="53.71" y="28.49" width="5" height="2.5"/><rect class="cls-6" x="60.71" y="28.49" width="5" height="2.5"/><rect class="cls-6" x="67.71" y="28.49" width="5" height="2.5"/><rect class="cls-6" x="74.71" y="28.49" width="5" height="2.5"/><rect class="cls-6" x="81.71" y="28.49" width="5" height="2.5"/><rect class="cls-6" x="88.71" y="28.49" width="5" height="2.5"/><rect class="cls-6" x="95.71" y="28.49" width="5" height="2.5"/><rect class="cls-6" x="31.71" y="33.49" width="5" height="3.5"/><rect class="cls-6" x="38.71" y="33.49" width="5" height="3.5"/><rect class="cls-6" x="45.71" y="33.49" width="5" height="3.5"/><rect class="cls-6" x="52.71" y="33.49" width="5" height="3.5"/><rect class="cls-6" x="59.71" y="33.49" width="5" height="3.5"/><rect class="cls-6" x="66.71" y="33.49" width="5" height="3.5"/><rect class="cls-6" x="73.71" y="33.49" width="5" height="3.5"/><rect class="cls-6" x="80.71" y="33.49" width="5" height="3.5"/><rect class="cls-6" x="87.71" y="33.49" width="5" height="3.5"/><rect class="cls-6" x="94.71" y="33.49" width="6" height="3.5"/><rect class="cls-6" x="31.71" y="38.99" width="6.5" height="3.5"/><rect class="cls-6" x="40.21" y="38.99" width="5" height="3.5"/><rect class="cls-6" x="47.21" y="38.99" width="5" height="3.5"/><rect class="cls-6" x="54.21" y="38.99" width="5" height="3.5"/><rect class="cls-6" x="61.21" y="38.99" width="5" height="3.5"/><rect class="cls-6" x="68.21" y="38.99" width="5" height="3.5"/><rect class="cls-6" x="75.21" y="38.99" width="5" height="3.5"/><rect class="cls-6" x="82.21" y="38.99" width="5" height="3.5"/><rect class="cls-6" x="89.21" y="38.99" width="5" height="3.5"/><path class="cls-6" d="M92.71,48h0a1,1,0,0,1-1-1h0v-1.5h0a1,1,0,0,1,1-1h2.54a1,1,0,0,0,1-1h0l0-3.49h0a1,1,0,0,1,1-1h2.5a1,1,0,0,1,1,1v7h0a1,1,0,0,1-1,1Z"/><rect class="cls-6" x="31.71" y="44.49" width="9" height="3.5"/><rect class="cls-6" x="42.71" y="44.49" width="5" height="3.5"/><rect class="cls-6" x="49.71" y="44.49" width="5" height="3.5"/><rect class="cls-6" x="56.71" y="44.49" width="5" height="3.5"/><rect class="cls-6" x="63.71" y="44.49" width="5" height="3.5"/><rect class="cls-6" x="70.71" y="44.49" width="5" height="3.5"/><rect class="cls-6" x="77.71" y="44.49" width="5" height="3.5"/><rect class="cls-6" x="84.71" y="44.49" width="5" height="3.5"/><rect class="cls-6" x="31.71" y="49.99" width="5" height="3.5"/><rect class="cls-6" x="38.71" y="49.99" width="5" height="3.5"/><rect class="cls-6" x="45.71" y="49.99" width="33" height="3.5"/><rect class="cls-6" x="80.71" y="49.99" width="5" height="3.5"/><rect class="cls-6" x="87.71" y="49.99" width="5" height="3.5"/><rect class="cls-6" x="94.71" y="49.99" width="5" height="3.5"/><path class="cls-7" d="M45.94,85h0a2.25,2.25,0,0,0,1.53-1.51h0a17.85,17.85,0,0,0-.93-11.62h0a2.24,2.24,0,0,0-4.08,1.86h0a13.22,13.22,0,0,1,.72,8.46h0A2.23,2.23,0,0,0,44.68,85a2.16,2.16,0,0,0,1.26,0Z"/><path class="cls-7" d="M50.37,84.17h0a2.25,2.25,0,0,0,1.53-1.51h0A17.79,17.79,0,0,0,51,71h0a2.24,2.24,0,0,0-4.07,1.86h0a13.23,13.23,0,0,1,.72,8.46h0a2.25,2.25,0,0,0,1.51,2.8,2.22,2.22,0,0,0,1.25,0Z"/><path class="cls-7" d="M54.54,83.48h0A2.25,2.25,0,0,0,56.08,82h0a17.77,17.77,0,0,0-.94-11.61h0A2.24,2.24,0,0,0,51,72.16l0,.06h0a13.16,13.16,0,0,1,.72,8.46h0a2.24,2.24,0,0,0,1.51,2.79,2.22,2.22,0,0,0,1.25,0Z"/><path class="cls-8" d="M58.29,65.88,56.1,64.45h0a15.86,15.86,0,0,0-12.16-1.83c-11.76,2.51-18.29,20-19.76,28.87l-.05.22L36.4,94.17l.13-1.45c.7-6.42,3.9-6,6.72-8.74,4.47-4.72,6.2-6.62,11.91-13.11.56-.94.63-1.22,1.2-1h0a2.24,2.24,0,0,0,1.93-4Z"/><path class="cls-9" d="M58.29,65.88,56.1,64.45h0a15.86,15.86,0,0,0-12.16-1.83c-11.76,2.51-18.29,20-19.76,28.87l-.05.22,3,.6c1.65-9.07,7.5-25.17,17.94-27.37h0a14.81,14.81,0,0,1,11.4,2.64L58.52,69h0a1.18,1.18,0,0,1,.21.18h0a2,2,0,0,0,.1-2.9,1.91,1.91,0,0,0-.55-.42Z"/><path class="cls-10" d="M52.2,67.45,46,72.26c-.08.07-.18.13-.26.19h0a14.42,14.42,0,0,1-4.46,2.21l-.25.08c-.63.18-.61-.24-.68-.78.54-3.93,2.65-6.21,5.41-7h0A10.17,10.17,0,0,1,52.2,67.45Z"/><path class="cls-5" d="M36.4,94.17l.13-1.45c.7-6.42,3.9-6,6.73-8.74,4.46-4.73,6.18-6.62,11.9-13.12.56-.92.62-1.21,1.2-1h0a2.24,2.24,0,0,0,1.93-4l-2.2-1.42h0A15.87,15.87,0,0,0,44,62.61c-11.76,2.52-18.3,20-19.78,28.88l-.05.21M46,72.26a2.48,2.48,0,0,1-.26.19h0a14.26,14.26,0,0,1-4.45,2.21l-.25.08c-.63.18-.61-.24-.68-.78.54-3.93,2.65-6.21,5.41-7h0a10.17,10.17,0,0,1,6.44.49Z"/><path class="cls-11" d="M40.36,74h0a.56.56,0,0,0,.27.75.65.65,0,0,0,.39,0h0l.25-.07h0A14.63,14.63,0,0,0,46,72.27l6.6-5.13h0a2.24,2.24,0,0,1,3.14.41,2.41,2.41,0,0,1,.38.75h0a2.6,2.6,0,0,1-.79,2.4c-5.77,6.54-7.5,8.45-11.87,13.08"/><path class="cls-12" d="M41,74.77h0a18.92,18.92,0,0,0,5-2.5l6.59-5.13h0a2.22,2.22,0,0,1,2.74,0C51.28,72,44.37,78.4,41,74.77Z"/><path class="cls-5" d="M40.36,74h0a.56.56,0,0,0,.27.75.65.65,0,0,0,.39,0h0l.25-.07h0A14.63,14.63,0,0,0,46,72.27l6.6-5.13h0a2.24,2.24,0,0,1,3.14.41,2.41,2.41,0,0,1,.38.75h0a2.6,2.6,0,0,1-.79,2.4c-5.77,6.54-7.5,8.45-11.87,13.08"/><path class="cls-2" d="M66.52,55.3h0a11.75,11.75,0,0,0-7.34,13h0A12.05,12.05,0,0,0,60.8,72.5h0a11.74,11.74,0,1,0,5.72-17.2Z"/><path class="cls-4" d="M61.66,64.92l-6.32,2.43h0A2.26,2.26,0,0,0,54,70.27h0A2.26,2.26,0,0,0,57,71.57h0l6.32-2.44Z"/><path class="cls-13" d="M61.66,64.92l-6.32,2.43h0A2.26,2.26,0,0,0,54,70.27h0A2.26,2.26,0,0,0,57,71.57h0l6.32-2.44Z"/><path class="cls-13" d="M67.1,52.66h0a11.74,11.74,0,0,0-7.34,13h0a11.56,11.56,0,0,0,1.62,4.21h0a11.74,11.74,0,1,0,5.72-17.2Z"/><circle class="cls-14" cx="71.32" cy="63.62" r="8.39"/><path class="cls-15" d="M72.45,70.61h0a8.39,8.39,0,0,0,1.3-15h0A8.39,8.39,0,1,1,67,70.81h0A8.35,8.35,0,0,0,72.45,70.61Z"/><circle class="cls-5" cx="71.32" cy="63.62" r="8.39"/><path class="cls-7" d="M40.36,74h0a.56.56,0,0,0,.27.75.65.65,0,0,0,.39,0h0l.25-.07h0A14.63,14.63,0,0,0,46,72.27l6.6-5.13h0a2.24,2.24,0,0,1,3.14.41,2.41,2.41,0,0,1,.38.75h0a2.6,2.6,0,0,1-.79,2.4c-5.77,6.54-7.5,8.45-11.87,13.08"/><path class="cls-9" d="M41,74.77h0a18.92,18.92,0,0,0,5-2.5l6.59-5.13h0a2.22,2.22,0,0,1,2.74,0C51.28,72,44.37,78.4,41,74.77Z"/><path class="cls-5" d="M40.36,74h0a.56.56,0,0,0,.27.75.65.65,0,0,0,.39,0h0l.25-.07h0A14.63,14.63,0,0,0,46,72.27l6.6-5.13h0a2.24,2.24,0,0,1,3.14.41,2.41,2.41,0,0,1,.38.75h0a2.6,2.6,0,0,1-.79,2.4c-5.77,6.54-7.5,8.45-11.87,13.08"/></g></svg>